<?xml version="1.0" encoding="UTF-8" standalone="no"?>
<svg
   xmlns:dc="http://purl.org/dc/elements/1.1/"
   xmlns:cc="http://creativecommons.org/ns#"
   xmlns:rdf="http://www.w3.org/1999/02/22-rdf-syntax-ns#"
   xmlns:svg="http://www.w3.org/2000/svg"
   xmlns="http://www.w3.org/2000/svg"
   xmlns:sodipodi="http://sodipodi.sourceforge.net/DTD/sodipodi-0.dtd"
   xmlns:inkscape="http://www.inkscape.org/namespaces/inkscape"
   width="827.95526pt"
   height="360.3421pt"
   viewBox="0 0 827.95525 360.34208"
   version="1.2"
   id="svg945"
   sodipodi:docname="KeyOfSummer_White.ai"
   inkscape:version="0.92.3 (2405546, 2018-03-11)">
  <metadata
     id="metadata951">
    <rdf:RDF>
      <cc:Work
         rdf:about="">
        <dc:format>image/svg+xml</dc:format>
        <dc:type
           rdf:resource="http://purl.org/dc/dcmitype/StillImage" />
        <dc:title></dc:title>
      </cc:Work>
    </rdf:RDF>
  </metadata>
  <defs
     id="defs949" />
  <sodipodi:namedview
     pagecolor="#ffffff"
     bordercolor="#666666"
     borderopacity="1"
     objecttolerance="10"
     gridtolerance="10"
     guidetolerance="10"
     inkscape:pageopacity="0"
     inkscape:pageshadow="2"
     inkscape:window-width="3840"
     inkscape:window-height="2035"
     id="namedview947"
     showgrid="false"
     fit-margin-top="0"
     fit-margin-left="0"
     fit-margin-right="0"
     fit-margin-bottom="0"
     inkscape:zoom="1.4557172"
     inkscape:cx="427.11603"
     inkscape:cy="-32.443045"
     inkscape:window-x="-13"
     inkscape:window-y="-13"
     inkscape:window-maximized="1"
     inkscape:current-layer="surface106496" />
  <g
     id="surface106496"
     style="fill:#ff0000"
     transform="translate(-6.6182293,-82.143465)">
    <path
       style="fill:#ffffff;fill-opacity:1;fill-rule:nonzero;stroke:none"
       d="m 153.28516,235.64844 c 4.39843,0 8.79687,-0.0312 13.19531,0.0156 1.38281,0.0156 1.98437,-0.48828 1.94922,-1.91015 -0.16407,-7.07422 0.32422,-14.15625 -0.78125,-21.21094 -3.25,-20.69922 -14.82813,-33.35547 -35.66797,-39.05469 -11.67188,-3.19141 -23.75391,-3.14844 -35.546876,-0.12109 -15.269531,3.92187 -27.320313,12.25781 -34.28125,26.86718 -3.195313,6.70313 -4.601563,13.85938 -4.90625,21.26563 -0.457031,11.15234 2.285156,21.30078 9.347656,30.08594 6.820313,8.48828 15.578125,14.38672 25.605469,18.39062 6.570312,2.6211 13.281251,4.89844 19.914061,7.36328 5.49219,2.04297 11.03906,3.98047 15.88281,7.41016 6.83594,4.83984 10.72266,11.20703 10.39453,19.82812 -0.10937,2.9336 -0.30859,5.84375 -0.82812,8.73829 -1.62891,9.0625 -8.33594,15.86718 -17.34766,17.68359 -4.49218,0.90234 -9.01953,0.90625 -13.5,0.40234 -10.320309,-1.16406 -15.968746,-6.32031 -18.492184,-16.46875 -0.859375,-3.44922 -1.300781,-6.95312 -1.308593,-10.51172 -0.0039,-3.66406 -0.05859,-7.33203 0.0039,-10.99609 0.02344,-1.55469 -0.527344,-2.16016 -2.125,-2.14844 -8.429688,0.0508 -16.859375,0.0586 -25.292969,-0.008 -1.730469,-0.0117 -2.394531,0.57422 -2.390625,2.32031 0.02344,7.69532 -0.207031,15.41016 1.261719,23.01172 3.183594,16.5 12.269531,28.41016 28.207031,34.17969 16.480461,5.97266 33.355461,6.23437 49.929681,0.44922 15.125,-5.28125 25.23828,-15.84375 29.90235,-31.34766 1.66796,-5.55469 2.10156,-11.2539 2.00781,-17.02734 -0.14844,-9.63672 -3.19141,-18.2461 -9.32031,-25.65235 -6.91797,-8.35937 -15.58985,-14.38671 -25.72657,-18.20312 -8.67968,-3.26953 -17.48046,-6.20313 -26.16015,-9.46875 -5.3086,-2 -10.05078,-5 -13.964842,-9.1875 -4.195313,-4.48047 -6.292969,-9.77344 -6.355469,-15.92969 -0.03125,-2.95312 0.3125,-5.87109 0.832031,-8.73828 1.617188,-8.95703 7.835938,-18.75 19.82422,-20.26953 4.48828,-0.57031 9.01562,-0.44141 13.51171,0.28906 7.28516,1.17969 12.17188,5.29688 14.90235,12.06641 1.42968,3.53906 2.19531,7.24609 2.28515,11.05859 0.10938,4.76563 0.16797,9.53125 0.10547,14.29297 -0.0234,1.85547 0.51172,2.625 2.47266,2.57422 4.15234,-0.11328 8.30859,-0.0352 12.46094,-0.0391 m 58.6289,8.04687 c 0,16.375 0.004,32.75 -0.004,49.1211 -0.004,6.72265 -0.17188,13.45312 0.38281,20.15234 1.6914,20.51953 12.51172,33.95312 32.34765,39.75391 12.875,3.76562 26.21094,3.69921 39.10547,-0.0234 15.71485,-4.53906 26.70703,-14.38672 30.78907,-30.82031 1.15234,-4.64063 1.79296,-9.35547 1.79296,-14.14063 0.0156,-44.35547 0.0195,-88.71094 0.0156,-133.06641 0,-3.29296 -0.0352,-3.32031 -3.52734,-3.32812 -7.33204,-0.0195 -14.66407,0.004 -21.9961,-0.0117 -4.99609,-0.0117 -4.29687,0.0234 -4.30078,4.41016 -0.0117,42.52343 -0.004,85.04297 -0.0117,127.5664 -0.004,2.92969 -0.004,5.8711 -0.20703,8.79297 -0.30078,4.31641 -1.44531,8.41016 -3.84375,12.08594 -2.46094,3.77344 -5.85156,6.17969 -10.33594,6.89844 -5.34765,0.85156 -10.70703,0.85937 -16.04687,-0.0117 -4.48828,-0.73438 -7.84766,-3.17969 -10.29688,-6.96485 -1.82422,-2.8125 -2.91015,-5.88671 -3.44922,-9.18359 -0.59375,-3.63281 -0.68359,-7.28906 -0.68359,-10.95703 0.0156,-42.15625 0.0117,-84.3125 0.0117,-126.46875 0,-6.16406 0,-6.16406 -6.15625,-6.16406 -6.96484,0 -13.92969,-0.0234 -20.89453,0.0156 -2.59375,0.0156 -2.59766,0.082 -2.6875,2.69531 -0.0273,0.85547 -0.004,1.71094 -0.004,2.56641 0,22.36328 0,44.72266 0,67.08203 M 186.5625,365.37109 c -47.90234,0 -95.804687,-0.0273 -143.707031,0.0742 -2.941406,0.004 -4.589844,-0.95703 -6.160156,-3.34375 C 21.546875,339.08203 11.980469,314 8.285156,286.66406 -3.863281,196.85156 51.640625,115.26172 134.00781,90.035156 154.78906,83.671875 176.05469,81.140625 197.69531,82.5 c 82.60547,5.1875 149.38672,64.78516 165.375,143.28516 9.91797,48.6914 0.89844,94.14453 -26.08203,135.98046 -1.69922,2.63282 -3.45703,3.70313 -6.71875,3.69532 -47.90234,-0.12891 -95.80469,-0.0899 -143.70703,-0.0899"
       id="path908"
       inkscape:connector-curvature="0" />
    <path
       style="fill:#ffffff;fill-opacity:1;fill-rule:nonzero;stroke:none"
       d="m 440.31641,299.19531 c 0.9375,-1.35156 1.16015,-2.65234 1.51562,-3.88281 11.47266,-39.875 22.92188,-79.75781 34.42188,-119.625 1.40234,-4.85938 0.20703,-4.41797 5.80078,-4.44141 4.64062,-0.0156 9.28515,-0.0352 13.92968,0.0117 2.67969,0.0273 2.6836,0.0859 2.78516,2.625 0.0273,0.60938 0.004,1.22266 0.004,1.83203 0,58.28907 0.004,116.57422 0,174.85938 -0.004,5.1289 0.38281,4.4375 -4.55469,4.46484 -5.49609,0.0312 -10.99609,0.0312 -16.49609,-0.004 -2.79688,-0.0156 -2.84766,-0.0586 -2.85547,-2.83204 -0.0234,-9.04296 -0.0117,-18.08593 -0.0117,-27.1289 0,-17.71485 0.004,-35.4336 -0.0117,-53.15235 0,-0.67187 0.22656,-1.40234 -0.32813,-2.1289 -1.00781,1.03906 -1.10546,2.39844 -1.46093,3.625 -7.5,25.65234 -14.96094,51.3164 -22.48438,76.96484 -1.60547,5.48047 -0.5039,4.58594 -5.99219,4.65625 -3.42187,0.043 -6.84375,0.0156 -10.26562,0.008 -3.31641,-0.0117 -3.32422,-0.0195 -4.22656,-3.10156 -3.66407,-12.53125 -7.32422,-25.0664 -10.98047,-37.60156 -3.9961,-13.71094 -7.96094,-27.42969 -11.9961,-41.125 -0.39062,-1.32031 -0.45703,-2.85547 -1.85546,-4.125 v 4.24609 c 0,25.90625 0.004,51.8086 0,77.71485 0,4.42187 0.2539,3.98047 -3.90235,3.98828 -5.74219,0.0156 -11.48828,-0.0508 -17.23047,0.0351 -1.82031,0.0274 -2.78906,-0.44921 -2.5664,-2.4414 0.082,-0.72266 0.0117,-1.46485 0.0117,-2.19531 0,-58.16407 0,-116.32813 0,-174.49219 0,-0.36719 0,-0.73438 0,-1.10156 0.0234,-3.57813 0.0234,-3.58985 3.58593,-3.60157 4.64063,-0.0117 9.28516,-0.0117 13.92969,0 3.23047,0.0117 3.25781,0.0195 4.19141,3.19922 6.46484,22.01563 12.92578,44.03125 19.375,66.04688 5.42187,18.5039 10.83203,37.01562 16.25,55.51953 0.29297,1 0.50781,2.04297 1.41797,3.18359"
       id="path910"
       inkscape:connector-curvature="0" />
    <path
       style="fill:#ffffff;fill-opacity:1;fill-rule:nonzero;stroke:none"
       d="m 576.40625,300.41016 c 1.67969,-5.71485 3.16797,-10.69141 4.60547,-15.6875 10.52344,-36.59766 21.03515,-73.19532 31.55469,-109.79688 0.20312,-0.70312 0.45703,-1.39453 0.61328,-2.10937 0.24609,-1.14844 0.93359,-1.58204 2.08203,-1.57813 5.86719,0.0273 11.73437,0.0391 17.59765,0 1.45704,-0.008 1.96875,0.64844 1.89454,2.00391 -0.0391,0.73047 -0.004,1.46484 -0.004,2.19922 0,58.41406 0.004,116.83203 -0.004,175.25 0,4.89843 0.44141,4.32812 -4.26562,4.35156 -5.5,0.0234 -11,0.0234 -16.5,-0.004 -2.84375,-0.0156 -2.88281,-0.0508 -2.91016,-2.77734 -0.0391,-3.78906 -0.0117,-7.57813 -0.0117,-11.36328 V 269.8125 c -1.39062,0.24219 -1.21093,1.26953 -1.42578,2.00781 -7.78125,26.59375 -15.55078,53.1875 -23.32031,79.78125 -1.20703,4.13672 -0.78125,3.38281 -4.69531,3.4336 -3.54297,0.0508 -7.08594,0.0156 -10.62891,0.0117 -4.60156,-0.008 -3.78906,0.29297 -4.96094,-3.62109 -2.59765,-8.65234 -5.0664,-17.33984 -7.59765,-26.01172 -5.09375,-17.45703 -10.19141,-34.91406 -15.29688,-52.36719 -0.32422,-1.10937 -0.74609,-2.1875 -1.27344,-3.71875 -0.60156,1.84375 -0.38671,3.17188 -0.38671,4.47266 -0.0156,25.53906 -0.0117,51.08203 -0.0117,76.625 0,0.85547 -0.0586,1.71484 0.008,2.56641 0.13281,1.64843 -0.69922,2.07812 -2.19922,2.07031 -6.47656,-0.043 -12.95312,-0.0625 -19.42969,0.0117 -1.75,0.0195 -2.49218,-0.59375 -2.32422,-2.33985 0.0664,-0.72656 0.008,-1.46484 0.008,-2.19921 0,-58.29297 0,-116.58985 0.004,-174.88282 0,-4.78125 -0.45312,-4.39843 4.26172,-4.40625 4.51953,-0.008 9.04297,-0.0156 13.5625,0.004 3.07422,0.0117 3.08985,0.0273 3.96094,3.00391 4.91016,16.75 9.80859,33.5 14.72656,50.25 7.00781,23.89062 14.02735,47.78125 21.04688,71.67187 0.33984,1.16016 0.71875,2.3125 1.32031,4.23438"
       id="path912"
       inkscape:connector-curvature="0" />
    <path
       style="fill:#ffffff;fill-opacity:1;fill-rule:nonzero;stroke:none"
       d="M 46.054688,374.26172 H 327.77344 c -11.44141,14.52734 -24.4375,26.51172 -39.17578,36.62109 -27.42579,18.8086 -57.8125,29.27344 -90.96875,31.26953 -66.64063,4.01953 -122.082035,-28.89843 -151.574222,-67.89062"
       id="path914"
       inkscape:connector-curvature="0" />
    <path
       style="fill:#ffffff;fill-opacity:1;fill-rule:nonzero;stroke:none"
       d="m 771.68359,223.64844 c 0,8.66797 -0.0156,17.33593 0.008,26.0039 0.008,2.9336 0.0508,2.98828 3.05859,2.97657 5.73828,-0.0195 11.47656,0.0117 17.20703,-0.19532 7.69531,-0.27734 13.83203,-4.23828 15.97656,-12.53515 2.80469,-10.85157 2.73828,-21.71485 0.12891,-32.58203 -1.60938,-6.69922 -5.96094,-10.32032 -12.69922,-11.45313 -6.92578,-1.16406 -13.88672,-0.48437 -20.82812,-0.65625 -2.78125,-0.0664 -2.83204,0.043 -2.83985,2.80469 -0.0273,8.54687 -0.0117,17.08984 -0.0117,25.63672 m -23.95312,39.20312 c 0,-29.19531 0,-58.39453 0.004,-87.58984 0,-4.15625 -0.42187,-4.02344 3.91016,-4.01953 11.60547,0.008 23.21094,-0.0352 34.81641,0.0234 5.3789,0.0273 10.71875,0.54688 15.96093,1.89454 14.19922,3.64843 23.40625,12.58593 27.94532,26.41406 2.89062,8.80859 3.60156,17.92187 3.33203,27.125 -0.15625,5.25 -0.66016,10.46484 -1.75,15.625 -1.65235,7.80078 -4.85938,14.83984 -10.03125,20.90625 -1.17188,1.37109 -1.38281,2.14453 -0.0547,3.54297 8.97656,9.46093 12.58203,21.01172 12.65625,33.79297 0.0977,17.10156 0.0352,34.20312 0.0234,51.30468 -0.004,3.14063 -0.0469,3.16016 -3.27344,3.17188 -5.86328,0.0156 -11.73047,0.0156 -17.59375,0 -3.38672,-0.008 -3.41406,-0.0234 -3.41797,-3.38672 -0.0117,-16.00391 0.004,-32.00781 -0.0156,-48.01172 0,-2.32031 -0.0391,-4.64453 -0.20703,-6.95703 -0.875,-12.13672 -7.94141,-19.24219 -20.15235,-19.96875 -5.35937,-0.31641 -10.75,-0.0625 -16.12109,-0.15625 -1.61719,-0.0273 -2.20313,0.62109 -2.08594,2.16016 0.0625,0.84765 0.008,1.70703 0.008,2.5625 0,23.08984 0,46.17968 0,69.26953 0,0.85156 -0.043,1.71093 0,2.5625 0.0781,1.40625 -0.5625,1.94531 -1.94922,1.9414 -6.71875,-0.0351 -13.4375,-0.0351 -20.15625,-0.004 -1.47656,0.004 -1.91406,-0.72657 -1.85156,-2.04688 0.0391,-0.85156 0.004,-1.71094 0.004,-2.5625 0,-29.19922 0,-58.39844 0,-87.59375"
       id="path916"
       inkscape:connector-curvature="0" />
    <path
       style="fill:#ffffff;fill-opacity:1;fill-rule:nonzero;stroke:none"
       d="m 653.71094,263.52344 v -86.86328 c 0,-0.85547 0.0625,-1.71485 -0.0117,-2.56641 -0.14844,-1.66406 0.39062,-2.58203 2.23047,-2.38672 0.72656,0.0742 1.46484,0.008 2.19922,0.008 22.72265,0 45.44531,-0.008 68.16796,0.008 5.03125,0 4.38672,-0.5 4.41797,4.5664 0.0312,5.00781 0.008,10.01953 0.004,15.02735 -0.004,4.25781 0.27344,3.86328 -4.03516,3.86718 -14.90625,0.008 -29.80859,-0.0117 -44.71484,0.0117 -4.73438,0.008 -4.52344,-0.70312 -4.52734,4.53125 -0.004,15.76172 0,31.51953 0,47.28125 0,0.48828 -0.008,0.97656 0,1.46485 0.0664,3.1289 0.0664,3.16406 3.33593,3.16406 15.14844,0.0156 30.29688,0.008 45.44532,0.008 0.85546,0 1.71484,0.0469 2.5664,0 1.39844,-0.0781 1.94922,0.53516 1.94141,1.9375 -0.0391,6.59375 -0.0312,13.19141 -0.0156,19.78906 0.004,1.23438 -0.52343,1.78907 -1.75781,1.74219 -0.85547,-0.0352 -1.71094,0.004 -2.56641,0.004 -14.53906,0 -29.07421,0 -43.61328,0 -0.73437,0 -1.46484,-0.0117 -2.19922,0.004 -3.05468,0.0508 -3.08984,0.0508 -3.125,2.9961 -0.043,3.42187 -0.0117,6.83984 -0.0117,10.26172 0,12.94921 -0.008,25.90234 0.004,38.85156 0.008,5.05859 -0.48047,4.60156 4.44141,4.60547 14.78515,0.008 29.5664,0.004 44.34765,0.004 0.85547,0 1.71094,0.0391 2.56641,0 1.41016,-0.0664 1.9375,0.58203 1.92969,1.97266 -0.0352,6.47656 -0.0469,12.94922 0.008,19.42578 0.0156,1.62891 -0.70312,2.17188 -2.20312,2.07813 -0.73047,-0.0469 -1.46485,-0.004 -2.19532,-0.004 -22.72656,0 -45.44922,0 -68.17187,0 -0.85547,0 -1.71094,-0.043 -2.56641,-0.004 -1.42578,0.0664 -1.96484,-0.625 -1.89453,-1.99218 0.0508,-0.97266 0.004,-1.95313 0.004,-2.92969 0,-28.95703 0,-57.91016 0,-86.86328"
       id="path918"
       inkscape:connector-curvature="0" />
    <path
       style="fill:#ffffff;fill-opacity:1;fill-rule:nonzero;stroke:none"
       d="m 554.70703,395.51562 c -0.79687,1.11719 -0.44531,2.35938 -0.44922,3.50782 -0.0351,6.59375 -0.004,13.1875 -0.0273,19.78125 -0.008,3.03906 -0.0391,3.08203 -2.92578,3.07422 -4.44532,-0.008 -3.99219,0.38281 -3.9961,-3.85157 -0.0156,-13.55078 -0.0273,-27.10156 0.0312,-40.65234 0.004,-1.15625 -0.83203,-2.83203 1.07032,-3.375 2.68359,-0.76172 4.74218,0.043 5.74609,2.20312 3.34375,7.19141 6.64844,14.39844 9.98047,21.59375 0.5,1.07813 1.05469,2.125 1.6875,3.39454 0.96484,-0.88282 0.6289,-1.76563 0.6289,-2.51172 0.0312,-7.08203 0.0117,-14.16407 0.0234,-21.2461 0.004,-3.51172 0.0195,-3.51172 3.64063,-3.50781 0.36718,0.004 0.73437,0.0391 1.09765,0 1.96485,-0.21875 2.44532,0.71094 2.4375,2.57031 -0.0664,14.28516 -0.0586,28.57032 -0.008,42.85547 0.008,1.83594 -0.47656,2.59375 -2.45703,2.58594 -3.52734,-0.0195 -3.53906,0.10937 -5.11328,-3.29297 -3.22656,-6.97656 -6.42969,-13.96094 -9.66797,-20.92969 -0.37891,-0.82031 -0.48047,-1.90625 -1.69922,-2.19922"
       id="path920"
       inkscape:connector-curvature="0" />
    <path
       style="fill:#ffffff;fill-opacity:1;fill-rule:nonzero;stroke:none"
       d="m 667.22266,380.08594 c -0.78516,0 -1.02735,0 -1.26954,0 -3.24218,0.0234 -3.25781,0.0234 -3.28515,3.11328 -0.0273,2.42969 -0.0508,4.85547 0.004,7.28515 0.10938,5.125 -1.23437,4.85547 5.23047,4.78125 0.36328,-0.004 0.73047,-0.0391 1.08985,-0.10156 2.91406,-0.49219 4.18359,-1.64062 4.6914,-4.72656 0.5586,-3.37109 0.96094,-6.83203 -2.08593,-9.39844 -0.60157,-0.50781 -1.55469,-0.66797 -2.375,-0.82422 -0.82813,-0.16015 -1.69141,-0.11328 -2,-0.1289 m -4.5625,31.74609 c 0,2.5625 -0.0664,5.12891 0.0234,7.6875 0.0547,1.64453 -0.35937,2.61328 -2.22265,2.37891 -0.48047,-0.0625 -0.97657,-0.004 -1.46094,-0.008 -3.14844,-0.0234 -3.17969,-0.0234 -3.18359,-3.20703 -0.0117,-13.78906 -0.0117,-27.57812 0,-41.36718 0,-3.28907 0.0312,-3.3086 3.44531,-3.3125 3.29687,0 6.59375,-0.0781 9.88281,0.0859 7.22266,0.36328 11.40234,4.64453 11.75,11.88282 0.19922,4.09375 -0.0937,8.08593 -2.9375,11.38281 -0.75,0.87109 -0.47656,1.47656 0.1875,2.18359 2.42188,2.58203 2.98438,5.75 2.92188,9.14844 -0.0703,3.53906 -0.0703,7.07812 0.008,10.61719 0.0352,1.73828 -0.30469,2.68359 -2.39063,2.625 -5.40625,-0.15625 -4.46875,0.33593 -4.54297,-4.44922 -0.043,-2.92578 0.0312,-5.85547 -0.0195,-8.78516 -0.0898,-5.2539 -2.07812,-7.19531 -7.39843,-7.32031 -0.24219,-0.004 -0.48829,-0.004 -0.73047,-0.004 -3.27344,0.0117 -3.28907,0.0117 -3.32422,3.14063 -0.0273,2.4414 -0.008,4.8789 -0.008,7.32031"
       id="path922"
       inkscape:connector-curvature="0" />
    <path
       style="fill:#ffffff;fill-opacity:1;fill-rule:nonzero;stroke:none"
       d="m 699.77344,421.875 c -8.96485,0.21094 -13.61328,-5.59375 -13.04297,-15.11719 0.0664,-1.07031 0.54297,-1.55078 1.57422,-1.55859 0.85547,-0.004 1.71093,-0.0274 2.5664,-0.0117 2.77344,0.0508 2.76953,0.0547 2.92188,2.8125 0.0547,0.97656 0.0625,1.96094 0.21484,2.91797 0.52344,3.26562 2.19922,4.76172 5.39063,4.89453 3.02734,0.12891 5.18359,-1.39844 6.04297,-4.27344 1.1914,-4 -0.17579,-7.22656 -4.01563,-9.08594 -2.30078,-1.11328 -4.76953,-1.89062 -7.04687,-3.05859 -6.60938,-3.38281 -9.14454,-9.5625 -6.96094,-16.62109 1.82031,-5.87891 6.91797,-9.16407 13.60547,-8.77344 6.47265,0.37891 10.39062,3.82812 11.55078,10.17187 0.10937,0.60157 0.22265,1.20313 0.28515,1.8086 0.48438,4.73047 0.23438,4.99609 -4.47656,4.82812 -2.47265,-0.0898 -2.45312,-0.0937 -2.59765,-2.75781 -0.0664,-1.21094 -0.0899,-2.45312 -0.3711,-3.625 -0.68359,-2.89453 -2.02344,-4.04297 -4.72265,-4.29687 -2.92579,-0.28125 -5.03125,0.92968 -6.17579,3.54296 -1.89062,4.32422 -0.51562,8.35547 3.73829,10.48438 2.0664,1.03516 4.30859,1.71484 6.40625,2.69141 3.68359,1.71093 6.53125,4.26171 7.73046,8.30859 2,6.74609 -1.67578,16.9375 -12.61718,16.71875"
       id="path924"
       inkscape:connector-curvature="0" />
    <path
       style="fill:#ffffff;fill-opacity:1;fill-rule:nonzero;stroke:none"
       d="m 821.18359,421.87891 c -9.65234,0.125 -13.49609,-6.24219 -13.03515,-15.14844 0.0547,-1.03906 0.55859,-1.5586 1.61328,-1.53516 0.48828,0.0117 0.97656,-0.0195 1.46484,-0.0117 3.49219,0.0664 3.92188,-0.59375 3.96485,3.65235 0.0508,5.14843 2.62109,7.53515 6.82812,6.94922 2.55859,-0.35547 4.29297,-1.83985 4.82422,-4.34375 0.63281,-3.00391 0.55469,-5.87891 -2.21875,-7.95313 -1.38672,-1.03516 -2.99219,-1.64062 -4.58594,-2.25391 -2.05078,-0.79296 -4.10156,-1.59375 -5.94922,-2.8164 -5.21093,-3.44531 -7.18359,-9.16406 -5.33203,-15.45313 1.66016,-5.63672 6.53125,-9.04297 12.76953,-9.0039 9.35547,0.0547 13.40235,6.55468 12.67188,15.50781 -0.0508,0.64844 -0.29688,1.23047 -1.04297,1.25781 -1.58594,0.0508 -3.17578,0.0781 -4.76172,0.0195 -0.92187,-0.0312 -1.11719,-0.78125 -1.17578,-1.55859 -0.12109,-1.58203 -0.15234,-3.17578 -0.39453,-4.74219 -0.34766,-2.27344 -1.64844,-3.80078 -3.98828,-4.19922 -2.42578,-0.41015 -4.64453,-0.0351 -6.19922,2.14063 -2.80078,3.91406 -1.79297,9 2.36328,11.42187 1.46484,0.85157 3.11328,1.40625 4.69922,2.03125 1.59375,0.63282 3.17578,1.25391 4.61328,2.21485 5.25781,3.51172 7.20312,8.95312 5.35156,15.04297 -1.71094,5.625 -6.17187,8.76171 -12.48047,8.78125"
       id="path926"
       inkscape:connector-curvature="0" />
    <path
       style="fill:#ffffff;fill-opacity:1;fill-rule:nonzero;stroke:none"
       d="m 517.22656,393.61719 c 0,-5.49219 -0.0156,-10.98828 0.008,-16.48438 0.0117,-3.11719 0.0391,-3.13281 3.26172,-3.1289 3.88672,0.004 3.58594,-0.20704 3.58594,3.55468 0.004,9.89063 0.008,19.78125 -0.004,29.67188 -0.004,1.71875 0.0469,3.42187 0.5,5.08594 0.67579,2.45312 2.17969,3.53125 4.85547,3.53515 2.67578,0 4.14844,-1.0625 4.8711,-3.52734 0.44922,-1.53906 0.5,-3.1211 0.49609,-4.71485 -0.0117,-10.01171 -0.008,-20.02734 -0.004,-30.03906 0.004,-3.77734 -0.30859,-3.55859 3.57422,-3.5664 3.23047,-0.004 3.26563,0.0117 3.26953,3.12109 0.0156,10.74219 0.0664,21.48828 -0.0117,32.23437 -0.0781,10.12891 -8.76563,15.625 -18.07813,11.44532 -4.39453,-1.97266 -6.19141,-5.73047 -6.27734,-10.33594 -0.10157,-5.61328 -0.0234,-11.23438 -0.0234,-16.85156 z m 0,0"
       id="path928"
       inkscape:connector-curvature="0" />
    <path
       style="fill:#ffffff;fill-opacity:1;fill-rule:nonzero;stroke:none"
       d="m 610.14453,404.73437 c 0.90234,-0.67968 0.92969,-1.70703 1.19922,-2.6289 2.375,-8.19531 4.72266,-16.39844 7.14453,-24.57813 1.16406,-3.92968 0.27344,-3.5625 4.9375,-3.58593 0.94141,-0.004 1.9375,-0.24219 3.14063,0.49609 -0.9336,3.27344 -1.89063,6.63281 -2.84766,9.99219 -3.28125,11.48437 -6.55859,22.97265 -9.85156,34.45312 -0.79688,2.77344 -3.11719,3.91797 -5.74219,2.92188 -1.13281,-0.42969 -1.11328,-1.48828 -1.37109,-2.39453 -2.67188,-9.37891 -5.33594,-18.76172 -8.00391,-28.14063 -1.40234,-4.92187 -2.84375,-9.83594 -4.20313,-14.76953 -0.64062,-2.33203 -0.48828,-2.46484 1.92579,-2.57031 4.60546,-0.20703 4.59765,-0.20313 5.86328,4.3125 2.23828,7.98047 4.48047,15.95703 6.7539,23.92968 0.25,0.875 0.33203,1.85547 1.05469,2.5625"
       id="path930"
       inkscape:connector-curvature="0" />
    <path
       style="fill:#ffffff;fill-opacity:1;fill-rule:nonzero;stroke:none"
       d="m 628.08594,397.87109 c 0,-6.96484 -0.0156,-13.92578 0.008,-20.89062 0.0117,-2.86328 0.0508,-2.91016 2.74609,-2.92578 5.74219,-0.0312 11.48438,-0.0352 17.22657,0 2.65625,0.0156 2.65625,0.0703 2.71484,2.58984 0.0859,3.39844 0.0859,3.41406 -3.35156,3.43359 -3.29688,0.0195 -6.59766,0.0703 -9.89453,-0.0234 -1.70313,-0.0469 -2.44141,0.5 -2.39454,2.28515 0.0859,3.42188 0.10157,6.84375 -0.004,10.26172 -0.0586,1.84766 0.76562,2.27344 2.41406,2.23438 3.54297,-0.0781 7.08594,-0.0547 10.62891,-0.008 2.54687,0.0312 2.54687,0.0781 2.60156,2.72266 0.0117,0.48828 -0.0391,0.98047 0.004,1.46484 0.14453,1.60157 -0.61329,2.14063 -2.15625,2.11329 -3.66407,-0.0625 -7.33204,0.0664 -10.99219,-0.0508 -1.9375,-0.0586 -2.56641,0.67188 -2.5,2.54297 0.10547,3.17578 -0.008,6.35547 0.0352,9.53125 0.0391,2.6875 0.0781,2.71485 2.97266,2.74219 3.29688,0.0312 6.59766,-0.0234 9.89453,0.0156 2.67578,0.0312 2.67578,0.0703 2.74219,2.57031 0.0937,3.41797 0.0937,3.4414 -3.32422,3.45312 -5.49609,0.0195 -10.99219,0.0274 -16.49219,-0.004 -2.8125,-0.0156 -2.85937,-0.0586 -2.87109,-2.80078 -0.0273,-7.08594 -0.008,-14.17188 -0.008,-21.25782"
       id="path932"
       inkscape:connector-curvature="0" />
    <path
       style="fill:#ffffff;fill-opacity:1;fill-rule:nonzero;stroke:none"
       d="m 780.53906,398.00391 c 0,-7.07813 -0.0195,-14.15625 0.0117,-21.23438 0.0117,-2.63281 0.0625,-2.69531 2.57031,-2.71094 5.85938,-0.0391 11.71485,-0.043 17.57422,0 2.5625,0.0195 2.5625,0.0899 2.53516,3.13672 -0.0234,2.77735 -0.0195,2.83203 -2.4375,2.8711 -3.41797,0.0547 -6.83594,-0.0117 -10.25391,0.0234 -2.94922,0.0312 -2.97265,0.0625 -3.00781,3.11328 -0.0352,3.05079 0.0742,6.10547 -0.0352,9.15235 -0.0703,1.93359 0.70703,2.54297 2.56641,2.48828 3.53906,-0.10156 7.08203,0.043 10.61719,-0.0547 1.82422,-0.0508 2.79687,0.45703 2.5625,2.44531 -0.082,0.72266 -0.043,1.46485 -0.0156,2.19532 0.043,1.28515 -0.65625,1.6875 -1.82812,1.67968 -3.05078,-0.0195 -6.10157,-0.004 -9.15235,0.004 -0.97656,0 -1.95312,0.0273 -2.92968,0.0117 -1.19532,-0.0156 -1.78125,0.51172 -1.77735,1.74609 0.0156,3.66016 0.0274,7.32032 -0.0195,10.98047 -0.0234,1.62891 0.78516,2.07813 2.26563,2.0625 3.66015,-0.0508 7.32031,-0.0508 10.98046,0.004 2.50391,0.0351 2.5,0.0898 2.46485,3.21094 -0.0312,2.70703 -0.0273,2.77734 -2.50781,2.79687 -5.98047,0.0391 -11.96094,-0.043 -17.94141,0.043 -1.79688,0.0234 -2.28516,-0.66406 -2.26953,-2.36328 0.0703,-7.19922 0.0312,-14.39844 0.0273,-21.60156"
       id="path934"
       inkscape:connector-curvature="0" />
    <path
       style="fill:#ffffff;fill-opacity:1;fill-rule:nonzero;stroke:none"
       d="m 743.21094,400.96484 c 0,-5.73437 -0.004,-11.46484 0,-17.19922 0.004,-4.03906 0.13281,-3.67187 -3.84375,-3.67968 -1.94922,-0.004 -3.90235,-0.0586 -5.85157,0.0156 -1.48437,0.0547 -2.35546,-0.35547 -2.19531,-2.03125 0.0703,-0.72265 0.0586,-1.46484 0,-2.1914 -0.10937,-1.39454 0.46094,-1.96485 1.88281,-1.96094 9.02735,0.0351 18.05079,0.0312 27.07813,0.0117 1.32031,-0.004 2.09375,0.39062 1.98047,1.87109 -0.0625,0.85156 -0.0469,1.71094 -0.008,2.5625 0.0586,1.25391 -0.53516,1.73438 -1.75391,1.71875 -2.4375,-0.0312 -4.87891,-0.0273 -7.31641,0.0117 -2.74609,0.0391 -2.80078,0.0625 -2.80859,2.875 -0.0273,9.63672 -0.0117,19.26953 -0.0117,28.90625 0,2.68359 -0.0391,5.36719 0.008,8.05078 0.0234,1.37109 -0.5039,1.88672 -1.91406,1.99219 -5.1875,0.39453 -5.24609,0.38672 -5.24609,-4.85547 0,-5.36719 0,-10.73047 0,-16.09766"
       id="path936"
       inkscape:connector-curvature="0" />
    <path
       style="fill:#ffffff;fill-opacity:1;fill-rule:nonzero;stroke:none"
       d="m 774.72656,397.97656 c 0,7.07813 0.0156,14.15235 -0.004,21.22656 -0.0117,2.69922 -0.0469,2.76563 -2.46875,2.77344 -5.45313,0.0195 -4.53907,0.33594 -4.55469,-4.39062 -0.0352,-13.42188 -0.0195,-26.83985 -0.008,-40.25782 0.004,-3.32421 0.0273,-3.32421 3.4375,-3.33593 0.125,0 0.24609,0 0.36718,0.004 3.19532,0.0234 3.22266,0.0234 3.22657,3.1211 0.0156,6.95312 0.004,13.90625 0.004,20.85937"
       id="path938"
       inkscape:connector-curvature="0" />
    <path
       style="fill:#ffffff;fill-opacity:1;fill-rule:nonzero;stroke:none"
       d="m 725.50781,397.98437 c 0,7.08204 0.0195,14.16407 -0.0117,21.2461 -0.0117,2.61719 -0.0664,2.67969 -2.60937,2.6914 -5.17578,0.0156 -4.46094,0.31641 -4.46875,-4.14453 -0.0273,-13.18359 -0.0117,-26.375 -0.008,-39.55859 0,-0.97656 0.0156,-1.95313 0.0469,-2.92969 0.0195,-0.71875 0.44141,-1.16406 1.12109,-1.18359 1.58594,-0.0508 3.17188,-0.0469 4.75782,0 0.6875,0.0195 1.10547,0.45312 1.125,1.17187 0.0273,0.97266 0.0469,1.95313 0.0469,2.92578 0.004,6.59375 0,13.1875 0,19.78125"
       id="path940"
       inkscape:connector-curvature="0" />
    <path
       style="fill:#ffffff;fill-opacity:1;fill-rule:nonzero;stroke:none"
       d="m 587.99219,397.98047 c 0,6.96094 0.0156,13.91797 -0.008,20.8789 -0.0117,3.02344 -0.0469,3.02344 -2.97656,3.07422 -0.36719,0.004 -0.73437,0.008 -1.09765,0 -2.7461,-0.0625 -2.79297,-0.0625 -2.79688,-2.86718 -0.0195,-14.04297 -0.0195,-28.08204 0,-42.125 0.004,-2.82813 0.0508,-2.82813 2.77344,-2.89063 0.60937,-0.0117 1.22656,0.0586 1.82812,-0.008 1.77735,-0.19922 2.31641,0.60937 2.30078,2.32812 -0.0664,7.19922 -0.0273,14.40625 -0.0234,21.60938"
       id="path942"
       inkscape:connector-curvature="0" />
  </g>
</svg>
