<svg xmlns:rdf="http://www.w3.org/1999/02/22-rdf-syntax-ns#" xmlns="http://www.w3.org/2000/svg" height="278.5" width="477.4" version="1.1" y="0px" x="0px" xmlns:cc="http://creativecommons.org/ns#" xmlns:dc="http://purl.org/dc/elements/1.1/" viewBox="0 0 477.41299 278.452"><g fill="#fff"><g transform="translate(-60.06 -68.37)"><polygon points="537.5 221.3 537.5 242.5 478.4 242.4 478.4 200.3 537.5 200.3 537.5 215.7 500.9 215.7 500.9 221.3"/><rect y="174.6" x="478.4" height="19.91" width="59.04"/><polygon points="472.6 221.3 472.6 242.5 413.5 242.4 413.5 200.3 472.6 200.3 472.6 215.7 436 215.7 436 221.3"/><rect y="174.6" x="413.5" height="19.91" width="59.04"/><path d="m387.8 242.4h-39.18v-42.17h22.25v20.99h14.67v-5.631h-8.713v-15.36h30.88v22.26c0 10.99-8.914 19.91-19.91 19.91z"/><path d="m368.6 174.6c-11 0-19.91 8.915-19.91 19.91h59.09v-19.91h-39.18z"/><polygon points="267.3 242.4 251.2 231 235 242.4 241.2 223.9 225.1 212.4 245 212.4 251.2 193.9 257.3 212.4 277.3 212.4 264.7 174.6 237.7 174.6 215 242.4 342.8 242.5 342.8 221.3 306.2 221.3 306.2 215.7 342.8 215.7 342.8 200.3 283.7 200.3 283.7 231.8 277.3 212.4 261.1 223.9"/><rect y="174.6" x="283.7" height="19.91" width="59.04"/><g transform="translate(377 279.1)"><g transform="scale(.038)"><path transform="scale(1,-1)" d="m78 0h473v80h-378v634h-95z"/><path transform="matrix(1,0,0,-1,556,0)" d="m133 357c0 144 73 294 247 294s247-150 247-294-73-294-247-294-247 150-247 294m-95 0c0-195 115-374 342-374s342 179 342 374-115 374-342 374-342-179-342-374z"/><path transform="matrix(1,0,0,-1,1316,0)" d="m77 0h90v573h2l373-573h104v714h-90v-579h-2l-376 579h-101z"/><path transform="matrix(1,0,0,-1,2038,0)" d="m173 634h160c175 0 238-103 238-273 0-263-175-281-240-281h-158m-95-80h245c238 0 343 135 343 374 0 229-123 340-343 340h-245z"/><path transform="matrix(1,0,0,-1,2742,0)" d="m133 357c0 144 73 294 247 294s247-150 247-294-73-294-247-294-247 150-247 294m-95 0c0-195 115-374 342-374s342 179 342 374-115 374-342 374-342-179-342-374z"/><path transform="matrix(1,0,0,-1,3502,0)" d="m77 0h90v573h2l373-573h104v714h-90v-579h-2l-376 579h-101z"/></g></g><g transform="translate(61 69)"/></g><g transform="translate(-60.06 -68.37)"><polygon points="208.1 92.44 212.9 107.3 200.3 98.12 187.6 107.3 192.5 92.44 179.8 83.25 195.5 83.25 200.3 68.37 205.1 83.25 220.8 83.25"/><polygon points="148.5 108.7 153.3 123.6 140.7 114.4 128 123.6 132.9 108.7 120.2 99.49 135.8 99.49 140.7 84.61 145.5 99.49 161.2 99.49"/><polygon points="106.9 150.3 111.7 165.2 99.06 156 86.4 165.2 91.24 150.3 78.58 141.1 94.23 141.1 99.06 126.2 103.9 141.1 119.5 141.1"/><polygon points="88.36 212 93.19 226.9 80.54 217.7 67.88 226.9 72.72 212 60.06 202.8 75.7 202.8 80.54 188 85.37 202.8 101 202.8"/><polygon points="106.9 269.5 111.7 284.4 99.06 275.2 86.4 284.4 91.24 269.5 78.58 260.3 94.23 260.3 99.06 245.5 103.9 260.3 119.5 260.3"/><polygon points="148.5 311.1 153.3 326 140.7 316.8 128 326 132.9 311.1 120.2 301.9 135.8 301.9 140.7 287.1 145.5 301.9 161.2 301.9"/><polygon points="208.1 331.9 212.9 346.8 200.3 337.6 187.6 346.8 192.5 331.9 179.8 322.7 195.5 322.7 200.3 307.9 205.1 322.7 220.8 322.7"/><polygon points="267.7 311.1 272.6 326 259.9 316.8 247.2 326 252.1 311.1 239.4 301.9 255.1 301.9 259.9 287.1 264.7 301.9 280.4 301.9"/><polygon points="309.3 269.5 314.2 284.4 301.5 275.2 288.9 284.4 293.7 269.5 281 260.3 296.7 260.3 301.5 245.5 306.3 260.3 322 260.3"/><polygon points="309.3 150.3 314.2 165.2 301.5 156 288.9 165.2 293.7 150.3 281 141.1 296.7 141.1 301.5 126.2 306.3 141.1 322 141.1"/><polygon points="267.7 108.7 272.6 123.6 259.9 114.4 247.2 123.6 252.1 108.7 239.4 99.49 255.1 99.49 259.9 84.61 264.7 99.49 280.4 99.49"/></g><path d="m144.7 189.9c0.3 0-0.1 1.1 0.6 1.2s1.1-0.8 1.1-0.8c-0.1-0.9 1.8-3.6 2.9-3.6 0-0.1-0.1-0.2-0.1-0.2-3.1-2.8-0.2-3.7-0.1-5.5 0-0.4 2.3 2 2.4 2 0 0.5 0.8 0.6 1 0.1 0.6-1.6-1.2-1.8-1.3-3-1.3-0.3-2.7-1.5-4-2-3.2-1.2-1.3-0.7-1.4-2.4 0 0.1-5.2-1.4-6-3-0.8-1.5-1.2-5.3-3.7-5.3-0.1-0.4-0.5-0.5-0.6-0.9-0.7 0.2-0.3-2-0.4-2.2 0.2 0 0.5 0.6 0.3-0.1 0.1 0 0.2 0.3 0.2-0.1 0.1-0.1 0.2-0.6-0.1-0.4-0.2-0.1-0.4-0.8-0.4-1-0.2 0.3-0.2-0.9 0.2-0.9 0.1 0.2-0.1 0.3-0.1 0.5 0.3-0.2 2.3-0.8 2.2-1.2 0-0.1-0.2 0.1-0.2 0.1-0.2-0.2 0.4-0.2 0.5-0.2 0 0 0.5 0.5 0.7-0.1 1 0-0.6 2 0.6 3.1 0 1.3 2.3-0.7 1.6 0.2-0.3-0.6 0 0.7 0 0.8-0.5-0.2 0.4 1.3 0.6 1 0-0.3-0.6-0.4-0.5-0.7 0.1 0 0.1 0.1 0.2 0.2s0.3-0.2 0-0.3c0-0.1-0.2-1.4 0.2-1-0.1-0.1-0.5-0.2-0.4-0.5-0.1-0.1 0.9 1.2 0.7 0.7-0.2 0.4-0.1 0.6 0.3 0.5 0.1 0.3 0.7 1.4 0.4 1 0.4 0 0 0.2 0.1 0.4 0.6-0.1 0 0.2 0 0.2 0.1 0.1 0.3 0.1 0.4 0.1 0 0.3 0.3 0.4 0.2 0.7-0.5-0.1-0.8-0.9-1.3-0.7-0.1 0.3 0.5 0.2 0.5 0.4-0.3 0.4 1.1 1.7 1.5 1.7 0.1-0.6-0.9-0.5-0.9-1.1 0.1 0.1 0.2 0.2 0.4 0.2-0.2 0 0-0.3 0.1 0.1 0.2 0.2 0.5 0.3 0.8 0.2 0 0.1 0.5 0.9 0.7 0.6 0 0.1-0.1 0.1-0.2 0.1 0-0.3-0.1 0.1-0.3 0.2 0.2 0.4 0.4-0.2 0.6-0.2-0.1 0.3 0.8 1.7 1 0.9 0.7 0 4.1 0.9 3.8 2-0.4 0-0.9-0.4-1.4-0.5-0.1 0.4-0.3 0.5-0.7 0.3 0.3-0.1-0.4 0-0.5 0 0.2 0.1 1.6 0.7 1.6 0 0.3 0 2.1 0.8 2.2 1.1 0.8-0.1 1 0.9 1.8 0.9 0 0.5 2.8 2 3 2.1 0 0.1-0.1 0.1-0.2 0 0.2 0.2-0.1 0.4 0.2 0.6 0 0.2-0.4 0.1-0.5 0.1 0.1 0.5 0.8 2.1 0.5 2.6l-0.3-0.3c-0.4 0 0.3 2.2 0.3 2.3 0.1-0.1 0.1 0 0.1 0-0.1 0.2-0.2-0.2-0.2-0.3-0.5 1.2 1.9 0.8 1.6 2.2 0 0 0.3-0.4 0.2 0 0.2 0-1.4 0-0.3 1.1 0.1 0.5 0.4 0.7 1 0.7 0-0.1 0-0.3-0.1-0.5-0.1 0.1-0.2 0.1-0.3 0.2 0-0.1 0-0.2-0.1-0.3-0.1 0.1 0 0.1 0 0.2-0.2 0-0.5-1.1-0.1-1.1 0 0 0.5 0.6 0.5 0.7 0 0.2 0.9 1 0.7 1.1 0.6 0.2 1.1 0.4 1.4 1.3-0.7 0-0.5 0.8-0.5 1.3 0.1-0.2 0.7-0.4 0.8-0.3 0 0-0.1-0.1-0.2-0.1 0.1-0.2 0-0.5 0.2-0.7 0.5 0-0.2 0.9 0.3 0.7 0.1 0.5-0.3-0.2 0.2-0.2 0.4 0.3 0.2 1.5 0.9 1.3 0 0 0-0.1-0.1-0.1 0-0.1 0.2 0 0.2 0s-0.1-0.2-0.1-0.3c0.4 0 0.5 0.4 0.9 0 0.6-0.1-1.3 1.6-1.4 1.6-0.4 0.2 0.9 1 0.9 1.2 1.8 0.9 0.7 1 0.9 2.2 0 0-0.2 0 0 0.2 0.2-0.2 0.3 0.2 0.3 0.4 0.1 0 0.1 0 0.1-0.1 0.1 0 0 0.7 0.3 0.7 0.1-0.3 0.3-0.2 0.4 0.1 0.3 0.1 0.2-0.3 0.3-0.4-0.3-0.5-0.1-0.7 0.4-0.9 0.1 0.1-0.1 0.2-0.1 0.3 0 0.2 0.2 0.2 0.3 0.3 0.1-0.3 0.9 1.1 0.6 1.1 0 0.3 0.4 0.6 0.6 0.7 0.2 0-0.2-1.5 0.2-1.3-0.2-0.3 1 0.1 1.1 0.9 0.3-0.1 0.1-0.1 0.2-0.3 0 0 0.5 0.7 0.7 0.2l-0.3-0.6c-0.3 0.1-0.4-0.1-0.4-0.4 0.9-0.6-1.8-2.6-1.3-3.2 0.2 0 1 0.4 1.1 0.4 0.1 0.2-0.2 0.2 0.1 0.5 0.1 0.1 0.1 0.1 0 0.1-0.1 0.3 0.2 0.1 0.3 0.3 0 0 1.3-1.1 1-0.8-0.3 0.1-0.6 0.1-0.9 0.2-0.1-0.2 0.7-0.2 0.8-0.3 0-0.2 0.1-0.3-0.1-0.3 0-0.1 0.2 0 0.1-0.1l-0.2-0.2c-0.1 0-0.2 0.1-0.3 0.1 0.3-0.2-0.1-0.3 0-0.7 1 0.3-0.1-0.4 0-0.3l0.1 0.1c0 0.1-0.1 0.1-0.2 0.1 0 0.1 0.3 0.4 0 0.4-0.1 0.1-0.4 0.4 0 0.4 0 0-1.1-1.1-1.2-1.1 0.1-0.3 0.8-0.5 1.1-0.5-0.1 0.3 1-0.3 0.8 0.3 0.3 0 0.1 0.1 0.4 0.3 0.1 0 0.9 0.1 1 0.3 0-0.1 0.3-0.5 0.1-0.5-0.1 0.1-0.1 0.1-0.1 0.2-0.1 0 0-0.8-0.2-0.6 0.1-0.3-0.4-0.7-0.2-0.9 0.4 0.4 0.1-0.7 0.5-0.2h-0.1c0 0.2 0.4 0.2 0.5 0.3-0.1 0.3-0.3 0.5 0 0.1 0.1 0 0.2 0.1 0.1 0.2 0.3 0 0.1-0.1 0.2-0.2 1.4 0.5-1.4-2.6-1.8-2.4-1.4-1-1.7-0.6-2.8-0.7 0.2-0.3-0.3-1.1-0.3-1.4 0.2 0 0.8 0.4 0.7 0.5-0.1 0-0.2 0.1-0.1 0.2-0.2 0-0.1-0.2-0.1-0.3-0.2 0-0.2 0.5 0.1 0.6 1.3-0.5 0-2-0.5-1.8l-0.3-0.3c0-0.1-1.7-3.4-1.2-3.3-0.1 0.2 0.5-0.2 0.2-0.2 0.1-0.1 0.1-0.1 0.2 0 0.1-0.1 0.1-0.2 0.1-0.3-0.5 0.1 1.6 2.2 1.6 2.4 0 0 1.3 0.2 1.2 0 0-0.1-0.5-0.2-0.2-0.3 0 0.1-0.6-0.1-0.6-0.1-0.3 0-0.5-0.4-0.5-0.7 1-0.5 1.2 1.3 1.9 1-0.1-0.3-0.1-0.7 0-0.8-0.4-0.1-0.7-0.3-1-0.5-0.2-0.7 1.4 0.3 1.5 0.2 0.9-0.1-0.1-1-0.8-1-0.4 0.7-0.2-0.2-0.5 0 0-0.2 0.2-0.1 0.2-0.3-0.2-0.1-0.5-0.1-0.5-0.4 0.4 0.4 0.3-0.2 0-0.2 0 0 2-0.7 2.3-0.6l0.8-0.3c0.2 0 0.2-0.5 0.5-0.5 0.9-0.8 3.7 2 4.5 0.8-0.8 0.3 0.6-0.7 0.4 0-1.6 0.3-2.2 4.3-1.4 4.5l2.4-0.9c-0.1 0.3-0.1 0.1-0.3 0.3 0.4 0-0.1 0.6-0.3 0.6 0-0.2-0.1-0.3-0.3-0.1 0.2 0.2-0.1 0.6 0.4 0.5-0.3 0 0.2 0.2 0.2 0.4-0.3 0.1 1.1 1 1 0.8 0 0.1-0.2 0-0.2 0.3-0.3-0.1-0.1 0.1-0.1 0.3-0.1 0.2-0.5 1.5-0.5 1.6-0.2-0.4-0.4-0.8-0.8-1.1-0.3-0.1-0.2 1-0.2 1.1 0.2 0.1 0.3-0.3 0.4-0.1-0.1 0.1 0 0.4-0.2 0.5h-0.1c0-0.2-0.1-0.2-0.3-0.1 0 0.2 0.2 0.4-0.1 0.5 0.2 0.7 1.7 0.1 1.8 0.1-0.1 0.1-0.3 0.2-0.2 0.4 0.2-0.1 0-0.3 0.3-0.3 0.1 0.2 0.3 0.3 0.2 0.5 0 0 0.9-0.5 0.5-0.1 0.2 0.1 1.1 0.1 0.6 0.4 0.5 0.4-0.3 1.1-0.3 0.3-0.7 0.3-1.3-0.1-1.4 0.8 0.7-0.2 1.6-0.5 1.9 0.5l0.1-0.1c0 0.1 0.1 0.4 0 0.4 0.1 0.1 0.5 0.2 0.5-0.1 0.9 0.5 0.2 0.2 0.8 0.2-0.2 0.4-0.1 0.4-0.2 0.6-1 0.3-0.4 0.4-0.4 0.5 0-0.1 0.6 0 0.7 0.1 0.1 0 0.8-0.4 0.8-0.5 0.3-0.2 0.7-0.2 1-0.1-0.6 0-0.7 0.3-0.4 0.7-0.8-0.3-1.7 1-1.7 1 0.6 0 1-0.9 1.7-0.8 0.1 0.1 0 0.2-0.1 0.2 0.1 0.1 0.2 0.2 0.3 0.1 0 0.2-0.2 0.1-0.3 0.3 0.1 0.6 1.2-0.6 0.8-0.9 0.1-0.2 0.3-0.2 0.4 0 0-0.2 0-0.3 0.1-0.2 0.1 0 0.4 0.1 0.3-0.1 0.3 0.1 0.1 0.4 0.5 0.3 0.3 0 0.8 0.6 0.6-0.2 0.1 0.3 1.7 1.5 1.7 1.4 0.4-0.2 0.6 0.8 0.7 0.1 0.1 0.2 0.2 0.2 0.3 0 0.2 0.1 1.7-0.7 1.8-0.8 0.1 0 0.4-0.3 0.4-0.2-0.3-3.2 4.4-4.1 5.1-1.5-0.2 0.2 5-1.4 4.8-1.5 0.1-0.1-0.1-0.3-0.2-0.4 0-0.1 0.1-0.2 0.2-0.2 0.2-0.1 0.1-0.4 0.2-0.5 0.1 0 0.6-1 0.6-1.2 0.2 0 0.3-0.4 0.3-0.5 0.5-0.3 3.1 0.6 3.1-0.6 0-0.3 0.5-1.4 0.9-1.5 0.1 0 0.1 4 0.2 4.1-0.1 0.4 1 2.3 1 2.3 0 1.6 0.4 3.3 0.5 5 0 0.3 0.1 0.3 0.1 0.6v2.3c-1 1-2 2.2-3.1 3.3-15.5 15.5-37.8 26-63 26-26.4 0-48.1-11-63.1-25.9-16.9-16.9-25.8-39-25.8-61.7s9-44.9 25.8-61.8c12.6-12.6 34.3-25.9 63-25.9 22 0 36.7 7.9 40 9.4 5.1 2.4 12 7.3 12 7.3l-0.9 0.1c-2.3 0.7-10.7 2.5-12.1 1.7 1.2 0.7 1.9 0.9 2.9 1.8 0 0.1-0.1 0.2-0.2 0.1 0.1 1 3.4 6.2 4.2 6.5 0.4-0.2-1.8-0.3-1.4-0.3-0.3-0.5-3.4-1.2-2.7 0.7-1.6-0.2-1.7 4.7 0.1 5.7 0.1-0.1 0-0.2 0-0.3 0 0 0.4 0.5 0.5 0.5-0.5-0.1-0.8 0.1-0.9 0.6 0.1 0 0.4 0 0.4 0.1-0.8 0.2-1.7 0.5-2.8 0.2-0.1 0.1 0.1 0.1 0 0.2-0.1 0-0.1-0.1-0.1-0.2-2.1 0.5-1.5-0.9-2.8 0.7-0.3-0.3-0.4 0.1-0.2 0.3 0.1-0.1 1.7 1.4 1.7 1.3 0.1 0 0.7-0.2 0.7-0.2 0-0.1-0.1-0.2 0.1 0 0.2-0.1-0.2-0.4 0.2-0.4 0.2 0.2 0.3 0.2 0.4 0.4 0.3 0 0.2 0.3 0.2 0.5 0.4 0 0.3 0.5 0.4 0.8-1.3 0.5-1.5 0.8-3.1 0.4-0.1-0.4-0.2-0.4-0.5-0.3-0.1-0.1-0.2-0.3-0.3-0.4-0.2-0.2 0 0.1-0.6-0.1-0.1 0.1 0.1 0.2 0.1 0.3-0.3-0.2-0.5 0.4-0.6-0.2-0.1 0.1-0.2 0.1 0 0.3-0.3 0.2-0.5-0.4-0.9-0.4 0-0.3 0.3-0.6-0.2-0.6 0.1-0.1 0.2-0.2 0.3-0.2v-0.2s-0.2 0.1-0.3 0.1c0-0.1 0-0.1 0.1-0.1 0-0.2-0.3-0.7-0.6-0.5 0-0.1 0.1-0.1 0.2-0.1 0-0.2-0.3-0.3-0.4-0.4v-0.4c0 0.1-1.1-0.6-0.7-0.6 0.6 0-0.1-1.3-0.2-1.4 0.4 0.4 0.5 0.3 0.3-0.3 0.1 0.4-0.1-0.3-0.2 0.1-0.2 0-0.7-0.7-0.8-0.8-0.1 0-0.6-0.1-0.6-0.2h-0.4c-0.3 0-0.3-0.1-0.1-0.2-0.1-0.1-0.4 0.1-0.5 0.1 0.1-0.1 0.2-0.1 0.3-0.2 0-0.1-0.1-0.1-0.1-0.2-0.2 0.1 0 0.3-0.3 0.3 0.2-0.2 0.2-0.2-0.1-0.2 0-0.1 0.3-0.2 0.4-0.2 0-0.1-0.6-0.2-0.7-0.1 0.1 0.1 0.1 0.1 0.1 0-0.1 0-0.5 0.1-0.6 0 0.1-0.2 0.4 0 0.2-0.2 0.1 0.1 0.4 0.1 0.5 0-0.1-0.1-0.9-0.7-0.9-0.4-0.2-0.2 0 0.1-0.3 0-0.2 0-0.8-0.8-0.8-1.2-0.2 0.1-0.3 0-0.4 0 0.4 0 0-0.2-0.1-0.1 0.1-0.3 0.6 0 0.8 0-0.3 0.4 1.3 1.3 1.7 1 0-0.2-0.3 0.1-0.2-0.3 0.4 0.3 0.8 0.4 1.3 0.3v0.1c1.1 2.5 10.9 0.1 8.8-5.5-0.2 0-2-1.4-2.4-1.7 0 0.1 0 0.2 0.2 0.1-0.1 0.1-0.1 0.2 0.1 0.2-0.1 0.1-0.7-0.1-0.4-0.2 0 0-1.4-0.9-1.5-0.8 0 0.2 0.3 0.2 0.4 0.4-0.1 0.1-0.2 0-0.4 0v0.1c-0.2 0.2-2.1-1.1-2.2-0.6 0-0.1-1.3-0.7-1.5-0.8l0.1-0.1c0 0.1-0.9-0.3-0.8-0.2-0.5-0.2-1.2-0.4-1.7-0.6 0 0.1 0 0.1 0.1 0.1-0.2 0.2-0.5-0.2-0.5-0.3-0.1 0.3-0.4 0-0.6 0-0.3 0.1-0.5 0.1-0.8 0.1 0.2 0.1 0.3 0.1 0.1 0.3-0.1-0.3-1.1-0.2-1.3-0.2 0.5-0.4-0.3-0.3-0.3-0.2s0.1 0.2 0.2 0.2c0 0.1-0.6 0.3-0.7 0.2 0.1 0 0.5 1 0.1 0.9 0-0.3 0.1-0.5-0.1-0.5-0.1-0.1-0.1-0.6-0.1-0.7s-0.6-0.1-0.6 0.1c-0.1-0.2-1.7-0.5-1.6-0.5 0.3-0.1 0-0.3 0-0.5 0.2 0.3 0.6 0.5 1 0.4 1-0.2-1.5-1.3-1.5-1.2-0.2 0.1 0.3 0.7 0.4 0.8-0.7-0.8-0.2 0.5-0.2 0.4 0 0.4-1.3-0.6-1.4-0.1 0.1 0.1-1.4-0.5-1.4-0.2 0.1 0-1.4-0.7-1.4-0.6 0.1 0 0.1-0.1 0.2-0.1 0.5-0.2 2.7-0.1 2.1-1.6 0-0.1-1.3-0.3-1.2-0.2 0.1-0.7-0.1-0.8-0.5-0.3-0.4-0.3 0-0.5-0.5-0.2v-0.2c-0.2-0.4-0.5-0.5-0.9-0.3 0.1 0.5 0.2 1 0.1 1.5-0.1-0.4-0.2-0.1-0.2 0-0.1-0.1-0.4 0-0.4 0.1-0.1-0.2 0.6-0.8 0.1-1-0.1 0-0.3 0.4-0.4 0.4 0.3-0.3 0.2-0.5-0.2-0.6 0.1 0.6 1-1.6 0.2-0.9-0.2 0 0-0.4-0.2-0.5-0.1 0.2-0.1 0.1-0.3 0.3h-0.2c0-0.2 0-0.2-0.2-0.3-0.2 0.2 0.1 0.5 0.1 0.7 0 0-0.5-0.5-0.4-0.2 0 0.1 0.1 0.2 0.2 0.2h-0.1c-0.2 0.2 0.5 0.5 0.6 0.6-0.4-0.1-0.5 0.1-0.1 0.4-0.4 0.1-0.4 0.3 0 0.6-0.4 0-0.4 0.2-0.1 0.6-0.1-0.1-0.2-0.1-0.3-0.1v0.4c-0.4-0.1 0-1.5-0.6-1 0.2-0.4 0.3-0.7 0.1-1.1-0.3-0.5-0.7 2.7-0.7 2.9-0.1-0.1-0.2-0.1-0.2-0.2-0.1 0.1-0.1 0.2-0.1 0.3 0.3-0.1 0.2 0.2 0 0.7-0.1 0 0.1-0.4-0.1-0.4 0.4 0.3-0.2-0.1-0.1 0.3-0.1 0-0.1-0.3-0.1-0.3 0.1-0.2 0.1-0.3 0.1-0.5-0.1 0 0-0.3 0-0.3 0 0.1 0.3-0.8-0.1-0.5-0.1 0.9 0.4-1.9 0.3-1.6 0-0.1 0.2-1 0.2-0.6-0.2-0.1 0-0.1-0.2-0.2 0.3-0.3-0.2-0.2-0.3-0.5 0 0.1 0 0.2-0.2 0.1-0.1 0 0.2 0.3 0.2 0.3-0.3-0.3-0.4 0.1-0.2 0.4 0-0.1 0.1-0.1 0.2-0.1v0.3c-0.4 0 0.2 0.4 0 0.6-0.1-0.1-0.2-0.3-0.2-0.4-0.1 0 0 0.2-0.1 0.3 0.1 0-0.1-0.4-0.1-0.5 0 0.7-0.3-0.3-0.5 0 0 0.2 0.2 1.7-0.1 0.6-0.2 0.3 0.8 1 0.6 1.1-0.5-1-0.2 0.6-0.2 0.6l-0.4-0.1c0.3-0.3-0.7-1.9-0.5-0.3-0.1-0.1-0.2-0.1-0.3-0.1 0 0.1 0.1 0.2 0.1 0.4-0.1-0.1-0.2-0.1-0.3 0 0.1 0.1-1.2 1.9 0.2 1.3 0-0.2-0.2-0.3-0.3-0.6 0.4 0.8 0.6 0 0.8-0.3-0.1-0.2-0.3-0.4-0.2-0.6 0.5-0.1 0.2 1.3-0.1 1.5 0.1 0.1 0.1 0.1 0.2 0 0 0.1-0.1 0.1-0.2 0.1v0.4h0.2c0 0.1-0.2 0-0.2 0.1 0 0.4 0.5 0 0.4 0.4-0.2 0-0.2-0.2-0.3 0.1-0.2 0-0.1-0.2-0.1-0.3-0.1 0.1-0.2-0.4-0.2-0.5-0.1 0-0.2 0.1-0.2 0.2-0.3-0.7 0.1-0.1-0.6-0.6v0.5c0.2 0-0.7-1.3-0.7-0.5-0.1-0.2 0.1-0.4-0.2-0.5 0 0.1 0.1 0.7 0.1 0.7 0.1-0.1-0.2-0.2-0.2-0.4-0.2 0 0 0.3-0.1 0.4-0.3-0.6-0.2 0.1-0.2 0.3 0.1 0 0.9 0.5 0.9 0.5s-0.1 0.6 0 0.7c-0.1-0.2-0.8-0.4-0.9-0.8-0.1 0-0.3 2.4-0.2 0.4-0.3 0 0 0.1 0-0.1-0.1-0.1-0.1-0.1-0.1 0-0.1-0.1 0.1-0.2 0-0.3 0.1-0.2-0.2-0.9-0.5 0.2 0.3 0 0.4 0.3 0.3 0.6-0.2-0.1 0-0.4-0.2-0.5-0.2 0.1 0.2 2.2 0.2 1.7-0.3-0.2-0.5 1.1-0.6 1 0.2-0.3 0.5-1.2 0.4-1.4 0 0.2-0.1 0.2-0.1 0.1 0-0.4 0-0.9-0.2-1.3-0.2 0.2-0.7 1.3-0.4 1.5-0.2 0.1-0.1-0.7-0.2-0.8-0.3 0-0.5 0.5-0.8 0.5-0.1-0.1 0.1-0.2 0-0.3 0.5-0.1 0.8-0.4 0.8-1 0 0.2-0.1 0.2-0.2 0s-0.3-0.2-0.3 0.1c-0.1-0.1-0.2-0.3-0.3-0.4l-0.2 0.3c0-0.1 0.2-0.4 0-0.4 0.1 0.1 0 0.1 0 0.1v-0.3l0.2 0.2c0.2-0.1 0.2-0.5 0-0.6-0.2 0.1-0.1 0.2-0.1 0.4-0.1-0.1-0.2-0.1-0.2 0-0.1-0.4-0.2 0.1-0.1 0.2-0.2-0.3 0.3 1.6 0.3 1.2-0.2-0.3-0.5-0.3-0.7 0 0.2 0.3 0.3 0 0.4 0.5-0.4-0.2 0-0.9-0.4 0.1-0.2 0-0.2-0.2-0.3-0.3v0.6c0.3-0.1 0.2 0-0.1 0-0.1 0.1 0.2 0.4 0.3 0.5 0.1-0.1 0.4-0.1 0.5-0.1 0 0.1-0.1 0.1-0.2 0.1 0 0.1 0.1 0.1 0.1 0.2 0 0.2 0.1 0.4 0.4 0.4-0.1 0-0.1 0.1-0.2 0.1 0-0.3-0.3-0.7-0.6-0.7v0.4c-0.2-0.2 0-1.2-0.4-0.7l-0.2-0.2c0 0.1 0 0.2 0.1 0.3-0.1 0-0.1-0.3-0.2-0.3 0 0 0 0.5 0.1 0.4-0.1 0-0.5-0.4-0.3 0.1-0.1 0-0.1-0.1-0.2-0.1s0.1 0.5 0.3 0.3c-0.2 0.2-0.4 0-0.5 0.1s-0.1 0.1-0.1 0.2c-0.1 0.1 0 0.1 0.1 0 0 0.1-0.1 0.1-0.2 0.1 0 0.2 0.2 0.2 0.3 0.3 0 0-0.2 0.1-0.3 0.1 0 0.1 0.1 0.2 0.2 0.2 0.1-0.3-0.9 1 0 0.4 0.2 0.1-0.3 0.2 0.2 0.2-0.1-0.6 1-0.6 0.8-0.9h0.2c-0.1 0.1-0.1 0.2 0 0.3 0-0.1-0.9 0.5-0.7 0.5 0.1-0.1 0.1-0.2 0-0.2-0.2 0-0.3 0.3-0.2 0.5l0.2-0.2c0.1 0.2 0 0.3-0.1 0.5 0-0.2-0.3-0.1-0.4-0.1 0 0.2 0.1 0.4 0.1 0.5-0.3-0.3-0.4-0.2-0.4 0.3 0.1 0 1-0.8 0.9-0.3-0.1 0-0.6 0-0.4 0.2-0.2 0-0.3 0.1-0.3 0.2-0.3-0.3-0.3 0.2-0.6 0.2 0-0.5 0.1-0.8-0.4-1.1-0.2 0.1 0.1 0.2 0.1 0.3-0.5-0.4-0.1 0.4-0.1 0.4s-0.1-0.2-0.2-0.2l-0.2 0.1c0.2-0.4 0.1-0.7-0.3-0.7 0.2 0.2 0.6-1.4 0.6-1.4-0.8-0.1-0.8 2.1-0.7 1.6 0.1 0.1-0.2 0.3 0.1 0.4-0.3 0.1-0.1 0-0.2 0.4 0 0-0.3-0.4-0.1-0.2-0.1-0.2-0.3-0.8-0.2-1-0.3 0-0.2 0.3-0.2 0.5 0.1-0.4-0.6 0.2-0.1 0.1 0 0-0.1 0.3 0 0.3 0-0.1-0.4 1-0.3 0.4 0.2 0 0.5 0 0.5-0.3 0.1 0-0.3 0.6-0.4 0.5 0.1 0 0.1 0.1 0.2 0.1-0.4 0.1-0.4-0.1-0.2 0.4 0.3 0 0.7-0.5 0.9-0.8 0.2 0.2 0.1 0.2-0.1 0.2-0.2 0.1-0.2 0.4-0.1 0.5-0.4-0.2-1.1 0.4-1.2 0.7-0.1-0.2-0.2-0.1-0.4-0.2-0.3 0.1-0.8 0.4-0.7 0.8-0.2 0-0.3-0.2-0.2 0.2-0.4-0.1-0.8 0.7-0.7 1.1 0.4 0 0.9-0.8 0.9-1.1 0 0 0.1 0.2 0.1 0.3 0.3-0.2 0.6-0.6 0.9-0.8v0.5c0.2 0 0.7-0.5 0.8-0.5 0.1 0.2-0.2 0.3-0.2 0.4 0.1 0.2 0.8-0.9 1-0.9-0.1 0.1-0.2 0.3-0.1 0.5 0.3-0.1 0.5-0.3 0.7-0.5v0.2c0.2 0 0.4-0.5 0.4-0.6-0.4-0.1 0.9 0.7 1 0.3 0.3 0.1 0.4-0.3 0.7-0.3 0 0.6-0.6 0.4-0.8 0.7-0.1 0-1.1-0.6-1.1 0.1 0.4 0-0.1 0.1 0.2 0.3 0.1-0.2 0.1-0.2 0 0.1 0.1 0.2 0.3 0 0.4 0 0 0.1-0.2 0-0.2 0.1s0.1-0.1 0.1 0c-0.3 0.2-0.1 0.5 0 0.4v0.2c-0.1-0.1-0.1-0.2-0.2-0.3 0 0.1-0.1 0.2-0.1 0.3h0.1c0 0.1-0.4-1.4-0.4-0.6-0.1-0.2-0.1 0.1 0 0.2-0.1 0-0.2-0.1-0.3-0.2 0 0.1-0.1 0.1-0.1 0.2-0.3 0-0.6 0.3-0.5 0.7 0-0.2-0.1-0.3-0.2-0.2 0.2 0.1-0.3 0.4-0.3 0.4 0.6 0.2-0.1 0-0.2 0.4 0 0.2 0.6 0.1 0.5 0.2-0.1 0-0.4 0.1-0.5 0.1 0.1 0 0.1 0.1 0.2 0.1h-0.2c0 0.2 0.9-0.1 0.9-0.5 0.1 0.1 0.2 0.1 0.3 0.2l-0.2 0.2c-0.3 0-0.2 0.4-0.5 0.4 0.2 0 0.5 0.3 0.6 0.5-0.9-0.4-1 0.1-1.1 0.1-0.2 0.2-0.1 0.2-0.4 0.3 0.1 0.2 0 0.3-0.2 0.5 0.2 0 0.4 0 0.5-0.1 0 0-1 0.6-1.2 0.6 0.1 0.3 0.2-0.1 0.3-0.1v0.5c-0.1 0 0.1-0.2-0.1-0.2-0.1 0.6-0.7 0.2-0.8 0.6 0.1 0 0.2 0 0.2-0.1 0 0.1 0 0.1 0.1 0.1v0.3c-0.4-0.1 0-0.1-0.4 0 0 0.1 0.6 0.1 0.7 0-0.1 0.2-1.1 0-0.6 0.3-0.4-0.1 0 0.2 0.2 0.3 0-0.1-0.5 0-0.5 0.1 0 0 0.1 0.1 0.2 0 0 0.1-0.1 0.2-0.2 0.3-0.1-0.1 0.2-0.1-0.1 0-0.1 0.1-0.1 0.1-0.3 0.1 0.1 0 0.2 0.1 0.3 0.1 0-0.1 0.3 1.4 0.5 0.7-0.2-0.1-0.7 0-0.8 0.3 0 0.1 0.2-0.1 0.3 0-0.1 0.1-0.1 0.1-0.1 0.2l-0.1-0.1-0.4 0.2c0.1 0.1 0.1 0.1 0.2 0.1-0.1 0.1-0.1 0.1-0.2 0 0 0 0.1 0 0.1 0.1-0.2 0.1-0.3 0.1-0.1 0.2-0.4 0.4-0.5 0.3-0.5 0.3 0.3-0.2 0.5-0.6 0.4-1-0.2 0-0.2 0.1-0.2 0.3-0.1 0 0-0.1-0.1-0.1s-0.2 0.1-0.2 0.2c0.1 0.1 0.3-0.1 0.4-0.1 0.1 0.2-0.4 0.5-0.6 0.5 0.2 0.2 0.2 0.4-0.1 0.5 0.1 0 0.2-0.2 0.3-0.1l-0.1 0.3c0.2 0 0.1-0.2 0.1 0 0.3 0-0.2-0.4 0.1-0.4 0 0 0.1 0.4 0 0.4 0 0 0.5-0.6 0.6-0.6l-0.4 0.4c0.3 0-0.4 0.3-0.4 0.5 0 0 0.4-0.2 0.4-0.3 0.2 0.3-0.5 0.3-0.4 0.6v0.4c0.1 0.1 0.3 0.1 0.3 0.3-0.2 0.1-0.4-0.5-0.4-0.5-0.2 0.1 0 0.3-0.1 0.4-0.3-0.3-0.3 0.2-0.4 0.4 0.5-0.1 0.1 0.3 0.1 0.6-0.1-0.1-0.2-0.1-0.2 0.1 0.1 0 0.3-0.2 0.4-0.2-0.1 0.1-0.2 0.5-0.4 0.5 0.1-0.1 0.1-0.2 0-0.4-0.3 0-0.3 0.6-0.5 0.6-0.1-0.1-0.4-0.2-0.1 0-0.3 0.4-0.5 0.3-0.7-0.1 0 0-0.3 0.2-0.2 0.2s-0.4-0.1-0.4-0.1c0 0.1 0.3 0.2 0.3 0.1 0 0.2-0.9 0.3-0.4 0.4-0.2 0.1-0.2 0.1 0 0.2 0.1-0.2 0.2-0.1 0.5-0.2 0 0.1 0.2 0.2 0.1 0.3 0.1 0 0.1-0.1 0.2-0.1 0 0.2-0.2 0.2-0.3 0.3 0.2 0.3 1-0.4 0.9-0.1-0.1-0.1-1.3 0.6-1.3 0.6-0.1 0.1-0.2-0.2-0.2 0 0 0 0.2 0.2 0.1 0.2s-0.2 0-0.2-0.1c0.1 0-0.2 0.2-0.2 0.2-0.1-0.1-0.1 0.2 0 0.3 0-0.1-0.2 0-0.3 0 0-0.2 0 0-0.1-0.1 0 0.4-0.5 0.7-0.5 1.1-0.1 0-0.2 0-0.3-0.1-0.2 0-0.2 0.2 0 0.2-0.1 0.1-0.9 0.9-0.7 1-0.2 0-0.2 0-0.2 0.1s-0.1 0.2-0.1 0.3c0-0.1 0.8-0.4 0.9-0.4 0 0.1-0.3 0.3-0.4 0.2-0.1 0.1 0.1 0.3 0 0.4-0.2-0.2-0.5-0.2-0.7 0 0-0.1 0.1 0 0.2 0-0.1-0.1-0.2-0.1-0.3 0s0.1 0 0.1 0.1c-0.1 0.1-0.2 0.1-0.4 0.1 0.1-0.1 0.1-0.1 0.2-0.1 0-0.1-0.1-0.3-0.1-0.5-0.1-0.2-0.1-0.1-0.2 0-0.3-0.1-0.6 0-0.8 0.1-0.1 0-0.1 0-0.1-0.1-0.1-0.2-0.5 0.2-0.2 0.2 0 0.7 1.2 0.5 1.2 0.6-1-0.5-0.8 0.4-1.4 0.3 0.1 0 0.2 0 0.2-0.1 0 0-0.7 0.4-0.6 0.1 0.3-0.1 0.3-0.6 0.2-0.6 0-0.1-0.3 0.1-0.3-0.2-0.1 0.3-0.4 0.2-0.4 0.6 0.3-0.1 0.5 0.1 0.2 0.2 0.9 0.3-0.8-0.1 0.5 0.5-0.3 0.2 0 0.3 0 0.5 0.2 0-0.8-1-0.6 0-0.2 0 0.1-0.4 0.2-0.5-0.4-0.3-1.1 0.3-1.1 0.3-0.2-0.3-0.7 0.2-0.7 0.4-0.4 0.3-0.4 0.4 0 0.1-0.1 0.4-0.2 0.3-0.6 0.3-0.1 0-0.3 0.4-0.4 0.2 0 0 0.1 0.3 0.2 0.3-0.2 0.2-0.6-0.4-0.8 0.2-0.6-0.3 0.1-0.3-0.1-0.1-0.2 0.6 0.2 0.7 0.8 0.5-0.1 0.2-0.3 0.2-0.4 0.3-0.2-0.3-0.4-0.3-0.8 0.1 0.6 0.5-0.6-1.3-0.2-0.3-0.1 0-0.1-0.2-0.3-0.2 0.2-0.1-0.2-0.3 0 0.1-0.3-0.1-0.1 0-0.3 0.1 0 0.1 0.3 0.1 0.4 0.1 0 0.1-1 0.7-0.4 0.7 0 0.1-0.1 0.1-0.1 0.2 0-0.2-0.2-0.6-0.3-0.7-0.7 0.2 0 0.5 0 0.7-0.1 0.1-0.1 0.1-0.2 0 0.2 0.2 0.1 0.2-0.4 0 0 0.1 0 0.6-0.2 0.6-0.1 0.1-0.1 0.1-0.2 0-0.3 0.6 0.5 0.1 0.7 0.1 0 0-0.8 0.8-0.6 0.8 0.1 0.1 0.5-0.1 0.4 0.1-0.2 0 0.2-0.3-0.3-0.1 0 0.1 0.3 0.3 0.4 0.3-0.5 0.3-0.1-0.4-0.4-0.1 0.1 0.2-0.3 0.4 0 0.3l-0.4 0.1c0.1 0.2 0.3 0.1 0.4 0.2 0 0.2-0.3 0-0.4 0 0.1 0.1 0.2 0.3 0.2 0.4 0 0-1-0.2-0.4 0 0 0.1-0.2 0.2-0.3 0.2-0.3 0.1-0.1 0.3-0.1 0.5 0.1-0.1 0.8-0.5 0.8-0.5 0.1-0.1 0.3 0.3 0.2 0.2h0.3c-0.2 0.3 1-0.2 0.9 0.1-0.5 0-1 0.1-1.5 0.2-0.1-0.3-0.2 0-0.2 0.1-0.3-0.3-0.1 0-0.4 0 0 0 0.3 0.4 0 0.4 0 0 0.2 0 0.2 0.1-0.4 0-0.2 0.4-0.2 0.6 0 0.1 0.1 0.3 0.2 0.2-0.2 0.3 0.2 0.6 0.2 0.8-0.4-0.1-0.4-0.8-0.4-1.1-0.2 0-0.2 2.2 0 2.3l0.1-0.1c0.1 0.1 0.1 0.1 0.1 0.3-0.1 0-0.2 0-0.4-0.1 0 0.7 0.7-0.2 0.6-0.4-0.1 0-0.3 0.1-0.4 0 0 0.2 0.9-0.2 1-0.2 0.1 0.1-0.1 0.3 0 0.5 0-0.1 0.1-0.1 0.2-0.1v0.3c-0.1 0-0.5-0.1-0.5 0.1-0.1 0-0.1-0.3-0.2-0.3-0.3 0.1-0.7 1.5-0.6 1.3 0 0-0.2 0.5 0 0.6 0.3 0 0.1-0.5 0.3-0.5-0.1 0.2 0 0.3 0.2 0.1-0.4 0.3-0.6 0.7-0.8 1.1-0.8 1.1 0.8 0.5 0.7 0.4 0.1 0.1 0.2 0 0.2-0.1v0.2c0.1 0 0.2-0.1 0.2-0.2 0.1 0.1 0.4 0.1 0.4-0.1 0 0.1 0.3 0.1 0.3 0.3-0.4 0-0.9 0.8-1.1 0.8 0 0-0.2 2.3-0.2 1.9 0.1 0 1.4 1.2 1.5 1.3 0.2 0 0.3 0.2 0 0.4 0 0.1 0.5 0.3 0.5 0.3s0.3-0.2 0.3 0.2c0 0 0.9-0.2 0.6 0.1 2.3-0.3 3-2.2 4.9-2.6-0.1-0.1 0.3-0.7 0.4-0.7v0.3c0.1 0 0.6-0.1 0.4-0.2-0.1 0.3 0.6-0.4 0.6-0.4 0.4 0.2 0.5-0.3 0.5-0.3h-0.2v-0.7s0.1 0.1 0 0.2c0.3 0-0.3-0.6-0.3-0.6 0.2 0.1 0.4-0.1 0.6-0.1 0 0.2-0.3 1.1 0.1 0.9-0.3-0.3 0.3 0.8 0.2 0.5-0.2-0.1 0.2 0.8 0.2 0.7-0.2-0.1-0.6 0.1-0.8 0.2 0 0.1 0.8-0.1 1-0.1v0.2c-0.3-0.2-0.3-0.2 0 0 0 0.1 0 0.2 0.1 0.2-0.1 0.2-0.1 2.8 0.4 2.8-0.1 0.3 0.1 0.5 0.1 0.9 0.4 0.2 0.5 0.3 0.1 0l-0.1 0.3v-0.2c-0.2 0 0.1 0.4-0.2 0.4 0.2 0.1 1.1 1 0.9 1.2-0.1 0.2 0 0.1 0.1 0.1-0.3 0.1 0.2 0.5 0 0.7 0 0 0.3 0.3 0 0.3 1 0.1 2 3.2 0.4 2.8-0.1 0.5 1.6 2.6 0.6 2.5 0 0.1 0.4 0.6 0.2 0.7-0.1 0.2 4.2 0.3 3.7-1.9 0.1-0.1 0.3-0.1 0.4-0.1-0.1-0.2-0.3-0.3-0.3-0.5 0.2 0.1 0.5-0.1 0.5 0.2 0.5-0.4 0.1 0.1 0.4 0-0.4-0.2 0.5-0.1 0.6-0.1-0.2 0.6 2.4-0.1 1.5-1.1 0-0.1 0.2-0.8 0.4-0.6-0.2-0.3 0.2-0.4 0.3-0.8-0.1 0-0.1 0-0.1 0.1-0.3-0.3 0.4-0.7 0.4-1-0.5-0.5 0.2-1.3 0.3-1.7-0.1 0 0 0.2-0.1 0.1 0.2-0.1 0.1-0.4 0-0.5 0.3-0.1 0.1-0.3 0.1-0.5 0.2-0.1 0.1-1.7 0.6-1.6-0.1 0-0.2-0.1-0.1-0.2 0 0.2-0.1 0.2-0.2 0 0.6 0.1-0.4-0.4-0.3-0.3 0-0.2 0.4-0.2 0.5-0.3 0 0-0.2-0.1 0-0.1-0.2-0.9 0.5 0.1 0.7-0.8 0.1 0.1 0.2 0.1 0.2 0.2 0.2 0 0-0.2 0.2-0.2-0.1-0.2 0-0.2-0.1-0.3 0.1-0.1 0.4 0.1 0.4 0.1v-0.4c0.9 0.6 0.1-0.5 1-0.3 0-0.1-0.1-0.3-0.2-0.3 0.1 0.2 0.4-0.2 0.4-0.2v0.5c-0.3 0-0.6 0.2-0.5 0.5 0.4 0.1 0.4-0.7 0.7-0.7 0 0.1 0 0.1 0.1 0.1s-0.3-0.6-0.3-0.6c0.1-0.1 0.3-0.4 0.5-0.3-0.4 0.4 0.1 0.5 0.2-0.1 0.4 0.3-0.1-1.1 0.4-1.2-0.3-0.6-0.3 0.3 0.3-0.5-0.2-0.1-1.3-1.4-1.2-1.7 0.4 0.2-0.2-0.4-0.1-0.6-0.4 0.2 0.2-0.4-0.4-0.4 0 0.1 0.2 0.6 0.2 0.7-0.4 0-0.5-0.5-0.7-0.8 0.1-0.1-1.3 0.1-0.8 0.1-0.1 0.4-0.7-1-0.6-0.9h0.1s-0.1-0.3 0-0.3c-0.1-0.1-0.3-0.2-0.4-0.3l0.3-0.6c-0.1 0.1-0.2 0.2-0.2 0.3-0.1-0.1 0-0.7 0.1-0.7 0 0-0.2-0.7-0.1-0.7 0-0.2-0.2-0.3-0.1-0.6 0.1-0.1 0.3-0.1 0.1-0.2 0 0 0.1-0.4 0-0.3 0.1 0 0.2 0.4 0.3 0.4 0 0 0.2-0.2 0.3 0-0.1 0 0.1-0.5 0.1-0.5-0.1 0.4-0.7-0.9-0.1-0.8-0.2-0.3-0.2-1.8 0.3-1.4 0.2 0 0.6-1.2 0.8-1.5 0.1-0.1 0.1 0.1 0.1 0.2 0.1 0 0.4-0.4 0.5-0.4 0-0.1 0-0.8 0.2-0.8 0.1 0.1-0.1 0.3 0 0.3 0.7-0.2-0.2-0.5-0.2-0.6 0.3 0.4 0.1-0.1 0.1-0.2 0.2 0.1 0.2-0.1 0.4 0 0 0.7 0.4-0.5 0.4-0.5 0.3 0.2 0.2-0.4 0.2-0.5 0.2 0.1 0.5 0.5 0.4-0.1 0.1 0 1.3 0.8 0.8-0.7 0.5 0.1 0.5-0.4 0.8-0.4 0 0.1 1.1-2.4 1-1.9 0.2 0.1 0.4-0.3 0.4-0.5 0.3 0 0-0.4 0-0.2-0.1-0.1 0-0.2 0.1-0.3 0-0.1-0.1-0.2-0.2-0.2-0.1 0.1-0.2 0.1-0.3-0.1-0.2-0.2-0.2-0.2 0-0.2-0.1-0.1-0.1-0.1-0.1-0.2 0.3 0-0.2-0.6 0.1-0.5 0-0.3 0.2-0.8 0.3-1 0.3 0.2-0.1-0.3 0-0.4 0.2 0 0.3 0.2 0.5 0.2 0-0.3-0.6-0.1-0.4-0.6-0.1 0-0.2-0.1-0.2-0.2 0.1 0 0.3 0.1 0.3 0.2-0.2 0 0 0.1 0 0.1s0.1-0.6 0.2-0.5 0 0.2-0.1 0.2c0.2 0 0.6-0.4 0.8-0.2 0-0.1-0.4-0.2-0.5-0.2 0 0.1 0 0.4-0.2 0.3 0-0.1 0.2-0.3 0-0.3 0.3 0.6 0.6-1.1 0.6-1-0.2 0-0.3-0.1-0.1-0.3-0.1 0.1 0.2-0.2 0-0.1-0.1 0.1-0.1-0.1-0.1-0.1 0.1 0 0.3 0.3 0.1 0.3 0.2 0 0.2-0.2 0.2 0.1-0.1 0.1 0.4-0.2 0.2-0.2 0-0.1 0.5 1.3 0.2 0.2-0.1-0.2-0.3-0.3-0.3-0.5 0.1 0.3 0.7 0.4 0.6 0.7 0.3 0.1 0.3-0.4 0.4-0.6 0.1 0 0.2 0.2 0.3 0.3 0.1 0 0-0.2 0-0.4 0.2 0 0.3 0.2 0.3-0.1l0.3 0.3s0.2-0.3 0.3-0.1c-0.2-0.2 0-0.2 0.2 0 0-0.2 0.1-0.2 0.4-0.1 0 0 0.1 0.2 0.1 0.1 0 0.1 0 0.2-0.1 0.2 0.1 0 0.1-0.2 0.2-0.2 0 0.1 0 0.2-0.1 0.3h0.1c0.1-0.2 0.1-0.1 0.2 0.1 0.1-0.1 0.4-0.1 0.3 0.1 0.2-0.7 0.9 1.7 0.7 1.4 0 0.1 0.3 0.3 0.2 0.4-0.1 0-0.1-0.2-0.3-0.1 0.1 0.2 0.7 0.1 0.6 0.5-0.8-0.2-0.1 0-0.2 0.4-0.1 0-0.1-0.1-0.1-0.2-1.1 0.4-1.5 3-2.2 3 0 0 0 0.7-0.1 0.3-0.1 0-0.1 0.1 0 0.1-0.4-0.2-0.1 0.3-0.2 0.5-0.1 0-0.2 0-0.3-0.1 0 0.1 0 0.1 0.1 0.1-0.1 0.5-0.6 0.1-0.8 0.1-0.3 0.3-0.2 0.5-0.2 0.9 0 0-0.3 0.5-0.3 0.3-0.1 0.1 0 0.5-0.2 0.6 0-0.1-0.1-0.1-0.2 0 0 0.3 0.4 0.4 0.4 0.7-0.1 0-0.2-0.1-0.2-0.2 0 0.2-0.1 0.2-0.3 0.2 0-0.1 0.2-0.1 0.2-0.2-0.4 0-0.5 0.3-0.5 0.5l-0.3-0.3c-0.3 0.3-0.3 0.7-0.2 1-0.1-0.1-0.2-0.1-0.3-0.1 0.4 0.1-0.3 0.5-0.3 0.4 0 0.1 0 0.5 0.1 0.4-0.1 0.1-0.1 0.7-0.1 0.7-0.1 0.2 0.2 1 0.2 1.3 0.2 0 0.1-0.1 0.3-0.1 0 0.1-0.2 0-0.2 0.2 0.1 0.2 0.4 1.3 0.4 1.3 0.1 0.1 0.3 0.9 0.2 0.9 0 0 0-0.1-0.1-0.1-0.2 0 0.3 0.6 0.4 0.7h-0.3c0.1 0 0.2 0.1 0.3 0.3-0.2-0.1-0.3 0.1-0.1 0.1-0.1 0-0.2 0.1-0.2 0.1 0.2 0.2 0.2 0.2 0.2 0v0.4s-0.3 0.8-0.4 1c0.3 0-0.1 0.3 0.1 0.6-0.1 0.6 0.1-0.4 0.2 0.2h-0.1c-0.1 0.1 0 0.2 0.1 0.2-0.3 1-0.1 0.5 0.6 0.9-0.1 0-0.1 0.1-0.2 0.1 0.1 0.2 0.2 0.2 0.2 0-0.1 0 0.1 0.5 0.1 0.5-0.1 0-0.2 0-0.2-0.1-0.2 0.1-0.3 0.2-0.5 0.2 0-0.1 0.3-0.2 0.2-0.3 0.3 0.2-0.1-0.2-0.2-0.3-0.1-0.3-0.2 1.2-0.1 0.8v-0.2c0.1 0-0.1 0.2 0.1 0.1-0.2 0 0.1 0.8-0.1 0.3 0.4 0 0.3 0.3 0.6 0.4 0.3 0 0.7-0.2 0.9-0.4 0.5 0.1 0.6 0.8 0.9 0.9 0 0.1-0.3 0.2-0.3 0v0.2c0.1 0.4 0.5-0.4 0.4-0.3 0.1 0 0.3-0.1 0.1-0.3 0.1 0 0.2 0.1 0.2 0.2 0.1-0.1-0.1-0.3 0.1-0.3 0 0.3 0.3 0.5 0.5 0.4 0 0.1-0.1 0.2-0.2 0.2-0.2 0.2 0 0.1 0 0.2 0.1 0 0.7-0.5 0.8-0.2 0.1-0.4 0.1-0.1 0.2 0 0.1 0 0.2-0.3 0.1-0.3 0 0 0.2 0.1 0.3 0.1-0.1-0.2 0.3-0.1 0.3-0.1-0.1-0.2-0.3-0.1 0.2-0.1 0-0.2-0.2-0.3 0.1-0.3-0.3-0.3 0 0.1 0.3 0-0.1 0-0.2 0-0.2-0.1s0.2 0 0.2 0c-0.1-0.1-0.1-0.1 0-0.2 0.1 0 0.2 0.5 0.3 0.1v0.2c0.1 0 0.3-0.3 0.3-0.4 0.1-0.1 0.1-0.2 0.2-0.2s0.1 0.1 0.2 0.1l-0.1-0.3c0.3-0.1 0.9 0 0.6-0.2 0.3 0 0.3-0.3 0.6-0.3-0.1 0.1-0.1 0.2-0.1 0.3 0.1-0.1 0-0.4 0.3-0.3-0.1 0.2-0.2 0.2 0 0.4-0.2-0.2 0.1-0.3 0-0.1 0.2 0-0.2-0.9 0.2 0 0-0.1 0-0.3 0.1-0.1 0-0.1 0-0.2-0.1-0.2 0-0.1 0.2 0.1 0.2 0.1s0-0.1 0.1-0.1c-0.6 0.4 0.6-0.2 0.2-0.1 0.1-0.1 0.3-0.1 0.4-0.1-0.1-0.1-0.2-0.2-0.1-0.3l0.2 0.2c0.1 0.1 0.5-0.1 0-0.2 0 0.2 0.7-0.1 0.8-0.1-0.1 0-0.4 0 0-0.2 0 0 0.4 0 0.1-0.1 0.1-0.1 0.2 0.1 0.4 0.1 0-0.1 0.1-0.1 0.1-0.2-0.6-0.1 1.5 0.6 0-0.1 0.2-0.1 0.2-0.1 0.2-0.2 0.2 0.1 0.4 0 0.5 0.1 0 0-0.1 0-0.1 0.1 0.1-0.2 0.4 0.2 0.3-0.2 0.4 0.3 0.3-0.4 0.6-0.4v0.3c0.3-0.2 0.8-0.4 0.9-0.8 0 0 0.8 0.4 0.6 0.4-0.3-0.2-0.3-0.2-0.2 0-0.3 0.4 0.6 0.3 0.5 0.5-0.5-0.6 3.4 0.9 2.8 1.2-0.8 0.4-3.5 0.6-3.5 0.9-0.2 0.5-3.7 3.2-4.3 1.5 0 0-0.4-0.4-0.3-0.5-0.1 0 0 0.5 0 0.5-0.1-0.1-0.3-0.2-0.4-0.3-0.1 0.2 0.2 0.2 0.1 0.4-0.2 0.1-1.4 0.4-1.5 0 0.7 0-1 1-0.4 0 0.3 0-0.3 0.4-0.4 0.4 0.2 0.3-0.3 0.3-0.1 0.6 0 0-0.3-0.1-0.4 0 0.5 0.9-2.3 0.1-0.7 2.1-0.1 0-0.1 0-0.2-0.1-0.3 0 0.6 0.2 0.6 0.2 0 0.1-0.4 0.1-0.4 0.1 0.5 2.1 1.2 1 2.1 1.1 0 0 0.8 4.3-0.2 4.6-2.2 0.8-2.3-2.4-3.8-1.9 0-0.2-5.1 8.8-1.6 8.8 0.1-0.3 0.3 0.3 0 0.3-0.2 0.6-1.5 1.4-1.4 0.9 0 0-1.5 2-1 1.1-0.2 0.4 0.7 0.1 0.7 0.1-0.1 0.1-0.2 0.2-0.4 0.3-3 2.1-2.3-0.9-4.7-0.6-0.2 0.4-2.2 0.4-2.6 0.8 0.2 0 0.3 0 0.2 0.1-0.6 0-0.9 0.3-1.2 0.9-0.7-0.8-5.1 3.1-5.4 0.5-0.2 0-0.7 0.1-0.7 0.2-0.1 0-0.3-0.3-0.4-0.4 0.1-0.1 0.2 0.1 0.2 0.1 0-0.5 0.2-0.6 0.7-0.2 0.1-0.2-0.1-0.4 0-0.7 0 0-0.5-0.8-0.4-0.8-0.2-0.5-0.8 0.2-0.5 0.1-0.1 0.3-0.4-0.2-0.4 0.3 0.4 0.1 0.2 0-0.1 0.1 0.2 0.1 0.1 0.2 0.1 0.3 0 0 0.3-0.1 0.3 0.1-0.1 0-0.2 0-0.3 0.1-0.1 0-0.2-0.3-0.1-0.4-0.1 0-1.1 0.1-1.1-0.1-0.5 0-1.3 1.5-2.2 1.3-0.5 0.1-0.2 0.5-0.3 0.7-0.2-0.2-0.2-0.1-0.4-0.1 0-0.1 0-0.2 0.1-0.1-0.1-0.1-1.3-0.1-1.1-0.3 0.2 0.1 0.5-0.5 0.5-0.1 0.2 0 0-0.1 0-0.2l0.7-1.1c0.1 0.1-2.6-0.3-3-0.2 0-0.6 1.2-1-0.5-1.3 0.3-0.4 0.7 0.1 1 0.1-0.1-0.2-0.9-1.6-1.2-0.9 0 0 0.4-0.5 0-0.3 0-0.2 0.4-0.2 0.5-0.3-0.1-0.1 0.1-0.1 0.2-0.2-0.6 0-0.1-0.6-0.1-0.8l0.2 0.4c-0.2 0.1 0.2 0.1-0.2 0.2 0.1 0.1 0.2 0.1 0.2 0 0.4 0.1 0 0.7 0.4 0.7 0 0.4-0.1 0.1 0.2 0.2-0.1 0-0.1 0-0.1 0.1l0.8 0.1c-0.2 0.1-0.2 0 0 0.1 0 0.1 0.1 0.5 0.3 0.4-0.1-0.7 0.2 0.5-0.1 0.2 0.1 0.2 0.2 0.3 0.2 0.5 0.4-0.1 0.7-1.3 0.6-1.6-0.1 0.1-0.6 1.1-0.6 0.5 0 0.4 0.5-1.2 0.4-1.2-0.5-0.5-0.5-0.6-0.4-0.5 0.3-0.3-1.5-0.4-1.7-0.3 0.7-1.1 0.4-0.1 0.4-1 0.2 0 0.3 0.1 0.6 0.1-0.2-0.1 0.2-1.7 0.6-1.6 0.3 0.3-0.7 0.3 0.1 0.5-0.1 0.1-0.1 0.2 0 0.2s0.1-0.6 0.3-0.4c0 0.1 0 0.1-0.1 0.1 0.6 0.7-0.8-5.8 0.5-5.6-1.1-0.2-3.3 3.2-4.4 1.9 0 0.7-1.1 0.5-1 1.7-0.2 0-0.5 2-0.4 2.2 0 0.1 0.1-0.1 0.1-0.2 0.3 0 0.5 0.7 0.2 0.8 0 0.1-0.4-0.5-0.4-0.5 0.1 0.3 0.1 1.6-0.3 1.6 0 0.5 0.7 0.2 0.7 0.4-0.2-0.1-0.1 0.5 0.1 0.5-0.1-0.4 0.4-0.3 0.3 0.8-0.2 0.1-0.2 1.2-0.3 1.5 0.1 0 0.3-0.1 0.1 0.1 0.1 0.2 0.4 0.2 0.4 0.4 0 0.1-0.2-0.1-0.2 0.1 0.2 0 0.2 0.1 0.1 0.2-0.2 0.3 0 0.2 0.2 0.2 0 0.3-0.8-0.1-0.6 0.3-0.6 0 0.4 0.4 0.4 0.3-0.3 0.5 0.2 0.4 0.2 0.8-0.7-0.1-0.2 0.8 0.1 0.7-0.6 0.5-1.5-0.7-1.3 1-0.3-0.1-0.4-0.3-0.7-0.2 0 0.2 0.2 0.4 0 0.6 0 0-0.3-0.1-0.4-0.2 0-0.1 0.2-0.4 0.3-0.5 0-0.1 0-0.2-0.1-0.2-0.3 0-0.2-0.4-0.2-0.5-0.1 0-1.6 0.2-1.7 0.2 0.1-0.3 1.3-0.2 1.5-0.2-0.2-0.4-1.1 0-1.4 0l-0.4 0.1c0 0.1 0.3 0.1 0.3 0.1-0.1 0.1-0.8 1.2-0.8 1.2-0.2 0-4.3 0.9-4.9 0.9-0.4 0 0.6-1.6 0.7-1.3-0.4 0-0.7 0.2-0.8 0.6 0.4 0.2-2.2 4.2-2.2 4.5-0.2 0-0.3-0.3-0.5-0.2-0.1 0.1 0 0.2-0.2 0.2 0-0.1 0.9 0.7 1 0.7-0.4 0.2-0.8-0.7-1.5-0.4 0.1 0.1 0.1 0.2 0 0.3-0.1-0.1-0.2-0.1-0.3 0s-0.3 0.3-0.4 0.3c0 0.3 0.8 0.3 0.5 0.5 0.1 0 0.3 0 0.4 0.1 0.1 0 0.2-0.1 0.3-0.1 0.1-0.2 0.6 0.2 0.7 0.2 0 0.1-6.2 0.3-7 3.1l0.3 0.3s-0.3-0.1-0.3-0.1-1.2 0.8-1.3 0.9c-0.1-0.1-0.3-0.1-0.5-0.1-0.5-0.4-2.8 1.2-1.8 1.5-0.1 0.9-2.9-0.3-3.2-0.3-0.2-0.1-0.1-0.8-0.1-0.7 0.3-0.5-0.1-0.5-0.5-0.6-0.4 0.1-0.8 0-1.1-0.3 0 0.2 0.3 2.1 0.4 2-0.1 0.2-0.6 2.1 0 2.1 0.2-0.2-3.2-0.2-3.1-0.2 0.1-0.2-0.3-1-0.5-1.1 0-0.1 0.2-0.2 0.1-0.3-0.1 0-0.1 0.1-0.2 0.1 0.1-0.4-1.1-0.2-1.3-0.2v0.4c-0.2-0.1-0.6-0.4-0.7 0-0.1 0-0.4-0.7-0.3-0.3-3.1-0.7-1.3 0.8-1.9 1 0.2 0-0.1 0.5 0.2 0.7 0.2-0.2 0.3-0.4 0.5 0-0.1 0.2 0-0.1 0 0.3-0.4 0-0.8-0.2-1.1 0 0 0.6 1 1.1 1.3 1 0.1 0.1 0.2 0.1 0.3 0.2 0.1 0 0.1-0.2 0.1-0.2 0.5 0.5 0.7 0.6 1.4 1.1-0.1 0.3 0.2 0.2 0.3 0.6 0 0.3-0.2 0.6 0 0.1 0.5 0.1 1 0.3 1.5 0.4v0.3c-0.2-0.1-0.2 0.3-0.3 0.3 0 0.4 0.7 0.4 0.8 0.4 0 0.3-0.1 0.2-0.3 0.4 0.7 0.7 0.4 0.1 0.2 0.9 0.1 0-0.3-0.5-0.4-0.6-0.2 0.2 0.1 0.3 0.2 0.4 0 0.5 1.8 3.7 2.2 3-0.2 0.3-0.3 0.2-0.3 0.6 0.1-0.2 1 0.7-0.1 0.9 0.1-0.3-0.2-0.8-0.5-0.9-0.2 0.4 0.7 1.1 0.2 1.4 0.1 0 0.9 1 0.7 0.9 0.3 0.1 0.4 0.9 0.3 0.9-0.2-0.4-0.4-0.8-0.5-1.2-0.1-0.2-1 2.3-1 2.4-0.1 0.2-0.1 0.4-0.2 0.6-0.2 0.2-0.2 0.3 0 0.4-0.3 0.8-0.7 2.1-1 3-0.7 1.7-4.5 0.9-4.5 0.5-0.1-0.1-1.4-1.2-1.8-0.9 0-0.1-8.1-3.1-8.9-3.2-0.5-0.3-0.7-0.1-0.7-0.7-0.1-0.1-0.5 0.1-0.6 0.1 0-0.1 0-0.2 0.1-0.2-0.2-0.5-1.8 0.4-1.5 1.2-0.1 0-0.4-0.4-0.4-0.5-0.2 0-0.1 0.2-0.5 0.1 0.1 0.4-0.6 0.1-0.7-0.2-0.1 0-0.2 0-0.3 0.1 0 0-0.4 0.2-0.2 0.2-0.8-0.1-1.2 0.3-1.1 1.1 0.2 0 0-0.1 0.1-0.2 0.9 0.5 0 1.1-0.1 1.6 0.1-0.2 0.5-0.1 0.3 0.3 0 0.2 0.3 0.4 0.4 0.5-0.3 0.4-0.6 0-0.1 0.4 0 0.1-0.3 0.2-0.4 0.1v-0.2c-0.8 2.2-2.2 6.1-2.7 8.4-0.1 0 0-0.1-0.1-0.1-0.6 0.6-3.6 6.1-1.4 5.2 0.5-0.1 0.4 2-0.4 1.9 0 1.4-0.1 2-1.1 3.4 0.2 0.3 0.5 0.4 1 0.2 0.6-0.6 5.9 2.2 6.1 2.7v0.4c-0.1 0.3 0.2 1.2-0.1 1.4 0 0.1 0.1 0.1 0.2 0-1.3 1.1 3.8 2.1 5.2 0.9 0.4-0.4 5.9 0.7 6.7 0.9 0 1 2.6-1.7 2.8-1.8 0.1-0.4 0.1-0.1 0.3 0v-0.3c0.1 0 0.5-0.1 0.5 0.1 0.5-0.1 0.8 0 1.1 0.5 0-0.3 0-0.5 0.3-0.3 0.2-0.1 0-0.6 0-0.5v0.2c-0.1 0-0.4-0.2-0.1-0.3-0.8-0.8 3-3.1 3.6-3.2 0-0.2-0.3-0.8-0.6-0.8-2-2.1 1.3-4.9 2.6-6.1 0.1 0 0.1 0.1 0.1 0.1 0 0.1 0.3-0.1 0.3-0.1 0-0.2-0.3 0-0.3-0.1 0.2-0.2 2-2.3 2.6-1.5 0 0.3 4.4-1.4 4.6-1.6 0.9-0.3 1.1-0.9 0.7-1.8 0.1-0.1 0.3 0.2 0.5-0.1 0.1-0.1 0.1-0.2-0.1-0.3-0.9-0.5 0-2.4-0.2-2.8 0.5-0.4 1-0.7 1.7-0.7-0.2-0.3 0.6-0.1 0.5-0.5 0 0 0.9-0.2 0.8 0-0.1 0-0.2-0.1-0.2 0 0.1 0.1 1.6 0.4 1.3 0.6 0 0.1 0.3 0.4 0.2-0.1 0.1 0 0.9 0.8 0.6 0.2 0.1 0 0.1 0 0.1 0.1 0.4-0.1 0.4 0.4 1.1 0.3 0.2 0.2 0.3 0.4-0.1 0.5-0.1 0.3 1-0.2 0.9 0.4-0.1 0.3 1 0.4 1.1 0.4l0.3 0.3c0.3 0 0.5 0 0.8 0.2-0.5 0.3 0.8-1.2 0.8-0.8 0-0.1-0.1-0.2-0.1-0.3s0.3-0.3 0.3-0.4c0.3 0.1 0.8-0.6 0.8-0.3 2.1-1.5 4.2-2.1 6.2-2.6 0.1 0.3 1.3 1.5 1.7 1.4 0-0.1-0.2-0.2-0.1-0.3 1.4-0.6 1.2 4.5 1.5 4.7 0.9-0.5 0.5 0.3 0.6 0.3 0-0.2 1.2 2 0.9 1.7 0 0 1.2-0.1 0.9 0.2 0.3 0 1.9 1.4 1.9 1.8-0.6 1.1 3.2 2.3 3.6 2.6 0.2 0.1 1.1 0.1 1.1 0.3 0 0 2 2 2 1.9-0.5-0.1-0.3 0.7 0.6 0.3 1.4 0.1 0.2 2.5 2.2 2.5 2-2.5 1.8 8.4 0.8 6.6 0.8-0.3 0.6-0.2 0.6-0.2 0.2-0.1-0.1 0 0 0zm33.2-12.7c0.7 0.6-0.5 0.2 0 0 0.1 0.1-0.1 0.1 0 0zm0.2-0.5c0.6-0.1 0.4 0.5 0.1 0.4-0.2-0.3-0.1 0.2-0.1-0.4 0.4 0 0.4 0 0 0 0.6-0.1 0 0.1 0 0zm-81.9-57c0 0.4-0.2 0.5-0.6 0.3l0.6-0.3c0.2 0 0 0.1 0 0zm12.1-11.1c0.2 0.6-1 0.1 0 0-0.1 0.2-0.1 0.2 0 0 0.2 0.6-0.2 0.1 0 0zm44-0.4c0 0.1-0.1 0.3-0.1 0.4-0.3-0.3-0.3-0.4 0.1-0.4 0 0.1-0.1 0 0 0zm-2.3 19.7c0.2-0.1 0.5 0.3 0.5 0.4-0.1 0.2-0.5-0.3-0.5-0.4 0.2-0.1 0 0.1 0 0zm-18-1.3c0.2 0 0.5 0.4 0.6 0.4-0.4 0.6-0.6 0-0.6-0.4v0.1c0-0.4-0.1 0.3 0-0.1 0.1 0 0 0.4 0 0zm10.5-0.1c-0.2 0.8-0.5 0.8-1 0 0.1-0.6 1.4-0.1 1 0 0.4 0.7 0 0 0 0zm3.1-6.2c0.6 0 0.5-1.8 0.9-1.7 0.1 0-0.6 4-1.4 4.2-0.2-0.8 0.1-1.9 0.5-2.5 0.2 0 0.2 0 0 0 0.4 0-0.1 0.1 0 0zm4.8-3.5c0.2-0.1-0.1 0.6-0.1 0.3l-0.5 1.7c0.5-0.6-0.8 1-0.5 0.6 0.6 0.1-0.2 0-0.1 0.2h0.1c-0.1 0.1-0.2 0.1 0 0.3 0 0.1-0.5 0.3-0.7 0.3 0.1-0.1 0.4-0.5 0.4-0.6-0.1 0-0.7-0.4-0.6-0.9-0.3 0.1 1.4-2.6 1.5-2 0.3-0.1 0.8-0.7 1.1-0.4 0 0.1-0.5 0.5-0.6 0.5 0.3-0.1 0.1 0 0 0zm0.2-2.1c0.1 0.2 0.4 0 0.2 0.3 0-0.1-0.1-0.2-0.2-0.3 0.1 0.2 0 0.1 0 0zm8.1-1.4c0.1 0.3 0.2 0.6-0.3 0.5 0 0.1 0.1 0.2 0.2 0.3 0-0.1-0.8 0.7-1.1 0.7 0 0.2 0.2-0.1 0.1 0.3-0.1 0-0.2 0-0.2-0.1-0.2 0.1-0.1 0.2-0.3 0.1-0.3 0.3 0.1-0.4-0.3 0.6 1.4 0.3-2.5 0.2-0.2-0.3-0.5-0.3-0.9-0.7-0.9-1.2 0.4-0.1 0.2-0.1 0.5 0.2 0.1 0 0.4-0.6 0.8-0.7 0-0.1 0.9-0.2 1.1-0.1 0-0.1-0.1-0.1-0.1-0.2 0.1-0.1 0.1-0.1 0.2 0 0.1 0-0.1-0.2 0.1-0.3 0.1 0.1 0.2 0.1 0.4 0.2 0.1 0.3 0 0 0 0zm-0.2-1.4c0 0.1 0.1 0.2 0.1 0.3-0.1 0.1-0.3 0.1-0.4 0.1-0.2-0.4-0.1-0.5 0.3-0.4 0 0.1-0.1 0 0 0zm-1.1 1.1c-0.5 0.4-0.2 0.2-0.6-0.1 0.2-0.4-0.7-0.1-0.8-0.4 0.4 0 0.7-0.2 1-0.5-0.1-0.4 1 0.4 0.9 0.2 0.4 0.2-0.1 0.8-0.5 0.8 0 0.1 0.2-0.1 0.1 0.1 0-0.1-0.2-0.1-0.1-0.1-0.2 0.2 0.1 0 0 0zm2.1-2.3c0 0.1 0 0.1-0.1 0.1-0.1-0.3 0.2-0.3 0.3-0.1-0.1 0.1-0.2 0-0.2 0v0zm-5.6-1.6c-0.2 0-0.1 0.2-0.3 0.3-0.2-0.4-0.1-0.5 0.3-0.3-0.2-0.1-0.2-0.1 0 0-0.3 0-0.1-0.2 0 0zm-0.9-0.8c0.3 0 0.4 0.5 0.6 0.4-0.3 0-0.5-0.1-0.6-0.4 0.3 0 0 0.1 0 0zm0.3-0.6c-0.1 0-0.1 0.1 0 0 0.4 0-0.1 0.2-0.1 0.4v0.2c-0.3 0-0.2-0.9 0-1 0.1 0.2 0.1 0.3 0.1 0.4-0.1 0 0-0.1 0 0zm-2.3 0.2v0.2c0.3 0-0.2-0.4 0.2-0.3 0.1-0.3 0.6-0.2 0.7-0.2-0.2-0.3 0.3-0.1 0 0.1 0.1-0.1 1 0 0.9 0.4-0.1 0-0.1 0-0.2-0.1 0 0.1 0.2 0.4 0.1 0.5 0.4-0.1 0.3-0.1-0.3 0-0.1 0.1 0.2 0.2 0.1 0.3 1 0.1-0.3 0.3-0.2 0.3 0.1-0.1 0.1-0.3 0.2-0.4 0 0-0.7 0.7-0.5 0.1l-0.2 0.2c-0.2-0.4 0.1 0-0.2-0.1-0.1-0.1 0-0.1 0.1-0.1 0 0.4-1.4-1.1-0.7-0.9-0.1 0-0.2-0.1 0 0zm13.8-0.8c0.2 0 0.1 0.6-0.1 0.4 0 0.1 0-0.9 0.1-0.2v-0.2c0.2 0 0 0.1 0 0zm-11.1 0.6v0.4c-0.2 0-0.3-0.5-0.3-0.6 0.1-0.1 0.3 0.2 0.3 0.2-0.1 0 0 0 0 0 0 0.1-0.2 0 0 0zm-0.4-0.7c0.1 0 0.2 0.1 0.3 0.2 0.2-0.1-0.2-0.4 0.1-0.4-0.1 0.4 0.1 0.7 0 1.1 0 0-0.4-0.9-0.4-0.5-0.1-0.1 0.3-0.4-0.1-0.3 0.1 0 0.1 0 0.1-0.1 0.2 0.1 0 0.1 0 0zm14-1.2c0.1 0-0.1-0.2 0-0.2 0 0.3 0 0.4 0.1 0.2 0.1 0 0.3 0.2 0.3 0.3-0.2 0.1-0.3-0.2-0.4-0.3 0.1 0 0 0 0 0zm-14.1-9.1c1-0.1-0.6 1.9-0.3 0.1 0.2-0.1 0.3-0.1 0.3-0.1 0.7-0.1 0.1-0.1 0 0zm-0.6-1.5c-0.1 0.3-0.1 0.4-0.2 0.7 0-0.1 0.2-0.7 0.2-0.7-0.1 0.2 0 0 0 0zm5.6-5.4c0.1 0.1 0.1 0.1 0.3 0.2-0.1 0.1-0.2 0.1-0.3 0 0.1-0.1-0.1 0.8-0.2 0.3-0.3-0.2-0.3-0.4 0.2-0.5 0.1 0.1 0 0 0 0zm16.8 89.7c-0.1 0.1 0.2 0.5-0.4 0.4 0.2-0.1 0.3-0.2 0.4-0.4-0.1 0.1 0 0.1 0 0zm7-4.4c0.4 0 0.8 0.1 1.2 0.3 0.1 0-1.9 0.7-1.8 1.3 0.1 0 0.9-0.1 1 0-0.1 0.5-0.7 0.4-1.1 0.3 0 0-1.9 0.7-2.1 0.6-0.1-1.2-0.7 0.1-0.9 0 0.1 0 0.1-0.1 0.1-0.2 0.2 0 0.3 0.2 0.5 0.2 0 0.1-2.4 0.4-2.4 0.4-0.1 0.2-0.8-0.1-0.8 0.3 0 0 0.2-0.5 0.3-0.5-0.3 0.1 1.7-0.9 1.4-1.3 0.3-0.6-0.1-0.8 0.6-0.9-0.3-0.3 1.1-0.2 1.1-0.2 0-0.1 0-0.1-0.1-0.1 0.2-0.4 3-0.5 3-0.2zm-27.5-1.2c0.2 0 0.4 0.3 0.3 0.5-0.1-0.1-0.2-0.3-0.3-0.5 0.2 0 0.1 0.1 0 0zm-0.1 0c-0.2 0.2 0.2 0.3 0.1 0.5-0.6 0-0.2-0.5-0.1-0.5-0.1 0.2 0 0 0 0zm-12.2-6.9c0-0.2 0.3 0.1 0.3 0.3l-0.3-0.3c0-0.2 0.1 0 0 0zm-0.2-1.9c-0.2 0.1-0.5-0.2-0.2-0.3l0.4 0.4c-0.1 0-0.1-0.1-0.2-0.1-0.1 0.1 0 0.1 0 0zm-0.1-0.4c-0.2 0-0.4-0.6 0-0.6 0-0.1-0.1-0.2-0.2-0.3-0.6 0.1 0.9-0.3 0.2 0 0.2 0.2 0.1 0.2-0.1 0.3 0.1 0.3 0.3 0.5 0.1 0.6-0.2 0 0.1-0.1 0 0zm-1.1-2.3c0.1 0.1 0.2 0.1 0.3 0.2 0 0.4-0.1 0.5-0.4 0.8-0.1-0.1 0-0.3-0.2-0.5l-0.2 0.2c0-0.3 0.1-0.6 0.5-0.7 0 0.2-0.1 0 0 0zm-46.2-17.1s-0.1 0-0.1-0.1c0.2-0.3 0.7 0.2 0.1 0.1 0 0-0.1 0 0 0zm21.9-8c0.2 0 0.5 0.4 0.5 0.5 0.4 0.1-0.1 0.2-0.1-0.1-0.3-0.2-0.5-0.4-0.8-0.5 0-0.3 0.6-0.3 0.4 0.1 0.2 0 0.1-0.1 0 0zm4.7-2.4c0.2 0-1.5 1.1-1.5 0.2 0.6 0.3 1.1 0.2 1.5-0.2-0.3 0 0 0.1 0 0zm0-1.4c0 0.1-0.1 0.2-0.2 0.2-0.2 0.1 0 0.4 0 0.6-0.5 0-1.1 1-1.5 0.7 0.4-0.7 0.4-1.9 0.6-2.2 0.7-0.8 0.4 0.4 0.5 0.6-0.1 0-0.1 0 0 0.1-0.1-0.2 0.7-0.1 0.6 0 0 0.1-0.1 0 0 0zm3.7-22.5c0.2 0 0.3 0.4 0.4 0.5-0.2 0.1-0.5 0-0.5 0.3-0.2-0.2 0.1-0.2 0.2-0.2 0-0.1-0.1-0.1-0.2-0.2h0.2s-0.4-0.3 0-0.2c0.2-0.2-0.1-0.1-0.1-0.2 0.3 0 0 0.1 0 0zm0.3-2.8c0.2 0 0.4-0.2 0.1-0.1-0.1-0.2 0.6-0.1 0.6-0.4 0.2 0.1-0.4 0.7-0.6 0.6 0.1 0-0.2 0.3-0.1 0.1-0.1 0.1 0.1 0.1 0.1 0.2-0.3 0 0 0.1 0 0.3-0.1 0-0.2-0.1-0.2 0.2 0 0 0.3-0.1 0.4-0.1-0.3 0.3-0.3-0.1-0.5 0.1 0-0.2 0-0.3-0.2-0.2 0-0.2 0.2-0.2 0.2-0.4 0.1 0 0 0.2 0.1 0.3 0-0.3 0-0.4 0.1-0.6 0.2 0.1-0.1 0.2 0 0zm0.3-1.6c0.2 0 0 0.4-0.1 0.4 0-0.1 0.1-0.3 0.1-0.4 0.2 0 0 0 0 0zm-0.9-2c-0.1 0.1 0.4 0.4 0.5 0.4-0.1 0.1-0.5-0.1-0.5-0.2-0.1-0.2-0.1-0.3 0-0.2-0.1 0.1 0 0.1 0 0zm4.7-6.1c0.2 0.1 0.5 0 0.4 0.4-0.2-0.3-0.6 0-0.4-0.4 0.2 0.1 0 0.1 0 0zm24.1-0.1s-0.2 0-0.2-0.1c0 0 0.2-0.2 0.1-0.2 0.8 0.2-0.1 0.3 0.1 0.3v0zm-16.5-3.4c0.1 0.1 0.2 0.2 0.3 0.2-0.3 0.2-1 0.3-1.4 0.8 0.1 0.2 0.3-0.3 0.4 0-0.1-0.1-0.2 0-0.2 0 0 0.1 0.1 0.2 0.2 0.3-0.1 0.1-1.2 0.1-1.4 0.1 0 0.1 0.2 0.2 0.2 0.3-0.1-0.1-0.3-0.1-0.4-0.1 0.2-0.3 0.2-0.6-0.1-0.9-0.3 0.5 2-0.3 2.4-0.7 0.1 0.1 0 0.1 0 0zm6.2-12.4c0.1 0 0.4-0.2 0.6 0-0.2 0.2-0.4 0.2-0.6 0 0.1 0 0 0.1 0 0zm1.1-2.6c-0.1 0.1-0.2 0.1-0.3 0.2 0.1-0.3-0.1 0-0.1-0.2 0.2 0 0.2 0 0.1-0.3 0.1 0 0.3 0.4 0.4 0.2 1.3 0.6-0.3-0.1-0.1 0.1-0.1 0.1 0 0 0 0zm4-6.2c0-0.2-0.1-0.3-0.2-0.2 0-0.1 0.2-0.3 0-0.3 0.1-0.2-0.1-0.1 0.1-0.2 0.1 0 0.6 1.7 0.7 1.8-0.2-0.4-0.4-0.8-0.6-1.1-0.1-0.2 0 0 0 0zm23.5 126.9s0.2 0.4 0.1 0.4c-0.4 0-0.4-0.1-0.1-0.4 0 0-0.1 0.1 0 0zm-30.4-2.2c0 0.2 0.1 0.3 0.3 0.3-0.2-0.1-1 0-0.9-0.4 0.2 0 0.4 0.1 0.6 0.1 0 0.2-0.1 0 0 0zm29.6-0.1c0.5-0.1 0.3 0 0.5 0 0.3-0.1 0.4-0.1 0.4 0.2 0 0.1 0.1 0.1 0.1 0.1 0.6 0 1.2-0.2 1.7-0.5 0.1 0 0.1 0.1 0.2 0.1 0.2 0 0-0.2 0.1-0.2 0.8 0 1.3 0.2 2.2 0 0.2-0.1 0.3-0.1 0.4 0s0.1 0.2 0 0.2v-0.2s-0.3 1 0.2 0.6c-0.1-0.3 0.6-0.6 1-0.5 0-0.1 0.1-0.5 0.4-0.5 0 0.1 0.1 0.7 0.1 0.7v-0.2c-0.2 1.2-0.4 0.9-2 1.2-0.2 0.2-0.5 0.1-0.7 0.2-0.2 0-0.2 0.1-0.1 0.2-1.7 0.6-6.8-1.2-5.3-1.4 0.2-1-0.1-0.1 0.8 0 0.3-0.1-0.1-0.1 0 0zm-2.2-1c-0.7 0.2 0.3-0.7 0 0-0.1 0.1 0.1-0.1 0 0zm11.3-0.5c0 0.3-0.2 0.3-0.3 0.6-0.4-0.1 0.5-0.6 0.3-0.6v0zm-12.8-1.6c0.5 0 0.8 0.7 0.4 1-0.5 0.6-0.4-1-0.4-1 0.3 0 0 0.1 0 0zm13.1-0.4c0.3 0.2 0.2 2.1 0.1 2-0.7-0.3-0.1-2.3-0.1-2 0.3 0.2 0 0 0 0zm-4.6-1c0.2 0.1 0.3 0.1 0.3 0.3-0.4 0.1-0.5 0-0.3-0.3 0.1 0.1-0.1 0.1 0 0zm-0.8 0.1c0 0.5-0.2 0.2-0.5 0.3 0.3-0.2 0.3-0.3 0.5-0.3-0.1 0.5-0.1 0 0 0zm-1.7-0.6c-0.1 0.5-0.9-0.1 0 0 0 0.1-0.1 0 0 0zm7.7 0.2c0-0.4 0.6-0.2 0.7-0.1-0.1 0.1-0.6 0.1-0.7 0.1 0.1 0 0.1 0 0 0 0-0.3 0.2 0.1 0 0zm-7.1-0.5c0 0.2-0.2 0.4-0.4 0.4-0.1-0.2 0.2-0.7 0.4-0.4-0.1 0-0.1 0 0 0 0 0.2-0.1-0.2 0 0zm-1.6 0.1c0-0.3-0.7 0.9-1 0.6 0-0.4 0.2-0.7 0.6-0.9 0.1 0 0.3 0.2 0.4 0.3 0 0.2 0.1 0 0 0zm8.4-0.1c-0.3 0.1-0.4-0.2-0.5-0.2 0-0.5 0.6-0.1 0.5 0.2-0.1 0-0.1 0 0 0-0.3 0.1 0-0.1 0 0zm-6.5-0.5c1 1.3-0.8 0.1 0 0 0 0.1-0.1 0 0 0 1 1.3-0.2 0 0 0zm3.2 0c0.2 0 0.3 0.2 0.4 0.2 0-0.1-0.7 1-0.8 0.1 0.1 0 0.3 0 0.4-0.1v-0.2c0.2 0 0 0 0 0zm5.4 1.3c0-0.1-0.8 1.2-0.9 0.7-0.2-1.1 0.5-1.4 0.6-2.2 0.2 0.1 0.4 0 0.6 0 0 0.2 0 0.4-0.1 0.5-0.1 0.2 0.2 0.2 0.2 0.4l-0.2-0.2c-0.3 0.1 0 0.6 0 0.7-0.1 0.1-0.2 0.1-0.2 0.1-0.1-0.4-0.1 0 0 0zm-2.9-1.6c-0.1 0.8-0.5-0.3 0 0 0 0.1-0.1-0.1 0 0zm-7.4-0.1c0 0.2-0.1 0.3-0.2 0.4-0.2-0.2-0.2-0.8 0.2-0.4v0zm3.9-0.4c0.1 0.4-0.8 0.6-1 0.7 0-0.2 0-0.2 0.3-0.2 0-0.2-0.1 0-0.2-0.1 0-0.2 0.7-0.5 0.9-0.4 0.1 0.4-0.1 0 0 0zm5.5 0c-0.1 0.1-0.1 0.4 0 0.5-0.3-0.1-0.4-0.3-0.3-0.7 0.1 0.1 0.2 0.2 0.3 0.2 0 0.1-0.1 0 0 0zm-10.3 0.1c-0.2 0-0.5 0-0.3-0.2 0.2-0.5 0.6 0 0.3 0.2-0.1 0 0.2-0.1 0 0zm2.2-0.6c0.5 0-0.2 1.3-0.8 1.1v-0.5c0.4-0.1 0.7-0.3 0.8-0.6 0.5 0 0 0 0 0zm6.2-0.3c0.3 0-1 1.1-1 1.2-0.4 0.1 0-0.8 0.3-0.9 0.1-0.1 0.8-0.4 0.7-0.3 0.5 0 0 0.2 0 0zm-5.1 0.8c0 0.1 0.5 0.3 0.4 0.4-0.1 0-0.6-0.5-0.6-0.2 0.1 0.1 0.1 0.7-0.2 0.4 0.1-0.1 0.1-0.2 0.3-0.3-0.4-0.8 0-1.7 0.1-0.3v0 0zm-40-1c0.1 0 0.4 0.1 0.3 0.2h-0.3c-0.1-0.1-0.1-0.2 0-0.2s0 0.1 0 0zm36.2-0.3c0.4 0 0.4 0.6 0.1 0.8-0.3 0-0.2-0.7-0.1-0.8 0.2 0 0.2 0 0 0 0.4-0.1-0.1 0.1 0 0zm7.1-0.3c0.4 0.1 0.4 0.2 0.4 0.5 0.8-0.2 0.4 0.5 0.4 0.6-0.2-0.2-0.6-1-0.8-0.7-0.1-0.2-0.1-0.3 0-0.4 0.4 0.1 0 0 0 0zm-18.2-0.1c0 0.5 0.8 0.3 0.9 0.8h-0.3c-0.1 0-0.1 0.4-0.3 0.5-0.2-0.3-0.6-1.3-0.3-1.3v0zm12.5 0c0.5 0 0.4 0.5 0.1 0.7-0.2-0.1-0.2-0.6-0.1-0.7 0.2 0 0.2 0 0 0 0.5 0-0.1 0.1 0 0zm1.3-0.2c0.9-0.2 0 0.6 0 0.4-0.7 0.4-0.1-0.1 0-0.1-0.1-0.3 0.6-0.6 0-0.3 0.9-0.2-0.1 0.1 0 0zm3.7 0.3c-0.4 0.1 0-0.8 0.1-0.3 0 0.1-0.3 0.4-0.1 0.3-0.4 0.1 0.1-0.1 0 0zm-6.6-0.6c0.3 0-0.1 0.8 0 0.9-0.4-0.4-0.3-0.7 0-0.9 0.3 0 0.1 0.1 0 0zm7-0.1c0.1 0 0.3 0.4 0.3 0.5-0.3 0-0.4-0.3-0.3-0.5 0.1 0-0.1 0.2 0 0zm23.1 2.7s-0.2 0.7-0.2 0.6c-0.2-0.1-0.6 0.1-0.8 0.2 0 1.3-1.5 1.1-1.5 2.2-0.2-0.1-0.2 0.2-0.4 0.1 0 0.3-2.4-0.8-2.2-0.9 0.1-0.9 4.3-4.8 5.9-5.1 0.2 0.1-0.8 3.1-0.8 2.9v0zm-23.8-3.5c0.4 0-0.1 0.5 0 0.5-0.1 0-0.2-0.2-0.3-0.2l0.3-0.3c0.3 0-0.1 0 0 0zm-0.7-0.1c0.6-0.1-0.4 1-0.8 1-0.6-0.5 0.8-0.7 0.8-1 0.2 0.1 0.2 0.1 0 0 0.6 0 0 0.1 0 0zm-33.8 0c0.6 0.2-0.1 0.3 0 0v0c0.1 0.1 0-0.2 0 0zm29.4-0.2c0 0.1 0.7 1.1 0.9 1.1 0.1-0.6 0.7 0.6 0.3 0.5-0.5-0.1-1.1-1.2-1.6-1 0.1-0.3-0.4-0.9 0.4-0.6 0 0.2-0.1-0.1 0 0zm-12.3-0.1c0.1 0.2 0.4 0.5 0 0.4 0.1 0.1 0.9 1.2 0.1 1 0.1-0.1 0.1-0.1 0-0.2-0.3 0 0.1 0.1-0.2-0.1-2.1 1.1 0.5-2.3 0.1-1.1 0.1 0.2 0-0.1 0 0zm14.2-2.7c0.1 0.4-0.4 0.5-0.4 0.2 0.1-0.2 0.2-0.2 0.4-0.1 0-0.1 0.1 0 0-0.1 0.1 0.4 0 0 0 0zm1.6 1c0.1 0.5 0.1 0 0.2 0.5-0.3-0.2-0.9 0.5-1-0.4 0.2 0 0.4-0.4 0.1-0.2 0.4-0.2 0.3-0.3-0.1-0.3 0.4-0.3-0.4-1.2 1.2-0.6 0 0.2-0.3 0.1-0.4 0-0.2 0.3 0.1 0.7 0.2 0.9-0.1 0.1-0.1 0.1-0.2 0.1 0.1 0.5 0.1 0 0 0zm1.7-1c-0.3-0.1-0.1-0.2-0.3-0.3 0.2-0.1 0.3 0.4 0.3 0.3-0.3-0.1 0-0.1 0 0zm-19.5-0.4c0.2 0 0.5 0.2 0.4 0.4-0.2 0-0.5-0.2-0.4-0.4 0.1 0-0.1 0.2 0 0zm-34.4 0s-0.1 0.3-0.1 0.4c-0.3 0.1-0.4-0.6 0.1-0.4 0 0.1-0.1 0 0 0zm47.1-0.6c0.3 0.1 0.4 0.8 0.8 0.7-0.1 0.3-0.9 0.1-0.9 0.2 0-0.1 0.1-0.2 0.1-0.2-0.2-0.2-0.2-0.5 0-0.7 0.3 0.1 0 0.1 0 0zm-2-0.2c-0.1 0.6-0.8 0-0.7-0.2 0.1-0.1 0.7 0.3 0.7 0.2 0.2 0.2-0.4 0 0 0-0.2 0.6-0.2 0 0 0zm-0.9-0.2c0 0.1 0.2 0.3 0 0.3 0 0.1 0.2 0 0.1 0.1-0.6-0.3-0.3 0-0.1-0.4 0 0.1-0.1 0 0 0zm-64.3 0.1c0.4 0.3 0.3 0.3-0.4 0.3 0.1-0.5 0.2-0.6 0.4-0.3 0.1 0.1 0.1 0 0 0zm65.4-0.6c0.4 0 0.2 0.4 0.3 0.6-0.2 0-0.4-0.1-0.4 0.2-0.1 0-0.3-0.2-0.3-0.3 0.4 0 0.3-0.1 0.4-0.5 0.2 0.1 0.2 0.1 0 0 0.4 0 0 0.1 0 0zm0.4-0.3c0.6-0.1-0.2 0.7 0 0 0.1 0-0.1 0 0 0zm-65.4-0.7c0.2 0.3-0.2 1.4-0.7 1.3 0-0.4-0.6-0.4-0.3-0.9 0.1 0 1.3-0.4 1-0.4 0.1 0.3-0.1 0 0 0zm71.9-0.5c0.4 0.3 0.7 0.7 0.9 1.2 0.2 0.9-2.4 0.1-2.3-0.2s1.4-0.9 1.4-1c0.1 0 0 0.1 0 0zm-4-0.1c0.3 0 0.3 0.5-0.1 0.5 0-0.1 0-0.3 0.1-0.5 0.1 0.1 0.1 0.1 0 0 0.3 0 0 0.2 0 0zm2.9-1.1c-0.1-0.1-0.2-0.2-0.4-0.2 0.3-0.2 0.4-0.2 0.4 0.2-0.1-0.1 0.1-0.1 0 0zm-2.6 0.4s0.1 0 0.1-0.1c-0.1-0.1-0.4 0-0.5-0.2l-0.1-0.6c0.3 0 0.6 0 0.8-0.1 0 0.1 0 0.1 0.1 0.2 0.6 0.4-0.1 0.4-0.1 0.2-0.3 0 0.1 0.4 0.1 0.5-0.2 0-0.3 0.1-0.4 0.1zm-63.6-1.2c0.1 0 0.6 0 0.5 0.2-0.1 0.1-0.2 0.2-0.3 0.2 0.1 0.1 0.6 0.1 0.1 0.3 0.1 0.2 0.5 0.5 0.5 0.1 0.1 0.1 0.8 0.7 0.2 0.8-0.4 2.2-2 0-2.7 0.3-0.1-1.4 0.5-1.2 1.7-1.9 0 0-0.1 0.1 0 0zm31.4-0.3l0.2 0.2c-0.1 0.1-0.7 0.2-0.6-0.1 0.1 0.1 0.4 0 0.4-0.1 0.1 0.1 0 0.1 0 0zm34.5-0.4c0.1 0.3-0.5 0.4-0.7 0.5-0.4-0.1-0.2-0.2-0.2-0.4-0.1-0.1 1-0.6 0.9-0.1v0zm-1-1c-0.2 0.6-0.4 0.1-0.8 0.2-0.1-0.8 1.1 0.2 0.8-0.2-0.3 0.6-0.1 0 0 0zm-3-0.8c0.3 0.5 0.2 0.8-0.4 0.7-0.3-0.4-0.2-0.6 0.4-0.7v0zm-46.8 0.9c0.2-2.6 0.4-0.3 0.2-0.5 0 0.1-0.1 0.1-0.2 0.1 0.4 0.5 1.7 0.7 1.4 0.2 0.4 0.2 0.5-0.6 0.8-0.6 0.4-0.4 0.6-0.3 1-0.2 0.2-0.5 0.7 0.2 0.3 0.1 0.1 0.2 0.6 0.5 0.6 0.9-0.2 0-0.1-0.1-0.2 0.2 0.2-0.2 0.5 0.2 0.4 0.4h-0.2c0 0.2 0.1 0.4 0.2 0.3 0.6 0.5-0.7 4.4-0.5 5.2 0-0.2-0.2 0.6-0.3 0.8 0.5 0.4-0.5 0.3-0.7 0.4-0.1-0.4-0.4-0.6-0.8-0.6-0.1 0.2-0.2 0.3-0.1 0.5 0 0.4-0.3 0.5-0.5 0.7-0.8-0.2-0.6 0-1-0.8-0.3 0.1-0.1 0.4-0.4 0.4-0.1-0.2-0.2-0.5-0.1-0.7 0.1 0 0.1 0.1 0.2 0.1 0 0-0.2-0.4-0.2-0.5 0.2 0 0.4-1.9 0.4-2.1 0.4 0.2-0.6-4-0.3-4.3 0-0.3-0.1 0.1 0 0zm7.7-5.3c0.2 0 0.3 0.1 0.2 0.3-0.1-0.1-0.2-0.2-0.2-0.3 0.1 0 0 0.1 0 0zm16.9-1.2c0 0.2-0.5 0.2-0.5 0 0.1-0.1 0.5 0.1 0.5 0 0 0.3-0.1-0.1 0 0zm2.2 0.2c0 0.2-1.2-0.1-1.3-0.2-0.1-0.3 1.2 0.1 1.3 0.2 0 0.2-0.1-0.1 0 0zm-21.2-0.5c0.3-0.3 0.6-0.4 1-0.3 0.1 0.6-0.9 0.6-1 0.3v0c-0.1-0.3 0 0.2 0 0zm17-0.8c0 0.4-0.4 0.2-0.6 0.3-0.1-0.5 0.3-0.3 0.6-0.3-0.1 0.2-0.1 0.2 0 0 0 0.4-0.1 0 0 0zm-18.7-0.3c0.1-0.5 0.4 4.3-0.3 4.1h0.1c0.1 0.1-0.6 1.9-0.6 2-0.4 0.6-1.4-1-1.4-1 0-0.1 0.3 0.1 0.3-0.1-0.1-0.1-0.8-1-0.8-1.2 0.1-0.1 0.3-0.1 0.3-0.4 0 0-0.8-0.9 0-0.7 0.1-0.5 1.9-2.2 1.9-1.5 0.4-0.2-0.2-1.6 0.5-1.2-0.1 0.8-0.1-0.1 0 0zm19.9-0.1c0.5 0 0.9 0.1 1.4 0.1 0.1 0.3-1.5 0-1.2 0.2-0.2 0-1.4 0-1.2-0.4 0.2-0.3 1-0.1 1 0.1 0.1 0.2 0-0.4 0 0 0.4 0 0-0.2 0 0zm-0.9-0.6c0-0.2 0.1-0.3 0.4-0.2 0.7-0.1 0.9 0 0.8 0.6-0.7 0.1-1.2-0.2-1.7-0.6 0.2-0.2 0.4-0.1 0.5 0.2v0zm-4.3-4c-0.4-0.1 0 0.2 0 0-0.2 0 0.1-0.1 0 0zm-0.5-0.1c0.6 0-0.1 0.7 0 0v0zm-41.4-11.6c0.1 0.3 0.2 0.3 0.3 0.1 0 0.3 0.3 0.3 0.3 0.6-0.3 0-0.8-0.5-0.8-0.7h0.2c0.1 0.3 0 0.1 0 0zm-1.5-1.8c-0.1 0-0.4-0.1-0.3-0.2s0.2 0 0.3 0.2c-0.1 0 0-0.1 0 0zm-1.4-2.9c-0.1 0.4-0.6 0.2-0.6-0.3 0.6 0.1 0.5 0.6 0.6 0.3-0.1 0.4 0 0.1 0 0zm4.5-5c0 0.3-0.2 0.2-0.4 0.2 0-0.3 0.6-0.1 0.4-0.2 0 0.3-0.1 0 0 0zm-0.7-0.4c0.1 0.3-0.3 0.2-0.4 0h0.4c-0.1 0.1-0.1 0.1 0 0 0.1 0.3-0.2 0 0 0zm21.7-12.8c-0.1 0-0.1 0-0.1-0.1 0.2-0.1 0.4-0.1 0.6-0.1-0.2 0-0.3 0.1-0.5 0.2-0.1 0-0.1-0.1 0 0zm-0.4-0.1c-0.4 0-1.5 0.3-1.9 0.2 0-0.6 1 0 1.1-0.3 0-0.1-0.2 0-0.2-0.1 0.4-0.1 0.6 0 1 0.2-0.1 0 0-0.1 0 0-0.5 0 0-0.2 0 0zm2.6-0.6c-0.2 0.4-0.9-0.1-0.7 0.3-0.7-0.3 0.1-0.3 0.7-0.3-0.1 0 0 0 0 0-0.2 0.4-0.2 0 0 0zm3.8-2.9c0.2 0-0.1 0.3-0.1 0.3-0.1 0-0.2 0-0.2-0.1 0.1 0 0.2-0.1 0.3-0.2 0.2 0 0 0.1 0 0zm-0.8-0.5c0.2-0.1 0.2 0.4 0.2 0.4-0.1 0-0.3-0.2-0.4-0.3 0 0 0.1 0 0.2-0.1 0.2-0.1 0 0 0 0zm0.7-0.1c0.1 0.4-0.5 0.4-0.5 0 0.1 0.1 0.7 0.1 0.5 0 0 0.4-0.1 0 0 0zm-0.1-1.7c0.1 0 0.3 0.2 0.3 0.3-0.2-0.1-0.8 0.7-0.4 1-0.3 0-0.5 0.1-0.4 0.5-0.4-0.1 0.5-1.8 0.5-1.8 0.1-0.1-0.1 0 0 0zm-40-0.1l-0.1 0.1c-0.1 0-0.2-0.3-0.3-0.3 0.2-0.1 0.3 0 0.4 0.2v0zm12-0.7c-0.3 0.1-0.7 0.1-0.9 0.3-0.2-0.7 1.3-0.8 1.3-1.2 0.2 0.4 0 0.7-0.4 0.9-0.3 0.1 0 0 0 0zm32.7-1.6c0.1 0.3 0.1 0.6 0.1 0.9-0.5 0-0.1-0.9-0.1-0.9 0.1 0.3-0.1-0.1 0 0zm-41.4-1.3c0.2-0.1 0.5-0.2 0.6-0.4 0.3 0.1 0.7 0 0.8-0.3 0.1 1-1.8-2.2-0.5-0.9 0 0.1 0.3-0.8 0.3-0.8 0.1 0.2 1.4-0.7 1.5-0.1 0.1-0.1-0.1-0.2 0-0.3h0.5c0.3-0.1 0 0.4 0.1 0.4 0-0.4 0.4-0.3 0.6-0.6 0.6 0.4 1.8 0.7 2.1 1 0.3-0.2 0.4 1.9 0.1 2.4 0.8 0.1 0.6 0.1 0.8 0.9-0.1 0.1-0.4 0.4-0.3 0.6-0.3 0.1-0.6 0.1-0.9 0.1 0.3 0.5-1.1 0.6-1.2 0.7 0.1-0.1 0 2.3-0.1 2.3-0.2 0.7-0.7 3.1-1.8 3.3-0.2 1.1-0.2-0.1-0.9 0.4 0 0-0.4 0.1-0.5 0.1 0.1-0.1 0.1-0.2 0.1-0.3-0.5 0.3-1 0.3-1.5 0.1 0 0.1 0.1 0.2 0.2 0.1 0 0.7-2.5 0.3-2.6 0.8-0.8 0.2-1.5 0.3-2.3 0.1 0.3-0.6-1.1 0.3-0.6-0.5-0.4-0.1 0.6-0.4 0.8-0.4 0 0-0.6-0.2-0.4 0.1-0.4 0-0.9-0.2-1.3-0.2 0.1-0.1 0.2-0.1 0.3 0 0-0.4-0.1 0 0.3-0.2-0.1-0.1 0.5-0.3 0.5-0.3-0.3-0.2-1 0.4-0.8-0.3-0.3-0.5 0.3-1 0.5-0.8 0.1 0 0.5 0.1 0.4-0.1-0.5-0.1-0.9-0.1-1.4-0.2 0 0 0.5-0.7 0.5-0.3 0.2-0.1 0.7-0.5 0.6 0 0.2 0 0.2-0.2 0.3-0.2 0 0.3 0.1 0.3 0.4 0.3 0-0.1-0.2-0.1-0.2-0.2 0.1 0 0.2 0 0.2-0.1s-0.2-0.2-0.2-0.3c0.4 0 0.8-0.1 1.1-0.3-0.1 0-0.1 0 0-0.1 0 0 0.2 0.3 0.2 0.1-0.2-0.3-0.8-0.1-1.1-0.1 0.6-0.4 1.1-0.6 1.6-1 0-0.1-0.2 0-0.2 0-0.2-0.8 1.1-0.6 1.4-0.7-0.5-0.3-1.1-0.5-1.7-0.6 0.4-0.3 0.1-0.1 0-0.2 0-0.2-0.1-0.5-0.6-0.6 0-0.2 0.1-0.2 0.3-0.2-0.1 0.1 0.1-0.9 0.2-0.4 0.1-0.1 0-0.1-0.1-0.1 0.2-0.1 0.3 0.1 0.5 0.1 0-0.3 0.9-0.7 0.9-0.7 0-0.1-0.5-0.2-0.4 0-1.1-0.2-0.7-0.6 0-0.6 0.1-0.2-0.1-0.2-0.1-0.4 0.3 0 0-0.2 0.2-0.3 0.3 0.2-1-0.9 0.2-0.4-0.1 0.1 0.6 0.2 0.7 0.2 0.1 0.1 0.4 0.2 0.6 0.2 0.1 0.2 0.1 0.2 0.2 0.5 0.1 0 1.2-0.2 1.2 0 0.1-0.2 0-0.3-0.1-0.3 0.2-0.1 0 0.1 0 0zm8.7-3c0.4 0 0.2 0.9 0.1 1.1-0.8-0.1-0.8-0.9-0.1-1.1 0 0 0.1-0.1 0 0 0.3 0-0.2 0 0 0zm34.3-0.4c-0.1 0.9-1.2-0.2 0 0-0.1 0.9-0.2 0 0 0zm-35.6-1.5c0 0.1-0.3 0.5-0.5 0.4 0-0.2 0.3-0.5 0.5-0.4 0 0.1-0.1-0.1 0 0zm-0.7-1.8c0 0.1 0.1 0.1 0.1 0.2 0 0-1.5 0-0.1-0.2 0 0.1-0.1 0 0 0zm0.7-0.3c0 0.3-0.5 0.4-0.7 0.3 0-0.2 0.6-0.3 0.7-0.3v0c0.1 0.3 0 0 0 0zm1-0.7c0.1 0.5-0.7 0.1 0 0 0 0.1-0.2 0 0 0zm-0.2-0.4c-0.1 0.8-0.8-0.4 0 0v0zm-2.5-0.6c0.2 0.1 0.2-0.3 0.4 0-0.1 0.2-0.1 0 0 0.2-0.2 0-0.4 0.3-0.6 0.3 0.1-0.2 0.1-0.4 0.2-0.5 0.2 0.1 0 0 0 0zm5.4-2.9c-0.1 0.1-0.1 0.3 0.1 0.3 0.4-0.3-0.4-0.7 0.4-0.7-0.1 0.2 0.2 0.1 0.2 0.1-0.5-0.7 1.3-1.7 1.2-0.7 0.1 0 0.7-0.1 0.4 0.1 0.7-0.1 1.4-0.1 2 0.2 0.1 0-0.1-0.2 0.1-0.3 0.3 0 0.5 0.1 0.8 0.1 0 0.1-0.4 0-0.4 0.2 0 0 0.3 0 0.3 0.1 0 0.2-0.6 0.5-0.2 0.5-0.7 0.9-2.5 1.2-2.2 1.7 0 0.4-0.2 0.6-0.5 0.8-0.1-0.1-0.7 0.3-0.7 0.4-0.1-1.1 3.8 0.2 4.1 0.2 2.2 0-1.3 3-1.4 3.5-0.1 0-0.9 0.7-0.9 0.5 1.5-0.5-3.8 2.6-1.6 1.4 0.1 0 0.2 0.1 0.3 0 0 0.3 0.9 0.4 0.8 0 0.5 0.1 1 0.4 1.4 0.8-0.7 2 3.2 6.2 2.6 7.3-0.6-0.5 0.1 1.9 0.1 1.9-0.2 0-0.5-0.5-0.6-0.1 0.3 1.1 1.3 1.6-0.2 2.5 0 0.2 0.1 0 0.2 0-0.1 0.3 1.7 0.1 2.1 0.1-0.2 1.2 1.2 2.1-0.2 4 0 0-0.1 0-0.1-0.1-0.1 0.4-0.4 0.6-0.9 0.4 0.2 0.5-0.2 1-0.8 0.8 0.2-0.2-0.2-0.1-0.3 0 0.3-0.1 1.6 1.2 1.9 0.9-0.2 0.6-0.6 0.9-1.2 0.9-0.5 0.4-0.8 0.6-1.6 0.5-0.1 0-0.2 0.1-0.2 0.2-0.4-0.1-3.3-1.2-3.9-0.8 1.4 1.1-1.4-0.4-1.5 0.4-1.6-0.4-2.6-0.3-3.7-0.1 0.2 1-2.8-0.2-2.9-0.4-1.1 0.2-1.2 1.2-2.5 0.5 0.3 0.2 2.5-2.2 3.2-2 0.2-0.3 1.2-1.1 1.2-1.3 0.5-0.1 2.9 1.1 2.9 0 0.1 0-2.8-1.6-2.3-1.6-0.1-0.3-0.7 0-0.5-0.5 0 0.1-0.5-0.1-0.4-0.1-0.1-0.1-0.4 0.4-0.3 0.4-0.2 0.2-1.5-0.5-1.3-0.8 0.1 0 0.3 0.2 0.2-0.1 0.3 0.1 0.2 0 0.1-0.2-0.1 0.1-0.2 0.1-0.3-0.1 0.1-0.9 2.5-0.2 2.9-1 1 0.3 0.7-3.3-0.1-1.7-0.1 0-0.2-0.1-0.2-0.2-0.1 0-0.3 0.1-0.4 0 0.5 0.7 0.7-1.5 0.7-1.8 0.3-0.3 0.7-0.4 1.1-0.1-0.3 0.2 0.1 0.3 0.2 0.4 0 0.1 0 0.2-0.1 0.2 0.1 0.2 0.6-0.1 0.6-0.3 0.3 0.3 0.7 0.3 1.1 0.2 0.1 0.2 0.2 0.2 0.3 0.2v-0.2c0.3-0.3 0.5-0.6 0.8-1-0.2-0.8 0.3-0.7 0.7-1.3 0-0.1-0.1 0.1-0.2 0v-0.3c-0.1 0.3-0.2 0.1-0.3 0-0.2 0.1-0.4 0.4-0.4 0.4-1.5 0.4 0.7-3.5 0.6-3.3-0.1-0.1-0.5-0.2-0.6 0l0.1 0.1c-0.2-0.1-0.6 0.1-0.8 0.3 0 0-1-0.4-1.1-0.5 0.2-0.1-1.4 1.1-0.9-0.2 1 0.7-1.4-0.4-0.8-0.3 0.3-0.3 1.1-1 1.2-1.5 1.5-0.5-0.1-1 0.2-1.3 0.1-0.1 0.3-0.4 0.4-0.7-0.1-0.1-0.5 0.7-0.5 0.7 0.1-0.4-0.2-0.6-0.5-0.8-0.1 0.1 0.1 0.5 0.1 0.6-0.2-0.1-0.8 0.3-0.5 0.5-0.1 0.1-0.2 0.1-0.1 0 0 0.7-0.3 0.9-0.9 0.8 0.1-0.5 0.3-0.9 0.6-1.3-0.3 0.2-0.2-0.5 0-0.1 0.5-0.1 0-1.4 0.8-1.4 0-0.1-0.1-0.1-0.1-0.1 0-0.1 0.3-0.2 0.3-0.3 0.6 0.8-3 2-2.3 1.6 0-0.2 0.1-0.2 0.3-0.2 0 0-0.6 0.2-0.7 0.2 0-0.3 0.4-0.7 0.8-0.7-0.3 0.2 0.6-0.4 0.4 0.1 0.5 0 1.1-1.3 1.6-1.3-0.1-0.3 0.1-0.4 0.4-0.3-0.1-0.1-0.4 0-0.4-0.1 0.3-0.2 0.8-0.2 1-0.6 0 0.1-1.2 0.4-1.2 0.4 0.6 1-0.3 0.4-0.5 0.6-0.2 0.1-1.1 0.2-1-0.2 0 0.1-0.1 0.1-0.1 0 0-0.2 0.8-0.3 1-0.3 0.2 0.1-1-0.6-0.3-0.2 0-0.2-0.2-1 0.5-0.3 0.1 0 0-0.2 0.2-0.1 0-0.2 0.2-0.7 0.2-0.3 0.1-0.1 0.1-0.1-0.1-0.1l0.4-0.2c-0.1 0-0.2-0.1-0.3-0.1 0-0.1 0.3-0.4 0.5-0.4 0 0 0.3-0.5 0.3-0.5-0.6 0-0.8 0.8-0.6-0.2l-0.2 0.2c-0.1 0 0-0.2-0.1-0.3-0.2 0.2-0.2 0.1-0.4-0.1 0-0.1-0.1-0.2-0.2-0.2 0.3-0.4 0.1-0.6-0.4-0.6 0-0.3 0.3-0.8 0.3-0.2 0.1 0 0.2-0.5 0.2-0.5 0.1 0.1 0.2 0.5 0.4 0.4-0.2-0.4 0.7-0.8 0.5 0.4-0.1 0-0.3 0.3-0.2 0.4 0.2 0 0.5-0.6 0.5-0.8 0.1 0.1-0.3 0.8-0.4 0.9 0.1 0.1 0.1 0.2 0.1 0.3 0.2 0 0.6-0.1 0.7-0.3-0.2-0.2-1.4 0.4-0.2-0.9 0.1 0 0.1 0.3 0.2 0.2 0-0.3-0.2-0.3 0.1-0.6v-0.5c0.3-0.2 0.2 0.1 0.3 0.2 0-0.1 0.1-0.2 0.2-0.3s0.1 0.3 0.2 0.3c-0.1 0 0.7-0.2 0.6-0.1 0-0.2-0.2-0.4-0.4-0.3 0.7-0.5 0.8-0.9 0.9-0.9 0 0.1-0.1 0 0 0zm-2.9-1.1l1-0.3c0-0.1 0-0.1 0.1-0.1 0.2 0.1 1.7 0.2 0.2 0.8 0.1 0.2 0.3 0 0.4-0.1 0 0.3-1.2 1-1.4 1-0.1 0.1-0.1 0.5-0.2 0.1-0.1 0.1-0.9 0.6-0.8 0.6-0.2 0.1-0.9 0.9-0.7 1 0 0-0.4 0.9-0.6 0.9 0.1-0.1 0-0.1 0.1-0.2-0.6-0.2 0.3-1.4 0.3-1.7-0.7 0.2 0.5-0.6 0.4-0.4 0.1-0.1 0.6 0.2 0.5-0.4h0.4c0-0.1-0.2 0-0.2-0.1 0-0.2 0.4-0.1 0.4 0-0.1-0.1-0.8-0.6-0.2-0.6-0.1-0.2 0-0.4 0.3-0.5zm9.3-1.1s0.2 0.2 0.3 0.2c-0.1 0-0.1 0.1-0.1 0.2-0.2 0-0.3 0-0.3-0.3 0 0 0-0.1 0.1-0.1zm-0.3-0.2c0-0.1 0.2-0.1 0.2-0.1 0 0.1-0.1 0.4-0.2 0.4v-0.3 0zm-0.2 0c0.1 0.2-0.3 0.5-0.4 0.5 0 0.2 0.7 0.1 0.4 0.3 0.5 0 0 0.3-0.3 0.2-0.1 0.1 0 0.5-0.2 0.5-0.1 0-0.1-0.1-0.1-0.2-0.1-0.2-0.3-0.1-0.5 0-0.4-0.2 0.4-1.7 0.7-1.2l0.1-0.3c0.1 0.1 0.2 0.1 0.3 0.2 0.1 0.2 0 0.1 0 0zm0.1 0.4v-0.1c0.2 0.1-0.2 0.4-0.4 0.3 0.2-0.1 0.3-0.2 0.4-0.2 0-0.1-0.1 0 0 0zm0.8-0.7v0.1c0.8 0.1-0.3 0.3-0.4 0.3 0-0.2 0.1-0.4 0.4-0.4-0.1 0-0.1 0 0 0zm-0.7-0.4c0.2 0 0 0.2 0 0.2h-0.2c0.1 0.1 0.1 0.2 0.1 0.3-0.2 0.1-0.2-0.4-0.4-0.4 0.2 0 0.4 0 0.5-0.1 0.2 0 0 0 0 0zm3.7-2c0 0.1 0.1-0.2 0.1-0.2 0 0.4-1.1-0.7-0.4-0.7 0 0.5 0.4-0.1 0.5-0.3 0 0.1-0.1 0.1-0.1 0.1 0.1-0.1 0-0.2-0.2-0.2 0-0.1 0.3-0.1 0.2-0.3 0.1 0.2 0.1 0.2 0.2 0 0.1-0.1 0.2-0.2 0.4-0.1 0 0.2-0.1 0.3-0.2 0.5 0.1-0.1 0.1-0.1 0.2 0 0.5-1.3 1.3-0.5 0.6-0.5 0 0.2 0.3 0.1 0.4 0.2-0.3 0.3-0.4 0.3-0.4-0.1 0 0-0.5 0.6-0.6 0.6 0.6 0.1-0.3 0.3 0.4 0.2-0.1 0.3-0.2 0.1-0.4 0.1-0.1 0.2 0 0.3-0.2 0.4 0 0.1 0.3 0.2 0.3 0.3-0.1 0-0.2 0-0.2 0.1-0.3-0.2-0.4 0.2-0.3 0.3-0.1-0.2-0.3 0.5-0.4 0.4s0-0.4 0.1-0.8v0zm12.4-3.5c0.3 0.1 0.1 0.4 0 0.6h-0.3c0.1-0.2 0.2-0.1 0.2-0.4 0.1 0.2 0.1 0.2 0.1-0.2 0.3 0.1 0 0.1 0 0zm3.2-3.2c0.1 0 0.2 0 0.2 0.1-0.4 0-0.4 0.5-0.5-0.1h0.3c0.2-0.1 0 0 0 0zm-23.5-0.1c-0.4 0-0.1-0.8-0.4-0.7 0-0.1 0.1-0.3 0.1-0.4 0.4 0.1 0.5 0.9 0.3 1.1-0.1 0-0.1 0 0 0-0.4 0 0.1 0 0 0zm28.1-3.5c0.3-0.1 0.2 0.3 0.4 0.2-0.5 0.2 0.1 0.9-1.1 0.3 0-0.2 0.4-0.2 0.6-0.2-0.1 0-0.1-0.1 0-0.2-0.1 0.1 0.1 0.1 0.1-0.1 0.3-0.1 0 0.1 0 0zm-27.8 1.5s0.7 0.9 0.1 0.8c0-0.1-0.4-0.8-0.1-0.8 0 0-0.1 0 0 0zm0.1-1.5c0-0.1 0.6 0.2 0.4 0.2 0 0.2 0.3-0.2 0.4-0.2 0 0.5 0.2-0.2 0.2 0.3 0.1-0.1 0.1-0.2 0.3-0.2-0.1 0.3 0 0.4 0.3 0.5 0 0.2-0.9 0.4-0.9 0.1-0.1 0.1 0.1 0.2 0.2 0.2-0.1 0.1-0.3 0.3-0.5 0.3 0.2 0.4-0.3 0.3-0.3 0.4v-0.2c-0.2 0.4 0-0.3-0.1-0.4 0 0.1-0.6 0.1-0.6 0.1-0.1-0.4 0.3-1.1 0.6-1.1v0 0zm33.6-6.6c-0.2 0 0.2 0.4-0.4 0.1l0.1 0.1c0.1 0 0.2-0.1 0.3-0.2 0.3 0 0 0.1 0 0zm1.6-2c0 0.4-0.2 0.2-0.4 0.2 0-0.3 0.2-0.1 0.4-0.2-0.1 0.3-0.1 0.3 0 0-0.1 0.4-0.2 0.1 0 0zm-0.6-0.4c0.1 0 0.2 0.1 0.3 0.1 0 0-0.3 0.3-0.3 0.2-0.1 0 0-0.2 0-0.3 0.1 0.1 0 0.1 0 0zm35-0.1c0.3 0.1 0.4 0.6 0.7 0.5-1.7 1.3-0.7-0.5-0.7-0.5 0.3 0 0 0 0 0zm0.3-0.2h0.5c-0.1 0.3-0.3 0.3-0.5 0 0.1 0 0 0.1 0 0zm-34.8 0c0-0.2 0.1 0 0.2-0.1 0 0.2 0 0.4-0.1 0.6-0.2 0-0.1-0.4 0.1-0.4-0.1 0-0.1 0-0.2-0.1 0.1-0.1 0.1 0 0 0zm2.4-3.6c0 0.2-0.3 0.5-0.4 0.2 0.2 0 0.2-0.2 0.4-0.2 0 0.1-0.1 0 0 0 0 0.2-0.2 0 0 0zm40-5.2c0 0.3-0.6 0.1-0.6-0.1-0.1-0.5 0.5 0.1 0.6 0.1-0.1 0.1-0.1 0.1 0 0 0 0.3-0.1 0 0 0zm-37.2-0.6c0.1 0 0.1 0 0.2-0.1-0.2 0.1-0.1 0.4 0 0.5-0.1-0.1-0.6-0.3-0.6-0.4 0.1-0.1 0.2-0.2 0.4 0 0.1 0 0-0.1 0 0zm3.3-4.8c-0.2 0.2-0.4-0.1-0.3-0.3 0.2 0.1 0.2 0.2 0.3 0.3-0.1 0.1 0-0.1 0 0zm0.2-0.6c0.6 1.5-0.5 0.1-0.2-0.2 0 0.3 0.1 0.3 0.2 0.1 0.1 0.9 0 0.2 0 0.1 0.1 0.2 0.1 0.2 0 0 0.1 0.2 0 0.1 0 0zm3.3-2.8c0 0.1 0 0.1 0.1 0.2v-0.3c0.6 0-0.2 1.4-0.2 1.6 0 0-0.2-0.1-0.1 0 0-0.1-0.1-0.1-0.1-0.2 0.1 0.4-0.1 0.1-0.1 0.1-0.1 0.1-0.2 0.3-0.5 0.2 0-0.2 0.1-0.4 0.2-0.5-0.1 0.8-0.4-0.7-0.2-0.4 0.4 0.2 0 0.1 0.2-0.2 0.1 0 0.1 0.1 0.1 0.2 0.1-0.2 0.1-0.1 0.3 0.1 0-0.2-0.2-0.3 0-0.6 0.2 0.1 0.2 0.2 0.3 0.4 0.1-0.3-0.2-0.5-0.1-0.7-0.1 0 0 0 0.1 0.1zm0.8-0.8c0.1 0.1 0.2 0.1 0.1 0.2-0.4 0.1-0.5-0.9-0.1-0.7-0.2 0.2-0.1 0.4 0.1 0.4 0 0.1-0.1 0-0.1 0.1 0.1 0 0.1 0 0 0 0.1 0.1 0-0.1 0 0zm0.5-0.7c0.1 0.1 0.3 0.3 0.1 0.4 0-0.1 0-0.2-0.1-0.4 0.1 0.1 0 0.1 0 0zm-17.8 57c1.5-1.3 2.4 0.7 1.6 1.6-0.1-0.4-0.6-0.1-0.8-0.1 0 0.1 0.2 2-0.2 2-0.1-0.6 0.8 0 0.8 0.2 0-0.1-0.9 0.3-0.9 0.3s-0.4 0.8-0.4 1.1c-0.2 0-0.2-0.4-0.3-0.4 0 0.8-2.1-0.7-1.6-0.6 0-0.2 1.1-0.9 1.1-0.5 0 0-0.8 0.3-0.1 0.5 0.4-0.1 0.3-0.3 0.5-0.5 0 0.1 0.4 0.2 0.4 0.1-0.6-0.3-0.9-0.7-1.6-1 0 0.1 0 0.3-0.2 0.3-0.1-0.1 0.1-0.5 0.2-0.3-0.3-0.2-0.3-0.4 0-0.6 0-0.1-0.1-0.8-0.3-0.8 0-0.3-0.6 0 0.1-0.2 0 0-0.3-0.2-0.4-0.2 0 0.6 2.2-1 0.9-0.9 0.3 0 0.7 0.4 1 0.1 0 0.2 0 0.2-0.2 0.3l0.1 0.4c0.5-0.3 0.6-0.5 0.3-0.8 0.3-0.3-0.1 0 0 0zm8.8 66.6c0.2 0.2-2.3 4-0.7 4-0.1 0.4 0 0.5-0.1 1-1.6 0.4-1.7-0.5-4.1-0.6 0-0.2-1.7-0.7-1.3-0.8-0.3-0.7-1.6-1.1-2.3-1.2-0.8-0.7-0.4-0.7-0.6-1.6 0 0-0.1 0.1-0.1 0 0.1 0 0.6-0.5 0.7-0.6 0.5-0.6 0.4 0.5 1.2 0.1-0.1-1.3 1 0.1 1 0 0.3 0 0.6-0.2 0.7 0.3 0.9-0.1 3.2-0.7 4-0.6 0 0.1 0.4 0.3 0.4 0.3 0.3 0 0.3-0.3 0.5-0.4 0 0.2 0.3 0 0.4 0 0.1-0.5 0.4 0.1 0.3 0.1 0.3 0.2-0.1-0.1 0 0zm-54.2-116.4c0.2 0 0.3 0.3 0 0.3l0.1 0.3c-0.2 0.1-0.3 0.4-0.6 0.4 0.4 0-0.5 0.6-0.5 0-0.3 0.1 0.7 1-0.2 1 0.3 0.4-0.1 0.4-0.1 0.9 0.1-0.1 0.3-0.7 0.6-0.6 0 0.1-0.1 0.5 0 0.5-0.3-0.9 0.8-1 1.1-0.5 0.5 0 2.3-2.9 2-0.9 0.1 0-0.1 0.8-0.1 0.9 0.2 0 0.3 0 0.3 0.2 0.3 0 0.3-0.4 0.4-0.6-0.1-0.2 0.6-0.4 0.6-0.5 0.2 0.4 1-0.3 0.9 0.1 0.5-0.4 0.3 0.9 0.2 1.1 0.1-0.1 0.1-0.2 0.2-0.3 0 0-0.2 1.1-0.3 1.3 0.5 0.1 0.2-1.2 0.5-1.2-0.1-0.3 0.5-0.7 0.6-0.3 0.4 0 0.2 0.7 0.3 0.9-0.9-0.4 2.2-0.1 1.3 0 0-0.1 3.2-2.3 2.3 0.9 0.4-0.1 1.3-0.8 1.7-0.2 0 0-0.8 0.1-0.9 0.1 0.1 0.4-0.3 0.4-0.6 0.4 0 0.1 0.2 0.4 0.2 0.5 0.6-0.6-0.2 1.1-0.2 0.8-0.1-0.1-0.4 0-0.4 0.2 0.2 0.2 0.6 0 0.9 0.1 0 0 0.1 1.3 0.3 1.2 0.1-0.1 0.1-0.1 0.2 0s0 0.4-0.2 0.5c0.2 0.3-0.3 0.2-0.4 0.2 0.1 0.1 0.1 0.2-0.1 0.2 0.4 0.2 0.4 0.5-0.2 0.7 0.1-0.2 0.2-0.2 0.3-0.1-0.1 0.2-0.9 1-0.9 0.2-0.1 0.1 0 0.4 0.2 0.4-0.1 0.3-0.2 0.1-0.4 0 0 0.3-0.9 1-1.1 0.5-0.1 0.1-0.1 0.5-0.2 0.3 0.2 0 0.2-0.1 0-0.2-0.2 0.3 0.2 0.3-0.3 0.2-0.1 0 0.2 0.2 0.2 0.2-0.1 0-0.1 0.1-0.2 0.1-0.5-0.1-5 0.8-5 1 0-0.1 0.3 0 0.3-0.1-0.1-0.1-0.3 0.1-0.4 0.1 0.1 1.6-6.1-2.1-6.3-2.1 0.7-1-1.6-1.4-1.5-1.8-0.6-0.1-1.1-0.3-1.6-0.5 0.2-0.4 0.4-0.7 0.7-1 0.5 0.5 0.1 0.7 1.1 0.6-0.1-0.3 0.2-0.1 0.1-0.4 0.2 0 0.3 0.2 0.5 0.1-0.6-0.2 0.6-0.5 0.7-0.5-0.1-0.2-0.9 0-1.1-0.1 0.4-0.2 0.6-0.6 1.1-0.6 0-0.2-0.5 0-0.5 0-0.5 0.2-0.3-0.3-0.2-0.4-0.4 0.2 0.1-0.6 0.4-0.7-0.1-0.1-0.1-0.1-0.2 0 0.1-0.2-0.1-0.2 0.1-0.2 0-0.1-1.9-1-1.8-1-0.9 0.2-0.6-0.7-0.3-0.7 0.4 0.3 0.8 0.3 1.2 0.2v0.3c0-0.2 0-0.3 0.2-0.3 0.3 0.1 0.3 0.1 0.1 0.2 0 0 0.5-0.1 0.5 0 0-0.1 0.8 0.2 0.8 0.2h-0.1c0 0.1 0.9 0.5 1 0.6 0.1 0 0.5-0.5 0.4-0.6-0.6 0.5-1.3-0.5-1.2-0.5 0.2-0.1 0-0.3 0.3-0.2 0.1-0.2 1.1-0.2 1.4-0.1-0.3-0.2-0.1-0.1-0.2-0.4-0.1 0-0.1 0.1 0 0.1-0.1 0-0.1-0.1-0.1-0.2-0.4 0.2-0.2 0-0.6-0.1 0-0.2 0.2-0.1 0.3-0.2 0.1-0.2-0.4 0.4-0.2-0.3-0.1 0-0.6 0.1-0.3-0.2-0.1 0.1 0 0.3-0.3 0.2 0.2-0.3-0.3-0.1 0.1-0.3-0.2-0.2-0.5 0.2-0.6-0.2-0.1 0.3-0.3 0.3-0.6 0.1-0.2 0-1.2 0-0.9-0.4 0-0.1-0.5-0.4-0.6-0.4-0.4-0.3 0.5-0.2 0.9 0.1 0-0.2 0.1-0.5 0.1-0.4-0.1-1.2 1 0 0.7 0.5 0 0.1 0.2-0.1 0.1-0.3 0.1-0.1 0.6 0.1 0.6 0.1-0.2-0.2-1.4-1.3-0.1-0.7 1.3-1.2-0.8-0.4 0.5-0.5-0.5-1.5 1.6 0.3 1 0.5-0.2 0.4 0.1 0 0.2 0 0 0.2 0.2 0.4 0 0.6 0.3-0.2 0.2 0.2 0.1 0.3 0.5 0.1-0.8-2.5 0.8-1.3 0-0.2-0.2-0.2-0.1-0.5-0.2 0.1-0.3 0.1-0.2-0.1-0.5 0.3-0.6-0.4-0.4-0.4 0 0 0.2 0.5 0.2-0.2 0.3 0.1 0.6 0.2 0.9 0.3 0.2 0 0.1 0.2 0.1 0.3 0-0.1 0-0.1 0.1-0.1s0.1 1.9 0 2c0 0.1 0.3 0 0.3 0 0.1 0.2 0.1 0.3 0 0.4 0.2 0 0.1-0.1 0 0z" fill-rule="evenodd" clip-rule="evenodd"/></g></svg>
