<svg xmlns="http://www.w3.org/2000/svg" height="279" width="477" viewBox="0 0 477.4 278.5"><style>.a{fill:#fff;}.b{fill:#fff;stroke-width:0.04;}.c{fill:#fff;stroke-width:0.1;vector-effect:none;}</style><polygon points="537.5 200.3 537.5 215.7 500.9 215.7 500.9 221.3 537.5 221.3 537.5 242.5 478.4 242.4 478.4 200.3 " transform="translate(-60.06 -68.37)" class="a"/><rect y="106.2" x="418.3" height="19.9" width="59" class="a"/><polygon points="472.6 200.3 472.6 215.7 436 215.7 436 221.3 472.6 221.3 472.6 242.5 413.5 242.4 413.5 200.3 " transform="translate(-60.06 -68.37)" class="a"/><rect y="106.2" x="353.4" height="19.9" width="59" class="a"/><path d="m327.7 174h-39.2v-42.2h22.3v21h14.7v-5.6h-8.7v-15.4h30.9v22.3c0 11-8.9 19.9-19.9 19.9z" class="a"/><path d="m308.5 106.2c-11 0-19.9 8.9-19.9 19.9h59.1v-19.9z" class="a"/><polygon points="225.1 212.4 245 212.4 251.2 193.9 257.3 212.4 277.3 212.4 264.7 174.6 237.7 174.6 215 242.4 342.8 242.5 342.8 221.3 306.2 221.3 306.2 215.7 342.8 215.7 342.8 200.3 283.7 200.3 283.7 231.8 277.3 212.4 261.1 223.9 267.3 242.4 251.2 231 235 242.4 241.2 223.9 " transform="translate(-60.06 -68.37)" class="a"/><rect y="106.2" x="223.6" height="19.9" width="59" class="a"/><path d="m319.9 210.7h18v-3h-14.4v-24.1h-3.6z" class="b"/><path d="m343.1 197.2c0-5.5 2.8-11.2 9.4-11.2 6.6 0 9.4 5.7 9.4 11.2 0 5.5-2.8 11.2-9.4 11.2-6.6 0-9.4-5.7-9.4-11.2m-3.6 0c0 7.4 4.4 14.2 13 14.2 8.6 0 13-6.8 13-14.2 0-7.4-4.4-14.2-13-14.2-8.6 0-13 6.8-13 14.2z" class="b"/><path d="m369.9 210.7h3.4v-21.8h0.1l14.2 21.8h4v-27.1h-3.4V205.6H388l-14.3-22h-3.8z" class="b"/><path d="m401 186.6h6.1c6.7 0 9 3.9 9 10.4 0 10-6.6 10.7-9.1 10.7h-6m-3.6 3h9.3c9 0 13-5.1 13-14.2 0-8.7-4.7-12.9-13-12.9h-9.3z" class="b"/><path d="m426.2 197.2c0-5.5 2.8-11.2 9.4-11.2 6.6 0 9.4 5.7 9.4 11.2 0 5.5-2.8 11.2-9.4 11.2-6.6 0-9.4-5.7-9.4-11.2m-3.6 0c0 7.4 4.4 14.2 13 14.2 8.6 0 13-6.8 13-14.2 0-7.4-4.4-14.2-13-14.2-8.6 0-13 6.8-13 14.2z" class="b"/><path d="m452.9 210.7h3.4v-21.8h0.1l14.2 21.8h4v-27.1h-3.4V205.6h-0.1L456.8 183.6h-3.8z" class="b"/><polygon points="192.5 92.4 179.8 83.3 195.5 83.3 200.3 68.4 205.1 83.3 220.8 83.3 208.1 92.4 212.9 107.3 200.3 98.1 187.6 107.3 " transform="translate(-60.06 -68.37)" class="a"/><polygon points="132.9 108.7 120.2 99.5 135.8 99.5 140.7 84.6 145.5 99.5 161.2 99.5 148.5 108.7 153.3 123.6 140.7 114.4 128 123.6 " transform="translate(-60.06 -68.37)" class="a"/><polygon points="91.2 150.3 78.6 141.1 94.2 141.1 99.1 126.2 103.9 141.1 119.5 141.1 106.9 150.3 111.7 165.2 99.1 156 86.4 165.2 " transform="translate(-60.06 -68.37)" class="a"/><polygon points="72.7 212 60.1 202.8 75.7 202.8 80.5 188 85.4 202.8 101 202.8 88.4 212 93.2 226.9 80.5 217.7 67.9 226.9 " transform="translate(-60.06 -68.37)" class="a"/><polygon points="91.2 269.5 78.6 260.3 94.2 260.3 99.1 245.5 103.9 260.3 119.5 260.3 106.9 269.5 111.7 284.4 99.1 275.2 86.4 284.4 " transform="translate(-60.06 -68.37)" class="a"/><polygon points="132.9 311.1 120.2 301.9 135.8 301.9 140.7 287.1 145.5 301.9 161.2 301.9 148.5 311.1 153.3 326 140.7 316.8 128 326 " transform="translate(-60.06 -68.37)" class="a"/><polygon points="192.5 331.9 179.8 322.7 195.5 322.7 200.3 307.9 205.1 322.7 220.8 322.7 208.1 331.9 212.9 346.8 200.3 337.6 187.6 346.8 " transform="translate(-60.06 -68.37)" class="a"/><polygon points="252.1 311.1 239.4 301.9 255.1 301.9 259.9 287.1 264.7 301.9 280.4 301.9 267.7 311.1 272.6 326 259.9 316.8 247.2 326 " transform="translate(-60.06 -68.37)" class="a"/><polygon points="293.7 269.5 281 260.3 296.7 260.3 301.5 245.5 306.3 260.3 322 260.3 309.3 269.5 314.2 284.4 301.5 275.2 288.9 284.4 " transform="translate(-60.06 -68.37)" class="a"/><polygon points="293.7 150.3 281 141.1 296.7 141.1 301.5 126.2 306.3 141.1 322 141.1 309.3 150.3 314.2 165.2 301.5 156 288.9 165.2 " transform="translate(-60.06 -68.37)" class="a"/><polygon points="252.1 108.7 239.4 99.5 255.1 99.5 259.9 84.6 264.7 99.5 280.4 99.5 267.7 108.7 272.6 123.6 259.9 114.4 247.2 123.6 " transform="translate(-60.06 -68.37)" class="a"/><path d="m144.7 189.9c0.3 0-0.1 1.1 0.6 1.2 0.7 0.1 1.1-0.8 1.1-0.8-0.1-0.9 1.8-3.6 2.9-3.6 0-0.1-0.1-0.2-0.1-0.2-3.1-2.8-0.2-3.7-0.1-5.5 0-0.4 2.3 2 2.4 2 0 0.5 0.8 0.6 1 0.1 0.6-1.6-1.2-1.8-1.3-3-1.3-0.3-2.7-1.5-4-2-3.2-1.2-1.3-0.7-1.4-2.4 0 0.1-5.2-1.4-6-3-0.8-1.5-1.2-5.3-3.7-5.3-0.1-0.4-0.5-0.5-0.6-0.9-0.7 0.2-0.3-2-0.4-2.2 0.2 0 0.5 0.6 0.3-0.1 0.1 0 0.2 0.3 0.2-0.1 0.1-0.1 0.2-0.6-0.1-0.4-0.2-0.1-0.4-0.8-0.4-1-0.2 0.3-0.2-0.9 0.2-0.9 0.1 0.2-0.1 0.3-0.1 0.5 0.3-0.2 2.3-0.8 2.2-1.2 0-0.1-0.2 0.1-0.2 0.1-0.2-0.2 0.4-0.2 0.5-0.2 0 0 0.5 0.5 0.7-0.1 1 0-0.6 2 0.6 3.1 0 1.3 2.3-0.7 1.6 0.2-0.3-0.6 0 0.7 0 0.8-0.5-0.2 0.4 1.3 0.6 1 0-0.3-0.6-0.4-0.5-0.7 0.1 0 0.1 0.1 0.2 0.2 0.1 0.1 0.3-0.2 0-0.3 0-0.1-0.2-1.4 0.2-1-0.1-0.1-0.5-0.2-0.4-0.5-0.1-0.1 0.9 1.2 0.7 0.7-0.2 0.4-0.1 0.6 0.3 0.5 0.1 0.3 0.7 1.4 0.4 1 0.4 0 0 0.2 0.1 0.4 0.6-0.1 0 0.2 0 0.2 0.1 0.1 0.3 0.1 0.4 0.1 0 0.3 0.3 0.4 0.2 0.7-0.5-0.1-0.8-0.9-1.3-0.7-0.1 0.3 0.5 0.2 0.5 0.4-0.3 0.4 1.1 1.7 1.5 1.7 0.1-0.6-0.9-0.5-0.9-1.1 0.1 0.1 0.2 0.2 0.4 0.2-0.2 0 0-0.3 0.1 0.1 0.2 0.2 0.5 0.3 0.8 0.2 0 0.1 0.5 0.9 0.7 0.6 0 0.1-0.1 0.1-0.2 0.1 0-0.3-0.1 0.1-0.3 0.2 0.2 0.4 0.4-0.2 0.6-0.2-0.1 0.3 0.8 1.7 1 0.9 0.7 0 4.1 0.9 3.8 2-0.4 0-0.9-0.4-1.4-0.5-0.1 0.4-0.3 0.5-0.7 0.3 0.3-0.1-0.4 0-0.5 0 0.2 0.1 1.6 0.7 1.6 0 0.3 0 2.1 0.8 2.2 1.1 0.8-0.1 1 0.9 1.8 0.9 0 0.5 2.8 2 3 2.1 0 0.1-0.1 0.1-0.2 0 0.2 0.2-0.1 0.4 0.2 0.6 0 0.2-0.4 0.1-0.5 0.1 0.1 0.5 0.8 2.1 0.5 2.6l-0.3-0.3c-0.4 0 0.3 2.2 0.3 2.3 0.1-0.1 0.1 0 0.1 0-0.1 0.2-0.2-0.2-0.2-0.3-0.5 1.2 1.9 0.8 1.6 2.2 0 0 0.3-0.4 0.2 0 0.2 0-1.4 0-0.3 1.1 0.1 0.5 0.4 0.7 1 0.7 0-0.1 0-0.3-0.1-0.5-0.1 0.1-0.2 0.1-0.3 0.2 0-0.1 0-0.2-0.1-0.3-0.1 0.1 0 0.1 0 0.2-0.2 0-0.5-1.1-0.1-1.1 0 0 0.5 0.6 0.5 0.7 0 0.2 0.9 1 0.7 1.1 0.6 0.2 1.1 0.4 1.4 1.3-0.7 0-0.5 0.8-0.5 1.3 0.1-0.2 0.7-0.4 0.8-0.3 0 0-0.1-0.1-0.2-0.1 0.1-0.2 0-0.5 0.2-0.7 0.5 0-0.2 0.9 0.3 0.7 0.1 0.5-0.3-0.2 0.2-0.2 0.4 0.3 0.2 1.5 0.9 1.3 0 0 0-0.1-0.1-0.1 0-0.1 0.2 0 0.2 0 0 0-0.1-0.2-0.1-0.3 0.4 0 0.5 0.4 0.9 0 0.6-0.1-1.3 1.6-1.4 1.6-0.4 0.2 0.9 1 0.9 1.2 1.8 0.9 0.7 1 0.9 2.2 0 0-0.2 0 0 0.2 0.2-0.2 0.3 0.2 0.3 0.4 0.1 0 0.1 0 0.1-0.1 0.1 0 0 0.7 0.3 0.7 0.1-0.3 0.3-0.2 0.4 0.1 0.3 0.1 0.2-0.3 0.3-0.4-0.3-0.5-0.1-0.7 0.4-0.9 0.1 0.1-0.1 0.2-0.1 0.3 0 0.2 0.2 0.2 0.3 0.3 0.1-0.3 0.9 1.1 0.6 1.1 0 0.3 0.4 0.6 0.6 0.7 0.2 0-0.2-1.5 0.2-1.3-0.2-0.3 1 0.1 1.1 0.9 0.3-0.1 0.1-0.1 0.2-0.3 0 0 0.5 0.7 0.7 0.2l-0.3-0.6c-0.3 0.1-0.4-0.1-0.4-0.4 0.9-0.6-1.8-2.6-1.3-3.2 0.2 0 1 0.4 1.1 0.4 0.1 0.2-0.2 0.2 0.1 0.5 0.1 0.1 0.1 0.1 0 0.1-0.1 0.3 0.2 0.1 0.3 0.3 0 0 1.3-1.1 1-0.8-0.3 0.1-0.6 0.1-0.9 0.2-0.1-0.2 0.7-0.2 0.8-0.3 0-0.2 0.1-0.3-0.1-0.3 0-0.1 0.2 0 0.1-0.1l-0.2-0.2c-0.1 0-0.2 0.1-0.3 0.1 0.3-0.2-0.1-0.3 0-0.7 1 0.3-0.1-0.4 0-0.3l0.1 0.1c0 0.1-0.1 0.1-0.2 0.1 0 0.1 0.3 0.4 0 0.4-0.1 0.1-0.4 0.4 0 0.4 0 0-1.1-1.1-1.2-1.1 0.1-0.3 0.8-0.5 1.1-0.5-0.1 0.3 1-0.3 0.8 0.3 0.3 0 0.1 0.1 0.4 0.3 0.1 0 0.9 0.1 1 0.3 0-0.1 0.3-0.5 0.1-0.5-0.1 0.1-0.1 0.1-0.1 0.2-0.1 0 0-0.8-0.2-0.6 0.1-0.3-0.4-0.7-0.2-0.9 0.4 0.4 0.1-0.7 0.5-0.2h-0.1c0 0.2 0.4 0.2 0.5 0.3-0.1 0.3-0.3 0.5 0 0.1 0.1 0 0.2 0.1 0.1 0.2 0.3 0 0.1-0.1 0.2-0.2 1.4 0.5-1.4-2.6-1.8-2.4-1.4-1-1.7-0.6-2.8-0.7 0.2-0.3-0.3-1.1-0.3-1.4 0.2 0 0.8 0.4 0.7 0.5-0.1 0-0.2 0.1-0.1 0.2-0.2 0-0.1-0.2-0.1-0.3-0.2 0-0.2 0.5 0.1 0.6 1.3-0.5 0-2-0.5-1.8l-0.3-0.3c0-0.1-1.7-3.4-1.2-3.3-0.1 0.2 0.5-0.2 0.2-0.2 0.1-0.1 0.1-0.1 0.2 0 0.1-0.1 0.1-0.2 0.1-0.3-0.5 0.1 1.6 2.2 1.6 2.4 0 0 1.3 0.2 1.2 0 0-0.1-0.5-0.2-0.2-0.3 0 0.1-0.6-0.1-0.6-0.1-0.3 0-0.5-0.4-0.5-0.7 1-0.5 1.2 1.3 1.9 1-0.1-0.3-0.1-0.7 0-0.8-0.4-0.1-0.7-0.3-1-0.5-0.2-0.7 1.4 0.3 1.5 0.2 0.9-0.1-0.1-1-0.8-1-0.4 0.7-0.2-0.2-0.5 0 0-0.2 0.2-0.1 0.2-0.3-0.2-0.1-0.5-0.1-0.5-0.4 0.4 0.4 0.3-0.2 0-0.2 0 0 2-0.7 2.3-0.6l0.8-0.3c0.2 0 0.2-0.5 0.5-0.5 0.9-0.8 3.7 2 4.5 0.8-0.8 0.3 0.6-0.7 0.4 0-1.6 0.3-2.2 4.3-1.4 4.5L177 181c-0.1 0.3-0.1 0.1-0.3 0.3 0.4 0-0.1 0.6-0.3 0.6 0-0.2-0.1-0.3-0.3-0.1 0.2 0.2-0.1 0.6 0.4 0.5-0.3 0 0.2 0.2 0.2 0.4-0.3 0.1 1.1 1 1 0.8 0 0.1-0.2 0-0.2 0.3-0.3-0.1-0.1 0.1-0.1 0.3-0.1 0.2-0.5 1.5-0.5 1.6-0.2-0.4-0.4-0.8-0.8-1.1-0.3-0.1-0.2 1-0.2 1.1 0.2 0.1 0.3-0.3 0.4-0.1-0.1 0.1 0 0.4-0.2 0.5H176c0-0.2-0.1-0.2-0.3-0.1 0 0.2 0.2 0.4-0.1 0.5 0.2 0.7 1.7 0.1 1.8 0.1-0.1 0.1-0.3 0.2-0.2 0.4 0.2-0.1 0-0.3 0.3-0.3 0.1 0.2 0.3 0.3 0.2 0.5 0 0 0.9-0.5 0.5-0.1 0.2 0.1 1.1 0.1 0.6 0.4 0.5 0.4-0.3 1.1-0.3 0.3-0.7 0.3-1.3-0.1-1.4 0.8 0.7-0.2 1.6-0.5 1.9 0.5l0.1-0.1c0 0.1 0.1 0.4 0 0.4 0.1 0.1 0.5 0.2 0.5-0.1 0.9 0.5 0.2 0.2 0.8 0.2-0.2 0.4-0.1 0.4-0.2 0.6-1 0.3-0.4 0.4-0.4 0.5 0-0.1 0.6 0 0.7 0.1 0.1 0 0.8-0.4 0.8-0.5 0.3-0.2 0.7-0.2 1-0.1-0.6 0-0.7 0.3-0.4 0.7-0.8-0.3-1.7 1-1.7 1 0.6 0 1-0.9 1.7-0.8 0.1 0.1 0 0.2-0.1 0.2 0.1 0.1 0.2 0.2 0.3 0.1 0 0.2-0.2 0.1-0.3 0.3 0.1 0.6 1.2-0.6 0.8-0.9 0.1-0.2 0.3-0.2 0.4 0 0-0.2 0-0.3 0.1-0.2 0.1 0 0.4 0.1 0.3-0.1 0.3 0.1 0.1 0.4 0.5 0.3 0.3 0 0.8 0.6 0.6-0.2 0.1 0.3 1.7 1.5 1.7 1.4 0.4-0.2 0.6 0.8 0.7 0.1 0.1 0.2 0.2 0.2 0.3 0 0.2 0.1 1.7-0.7 1.8-0.8 0.1 0 0.4-0.3 0.4-0.2-0.3-3.2 4.4-4.1 5.1-1.5-0.2 0.2 5-1.4 4.8-1.5 0.1-0.1-0.1-0.3-0.2-0.4 0-0.1 0.1-0.2 0.2-0.2 0.2-0.1 0.1-0.4 0.2-0.5 0.1 0 0.6-1 0.6-1.2 0.2 0 0.3-0.4 0.3-0.5 0.5-0.3 3.1 0.6 3.1-0.6 0-0.3 0.5-1.4 0.9-1.5 0.1 0 0.1 4 0.2 4.1-0.1 0.4 1 2.3 1 2.3 0 1.6 0.4 3.3 0.5 5 0 0.3 0.1 0.3 0.1 0.6v2.3c-1 1-2 2.2-3.1 3.3-15.5 15.5-37.8 26-63 26-26.4 0-48.1-11-63.1-25.9-16.9-16.9-25.8-39-25.8-61.7 0-22.7 9-44.9 25.8-61.8 12.6-12.6 34.3-25.9 63-25.9 22 0 36.7 7.9 40 9.4 5.1 2.4 12 7.3 12 7.3l-0.9 0.1c-2.3 0.7-10.7 2.5-12.1 1.7 1.2 0.7 1.9 0.9 2.9 1.8 0 0.1-0.1 0.2-0.2 0.1 0.1 1 3.4 6.2 4.2 6.5 0.4-0.2-1.8-0.3-1.4-0.3-0.3-0.5-3.4-1.2-2.7 0.7-1.6-0.2-1.7 4.7 0.1 5.7 0.1-0.1 0-0.2 0-0.3 0 0 0.4 0.5 0.5 0.5-0.5-0.1-0.8 0.1-0.9 0.6 0.1 0 0.4 0 0.4 0.1-0.8 0.2-1.7 0.5-2.8 0.2-0.1 0.1 0.1 0.1 0 0.2-0.1 0-0.1-0.1-0.1-0.2-2.1 0.5-1.5-0.9-2.8 0.7-0.3-0.3-0.4 0.1-0.2 0.3 0.1-0.1 1.7 1.4 1.7 1.3 0.1 0 0.7-0.2 0.7-0.2 0-0.1-0.1-0.2 0.1 0 0.2-0.1-0.2-0.4 0.2-0.4 0.2 0.2 0.3 0.2 0.4 0.4 0.3 0 0.2 0.3 0.2 0.5 0.4 0 0.3 0.5 0.4 0.8-1.3 0.5-1.5 0.8-3.1 0.4-0.1-0.4-0.2-0.4-0.5-0.3-0.1-0.1-0.2-0.3-0.3-0.4-0.2-0.2 0 0.1-0.6-0.1-0.1 0.1 0.1 0.2 0.1 0.3-0.3-0.2-0.5 0.4-0.6-0.2-0.1 0.1-0.2 0.1 0 0.3-0.3 0.2-0.5-0.4-0.9-0.4 0-0.3 0.3-0.6-0.2-0.6 0.1-0.1 0.2-0.2 0.3-0.2v-0.2c0 0-0.2 0.1-0.3 0.1 0-0.1 0-0.1 0.1-0.1 0-0.2-0.3-0.7-0.6-0.5 0-0.1 0.1-0.1 0.2-0.1 0-0.2-0.3-0.3-0.4-0.4v-0.4c0 0.1-1.1-0.6-0.7-0.6 0.6 0-0.1-1.3-0.2-1.4 0.4 0.4 0.5 0.3 0.3-0.3 0.1 0.4-0.1-0.3-0.2 0.1-0.2 0-0.7-0.7-0.8-0.8-0.1 0-0.6-0.1-0.6-0.2h-0.4c-0.3 0-0.3-0.1-0.1-0.2-0.1-0.1-0.4 0.1-0.5 0.1 0.1-0.1 0.2-0.1 0.3-0.2 0-0.1-0.1-0.1-0.1-0.2-0.2 0.1 0 0.3-0.3 0.3 0.2-0.2 0.2-0.2-0.1-0.2 0-0.1 0.3-0.2 0.4-0.2 0-0.1-0.6-0.2-0.7-0.1 0.1 0.1 0.1 0.1 0.1 0-0.1 0-0.5 0.1-0.6 0 0.1-0.2 0.4 0 0.2-0.2 0.1 0.1 0.4 0.1 0.5 0-0.1-0.1-0.9-0.7-0.9-0.4-0.2-0.2 0 0.1-0.3 0-0.2 0-0.8-0.8-0.8-1.2-0.2 0.1-0.3 0-0.4 0 0.4 0 0-0.2-0.1-0.1 0.1-0.3 0.6 0 0.8 0-0.3 0.4 1.3 1.3 1.7 1 0-0.2-0.3 0.1-0.2-0.3 0.4 0.3 0.8 0.4 1.3 0.3v0.1c1.1 2.5 10.9 0.1 8.8-5.5-0.2 0-2-1.4-2.4-1.7 0 0.1 0 0.2 0.2 0.1-0.1 0.1-0.1 0.2 0.1 0.2-0.1 0.1-0.7-0.1-0.4-0.2 0 0-1.4-0.9-1.5-0.8 0 0.2 0.3 0.2 0.4 0.4-0.1 0.1-0.2 0-0.4 0V74c-0.2 0.2-2.1-1.1-2.2-0.6 0-0.1-1.3-0.7-1.5-0.8l0.1-0.1c0 0.1-0.9-0.3-0.8-0.2-0.5-0.2-1.2-0.4-1.7-0.6 0 0.1 0 0.1 0.1 0.1-0.2 0.2-0.5-0.2-0.5-0.3-0.1 0.3-0.4 0-0.6 0-0.3 0.1-0.5 0.1-0.8 0.1 0.2 0.1 0.3 0.1 0.1 0.3-0.1-0.3-1.1-0.2-1.3-0.2 0.5-0.4-0.3-0.3-0.3-0.2 0 0.1 0.1 0.2 0.2 0.2 0 0.1-0.6 0.3-0.7 0.2 0.1 0 0.5 1 0.1 0.9 0-0.3 0.1-0.5-0.1-0.5-0.1-0.1-0.1-0.6-0.1-0.7 0-0.1-0.6-0.1-0.6 0.1-0.1-0.2-1.7-0.5-1.6-0.5 0.3-0.1 0-0.3 0-0.5 0.2 0.3 0.6 0.5 1 0.4 1-0.2-1.5-1.3-1.5-1.2-0.2 0.1 0.3 0.7 0.4 0.8-0.7-0.8-0.2 0.5-0.2 0.4 0 0.4-1.3-0.6-1.4-0.1 0.1 0.1-1.4-0.5-1.4-0.2 0.1 0-1.4-0.7-1.4-0.6 0.1 0 0.1-0.1 0.2-0.1 0.5-0.2 2.7-0.1 2.1-1.6 0-0.1-1.3-0.3-1.2-0.2 0.1-0.7-0.1-0.8-0.5-0.3-0.4-0.3 0-0.5-0.5-0.2v-0.2c-0.2-0.4-0.5-0.5-0.9-0.3 0.1 0.5 0.2 1 0.1 1.5-0.1-0.4-0.2-0.1-0.2 0-0.1-0.1-0.4 0-0.4 0.1-0.1-0.2 0.6-0.8 0.1-1-0.1 0-0.3 0.4-0.4 0.4 0.3-0.3 0.2-0.5-0.2-0.6 0.1 0.6 1-1.6 0.2-0.9-0.2 0 0-0.4-0.2-0.5-0.1 0.2-0.1 0.1-0.3 0.3h-0.2c0-0.2 0-0.2-0.2-0.3-0.2 0.2 0.1 0.5 0.1 0.7 0 0-0.5-0.5-0.4-0.2 0 0.1 0.1 0.2 0.2 0.2h-0.1c-0.2 0.2 0.5 0.5 0.6 0.6-0.4-0.1-0.5 0.1-0.1 0.4-0.4 0.1-0.4 0.3 0 0.6-0.4 0-0.4 0.2-0.1 0.6-0.1-0.1-0.2-0.1-0.3-0.1v0.4c-0.4-0.1 0-1.5-0.6-1 0.2-0.4 0.3-0.7 0.1-1.1-0.3-0.5-0.7 2.7-0.7 2.9-0.1-0.1-0.2-0.1-0.2-0.2-0.1 0.1-0.1 0.2-0.1 0.3 0.3-0.1 0.2 0.2 0 0.7-0.1 0 0.1-0.4-0.1-0.4 0.4 0.3-0.2-0.1-0.1 0.3-0.1 0-0.1-0.3-0.1-0.3 0.1-0.2 0.1-0.3 0.1-0.5-0.1 0 0-0.3 0-0.3 0 0.1 0.3-0.8-0.1-0.5-0.1 0.9 0.4-1.9 0.3-1.6 0-0.1 0.2-1 0.2-0.6-0.2-0.1 0-0.1-0.2-0.2 0.3-0.3-0.2-0.2-0.3-0.5 0 0.1 0 0.2-0.2 0.1-0.1 0 0.2 0.3 0.2 0.3-0.3-0.3-0.4 0.1-0.2 0.4 0-0.1 0.1-0.1 0.2-0.1v0.3c-0.4 0 0.2 0.4 0 0.6-0.1-0.1-0.2-0.3-0.2-0.4-0.1 0 0 0.2-0.1 0.3 0.1 0-0.1-0.4-0.1-0.5 0 0.7-0.3-0.3-0.5 0 0 0.2 0.2 1.7-0.1 0.6-0.2 0.3 0.8 1 0.6 1.1-0.5-1-0.2 0.6-0.2 0.6l-0.4-0.1c0.3-0.3-0.7-1.9-0.5-0.3-0.1-0.1-0.2-0.1-0.3-0.1 0 0.1 0.1 0.2 0.1 0.4-0.1-0.1-0.2-0.1-0.3 0 0.1 0.1-1.2 1.9 0.2 1.3 0-0.2-0.2-0.3-0.3-0.6 0.4 0.8 0.6 0 0.8-0.3-0.1-0.2-0.3-0.4-0.2-0.6 0.5-0.1 0.2 1.3-0.1 1.5 0.1 0.1 0.1 0.1 0.2 0 0 0.1-0.1 0.1-0.2 0.1v0.4h0.2c0 0.1-0.2 0-0.2 0.1 0 0.4 0.5 0 0.4 0.4-0.2 0-0.2-0.2-0.3 0.1-0.2 0-0.1-0.2-0.1-0.3-0.1 0.1-0.2-0.4-0.2-0.5-0.1 0-0.2 0.1-0.2 0.2-0.3-0.7 0.1-0.1-0.6-0.6v0.5c0.2 0-0.7-1.3-0.7-0.5-0.1-0.2 0.1-0.4-0.2-0.5 0 0.1 0.1 0.7 0.1 0.7 0.1-0.1-0.2-0.2-0.2-0.4-0.2 0 0 0.3-0.1 0.4-0.3-0.6-0.2 0.1-0.2 0.3 0.1 0 0.9 0.5 0.9 0.5 0 0-0.1 0.6 0 0.7-0.1-0.2-0.8-0.4-0.9-0.8-0.1 0-0.3 2.4-0.2 0.4-0.3 0 0 0.1 0-0.1-0.1-0.1-0.1-0.1-0.1 0-0.1-0.1 0.1-0.2 0-0.3 0.1-0.2-0.2-0.9-0.5 0.2 0.3 0 0.4 0.3 0.3 0.6-0.2-0.1 0-0.4-0.2-0.5-0.2 0.1 0.2 2.2 0.2 1.7-0.3-0.2-0.5 1.1-0.6 1 0.2-0.3 0.5-1.2 0.4-1.4 0 0.2-0.1 0.2-0.1 0.1 0-0.4 0-0.9-0.2-1.3-0.2 0.2-0.7 1.3-0.4 1.5-0.2 0.1-0.1-0.7-0.2-0.8-0.3 0-0.5 0.5-0.8 0.5-0.1-0.1 0.1-0.2 0-0.3 0.5-0.1 0.8-0.4 0.8-1 0 0.2-0.1 0.2-0.2 0-0.1-0.2-0.3-0.2-0.3 0.1-0.1-0.1-0.2-0.3-0.3-0.4l-0.2 0.3c0-0.1 0.2-0.4 0-0.4 0.1 0.1 0 0.1 0 0.1v-0.3l0.2 0.2c0.2-0.1 0.2-0.5 0-0.6-0.2 0.1-0.1 0.2-0.1 0.4-0.1-0.1-0.2-0.1-0.2 0-0.1-0.4-0.2 0.1-0.1 0.2-0.2-0.3 0.3 1.6 0.3 1.2-0.2-0.3-0.5-0.3-0.7 0 0.2 0.3 0.3 0 0.4 0.5-0.4-0.2 0-0.9-0.4 0.1-0.2 0-0.2-0.2-0.3-0.3v0.6c0.3-0.1 0.2 0-0.1 0-0.1 0.1 0.2 0.4 0.3 0.5 0.1-0.1 0.4-0.1 0.5-0.1 0 0.1-0.1 0.1-0.2 0.1 0 0.1 0.1 0.1 0.1 0.2 0 0.2 0.1 0.4 0.4 0.4-0.1 0-0.1 0.1-0.2 0.1 0-0.3-0.3-0.7-0.6-0.7v0.4c-0.2-0.2 0-1.2-0.4-0.7l-0.2-0.2c0 0.1 0 0.2 0.1 0.3-0.1 0-0.1-0.3-0.2-0.3 0 0 0 0.5 0.1 0.4-0.1 0-0.5-0.4-0.3 0.1-0.1 0-0.1-0.1-0.2-0.1-0.1 0 0.1 0.5 0.3 0.3-0.2 0.2-0.4 0-0.5 0.1-0.1 0.1-0.1 0.1-0.1 0.2-0.1 0.1 0 0.1 0.1 0 0 0.1-0.1 0.1-0.2 0.1 0 0.2 0.2 0.2 0.3 0.3 0 0-0.2 0.1-0.3 0.1 0 0.1 0.1 0.2 0.2 0.2 0.1-0.3-0.9 1 0 0.4 0.2 0.1-0.3 0.2 0.2 0.2-0.1-0.6 1-0.6 0.8-0.9h0.2c-0.1 0.1-0.1 0.2 0 0.3 0-0.1-0.9 0.5-0.7 0.5 0.1-0.1 0.1-0.2 0-0.2-0.2 0-0.3 0.3-0.2 0.5l0.2-0.2c0.1 0.2 0 0.3-0.1 0.5 0-0.2-0.3-0.1-0.4-0.1 0 0.2 0.1 0.4 0.1 0.5-0.3-0.3-0.4-0.2-0.4 0.3 0.1 0 1-0.8 0.9-0.3-0.1 0-0.6 0-0.4 0.2-0.2 0-0.3 0.1-0.3 0.2-0.3-0.3-0.3 0.2-0.6 0.2 0-0.5 0.1-0.8-0.4-1.1-0.2 0.1 0.1 0.2 0.1 0.3-0.5-0.4-0.1 0.4-0.1 0.4 0 0-0.1-0.2-0.2-0.2l-0.2 0.1c0.2-0.4 0.1-0.7-0.3-0.7 0.2 0.2 0.6-1.4 0.6-1.4-0.8-0.1-0.8 2.1-0.7 1.6 0.1 0.1-0.2 0.3 0.1 0.4-0.3 0.1-0.1 0-0.2 0.4 0 0-0.3-0.4-0.1-0.2-0.1-0.2-0.3-0.8-0.2-1-0.3 0-0.2 0.3-0.2 0.5 0.1-0.4-0.6 0.2-0.1 0.1 0 0-0.1 0.3 0 0.3 0-0.1-0.4 1-0.3 0.4 0.2 0 0.5 0 0.5-0.3 0.1 0-0.3 0.6-0.4 0.5 0.1 0 0.1 0.1 0.2 0.1-0.4 0.1-0.4-0.1-0.2 0.4 0.3 0 0.7-0.5 0.9-0.8 0.2 0.2 0.1 0.2-0.1 0.2-0.2 0.1-0.2 0.4-0.1 0.5-0.4-0.2-1.1 0.4-1.2 0.7-0.1-0.2-0.2-0.1-0.4-0.2-0.3 0.1-0.8 0.4-0.7 0.8-0.2 0-0.3-0.2-0.2 0.2-0.4-0.1-0.8 0.7-0.7 1.1 0.4 0 0.9-0.8 0.9-1.1 0 0 0.1 0.2 0.1 0.3 0.3-0.2 0.6-0.6 0.9-0.8v0.5c0.2 0 0.7-0.5 0.8-0.5 0.1 0.2-0.2 0.3-0.2 0.4 0.1 0.2 0.8-0.9 1-0.9-0.1 0.1-0.2 0.3-0.1 0.5 0.3-0.1 0.5-0.3 0.7-0.5v0.2c0.2 0 0.4-0.5 0.4-0.6-0.4-0.1 0.9 0.7 1 0.3 0.3 0.1 0.4-0.3 0.7-0.3 0 0.6-0.6 0.4-0.8 0.7-0.1 0-1.1-0.6-1.1 0.1 0.4 0-0.1 0.1 0.2 0.3 0.1-0.2 0.1-0.2 0 0.1 0.1 0.2 0.3 0 0.4 0 0 0.1-0.2 0-0.2 0.1 0 0.1 0.1-0.1 0.1 0-0.3 0.2-0.1 0.5 0 0.4v0.2c-0.1-0.1-0.1-0.2-0.2-0.3 0 0.1-0.1 0.2-0.1 0.3h0.1c0 0.1-0.4-1.4-0.4-0.6-0.1-0.2-0.1 0.1 0 0.2-0.1 0-0.2-0.1-0.3-0.2 0 0.1-0.1 0.1-0.1 0.2-0.3 0-0.6 0.3-0.5 0.7 0-0.2-0.1-0.3-0.2-0.2 0.2 0.1-0.3 0.4-0.3 0.4 0.6 0.2-0.1 0-0.2 0.4 0 0.2 0.6 0.1 0.5 0.2-0.1 0-0.4 0.1-0.5 0.1 0.1 0 0.1 0.1 0.2 0.1H143c0 0.2 0.9-0.1 0.9-0.5 0.1 0.1 0.2 0.1 0.3 0.2l-0.2 0.2c-0.3 0-0.2 0.4-0.5 0.4 0.2 0 0.5 0.3 0.6 0.5-0.9-0.4-1 0.1-1.1 0.1-0.2 0.2-0.1 0.2-0.4 0.3 0.1 0.2 0 0.3-0.2 0.5 0.2 0 0.4 0 0.5-0.1 0 0-1 0.6-1.2 0.6 0.1 0.3 0.2-0.1 0.3-0.1V84c-0.1 0 0.1-0.2-0.1-0.2-0.1 0.6-0.7 0.2-0.8 0.6 0.1 0 0.2 0 0.2-0.1 0 0.1 0 0.1 0.1 0.1v0.3c-0.4-0.1 0-0.1-0.4 0 0 0.1 0.6 0.1 0.7 0-0.1 0.2-1.1 0-0.6 0.3-0.4-0.1 0 0.2 0.2 0.3 0-0.1-0.5 0-0.5 0.1 0 0 0.1 0.1 0.2 0 0 0.1-0.1 0.2-0.2 0.3-0.1-0.1 0.2-0.1-0.1 0-0.1 0.1-0.1 0.1-0.3 0.1 0.1 0 0.2 0.1 0.3 0.1 0-0.1 0.3 1.4 0.5 0.7-0.2-0.1-0.7 0-0.8 0.3 0 0.1 0.2-0.1 0.3 0-0.1 0.1-0.1 0.1-0.1 0.2l-0.1-0.1-0.4 0.2c0.1 0.1 0.1 0.1 0.2 0.1-0.1 0.1-0.1 0.1-0.2 0 0 0 0.1 0 0.1 0.1-0.2 0.1-0.3 0.1-0.1 0.2-0.4 0.4-0.5 0.3-0.5 0.3 0.3-0.2 0.5-0.6 0.4-1-0.2 0-0.2 0.1-0.2 0.3-0.1 0 0-0.1-0.1-0.1-0.1 0-0.2 0.1-0.2 0.2 0.1 0.1 0.3-0.1 0.4-0.1 0.1 0.2-0.4 0.5-0.6 0.5 0.2 0.2 0.2 0.4-0.1 0.5 0.1 0 0.2-0.2 0.3-0.1l-0.1 0.3c0.2 0 0.1-0.2 0.1 0 0.3 0-0.2-0.4 0.1-0.4 0 0 0.1 0.4 0 0.4 0 0 0.5-0.6 0.6-0.6l-0.4 0.4c0.3 0-0.4 0.3-0.4 0.5 0 0 0.4-0.2 0.4-0.3 0.2 0.3-0.5 0.3-0.4 0.6v0.4c0.1 0.1 0.3 0.1 0.3 0.3-0.2 0.1-0.4-0.5-0.4-0.5-0.2 0.1 0 0.3-0.1 0.4-0.3-0.3-0.3 0.2-0.4 0.4 0.5-0.1 0.1 0.3 0.1 0.6-0.1-0.1-0.2-0.1-0.2 0.1 0.1 0 0.3-0.2 0.4-0.2-0.1 0.1-0.2 0.5-0.4 0.5 0.1-0.1 0.1-0.2 0-0.4-0.3 0-0.3 0.6-0.5 0.6-0.1-0.1-0.4-0.2-0.1 0-0.3 0.4-0.5 0.3-0.7-0.1 0 0-0.3 0.2-0.2 0.2 0.1 0-0.4-0.1-0.4-0.1 0 0.1 0.3 0.2 0.3 0.1 0 0.2-0.9 0.3-0.4 0.4-0.2 0.1-0.2 0.1 0 0.2 0.1-0.2 0.2-0.1 0.5-0.2 0 0.1 0.2 0.2 0.1 0.3 0.1 0 0.1-0.1 0.2-0.1 0 0.2-0.2 0.2-0.3 0.3 0.2 0.3 1-0.4 0.9-0.1-0.1-0.1-1.3 0.6-1.3 0.6-0.1 0.1-0.2-0.2-0.2 0 0 0 0.2 0.2 0.1 0.2-0.1 0-0.2 0-0.2-0.1 0.1 0-0.2 0.2-0.2 0.2-0.1-0.1-0.1 0.2 0 0.3 0-0.1-0.2 0-0.3 0 0-0.2 0 0-0.1-0.1 0 0.4-0.5 0.7-0.5 1.1-0.1 0-0.2 0-0.3-0.1-0.2 0-0.2 0.2 0 0.2-0.1 0.1-0.9 0.9-0.7 1-0.2 0-0.2 0-0.2 0.1 0 0.1-0.1 0.2-0.1 0.3 0-0.1 0.8-0.4 0.9-0.4 0 0.1-0.3 0.3-0.4 0.2-0.1 0.1 0.1 0.3 0 0.4-0.2-0.2-0.5-0.2-0.7 0 0-0.1 0.1 0 0.2 0-0.1-0.1-0.2-0.1-0.3 0-0.1 0.1 0.1 0 0.1 0.1-0.1 0.1-0.2 0.1-0.4 0.1 0.1-0.1 0.1-0.1 0.2-0.1 0-0.1-0.1-0.3-0.1-0.5-0.1-0.2-0.1-0.1-0.2 0-0.3-0.1-0.6 0-0.8 0.1-0.1 0-0.1 0-0.1-0.1-0.1-0.2-0.5 0.2-0.2 0.2 0 0.7 1.2 0.5 1.2 0.6-1-0.5-0.8 0.4-1.4 0.3 0.1 0 0.2 0 0.2-0.1 0 0-0.7 0.4-0.6 0.1 0.3-0.1 0.3-0.6 0.2-0.6 0-0.1-0.3 0.1-0.3-0.2-0.1 0.3-0.4 0.2-0.4 0.6 0.3-0.1 0.5 0.1 0.2 0.2 0.9 0.3-0.8-0.1 0.5 0.5-0.3 0.2 0 0.3 0 0.5 0.2 0-0.8-1-0.6 0-0.2 0 0.1-0.4 0.2-0.5-0.4-0.3-1.1 0.3-1.1 0.3-0.2-0.3-0.7 0.2-0.7 0.4-0.4 0.3-0.4 0.4 0 0.1-0.1 0.4-0.2 0.3-0.6 0.3-0.1 0-0.3 0.4-0.4 0.2 0 0 0.1 0.3 0.2 0.3-0.2 0.2-0.6-0.4-0.8 0.2-0.6-0.3 0.1-0.3-0.1-0.1-0.2 0.6 0.2 0.7 0.8 0.5-0.1 0.2-0.3 0.2-0.4 0.3-0.2-0.3-0.4-0.3-0.8 0.1 0.6 0.5-0.6-1.3-0.2-0.3-0.1 0-0.1-0.2-0.3-0.2 0.2-0.1-0.2-0.3 0 0.1-0.3-0.1-0.1 0-0.3 0.1 0 0.1 0.3 0.1 0.4 0.1 0 0.1-1 0.7-0.4 0.7 0 0.1-0.1 0.1-0.1 0.2 0-0.2-0.2-0.6-0.3-0.7-0.7 0.2 0 0.5 0 0.7-0.1 0.1-0.1 0.1-0.2 0 0.2 0.2 0.1 0.2-0.4 0 0 0.1 0 0.6-0.2 0.6-0.1 0.1-0.1 0.1-0.2 0-0.3 0.6 0.5 0.1 0.7 0.1 0 0-0.8 0.8-0.6 0.8 0.1 0.1 0.5-0.1 0.4 0.1-0.2 0 0.2-0.3-0.3-0.1 0 0.1 0.3 0.3 0.4 0.3-0.5 0.3-0.1-0.4-0.4-0.1 0.1 0.2-0.3 0.4 0 0.3l-0.4 0.1c0.1 0.2 0.3 0.1 0.4 0.2 0 0.2-0.3 0-0.4 0 0.1 0.1 0.2 0.3 0.2 0.4 0 0-1-0.2-0.4 0 0 0.1-0.2 0.2-0.3 0.2-0.3 0.1-0.1 0.3-0.1 0.5 0.1-0.1 0.8-0.5 0.8-0.5 0.1-0.1 0.3 0.3 0.2 0.2h0.3c-0.2 0.3 1-0.2 0.9 0.1-0.5 0-1 0.1-1.5 0.2-0.1-0.3-0.2 0-0.2 0.1-0.3-0.3-0.1 0-0.4 0 0 0 0.3 0.4 0 0.4 0 0 0.2 0 0.2 0.1-0.4 0-0.2 0.4-0.2 0.6 0 0.1 0.1 0.3 0.2 0.2-0.2 0.3 0.2 0.6 0.2 0.8-0.4-0.1-0.4-0.8-0.4-1.1-0.2 0-0.2 2.2 0 2.3l0.1-0.1c0.1 0.1 0.1 0.1 0.1 0.3-0.1 0-0.2 0-0.4-0.1 0 0.7 0.7-0.2 0.6-0.4-0.1 0-0.3 0.1-0.4 0 0 0.2 0.9-0.2 1-0.2 0.1 0.1-0.1 0.3 0 0.5 0-0.1 0.1-0.1 0.2-0.1v0.3c-0.1 0-0.5-0.1-0.5 0.1-0.1 0-0.1-0.3-0.2-0.3-0.3 0.1-0.7 1.5-0.6 1.3 0 0-0.2 0.5 0 0.6 0.3 0 0.1-0.5 0.3-0.5-0.1 0.2 0 0.3 0.2 0.1-0.4 0.3-0.6 0.7-0.8 1.1-0.8 1.1 0.8 0.5 0.7 0.4 0.1 0.1 0.2 0 0.2-0.1v0.2c0.1 0 0.2-0.1 0.2-0.2 0.1 0.1 0.4 0.1 0.4-0.1 0 0.1 0.3 0.1 0.3 0.3-0.4 0-0.9 0.8-1.1 0.8 0 0-0.2 2.3-0.2 1.9 0.1 0 1.4 1.2 1.5 1.3 0.2 0 0.3 0.2 0 0.4 0 0.1 0.5 0.3 0.5 0.3 0 0 0.3-0.2 0.3 0.2 0 0 0.9-0.2 0.6 0.1 2.3-0.3 3-2.2 4.9-2.6-0.1-0.1 0.3-0.7 0.4-0.7v0.3c0.1 0 0.6-0.1 0.4-0.2-0.1 0.3 0.6-0.4 0.6-0.4 0.4 0.2 0.5-0.3 0.5-0.3h-0.2v-0.7c0 0 0.1 0.1 0 0.2 0.3 0-0.3-0.6-0.3-0.6 0.2 0.1 0.4-0.1 0.6-0.1 0 0.2-0.3 1.1 0.1 0.9-0.3-0.3 0.3 0.8 0.2 0.5-0.2-0.1 0.2 0.8 0.2 0.7-0.2-0.1-0.6 0.1-0.8 0.2 0 0.1 0.8-0.1 1-0.1v0.2c-0.3-0.2-0.3-0.2 0 0 0 0.1 0 0.2 0.1 0.2-0.1 0.2-0.1 2.8 0.4 2.8-0.1 0.3 0.1 0.5 0.1 0.9 0.4 0.2 0.5 0.3 0.1 0l-0.1 0.3v-0.2c-0.2 0 0.1 0.4-0.2 0.4 0.2 0.1 1.1 1 0.9 1.2-0.1 0.2 0 0.1 0.1 0.1-0.3 0.1 0.2 0.5 0 0.7 0 0 0.3 0.3 0 0.3 1 0.1 2 3.2 0.4 2.8-0.1 0.5 1.6 2.6 0.6 2.5 0 0.1 0.4 0.6 0.2 0.7-0.1 0.2 4.2 0.3 3.7-1.9 0.1-0.1 0.3-0.1 0.4-0.1-0.1-0.2-0.3-0.3-0.3-0.5 0.2 0.1 0.5-0.1 0.5 0.2 0.5-0.4 0.1 0.1 0.4 0-0.4-0.2 0.5-0.1 0.6-0.1-0.2 0.6 2.4-0.1 1.5-1.1 0-0.1 0.2-0.8 0.4-0.6-0.2-0.3 0.2-0.4 0.3-0.8-0.1 0-0.1 0-0.1 0.1-0.3-0.3 0.4-0.7 0.4-1-0.5-0.5 0.2-1.3 0.3-1.7-0.1 0 0 0.2-0.1 0.1 0.2-0.1 0.1-0.4 0-0.5 0.3-0.1 0.1-0.3 0.1-0.5 0.2-0.1 0.1-1.7 0.6-1.6-0.1 0-0.2-0.1-0.1-0.2 0 0.2-0.1 0.2-0.2 0 0.6 0.1-0.4-0.4-0.3-0.3 0-0.2 0.4-0.2 0.5-0.3 0 0-0.2-0.1 0-0.1-0.2-0.9 0.5 0.1 0.7-0.8 0.1 0.1 0.2 0.1 0.2 0.2 0.2 0 0-0.2 0.2-0.2-0.1-0.2 0-0.2-0.1-0.3 0.1-0.1 0.4 0.1 0.4 0.1v-0.4c0.9 0.6 0.1-0.5 1-0.3 0-0.1-0.1-0.3-0.2-0.3 0.1 0.2 0.4-0.2 0.4-0.2v0.5c-0.3 0-0.6 0.2-0.5 0.5 0.4 0.1 0.4-0.7 0.7-0.7 0 0.1 0 0.1 0.1 0.1 0.1 0-0.3-0.6-0.3-0.6 0.1-0.1 0.3-0.4 0.5-0.3-0.4 0.4 0.1 0.5 0.2-0.1 0.4 0.3-0.1-1.1 0.4-1.2-0.3-0.6-0.3 0.3 0.3-0.5-0.2-0.1-1.3-1.4-1.2-1.7 0.4 0.2-0.2-0.4-0.1-0.6-0.4 0.2 0.2-0.4-0.4-0.4 0 0.1 0.2 0.6 0.2 0.7-0.4 0-0.5-0.5-0.7-0.8 0.1-0.1-1.3 0.1-0.8 0.1-0.1 0.4-0.7-1-0.6-0.9h0.1c0 0-0.1-0.3 0-0.3-0.1-0.1-0.3-0.2-0.4-0.3l0.3-0.6c-0.1 0.1-0.2 0.2-0.2 0.3-0.1-0.1 0-0.7 0.1-0.7 0 0-0.2-0.7-0.1-0.7 0-0.2-0.2-0.3-0.1-0.6 0.1-0.1 0.3-0.1 0.1-0.2 0 0 0.1-0.4 0-0.3 0.1 0 0.2 0.4 0.3 0.4 0 0 0.2-0.2 0.3 0-0.1 0 0.1-0.5 0.1-0.5-0.1 0.4-0.7-0.9-0.1-0.8-0.2-0.3-0.2-1.8 0.3-1.4 0.2 0 0.6-1.2 0.8-1.5 0.1-0.1 0.1 0.1 0.1 0.2 0.1 0 0.4-0.4 0.5-0.4 0-0.1 0-0.8 0.2-0.8 0.1 0.1-0.1 0.3 0 0.3 0.7-0.2-0.2-0.5-0.2-0.6 0.3 0.4 0.1-0.1 0.1-0.2 0.2 0.1 0.2-0.1 0.4 0 0 0.7 0.4-0.5 0.4-0.5 0.3 0.2 0.2-0.4 0.2-0.5 0.2 0.1 0.5 0.5 0.4-0.1 0.1 0 1.3 0.8 0.8-0.7 0.5 0.1 0.5-0.4 0.8-0.4 0 0.1 1.1-2.4 1-1.9 0.2 0.1 0.4-0.3 0.4-0.5 0.3 0 0-0.4 0-0.2-0.1-0.1 0-0.2 0.1-0.3 0-0.1-0.1-0.2-0.2-0.2-0.1 0.1-0.2 0.1-0.3-0.1-0.2-0.2-0.2-0.2 0-0.2C153 92 153 92 153 91.9c0.3 0-0.2-0.6 0.1-0.5 0-0.3 0.2-0.8 0.3-1 0.3 0.2-0.1-0.3 0-0.4 0.2 0 0.3 0.2 0.5 0.2 0-0.3-0.6-0.1-0.4-0.6-0.1 0-0.2-0.1-0.2-0.2 0.1 0 0.3 0.1 0.3 0.2-0.2 0 0 0.1 0 0.1 0 0 0.1-0.6 0.2-0.5 0.1 0.1 0 0.2-0.1 0.2 0.2 0 0.6-0.4 0.8-0.2 0-0.1-0.4-0.2-0.5-0.2 0 0.1 0 0.4-0.2 0.3 0-0.1 0.2-0.3 0-0.3 0.3 0.6 0.6-1.1 0.6-1-0.2 0-0.3-0.1-0.1-0.3-0.1 0.1 0.2-0.2 0-0.1-0.1 0.1-0.1-0.1-0.1-0.1 0.1 0 0.3 0.3 0.1 0.3 0.2 0 0.2-0.2 0.2 0.1-0.1 0.1 0.4-0.2 0.2-0.2 0-0.1 0.5 1.3 0.2 0.2-0.1-0.2-0.3-0.3-0.3-0.5 0.1 0.3 0.7 0.4 0.6 0.7 0.3 0.1 0.3-0.4 0.4-0.6 0.1 0 0.2 0.2 0.3 0.3 0.1 0 0-0.2 0-0.4 0.2 0 0.3 0.2 0.3-0.1l0.3 0.3c0 0 0.2-0.3 0.3-0.1-0.2-0.2 0-0.2 0.2 0 0-0.2 0.1-0.2 0.4-0.1 0 0 0.1 0.2 0.1 0.1 0 0.1 0 0.2-0.1 0.2 0.1 0 0.1-0.2 0.2-0.2 0 0.1 0 0.2-0.1 0.3h0.1c0.1-0.2 0.1-0.1 0.2 0.1 0.1-0.1 0.4-0.1 0.3 0.1 0.2-0.7 0.9 1.7 0.7 1.4 0 0.1 0.3 0.3 0.2 0.4-0.1 0-0.1-0.2-0.3-0.1 0.1 0.2 0.7 0.1 0.6 0.5-0.8-0.2-0.1 0-0.2 0.4-0.1 0-0.1-0.1-0.1-0.2-1.1 0.4-1.5 3-2.2 3 0 0 0 0.7-0.1 0.3-0.1 0-0.1 0.1 0 0.1-0.4-0.2-0.1 0.3-0.2 0.5-0.1 0-0.2 0-0.3-0.1 0 0.1 0 0.1 0.1 0.1-0.1 0.5-0.6 0.1-0.8 0.1-0.3 0.3-0.2 0.5-0.2 0.9 0 0-0.3 0.5-0.3 0.3-0.1 0.1 0 0.5-0.2 0.6 0-0.1-0.1-0.1-0.2 0 0 0.3 0.4 0.4 0.4 0.7-0.1 0-0.2-0.1-0.2-0.2 0 0.2-0.1 0.2-0.3 0.2 0-0.1 0.2-0.1 0.2-0.2-0.4 0-0.5 0.3-0.5 0.5l-0.3-0.3c-0.3 0.3-0.3 0.7-0.2 1-0.1-0.1-0.2-0.1-0.3-0.1 0.4 0.1-0.3 0.5-0.3 0.4 0 0.1 0 0.5 0.1 0.4-0.1 0.1-0.1 0.7-0.1 0.7-0.1 0.2 0.2 1 0.2 1.3 0.2 0 0.1-0.1 0.3-0.1 0 0.1-0.2 0-0.2 0.2 0.1 0.2 0.4 1.3 0.4 1.3 0.1 0.1 0.3 0.9 0.2 0.9 0 0 0-0.1-0.1-0.1-0.2 0 0.3 0.6 0.4 0.7H154c0.1 0 0.2 0.1 0.3 0.3-0.2-0.1-0.3 0.1-0.1 0.1-0.1 0-0.2 0.1-0.2 0.1 0.2 0.2 0.2 0.2 0.2 0v0.4c0 0-0.3 0.8-0.4 1 0.3 0-0.1 0.3 0.1 0.6-0.1 0.6 0.1-0.4 0.2 0.2H154c-0.1 0.1 0 0.2 0.1 0.2-0.3 1-0.1 0.5 0.6 0.9-0.1 0-0.1 0.1-0.2 0.1 0.1 0.2 0.2 0.2 0.2 0-0.1 0 0.1 0.5 0.1 0.5-0.1 0-0.2 0-0.2-0.1-0.2 0.1-0.3 0.2-0.5 0.2 0-0.1 0.3-0.2 0.2-0.3 0.3 0.2-0.1-0.2-0.2-0.3-0.1-0.3-0.2 1.2-0.1 0.8V108c0.1 0-0.1 0.2 0.1 0.1-0.2 0 0.1 0.8-0.1 0.3 0.4 0 0.3 0.3 0.6 0.4 0.3 0 0.7-0.2 0.9-0.4 0.5 0.1 0.6 0.8 0.9 0.9 0 0.1-0.3 0.2-0.3 0v0.2c0.1 0.4 0.5-0.4 0.4-0.3 0.1 0 0.3-0.1 0.1-0.3 0.1 0 0.2 0.1 0.2 0.2 0.1-0.1-0.1-0.3 0.1-0.3 0 0.3 0.3 0.5 0.5 0.4 0 0.1-0.1 0.2-0.2 0.2-0.2 0.2 0 0.1 0 0.2 0.1 0 0.7-0.5 0.8-0.2 0.1-0.4 0.1-0.1 0.2 0 0.1 0 0.2-0.3 0.1-0.3 0 0 0.2 0.1 0.3 0.1-0.1-0.2 0.3-0.1 0.3-0.1-0.1-0.2-0.3-0.1 0.2-0.1 0-0.2-0.2-0.3 0.1-0.3-0.3-0.3 0 0.1 0.3 0-0.1 0-0.2 0-0.2-0.1 0-0.1 0.2 0 0.2 0-0.1-0.1-0.1-0.1 0-0.2 0.1 0 0.2 0.5 0.3 0.1v0.2c0.1 0 0.3-0.3 0.3-0.4 0.1-0.1 0.1-0.2 0.2-0.2 0.1 0 0.1 0.1 0.2 0.1l-0.1-0.3c0.3-0.1 0.9 0 0.6-0.2 0.3 0 0.3-0.3 0.6-0.3-0.1 0.1-0.1 0.2-0.1 0.3 0.1-0.1 0-0.4 0.3-0.3-0.1 0.2-0.2 0.2 0 0.4-0.2-0.2 0.1-0.3 0-0.1 0.2 0-0.2-0.9 0.2 0 0-0.1 0-0.3 0.1-0.1 0-0.1 0-0.2-0.1-0.2 0-0.1 0.2 0.1 0.2 0.1 0 0 0-0.1 0.1-0.1-0.6 0.4 0.6-0.2 0.2-0.1 0.1-0.1 0.3-0.1 0.4-0.1-0.1-0.1-0.2-0.2-0.1-0.3l0.2 0.2c0.1 0.1 0.5-0.1 0-0.2 0 0.2 0.7-0.1 0.8-0.1-0.1 0-0.4 0 0-0.2 0 0 0.4 0 0.1-0.1 0.1-0.1 0.2 0.1 0.4 0.1 0-0.1 0.1-0.1 0.1-0.2-0.6-0.1 1.5 0.6 0-0.1 0.2-0.1 0.2-0.1 0.2-0.2 0.2 0.1 0.4 0 0.5 0.1 0 0-0.1 0-0.1 0.1 0.1-0.2 0.4 0.2 0.3-0.2 0.4 0.3 0.3-0.4 0.6-0.4v0.3c0.3-0.2 0.8-0.4 0.9-0.8 0 0 0.8 0.4 0.6 0.4-0.3-0.2-0.3-0.2-0.2 0-0.3 0.4 0.6 0.3 0.5 0.5-0.5-0.6 3.4 0.9 2.8 1.2-0.8 0.4-3.5 0.6-3.5 0.9-0.2 0.5-3.7 3.2-4.3 1.5 0 0-0.4-0.4-0.3-0.5-0.1 0 0 0.5 0 0.5-0.1-0.1-0.3-0.2-0.4-0.3-0.1 0.2 0.2 0.2 0.1 0.4-0.2 0.1-1.4 0.4-1.5 0 0.7 0-1 1-0.4 0 0.3 0-0.3 0.4-0.4 0.4 0.2 0.3-0.3 0.3-0.1 0.6 0 0-0.3-0.1-0.4 0 0.5 0.9-2.3 0.1-0.7 2.1-0.1 0-0.1 0-0.2-0.1-0.3 0 0.6 0.2 0.6 0.2 0 0.1-0.4 0.1-0.4 0.1 0.5 2.1 1.2 1 2.1 1.1 0 0 0.8 4.3-0.2 4.6-2.2 0.8-2.3-2.4-3.8-1.9 0-0.2-5.1 8.8-1.6 8.8 0.1-0.3 0.3 0.3 0 0.3-0.2 0.6-1.5 1.4-1.4 0.9 0 0-1.5 2-1 1.1-0.2 0.4 0.7 0.1 0.7 0.1-0.1 0.1-0.2 0.2-0.4 0.3-3 2.1-2.3-0.9-4.7-0.6-0.2 0.4-2.2 0.4-2.6 0.8 0.2 0 0.3 0 0.2 0.1-0.6 0-0.9 0.3-1.2 0.9-0.7-0.8-5.1 3.1-5.4 0.5-0.2 0-0.7 0.1-0.7 0.2-0.1 0-0.3-0.3-0.4-0.4 0.1-0.1 0.2 0.1 0.2 0.1 0-0.5 0.2-0.6 0.7-0.2 0.1-0.2-0.1-0.4 0-0.7 0 0-0.5-0.8-0.4-0.8-0.2-0.5-0.8 0.2-0.5 0.1-0.1 0.3-0.4-0.2-0.4 0.3 0.4 0.1 0.2 0-0.1 0.1 0.2 0.1 0.1 0.2 0.1 0.3 0 0 0.3-0.1 0.3 0.1-0.1 0-0.2 0-0.3 0.1-0.1 0-0.2-0.3-0.1-0.4-0.1 0-1.1 0.1-1.1-0.1-0.5 0-1.3 1.5-2.2 1.3-0.5 0.1-0.2 0.5-0.3 0.7-0.2-0.2-0.2-0.1-0.4-0.1 0-0.1 0-0.2 0.1-0.1-0.1-0.1-1.3-0.1-1.1-0.3 0.2 0.1 0.5-0.5 0.5-0.1 0.2 0 0-0.1 0-0.2l0.7-1.1c0.1 0.1-2.6-0.3-3-0.2 0-0.6 1.2-1-0.5-1.3 0.3-0.4 0.7 0.1 1 0.1-0.1-0.2-0.9-1.6-1.2-0.9 0 0 0.4-0.5 0-0.3 0-0.2 0.4-0.2 0.5-0.3-0.1-0.1 0.1-0.1 0.2-0.2-0.6 0-0.1-0.6-0.1-0.8l0.2 0.4c-0.2 0.1 0.2 0.1-0.2 0.2 0.1 0.1 0.2 0.1 0.2 0 0.4 0.1 0 0.7 0.4 0.7 0 0.4-0.1 0.1 0.2 0.2-0.1 0-0.1 0-0.1 0.1l0.8 0.1c-0.2 0.1-0.2 0 0 0.1 0 0.1 0.1 0.5 0.3 0.4-0.1-0.7 0.2 0.5-0.1 0.2 0.1 0.2 0.2 0.3 0.2 0.5 0.4-0.1 0.7-1.3 0.6-1.6-0.1 0.1-0.6 1.1-0.6 0.5 0 0.4 0.5-1.2 0.4-1.2-0.5-0.5-0.5-0.6-0.4-0.5 0.3-0.3-1.5-0.4-1.7-0.3 0.7-1.1 0.4-0.1 0.4-1 0.2 0 0.3 0.1 0.6 0.1-0.2-0.1 0.2-1.7 0.6-1.6 0.3 0.3-0.7 0.3 0.1 0.5-0.1 0.1-0.1 0.2 0 0.2 0.1 0 0.1-0.6 0.3-0.4 0 0.1 0 0.1-0.1 0.1 0.6 0.7-0.8-5.8 0.5-5.6-1.1-0.2-3.3 3.2-4.4 1.9 0 0.7-1.1 0.5-1 1.7-0.2 0-0.5 2-0.4 2.2 0 0.1 0.1-0.1 0.1-0.2 0.3 0 0.5 0.7 0.2 0.8 0 0.1-0.4-0.5-0.4-0.5 0.1 0.3 0.1 1.6-0.3 1.6 0 0.5 0.7 0.2 0.7 0.4-0.2-0.1-0.1 0.5 0.1 0.5-0.1-0.4 0.4-0.3 0.3 0.8-0.2 0.1-0.2 1.2-0.3 1.5 0.1 0 0.3-0.1 0.1 0.1 0.1 0.2 0.4 0.2 0.4 0.4 0 0.1-0.2-0.1-0.2 0.1 0.2 0 0.2 0.1 0.1 0.2-0.2 0.3 0 0.2 0.2 0.2 0 0.3-0.8-0.1-0.6 0.3-0.6 0 0.4 0.4 0.4 0.3-0.3 0.5 0.2 0.4 0.2 0.8-0.7-0.1-0.2 0.8 0.1 0.7-0.6 0.5-1.5-0.7-1.3 1-0.3-0.1-0.4-0.3-0.7-0.2 0 0.2 0.2 0.4 0 0.6 0 0-0.3-0.1-0.4-0.2 0-0.1 0.2-0.4 0.3-0.5 0-0.1 0-0.2-0.1-0.2-0.3 0-0.2-0.4-0.2-0.5-0.1 0-1.6 0.2-1.7 0.2 0.1-0.3 1.3-0.2 1.5-0.2-0.2-0.4-1.1 0-1.4 0l-0.4 0.1c0 0.1 0.3 0.1 0.3 0.1-0.1 0.1-0.8 1.2-0.8 1.2-0.2 0-4.3 0.9-4.9 0.9-0.4 0 0.6-1.6 0.7-1.3-0.4 0-0.7 0.2-0.8 0.6 0.4 0.2-2.2 4.2-2.2 4.5-0.2 0-0.3-0.3-0.5-0.2-0.1 0.1 0 0.2-0.2 0.2 0-0.1 0.9 0.7 1 0.7-0.4 0.2-0.8-0.7-1.5-0.4 0.1 0.1 0.1 0.2 0 0.3-0.1-0.1-0.2-0.1-0.3 0-0.1 0.1-0.3 0.3-0.4 0.3 0 0.3 0.8 0.3 0.5 0.5 0.1 0 0.3 0 0.4 0.1 0.1 0 0.2-0.1 0.3-0.1 0.1-0.2 0.6 0.2 0.7 0.2 0 0.1-6.2 0.3-7 3.1l0.3 0.3c0 0-0.3-0.1-0.3-0.1 0 0-1.2 0.8-1.3 0.9-0.1-0.1-0.3-0.1-0.5-0.1-0.5-0.4-2.8 1.2-1.8 1.5-0.1 0.9-2.9-0.3-3.2-0.3-0.2-0.1-0.1-0.8-0.1-0.7 0.3-0.5-0.1-0.5-0.5-0.6-0.4 0.1-0.8 0-1.1-0.3 0 0.2 0.3 2.1 0.4 2-0.1 0.2-0.6 2.1 0 2.1 0.2-0.2-3.2-0.2-3.1-0.2 0.1-0.2-0.3-1-0.5-1.1 0-0.1 0.2-0.2 0.1-0.3-0.1 0-0.1 0.1-0.2 0.1 0.1-0.4-1.1-0.2-1.3-0.2v0.4c-0.2-0.1-0.6-0.4-0.7 0-0.1 0-0.4-0.7-0.3-0.3-3.1-0.7-1.3 0.8-1.9 1 0.2 0-0.1 0.5 0.2 0.7 0.2-0.2 0.3-0.4 0.5 0-0.1 0.2 0-0.1 0 0.3-0.4 0-0.8-0.2-1.1 0 0 0.6 1 1.1 1.3 1 0.1 0.1 0.2 0.1 0.3 0.2 0.1 0 0.1-0.2 0.1-0.2 0.5 0.5 0.7 0.6 1.4 1.1-0.1 0.3 0.2 0.2 0.3 0.6 0 0.3-0.2 0.6 0 0.1 0.5 0.1 1 0.3 1.5 0.4v0.3c-0.2-0.1-0.2 0.3-0.3 0.3 0 0.4 0.7 0.4 0.8 0.4 0 0.3-0.1 0.2-0.3 0.4 0.7 0.7 0.4 0.1 0.2 0.9 0.1 0-0.3-0.5-0.4-0.6-0.2 0.2 0.1 0.3 0.2 0.4 0 0.5 1.8 3.7 2.2 3-0.2 0.3-0.3 0.2-0.3 0.6 0.1-0.2 1 0.7-0.1 0.9 0.1-0.3-0.2-0.8-0.5-0.9-0.2 0.4 0.7 1.1 0.2 1.4 0.1 0 0.9 1 0.7 0.9 0.3 0.1 0.4 0.9 0.3 0.9-0.2-0.4-0.4-0.8-0.5-1.2-0.1-0.2-1 2.3-1 2.4-0.1 0.2-0.1 0.4-0.2 0.6-0.2 0.2-0.2 0.3 0 0.4-0.3 0.8-0.7 2.1-1 3-0.7 1.7-4.5 0.9-4.5 0.5-0.1-0.1-1.4-1.2-1.8-0.9 0-0.1-8.1-3.1-8.9-3.2-0.5-0.3-0.7-0.1-0.7-0.7-0.1-0.1-0.5 0.1-0.6 0.1 0-0.1 0-0.2 0.1-0.2-0.2-0.5-1.8 0.4-1.5 1.2-0.1 0-0.4-0.4-0.4-0.5-0.2 0-0.1 0.2-0.5 0.1 0.1 0.4-0.6 0.1-0.7-0.2-0.1 0-0.2 0-0.3 0.1 0 0-0.4 0.2-0.2 0.2-0.8-0.1-1.2 0.3-1.1 1.1 0.2 0 0-0.1 0.1-0.2 0.9 0.5 0 1.1-0.1 1.6 0.1-0.2 0.5-0.1 0.3 0.3 0 0.2 0.3 0.4 0.4 0.5-0.3 0.4-0.6 0-0.1 0.4 0 0.1-0.3 0.2-0.4 0.1v-0.2c-0.8 2.2-2.2 6.1-2.7 8.4-0.1 0 0-0.1-0.1-0.1-0.6 0.6-3.6 6.1-1.4 5.2 0.5-0.1 0.4 2-0.4 1.9 0 1.4-0.1 2-1.1 3.4 0.2 0.3 0.5 0.4 1 0.2 0.6-0.6 5.9 2.2 6.1 2.7v0.4c-0.1 0.3 0.2 1.2-0.1 1.4 0 0.1 0.1 0.1 0.2 0-1.3 1.1 3.8 2.1 5.2 0.9 0.4-0.4 5.9 0.7 6.7 0.9 0 1 2.6-1.7 2.8-1.8 0.1-0.4 0.1-0.1 0.3 0v-0.3c0.1 0 0.5-0.1 0.5 0.1 0.5-0.1 0.8 0 1.1 0.5 0-0.3 0-0.5 0.3-0.3 0.2-0.1 0-0.6 0-0.5v0.2c-0.1 0-0.4-0.2-0.1-0.3-0.8-0.8 3-3.1 3.6-3.2 0-0.2-0.3-0.8-0.6-0.8-2-2.1 1.3-4.9 2.6-6.1 0.1 0 0.1 0.1 0.1 0.1 0 0.1 0.3-0.1 0.3-0.1 0-0.2-0.3 0-0.3-0.1 0.2-0.2 2-2.3 2.6-1.5 0 0.3 4.4-1.4 4.6-1.6 0.9-0.3 1.1-0.9 0.7-1.8 0.1-0.1 0.3 0.2 0.5-0.1 0.1-0.1 0.1-0.2-0.1-0.3-0.9-0.5 0-2.4-0.2-2.8 0.5-0.4 1-0.7 1.7-0.7-0.2-0.3 0.6-0.1 0.5-0.5 0 0 0.9-0.2 0.8 0-0.1 0-0.2-0.1-0.2 0 0.1 0.1 1.6 0.4 1.3 0.6 0 0.1 0.3 0.4 0.2-0.1 0.1 0 0.9 0.8 0.6 0.2 0.1 0 0.1 0 0.1 0.1 0.4-0.1 0.4 0.4 1.1 0.3 0.2 0.2 0.3 0.4-0.1 0.5-0.1 0.3 1-0.2 0.9 0.4-0.1 0.3 1 0.4 1.1 0.4l0.3 0.3c0.3 0 0.5 0 0.8 0.2-0.5 0.3 0.8-1.2 0.8-0.8 0-0.1-0.1-0.2-0.1-0.3 0-0.1 0.3-0.3 0.3-0.4 0.3 0.1 0.8-0.6 0.8-0.3 2.1-1.5 4.2-2.1 6.2-2.6 0.1 0.3 1.3 1.5 1.7 1.4 0-0.1-0.2-0.2-0.1-0.3 1.4-0.6 1.2 4.5 1.5 4.7 0.9-0.5 0.5 0.3 0.6 0.3 0-0.2 1.2 2 0.9 1.7 0 0 1.2-0.1 0.9 0.2 0.3 0 1.9 1.4 1.9 1.8-0.6 1.1 3.2 2.3 3.6 2.6 0.2 0.1 1.1 0.1 1.1 0.3 0 0 2 2 2 1.9-0.5-0.1-0.3 0.7 0.6 0.3 1.4 0.1 0.2 2.5 2.2 2.5 2-2.5 1.8 8.4 0.8 6.6 0.8-0.3 0.6-0.2 0.6-0.2 0.2-0.1-0.1 0 0 0zm33.2-12.7c0.7 0.6-0.5 0.2 0 0 0.1 0.1-0.1 0.1 0 0zm0.2-0.5c0.6-0.1 0.4 0.5 0.1 0.4-0.2-0.3-0.1 0.2-0.1-0.4 0.4 0 0.4 0 0 0 0.6-0.1 0 0.1 0 0zm-81.9-57c0 0.4-0.2 0.5-0.6 0.3l0.6-0.3c0.2 0 0 0.1 0 0zm12.1-11.1c0.2 0.6-1 0.1 0 0-0.1 0.2-0.1 0.2 0 0 0.2 0.6-0.2 0.1 0 0zm44-0.4c0 0.1-0.1 0.3-0.1 0.4-0.3-0.3-0.3-0.4 0.1-0.4 0 0.1-0.1 0 0 0zm-2.3 19.7c0.2-0.1 0.5 0.3 0.5 0.4-0.1 0.2-0.5-0.3-0.5-0.4 0.2-0.1 0 0.1 0 0zm-18-1.3c0.2 0 0.5 0.4 0.6 0.4-0.4 0.6-0.6 0-0.6-0.4v0.1c0-0.4-0.1 0.3 0-0.1 0.1 0 0 0.4 0 0zm10.5-0.1c-0.2 0.8-0.5 0.8-1 0 0.1-0.6 1.4-0.1 1 0 0.4 0.7 0 0 0 0zm3.1-6.2c0.6 0 0.5-1.8 0.9-1.7 0.1 0-0.6 4-1.4 4.2-0.2-0.8 0.1-1.9 0.5-2.5 0.2 0 0.2 0 0 0 0.4 0-0.1 0.1 0 0zm4.8-3.5c0.2-0.1-0.1 0.6-0.1 0.3l-0.5 1.7c0.5-0.6-0.8 1-0.5 0.6 0.6 0.1-0.2 0-0.1 0.2h0.1c-0.1 0.1-0.2 0.1 0 0.3 0 0.1-0.5 0.3-0.7 0.3 0.1-0.1 0.4-0.5 0.4-0.6-0.1 0-0.7-0.4-0.6-0.9-0.3 0.1 1.4-2.6 1.5-2 0.3-0.1 0.8-0.7 1.1-0.4 0 0.1-0.5 0.5-0.6 0.5 0.3-0.1 0.1 0 0 0zm0.2-2.1c0.1 0.2 0.4 0 0.2 0.3 0-0.1-0.1-0.2-0.2-0.3 0.1 0.2 0 0.1 0 0zm8.1-1.4c0.1 0.3 0.2 0.6-0.3 0.5 0 0.1 0.1 0.2 0.2 0.3 0-0.1-0.8 0.7-1.1 0.7 0 0.2 0.2-0.1 0.1 0.3-0.1 0-0.2 0-0.2-0.1-0.2 0.1-0.1 0.2-0.3 0.1-0.3 0.3 0.1-0.4-0.3 0.6 1.4 0.3-2.5 0.2-0.2-0.3-0.5-0.3-0.9-0.7-0.9-1.2 0.4-0.1 0.2-0.1 0.5 0.2 0.1 0 0.4-0.6 0.8-0.7 0-0.1 0.9-0.2 1.1-0.1 0-0.1-0.1-0.1-0.1-0.2 0.1-0.1 0.1-0.1 0.2 0 0.1 0-0.1-0.2 0.1-0.3 0.1 0.1 0.2 0.1 0.4 0.2 0.1 0.3 0 0 0 0zm-0.2-1.4c0 0.1 0.1 0.2 0.1 0.3-0.1 0.1-0.3 0.1-0.4 0.1-0.2-0.4-0.1-0.5 0.3-0.4 0 0.1-0.1 0 0 0zm-1.1 1.1c-0.5 0.4-0.2 0.2-0.6-0.1 0.2-0.4-0.7-0.1-0.8-0.4 0.4 0 0.7-0.2 1-0.5-0.1-0.4 1 0.4 0.9 0.2 0.4 0.2-0.1 0.8-0.5 0.8 0 0.1 0.2-0.1 0.1 0.1 0-0.1-0.2-0.1-0.1-0.1-0.2 0.2 0.1 0 0 0zm2.1-2.3c0 0.1 0 0.1-0.1 0.1-0.1-0.3 0.2-0.3 0.3-0.1-0.1 0.1-0.2 0-0.2 0zm-5.6-1.6c-0.2 0-0.1 0.2-0.3 0.3-0.2-0.4-0.1-0.5 0.3-0.3-0.2-0.1-0.2-0.1 0 0-0.3 0-0.1-0.2 0 0zm-0.9-0.8c0.3 0 0.4 0.5 0.6 0.4-0.3 0-0.5-0.1-0.6-0.4 0.3 0 0 0.1 0 0zm0.3-0.6c-0.1 0-0.1 0.1 0 0 0.4 0-0.1 0.2-0.1 0.4v0.2c-0.3 0-0.2-0.9 0-1 0.1 0.2 0.1 0.3 0.1 0.4-0.1 0 0-0.1 0 0zm-2.3 0.2v0.2c0.3 0-0.2-0.4 0.2-0.3 0.1-0.3 0.6-0.2 0.7-0.2-0.2-0.3 0.3-0.1 0 0.1 0.1-0.1 1 0 0.9 0.4-0.1 0-0.1 0-0.2-0.1 0 0.1 0.2 0.4 0.1 0.5 0.4-0.1 0.3-0.1-0.3 0-0.1 0.1 0.2 0.2 0.1 0.3 1 0.1-0.3 0.3-0.2 0.3 0.1-0.1 0.1-0.3 0.2-0.4 0 0-0.7 0.7-0.5 0.1l-0.2 0.2c-0.2-0.4 0.1 0-0.2-0.1-0.1-0.1 0-0.1 0.1-0.1 0 0.4-1.4-1.1-0.7-0.9-0.1 0-0.2-0.1 0 0zm13.8-0.8c0.2 0 0.1 0.6-0.1 0.4 0 0.1 0-0.9 0.1-0.2v-0.2c0.2 0 0 0.1 0 0zm-11.1 0.6v0.4c-0.2 0-0.3-0.5-0.3-0.6 0.1-0.1 0.3 0.2 0.3 0.2-0.1 0 0 0 0 0 0 0.1-0.2 0 0 0zm-0.4-0.7c0.1 0 0.2 0.1 0.3 0.2 0.2-0.1-0.2-0.4 0.1-0.4-0.1 0.4 0.1 0.7 0 1.1 0 0-0.4-0.9-0.4-0.5-0.1-0.1 0.3-0.4-0.1-0.3 0.1 0 0.1 0 0.1-0.1 0.2 0.1 0 0.1 0 0zm14-1.2c0.1 0-0.1-0.2 0-0.2 0 0.3 0 0.4 0.1 0.2 0.1 0 0.3 0.2 0.3 0.3-0.2 0.1-0.3-0.2-0.4-0.3 0.1 0 0 0 0 0zm-14.1-9.1c1-0.1-0.6 1.9-0.3 0.1 0.2-0.1 0.3-0.1 0.3-0.1 0.7-0.1 0.1-0.1 0 0zm-0.6-1.5c-0.1 0.3-0.1 0.4-0.2 0.7 0-0.1 0.2-0.7 0.2-0.7-0.1 0.2 0 0 0 0zm5.6-5.4c0.1 0.1 0.1 0.1 0.3 0.2-0.1 0.1-0.2 0.1-0.3 0 0.1-0.1-0.1 0.8-0.2 0.3-0.3-0.2-0.3-0.4 0.2-0.5 0.1 0.1 0 0 0 0zm16.8 89.7c-0.1 0.1 0.2 0.5-0.4 0.4 0.2-0.1 0.3-0.2 0.4-0.4-0.1 0.1 0 0.1 0 0zm7-4.4c0.4 0 0.8 0.1 1.2 0.3 0.1 0-1.9 0.7-1.8 1.3 0.1 0 0.9-0.1 1 0-0.1 0.5-0.7 0.4-1.1 0.3 0 0-1.9 0.7-2.1 0.6-0.1-1.2-0.7 0.1-0.9 0 0.1 0 0.1-0.1 0.1-0.2 0.2 0 0.3 0.2 0.5 0.2 0 0.1-2.4 0.4-2.4 0.4-0.1 0.2-0.8-0.1-0.8 0.3 0 0 0.2-0.5 0.3-0.5-0.3 0.1 1.7-0.9 1.4-1.3 0.3-0.6-0.1-0.8 0.6-0.9-0.3-0.3 1.1-0.2 1.1-0.2 0-0.1 0-0.1-0.1-0.1 0.2-0.4 3-0.5 3-0.2zm-27.5-1.2c0.2 0 0.4 0.3 0.3 0.5-0.1-0.1-0.2-0.3-0.3-0.5 0.2 0 0.1 0.1 0 0zm-0.1 0c-0.2 0.2 0.2 0.3 0.1 0.5-0.6 0-0.2-0.5-0.1-0.5-0.1 0.2 0 0 0 0zM142.2 167c0-0.2 0.3 0.1 0.3 0.3l-0.3-0.3c0-0.2 0.1 0 0 0zm-0.2-1.9c-0.2 0.1-0.5-0.2-0.2-0.3l0.4 0.4c-0.1 0-0.1-0.1-0.2-0.1-0.1 0.1 0 0.1 0 0zm-0.1-0.4c-0.2 0-0.4-0.6 0-0.6 0-0.1-0.1-0.2-0.2-0.3-0.6 0.1 0.9-0.3 0.2 0 0.2 0.2 0.1 0.2-0.1 0.3 0.1 0.3 0.3 0.5 0.1 0.6-0.2 0 0.1-0.1 0 0zm-1.1-2.3c0.1 0.1 0.2 0.1 0.3 0.2 0 0.4-0.1 0.5-0.4 0.8-0.1-0.1 0-0.3-0.2-0.5l-0.2 0.2c0-0.3 0.1-0.6 0.5-0.7 0 0.2-0.1 0 0 0zM94.6 145.3c0 0-0.1 0-0.1-0.1 0.2-0.3 0.7 0.2 0.1 0.1 0 0-0.1 0 0 0zm21.9-8c0.2 0 0.5 0.4 0.5 0.5 0.4 0.1-0.1 0.2-0.1-0.1-0.3-0.2-0.5-0.4-0.8-0.5 0-0.3 0.6-0.3 0.4 0.1 0.2 0 0.1-0.1 0 0zm4.7-2.4c0.2 0-1.5 1.1-1.5 0.2 0.6 0.3 1.1 0.2 1.5-0.2-0.3 0 0 0.1 0 0zm0-1.4c0 0.1-0.1 0.2-0.2 0.2-0.2 0.1 0 0.4 0 0.6-0.5 0-1.1 1-1.5 0.7 0.4-0.7 0.4-1.9 0.6-2.2 0.7-0.8 0.4 0.4 0.5 0.6-0.1 0-0.1 0 0 0.1-0.1-0.2 0.7-0.1 0.6 0 0 0.1-0.1 0 0 0zm3.7-22.5c0.2 0 0.3 0.4 0.4 0.5-0.2 0.1-0.5 0-0.5 0.3-0.2-0.2 0.1-0.2 0.2-0.2 0-0.1-0.1-0.1-0.2-0.2h0.2c0 0-0.4-0.3 0-0.2 0.2-0.2-0.1-0.1-0.1-0.2 0.3 0 0 0.1 0 0zm0.3-2.8c0.2 0 0.4-0.2 0.1-0.1-0.1-0.2 0.6-0.1 0.6-0.4 0.2 0.1-0.4 0.7-0.6 0.6 0.1 0-0.2 0.3-0.1 0.1-0.1 0.1 0.1 0.1 0.1 0.2-0.3 0 0 0.1 0 0.3-0.1 0-0.2-0.1-0.2 0.2 0 0 0.3-0.1 0.4-0.1-0.3 0.3-0.3-0.1-0.5 0.1 0-0.2 0-0.3-0.2-0.2 0-0.2 0.2-0.2 0.2-0.4 0.1 0 0 0.2 0.1 0.3 0-0.3 0-0.4 0.1-0.6 0.2 0.1-0.1 0.2 0 0zm0.3-1.6c0.2 0 0 0.4-0.1 0.4 0-0.1 0.1-0.3 0.1-0.4 0.2 0 0 0 0 0zm-0.9-2c-0.1 0.1 0.4 0.4 0.5 0.4-0.1 0.1-0.5-0.1-0.5-0.2-0.1-0.2-0.1-0.3 0-0.2-0.1 0.1 0 0.1 0 0zm4.7-6.1c0.2 0.1 0.5 0 0.4 0.4-0.2-0.3-0.6 0-0.4-0.4 0.2 0.1 0 0.1 0 0zm24.1-0.1c0 0-0.2 0-0.2-0.1 0 0 0.2-0.2 0.1-0.2 0.8 0.2-0.1 0.3 0.1 0.3zM136.9 95c0.1 0.1 0.2 0.2 0.3 0.2-0.3 0.2-1 0.3-1.4 0.8 0.1 0.2 0.3-0.3 0.4 0-0.1-0.1-0.2 0-0.2 0 0 0.1 0.1 0.2 0.2 0.3-0.1 0.1-1.2 0.1-1.4 0.1 0 0.1 0.2 0.2 0.2 0.3-0.1-0.1-0.3-0.1-0.4-0.1 0.2-0.3 0.2-0.6-0.1-0.9-0.3 0.5 2-0.3 2.4-0.7 0.1 0.1 0 0.1 0 0zm6.2-12.4c0.1 0 0.4-0.2 0.6 0-0.2 0.2-0.4 0.2-0.6 0 0.1 0 0 0.1 0 0zm1.1-2.6c-0.1 0.1-0.2 0.1-0.3 0.2 0.1-0.3-0.1 0-0.1-0.2 0.2 0 0.2 0 0.1-0.3 0.1 0 0.3 0.4 0.4 0.2 1.3 0.6-0.3-0.1-0.1 0.1-0.1 0.1 0 0 0 0zm4-6.2c0-0.2-0.1-0.3-0.2-0.2 0-0.1 0.2-0.3 0-0.3 0.1-0.2-0.1-0.1 0.1-0.2 0.1 0 0.6 1.7 0.7 1.8-0.2-0.4-0.4-0.8-0.6-1.1-0.1-0.2 0 0 0 0zm23.5 126.9c0 0 0.2 0.4 0.1 0.4-0.4 0-0.4-0.1-0.1-0.4 0 0-0.1 0.1 0 0zm-30.4-2.2c0 0.2 0.1 0.3 0.3 0.3-0.2-0.1-1 0-0.9-0.4 0.2 0 0.4 0.1 0.6 0.1 0 0.2-0.1 0 0 0zm29.6-0.1c0.5-0.1 0.3 0 0.5 0 0.3-0.1 0.4-0.1 0.4 0.2 0 0.1 0.1 0.1 0.1 0.1 0.6 0 1.2-0.2 1.7-0.5 0.1 0 0.1 0.1 0.2 0.1 0.2 0 0-0.2 0.1-0.2 0.8 0 1.3 0.2 2.2 0 0.2-0.1 0.3-0.1 0.4 0 0.1 0.1 0.1 0.2 0 0.2v-0.2c0 0-0.3 1 0.2 0.6-0.1-0.3 0.6-0.6 1-0.5 0-0.1 0.1-0.5 0.4-0.5 0 0.1 0.1 0.7 0.1 0.7v-0.2c-0.2 1.2-0.4 0.9-2 1.2-0.2 0.2-0.5 0.1-0.7 0.2-0.2 0-0.2 0.1-0.1 0.2-1.7 0.6-6.8-1.2-5.3-1.4 0.2-1-0.1-0.1 0.8 0 0.3-0.1-0.1-0.1 0 0zm-2.2-1c-0.7 0.2 0.3-0.7 0 0-0.1 0.1 0.1-0.1 0 0zm11.3-0.5c0 0.3-0.2 0.3-0.3 0.6-0.4-0.1 0.5-0.6 0.3-0.6zm-12.8-1.6c0.5 0 0.8 0.7 0.4 1-0.5 0.6-0.4-1-0.4-1 0.3 0 0 0.1 0 0zm13.1-0.4c0.3 0.2 0.2 2.1 0.1 2-0.7-0.3-0.1-2.3-0.1-2 0.3 0.2 0 0 0 0zm-4.6-1c0.2 0.1 0.3 0.1 0.3 0.3-0.4 0.1-0.5 0-0.3-0.3 0.1 0.1-0.1 0.1 0 0zm-0.8 0.1c0 0.5-0.2 0.2-0.5 0.3 0.3-0.2 0.3-0.3 0.5-0.3-0.1 0.5-0.1 0 0 0zm-1.7-0.6c-0.1 0.5-0.9-0.1 0 0 0 0.1-0.1 0 0 0zm7.7 0.2c0-0.4 0.6-0.2 0.7-0.1-0.1 0.1-0.6 0.1-0.7 0.1 0.1 0 0.1 0 0 0 0-0.3 0.2 0.1 0 0zm-7.1-0.5c0 0.2-0.2 0.4-0.4 0.4-0.1-0.2 0.2-0.7 0.4-0.4-0.1 0-0.1 0 0 0 0 0.2-0.1-0.2 0 0zm-1.6 0.1c0-0.3-0.7 0.9-1 0.6 0-0.4 0.2-0.7 0.6-0.9 0.1 0 0.3 0.2 0.4 0.3 0 0.2 0.1 0 0 0zm8.4-0.1c-0.3 0.1-0.4-0.2-0.5-0.2 0-0.5 0.6-0.1 0.5 0.2-0.1 0-0.1 0 0 0-0.3 0.1 0-0.1 0 0zm-6.5-0.5c1 1.3-0.8 0.1 0 0 0 0.1-0.1 0 0 0 1 1.3-0.2 0 0 0zm3.2 0c0.2 0 0.3 0.2 0.4 0.2 0-0.1-0.7 1-0.8 0.1 0.1 0 0.3 0 0.4-0.1v-0.2c0.2 0 0 0 0 0zm5.4 1.3c0-0.1-0.8 1.2-0.9 0.7-0.2-1.1 0.5-1.4 0.6-2.2 0.2 0.1 0.4 0 0.6 0 0 0.2 0 0.4-0.1 0.5-0.1 0.2 0.2 0.2 0.2 0.4l-0.2-0.2c-0.3 0.1 0 0.6 0 0.7-0.1 0.1-0.2 0.1-0.2 0.1-0.1-0.4-0.1 0 0 0zm-2.9-1.6c-0.1 0.8-0.5-0.3 0 0 0 0.1-0.1-0.1 0 0zm-7.4-0.1c0 0.2-0.1 0.3-0.2 0.4-0.2-0.2-0.2-0.8 0.2-0.4zm3.9-0.4c0.1 0.4-0.8 0.6-1 0.7 0-0.2 0-0.2 0.3-0.2 0-0.2-0.1 0-0.2-0.1 0-0.2 0.7-0.5 0.9-0.4 0.1 0.4-0.1 0 0 0zm5.5 0c-0.1 0.1-0.1 0.4 0 0.5-0.3-0.1-0.4-0.3-0.3-0.7 0.1 0.1 0.2 0.2 0.3 0.2 0 0.1-0.1 0 0 0zm-10.3 0.1c-0.2 0-0.5 0-0.3-0.2 0.2-0.5 0.6 0 0.3 0.2-0.1 0 0.2-0.1 0 0zm2.2-0.6c0.5 0-0.2 1.3-0.8 1.1v-0.5c0.4-0.1 0.7-0.3 0.8-0.6 0.5 0 0 0 0 0zm6.2-0.3c0.3 0-1 1.1-1 1.2-0.4 0.1 0-0.8 0.3-0.9 0.1-0.1 0.8-0.4 0.7-0.3 0.5 0 0 0.2 0 0zm-5.1 0.8c0 0.1 0.5 0.3 0.4 0.4-0.1 0-0.6-0.5-0.6-0.2 0.1 0.1 0.1 0.7-0.2 0.4 0.1-0.1 0.1-0.2 0.3-0.3-0.4-0.8 0-1.7 0.1-0.3zm-40-1c0.1 0 0.4 0.1 0.3 0.2h-0.3c-0.1-0.1-0.1-0.2 0-0.2 0.1 0 0 0.1 0 0zm36.2-0.3c0.4 0 0.4 0.6 0.1 0.8-0.3 0-0.2-0.7-0.1-0.8 0.2 0 0.2 0 0 0 0.4-0.1-0.1 0.1 0 0zm7.1-0.3c0.4 0.1 0.4 0.2 0.4 0.5 0.8-0.2 0.4 0.5 0.4 0.6-0.2-0.2-0.6-1-0.8-0.7-0.1-0.2-0.1-0.3 0-0.4 0.4 0.1 0 0 0 0zm-18.2-0.1c0 0.5 0.8 0.3 0.9 0.8h-0.3c-0.1 0-0.1 0.4-0.3 0.5-0.2-0.3-0.6-1.3-0.3-1.3zm12.5 0c0.5 0 0.4 0.5 0.1 0.7-0.2-0.1-0.2-0.6-0.1-0.7 0.2 0 0.2 0 0 0 0.5 0-0.1 0.1 0 0zm1.3-0.2c0.9-0.2 0 0.6 0 0.4-0.7 0.4-0.1-0.1 0-0.1-0.1-0.3 0.6-0.6 0-0.3 0.9-0.2-0.1 0.1 0 0zm3.7 0.3c-0.4 0.1 0-0.8 0.1-0.3 0 0.1-0.3 0.4-0.1 0.3-0.4 0.1 0.1-0.1 0 0zm-6.6-0.6c0.3 0-0.1 0.8 0 0.9-0.4-0.4-0.3-0.7 0-0.9 0.3 0 0.1 0.1 0 0zm7-0.1c0.1 0 0.3 0.4 0.3 0.5-0.3 0-0.4-0.3-0.3-0.5 0.1 0-0.1 0.2 0 0zm23.1 2.7c0 0-0.2 0.7-0.2 0.6-0.2-0.1-0.6 0.1-0.8 0.2 0 1.3-1.5 1.1-1.5 2.2-0.2-0.1-0.2 0.2-0.4 0.1 0 0.3-2.4-0.8-2.2-0.9 0.1-0.9 4.3-4.8 5.9-5.1 0.2 0.1-0.8 3.1-0.8 2.9zm-23.8-3.5c0.4 0-0.1 0.5 0 0.5-0.1 0-0.2-0.2-0.3-0.2l0.3-0.3c0.3 0-0.1 0 0 0zm-0.7-0.1c0.6-0.1-0.4 1-0.8 1-0.6-0.5 0.8-0.7 0.8-1 0.2 0.1 0.2 0.1 0 0 0.6 0 0 0.1 0 0zm-33.8 0c0.6 0.2-0.1 0.3 0 0v0c0.1 0.1 0-0.2 0 0zm29.4-0.2c0 0.1 0.7 1.1 0.9 1.1 0.1-0.6 0.7 0.6 0.3 0.5-0.5-0.1-1.1-1.2-1.6-1 0.1-0.3-0.4-0.9 0.4-0.6 0 0.2-0.1-0.1 0 0zm-12.3-0.1c0.1 0.2 0.4 0.5 0 0.4 0.1 0.1 0.9 1.2 0.1 1 0.1-0.1 0.1-0.1 0-0.2-0.3 0 0.1 0.1-0.2-0.1-2.1 1.1 0.5-2.3 0.1-1.1 0.1 0.2 0-0.1 0 0zm14.2-2.7c0.1 0.4-0.4 0.5-0.4 0.2 0.1-0.2 0.2-0.2 0.4-0.1 0-0.1 0.1 0 0-0.1 0.1 0.4 0 0 0 0zm1.6 1c0.1 0.5 0.1 0 0.2 0.5-0.3-0.2-0.9 0.5-1-0.4 0.2 0 0.4-0.4 0.1-0.2 0.4-0.2 0.3-0.3-0.1-0.3 0.4-0.3-0.4-1.2 1.2-0.6 0 0.2-0.3 0.1-0.4 0-0.2 0.3 0.1 0.7 0.2 0.9-0.1 0.1-0.1 0.1-0.2 0.1 0.1 0.5 0.1 0 0 0zm1.7-1c-0.3-0.1-0.1-0.2-0.3-0.3 0.2-0.1 0.3 0.4 0.3 0.3-0.3-0.1 0-0.1 0 0zm-19.5-0.4c0.2 0 0.5 0.2 0.4 0.4-0.2 0-0.5-0.2-0.4-0.4 0.1 0-0.1 0.2 0 0zm-34.4 0c0 0-0.1 0.3-0.1 0.4-0.3 0.1-0.4-0.6 0.1-0.4 0 0.1-0.1 0 0 0zm47.1-0.6c0.3 0.1 0.4 0.8 0.8 0.7-0.1 0.3-0.9 0.1-0.9 0.2 0-0.1 0.1-0.2 0.1-0.2-0.2-0.2-0.2-0.5 0-0.7 0.3 0.1 0 0.1 0 0zm-2-0.2c-0.1 0.6-0.8 0-0.7-0.2 0.1-0.1 0.7 0.3 0.7 0.2 0.2 0.2-0.4 0 0 0-0.2 0.6-0.2 0 0 0zm-0.9-0.2c0 0.1 0.2 0.3 0 0.3 0 0.1 0.2 0 0.1 0.1-0.6-0.3-0.3 0-0.1-0.4 0 0.1-0.1 0 0 0zm-64.3 0.1c0.4 0.3 0.3 0.3-0.4 0.3 0.1-0.5 0.2-0.6 0.4-0.3 0.1 0.1 0.1 0 0 0zm65.4-0.6c0.4 0 0.2 0.4 0.3 0.6-0.2 0-0.4-0.1-0.4 0.2-0.1 0-0.3-0.2-0.3-0.3 0.4 0 0.3-0.1 0.4-0.5 0.2 0.1 0.2 0.1 0 0 0.4 0 0 0.1 0 0zm0.4-0.3c0.6-0.1-0.2 0.7 0 0 0.1 0-0.1 0 0 0zm-65.4-0.7c0.2 0.3-0.2 1.4-0.7 1.3 0-0.4-0.6-0.4-0.3-0.9 0.1 0 1.3-0.4 1-0.4 0.1 0.3-0.1 0 0 0zm71.9-0.5c0.4 0.3 0.7 0.7 0.9 1.2 0.2 0.9-2.4 0.1-2.3-0.2 0.1-0.3 1.4-0.9 1.4-1 0.1 0 0 0.1 0 0zm-4-0.1c0.3 0 0.3 0.5-0.1 0.5 0-0.1 0-0.3 0.1-0.5 0.1 0.1 0.1 0.1 0 0 0.3 0 0 0.2 0 0zm2.9-1.1c-0.1-0.1-0.2-0.2-0.4-0.2 0.3-0.2 0.4-0.2 0.4 0.2-0.1-0.1 0.1-0.1 0 0zm-2.6 0.4c0 0 0.1 0 0.1-0.1-0.1-0.1-0.4 0-0.5-0.2l-0.1-0.6c0.3 0 0.6 0 0.8-0.1 0 0.1 0 0.1 0.1 0.2 0.6 0.4-0.1 0.4-0.1 0.2-0.3 0 0.1 0.4 0.1 0.5-0.2 0-0.3 0.1-0.4 0.1zm-63.6-1.2c0.1 0 0.6 0 0.5 0.2-0.1 0.1-0.2 0.2-0.3 0.2 0.1 0.1 0.6 0.1 0.1 0.3 0.1 0.2 0.5 0.5 0.5 0.1 0.1 0.1 0.8 0.7 0.2 0.8-0.4 2.2-2 0-2.7 0.3-0.1-1.4 0.5-1.2 1.7-1.9 0 0-0.1 0.1 0 0zm31.4-0.3 0.2 0.2c-0.1 0.1-0.7 0.2-0.6-0.1 0.1 0.1 0.4 0 0.4-0.1 0.1 0.1 0 0.1 0 0zm34.5-0.4c0.1 0.3-0.5 0.4-0.7 0.5-0.4-0.1-0.2-0.2-0.2-0.4-0.1-0.1 1-0.6 0.9-0.1zm-1-1c-0.2 0.6-0.4 0.1-0.8 0.2-0.1-0.8 1.1 0.2 0.8-0.2-0.3 0.6-0.1 0 0 0zm-3-0.8c0.3 0.5 0.2 0.8-0.4 0.7-0.3-0.4-0.2-0.6 0.4-0.7zm-46.8 0.9c0.2-2.6 0.4-0.3 0.2-0.5 0 0.1-0.1 0.1-0.2 0.1 0.4 0.5 1.7 0.7 1.4 0.2 0.4 0.2 0.5-0.6 0.8-0.6 0.4-0.4 0.6-0.3 1-0.2 0.2-0.5 0.7 0.2 0.3 0.1 0.1 0.2 0.6 0.5 0.6 0.9-0.2 0-0.1-0.1-0.2 0.2 0.2-0.2 0.5 0.2 0.4 0.4h-0.2c0 0.2 0.1 0.4 0.2 0.3 0.6 0.5-0.7 4.4-0.5 5.2 0-0.2-0.2 0.6-0.3 0.8 0.5 0.4-0.5 0.3-0.7 0.4-0.1-0.4-0.4-0.6-0.8-0.6-0.1 0.2-0.2 0.3-0.1 0.5 0 0.4-0.3 0.5-0.5 0.7-0.8-0.2-0.6 0-1-0.8-0.3 0.1-0.1 0.4-0.4 0.4-0.1-0.2-0.2-0.5-0.1-0.7 0.1 0 0.1 0.1 0.2 0.1 0 0-0.2-0.4-0.2-0.5 0.2 0 0.4-1.9 0.4-2.1 0.4 0.2-0.6-4-0.3-4.3 0-0.3-0.1 0.1 0 0zm7.7-5.3c0.2 0 0.3 0.1 0.2 0.3-0.1-0.1-0.2-0.2-0.2-0.3 0.1 0 0 0.1 0 0zm16.9-1.2c0 0.2-0.5 0.2-0.5 0 0.1-0.1 0.5 0.1 0.5 0 0 0.3-0.1-0.1 0 0zm2.2 0.2c0 0.2-1.2-0.1-1.3-0.2-0.1-0.3 1.2 0.1 1.3 0.2 0 0.2-0.1-0.1 0 0zm-21.2-0.5c0.3-0.3 0.6-0.4 1-0.3 0.1 0.6-0.9 0.6-1 0.3v0c-0.1-0.3 0 0.2 0 0zm17-0.8c0 0.4-0.4 0.2-0.6 0.3-0.1-0.5 0.3-0.3 0.6-0.3-0.1 0.2-0.1 0.2 0 0 0 0.4-0.1 0 0 0zm-18.7-0.3c0.1-0.5 0.4 4.3-0.3 4.1h0.1c0.1 0.1-0.6 1.9-0.6 2-0.4 0.6-1.4-1-1.4-1 0-0.1 0.3 0.1 0.3-0.1-0.1-0.1-0.8-1-0.8-1.2 0.1-0.1 0.3-0.1 0.3-0.4 0 0-0.8-0.9 0-0.7 0.1-0.5 1.9-2.2 1.9-1.5 0.4-0.2-0.2-1.6 0.5-1.2-0.1 0.8-0.1-0.1 0 0zm19.9-0.1c0.5 0 0.9 0.1 1.4 0.1 0.1 0.3-1.5 0-1.2 0.2-0.2 0-1.4 0-1.2-0.4 0.2-0.3 1-0.1 1 0.1 0.1 0.2 0-0.4 0 0 0.4 0 0-0.2 0 0zm-0.9-0.6c0-0.2 0.1-0.3 0.4-0.2 0.7-0.1 0.9 0 0.8 0.6-0.7 0.1-1.2-0.2-1.7-0.6 0.2-0.2 0.4-0.1 0.5 0.2zm-4.3-4c-0.4-0.1 0 0.2 0 0-0.2 0 0.1-0.1 0 0zm-0.5-0.1c0.6 0-0.1 0.7 0 0zM100 154.3c0.1 0.3 0.2 0.3 0.3 0.1 0 0.3 0.3 0.3 0.3 0.6-0.3 0-0.8-0.5-0.8-0.7h0.2c0.1 0.3 0 0.1 0 0zm-1.5-1.8c-0.1 0-0.4-0.1-0.3-0.2 0.1-0.1 0.2 0 0.3 0.2-0.1 0 0-0.1 0 0zm-1.4-2.9c-0.1 0.4-0.6 0.2-0.6-0.3 0.6 0.1 0.5 0.6 0.6 0.3-0.1 0.4 0 0.1 0 0zm4.5-5c0 0.3-0.2 0.2-0.4 0.2 0-0.3 0.6-0.1 0.4-0.2 0 0.3-0.1 0 0 0zm-0.7-0.4c0.1 0.3-0.3 0.2-0.4 0h0.4c-0.1 0.1-0.1 0.1 0 0 0.1 0.3-0.2 0 0 0zm21.7-12.8c-0.1 0-0.1 0-0.1-0.1 0.2-0.1 0.4-0.1 0.6-0.1-0.2 0-0.3 0.1-0.5 0.2-0.1 0-0.1-0.1 0 0zm-0.4-0.1c-0.4 0-1.5 0.3-1.9 0.2 0-0.6 1 0 1.1-0.3 0-0.1-0.2 0-0.2-0.1 0.4-0.1 0.6 0 1 0.2-0.1 0 0-0.1 0 0-0.5 0 0-0.2 0 0zm2.6-0.6c-0.2 0.4-0.9-0.1-0.7 0.3-0.7-0.3 0.1-0.3 0.7-0.3-0.1 0 0 0 0 0-0.2 0.4-0.2 0 0 0zm3.8-2.9c0.2 0-0.1 0.3-0.1 0.3-0.1 0-0.2 0-0.2-0.1 0.1 0 0.2-0.1 0.3-0.2 0.2 0 0 0.1 0 0zm-0.8-0.5c0.2-0.1 0.2 0.4 0.2 0.4-0.1 0-0.3-0.2-0.4-0.3 0 0 0.1 0 0.2-0.1 0.2-0.1 0 0 0 0zm0.7-0.1c0.1 0.4-0.5 0.4-0.5 0 0.1 0.1 0.7 0.1 0.5 0 0 0.4-0.1 0 0 0zm-0.1-1.7c0.1 0 0.3 0.2 0.3 0.3-0.2-0.1-0.8 0.7-0.4 1-0.3 0-0.5 0.1-0.4 0.5-0.4-0.1 0.5-1.8 0.5-1.8 0.1-0.1-0.1 0 0 0zm-40-0.1-0.1 0.1c-0.1 0-0.2-0.3-0.3-0.3 0.2-0.1 0.3 0 0.4 0.2zm12-0.7c-0.3 0.1-0.7 0.1-0.9 0.3-0.2-0.7 1.3-0.8 1.3-1.2 0.2 0.4 0 0.7-0.4 0.9-0.3 0.1 0 0 0 0zm32.7-1.6c0.1 0.3 0.1 0.6 0.1 0.9-0.5 0-0.1-0.9-0.1-0.9 0.1 0.3-0.1-0.1 0 0zm-41.4-1.3c0.2-0.1 0.5-0.2 0.6-0.4 0.3 0.1 0.7 0 0.8-0.3 0.1 1-1.8-2.2-0.5-0.9 0 0.1 0.3-0.8 0.3-0.8 0.1 0.2 1.4-0.7 1.5-0.1 0.1-0.1-0.1-0.2 0-0.3h0.5c0.3-0.1 0 0.4 0.1 0.4 0-0.4 0.4-0.3 0.6-0.6 0.6 0.4 1.8 0.7 2.1 1 0.3-0.2 0.4 1.9 0.1 2.4 0.8 0.1 0.6 0.1 0.8 0.9-0.1 0.1-0.4 0.4-0.3 0.6-0.3 0.1-0.6 0.1-0.9 0.1 0.3 0.5-1.1 0.6-1.2 0.7 0.1-0.1 0 2.3-0.1 2.3-0.2 0.7-0.7 3.1-1.8 3.3-0.2 1.1-0.2-0.1-0.9 0.4 0 0-0.4 0.1-0.5 0.1 0.1-0.1 0.1-0.2 0.1-0.3-0.5 0.3-1 0.3-1.5 0.1 0 0.1 0.1 0.2 0.2 0.1 0 0.7-2.5 0.3-2.6 0.8-0.8 0.2-1.5 0.3-2.3 0.1 0.3-0.6-1.1 0.3-0.6-0.5-0.4-0.1 0.6-0.4 0.8-0.4 0 0-0.6-0.2-0.4 0.1-0.4 0-0.9-0.2-1.3-0.2 0.1-0.1 0.2-0.1 0.3 0 0-0.4-0.1 0 0.3-0.2-0.1-0.1 0.5-0.3 0.5-0.3-0.3-0.2-1 0.4-0.8-0.3-0.3-0.5 0.3-1 0.5-0.8 0.1 0 0.5 0.1 0.4-0.1-0.5-0.1-0.9-0.1-1.4-0.2 0 0 0.5-0.7 0.5-0.3 0.2-0.1 0.7-0.5 0.6 0 0.2 0 0.2-0.2 0.3-0.2 0 0.3 0.1 0.3 0.4 0.3 0-0.1-0.2-0.1-0.2-0.2 0.1 0 0.2 0 0.2-0.1 0-0.1-0.2-0.2-0.2-0.3 0.4 0 0.8-0.1 1.1-0.3-0.1 0-0.1 0 0-0.1 0 0 0.2 0.3 0.2 0.1-0.2-0.3-0.8-0.1-1.1-0.1 0.6-0.4 1.1-0.6 1.6-1 0-0.1-0.2 0-0.2 0-0.2-0.8 1.1-0.6 1.4-0.7-0.5-0.3-1.1-0.5-1.7-0.6 0.4-0.3 0.1-0.1 0-0.2 0-0.2-0.1-0.5-0.6-0.6 0-0.2 0.1-0.2 0.3-0.2-0.1 0.1 0.1-0.9 0.2-0.4 0.1-0.1 0-0.1-0.1-0.1 0.2-0.1 0.3 0.1 0.5 0.1 0-0.3 0.9-0.7 0.9-0.7 0-0.1-0.5-0.2-0.4 0-1.1-0.2-0.7-0.6 0-0.6 0.1-0.2-0.1-0.2-0.1-0.4 0.3 0 0-0.2 0.2-0.3 0.3 0.2-1-0.9 0.2-0.4-0.1 0.1 0.6 0.2 0.7 0.2 0.1 0.1 0.4 0.2 0.6 0.2 0.1 0.2 0.1 0.2 0.2 0.5 0.1 0 1.2-0.2 1.2 0 0.1-0.2 0-0.3-0.1-0.3 0.2-0.1 0 0.1 0 0zm8.7-3c0.4 0 0.2 0.9 0.1 1.1-0.8-0.1-0.8-0.9-0.1-1.1 0 0 0.1-0.1 0 0 0.3 0-0.2 0 0 0zm34.3-0.4c-0.1 0.9-1.2-0.2 0 0-0.1 0.9-0.2 0 0 0zm-35.6-1.5c0 0.1-0.3 0.5-0.5 0.4 0-0.2 0.3-0.5 0.5-0.4 0 0.1-0.1-0.1 0 0zm-0.7-1.8c0 0.1 0.1 0.1 0.1 0.2 0 0-1.5 0-0.1-0.2 0 0.1-0.1 0 0 0zm0.7-0.3c0 0.3-0.5 0.4-0.7 0.3 0-0.2 0.6-0.3 0.7-0.3v0c0.1 0.3 0 0 0 0zm1-0.7c0.1 0.5-0.7 0.1 0 0 0 0.1-0.2 0 0 0zm-0.2-0.4c-0.1 0.8-0.8-0.4 0 0zm-2.5-0.6c0.2 0.1 0.2-0.3 0.4 0-0.1 0.2-0.1 0 0 0.2-0.2 0-0.4 0.3-0.6 0.3 0.1-0.2 0.1-0.4 0.2-0.5 0.2 0.1 0 0 0 0zm5.4-2.9c-0.1 0.1-0.1 0.3 0.1 0.3 0.4-0.3-0.4-0.7 0.4-0.7-0.1 0.2 0.2 0.1 0.2 0.1-0.5-0.7 1.3-1.7 1.2-0.7 0.1 0 0.7-0.1 0.4 0.1 0.7-0.1 1.4-0.1 2 0.2 0.1 0-0.1-0.2 0.1-0.3 0.3 0 0.5 0.1 0.8 0.1 0 0.1-0.4 0-0.4 0.2 0 0 0.3 0 0.3 0.1 0 0.2-0.6 0.5-0.2 0.5-0.7 0.9-2.5 1.2-2.2 1.7 0 0.4-0.2 0.6-0.5 0.8-0.1-0.1-0.7 0.3-0.7 0.4-0.1-1.1 3.8 0.2 4.1 0.2 2.2 0-1.3 3-1.4 3.5-0.1 0-0.9 0.7-0.9 0.5 1.5-0.5-3.8 2.6-1.6 1.4 0.1 0 0.2 0.1 0.3 0 0 0.3 0.9 0.4 0.8 0 0.5 0.1 1 0.4 1.4 0.8-0.7 2 3.2 6.2 2.6 7.3-0.6-0.5 0.1 1.9 0.1 1.9-0.2 0-0.5-0.5-0.6-0.1 0.3 1.1 1.3 1.6-0.2 2.5 0 0.2 0.1 0 0.2 0-0.1 0.3 1.7 0.1 2.1 0.1-0.2 1.2 1.2 2.1-0.2 4 0 0-0.1 0-0.1-0.1-0.1 0.4-0.4 0.6-0.9 0.4 0.2 0.5-0.2 1-0.8 0.8 0.2-0.2-0.2-0.1-0.3 0 0.3-0.1 1.6 1.2 1.9 0.9-0.2 0.6-0.6 0.9-1.2 0.9-0.5 0.4-0.8 0.6-1.6 0.5-0.1 0-0.2 0.1-0.2 0.2-0.4-0.1-3.3-1.2-3.9-0.8 1.4 1.1-1.4-0.4-1.5 0.4-1.6-0.4-2.6-0.3-3.7-0.1 0.2 1-2.8-0.2-2.9-0.4-1.1 0.2-1.2 1.2-2.5 0.5 0.3 0.2 2.5-2.2 3.2-2 0.2-0.3 1.2-1.1 1.2-1.3 0.5-0.1 2.9 1.1 2.9 0 0.1 0-2.8-1.6-2.3-1.6-0.1-0.3-0.7 0-0.5-0.5 0 0.1-0.5-0.1-0.4-0.1-0.1-0.1-0.4 0.4-0.3 0.4-0.2 0.2-1.5-0.5-1.3-0.8 0.1 0 0.3 0.2 0.2-0.1 0.3 0.1 0.2 0 0.1-0.2-0.1 0.1-0.2 0.1-0.3-0.1 0.1-0.9 2.5-0.2 2.9-1 1 0.3 0.7-3.3-0.1-1.7-0.1 0-0.2-0.1-0.2-0.2-0.1 0-0.3 0.1-0.4 0 0.5 0.7 0.7-1.5 0.7-1.8 0.3-0.3 0.7-0.4 1.1-0.1-0.3 0.2 0.1 0.3 0.2 0.4 0 0.1 0 0.2-0.1 0.2 0.1 0.2 0.6-0.1 0.6-0.3 0.3 0.3 0.7 0.3 1.1 0.2 0.1 0.2 0.2 0.2 0.3 0.2v-0.2c0.3-0.3 0.5-0.6 0.8-1-0.2-0.8 0.3-0.7 0.7-1.3 0-0.1-0.1 0.1-0.2 0v-0.3c-0.1 0.3-0.2 0.1-0.3 0-0.2 0.1-0.4 0.4-0.4 0.4-1.5 0.4 0.7-3.5 0.6-3.3-0.1-0.1-0.5-0.2-0.6 0l0.1 0.1c-0.2-0.1-0.6 0.1-0.8 0.3 0 0-1-0.4-1.1-0.5 0.2-0.1-1.4 1.1-0.9-0.2 1 0.7-1.4-0.4-0.8-0.3 0.3-0.3 1.1-1 1.2-1.5 1.5-0.5-0.1-1 0.2-1.3 0.1-0.1 0.3-0.4 0.4-0.7-0.1-0.1-0.5 0.7-0.5 0.7 0.1-0.4-0.2-0.6-0.5-0.8-0.1 0.1 0.1 0.5 0.1 0.6-0.2-0.1-0.8 0.3-0.5 0.5-0.1 0.1-0.2 0.1-0.1 0 0 0.7-0.3 0.9-0.9 0.8 0.1-0.5 0.3-0.9 0.6-1.3-0.3 0.2-0.2-0.5 0-0.1 0.5-0.1 0-1.4 0.8-1.4 0-0.1-0.1-0.1-0.1-0.1 0-0.1 0.3-0.2 0.3-0.3 0.6 0.8-3 2-2.3 1.6 0-0.2 0.1-0.2 0.3-0.2 0 0-0.6 0.2-0.7 0.2 0-0.3 0.4-0.7 0.8-0.7-0.3 0.2 0.6-0.4 0.4 0.1 0.5 0 1.1-1.3 1.6-1.3-0.1-0.3 0.1-0.4 0.4-0.3-0.1-0.1-0.4 0-0.4-0.1 0.3-0.2 0.8-0.2 1-0.6 0 0.1-1.2 0.4-1.2 0.4 0.6 1-0.3 0.4-0.5 0.6-0.2 0.1-1.1 0.2-1-0.2 0 0.1-0.1 0.1-0.1 0 0-0.2 0.8-0.3 1-0.3 0.2 0.1-1-0.6-0.3-0.2 0-0.2-0.2-1 0.5-0.3 0.1 0 0-0.2 0.2-0.1 0-0.2 0.2-0.7 0.2-0.3 0.1-0.1 0.1-0.1-0.1-0.1l0.4-0.2c-0.1 0-0.2-0.1-0.3-0.1 0-0.1 0.3-0.4 0.5-0.4 0 0 0.3-0.5 0.3-0.5-0.6 0-0.8 0.8-0.6-0.2l-0.2 0.2c-0.1 0 0-0.2-0.1-0.3-0.2 0.2-0.2 0.1-0.4-0.1 0-0.1-0.1-0.2-0.2-0.2 0.3-0.4 0.1-0.6-0.4-0.6 0-0.3 0.3-0.8 0.3-0.2 0.1 0 0.2-0.5 0.2-0.5 0.1 0.1 0.2 0.5 0.4 0.4-0.2-0.4 0.7-0.8 0.5 0.4-0.1 0-0.3 0.3-0.2 0.4 0.2 0 0.5-0.6 0.5-0.8 0.1 0.1-0.3 0.8-0.4 0.9 0.1 0.1 0.1 0.2 0.1 0.3 0.2 0 0.6-0.1 0.7-0.3-0.2-0.2-1.4 0.4-0.2-0.9 0.1 0 0.1 0.3 0.2 0.2 0-0.3-0.2-0.3 0.1-0.6v-0.5c0.3-0.2 0.2 0.1 0.3 0.2 0-0.1 0.1-0.2 0.2-0.3 0.1-0.1 0.1 0.3 0.2 0.3-0.1 0 0.7-0.2 0.6-0.1 0-0.2-0.2-0.4-0.4-0.3 0.7-0.5 0.8-0.9 0.9-0.9 0 0.1-0.1 0 0 0zm-2.9-1.1 1-0.3c0-0.1 0-0.1 0.1-0.1 0.2 0.1 1.7 0.2 0.2 0.8 0.1 0.2 0.3 0 0.4-0.1 0 0.3-1.2 1-1.4 1-0.1 0.1-0.1 0.5-0.2 0.1-0.1 0.1-0.9 0.6-0.8 0.6-0.2 0.1-0.9 0.9-0.7 1 0 0-0.4 0.9-0.6 0.9 0.1-0.1 0-0.1 0.1-0.2-0.6-0.2 0.3-1.4 0.3-1.7-0.7 0.2 0.5-0.6 0.4-0.4 0.1-0.1 0.6 0.2 0.5-0.4h0.4c0-0.1-0.2 0-0.2-0.1 0-0.2 0.4-0.1 0.4 0-0.1-0.1-0.8-0.6-0.2-0.6-0.1-0.2 0-0.4 0.3-0.5zm9.3-1.1c0 0 0.2 0.2 0.3 0.2-0.1 0-0.1 0.1-0.1 0.2-0.2 0-0.3 0-0.3-0.3 0 0 0-0.1 0.1-0.1zm-0.3-0.2c0-0.1 0.2-0.1 0.2-0.1 0 0.1-0.1 0.4-0.2 0.4zm-0.2 0c0.1 0.2-0.3 0.5-0.4 0.5 0 0.2 0.7 0.1 0.4 0.3 0.5 0 0 0.3-0.3 0.2-0.1 0.1 0 0.5-0.2 0.5-0.1 0-0.1-0.1-0.1-0.2-0.1-0.2-0.3-0.1-0.5 0-0.4-0.2 0.4-1.7 0.7-1.2l0.1-0.3c0.1 0.1 0.2 0.1 0.3 0.2 0.1 0.2 0 0.1 0 0zm0.1 0.4v-0.1c0.2 0.1-0.2 0.4-0.4 0.3 0.2-0.1 0.3-0.2 0.4-0.2 0-0.1-0.1 0 0 0zm0.8-0.7v0.1c0.8 0.1-0.3 0.3-0.4 0.3 0-0.2 0.1-0.4 0.4-0.4-0.1 0-0.1 0 0 0zm-0.7-0.4c0.2 0 0 0.2 0 0.2h-0.2c0.1 0.1 0.1 0.2 0.1 0.3-0.2 0.1-0.2-0.4-0.4-0.4 0.2 0 0.4 0 0.5-0.1 0.2 0 0 0 0 0zm3.7-2c0 0.1 0.1-0.2 0.1-0.2 0 0.4-1.1-0.7-0.4-0.7 0 0.5 0.4-0.1 0.5-0.3 0 0.1-0.1 0.1-0.1 0.1 0.1-0.1 0-0.2-0.2-0.2 0-0.1 0.3-0.1 0.2-0.3 0.1 0.2 0.1 0.2 0.2 0 0.1-0.1 0.2-0.2 0.4-0.1 0 0.2-0.1 0.3-0.2 0.5 0.1-0.1 0.1-0.1 0.2 0 0.5-1.3 1.3-0.5 0.6-0.5 0 0.2 0.3 0.1 0.4 0.2-0.3 0.3-0.4 0.3-0.4-0.1 0 0-0.5 0.6-0.6 0.6 0.6 0.1-0.3 0.3 0.4 0.2-0.1 0.3-0.2 0.1-0.4 0.1-0.1 0.2 0 0.3-0.2 0.4 0 0.1 0.3 0.2 0.3 0.3-0.1 0-0.2 0-0.2 0.1-0.3-0.2-0.4 0.2-0.3 0.3-0.1-0.2-0.3 0.5-0.4 0.4-0.1-0.1 0-0.4 0.1-0.8zm12.4-3.5c0.3 0.1 0.1 0.4 0 0.6h-0.3c0.1-0.2 0.2-0.1 0.2-0.4 0.1 0.2 0.1 0.2 0.1-0.2 0.3 0.1 0 0.1 0 0zm3.2-3.2c0.1 0 0.2 0 0.2 0.1-0.4 0-0.4 0.5-0.5-0.1h0.3c0.2-0.1 0 0 0 0zm-23.5-0.1c-0.4 0-0.1-0.8-0.4-0.7 0-0.1 0.1-0.3 0.1-0.4 0.4 0.1 0.5 0.9 0.3 1.1-0.1 0-0.1 0 0 0-0.4 0 0.1 0 0 0zm28.1-3.5c0.3-0.1 0.2 0.3 0.4 0.2-0.5 0.2 0.1 0.9-1.1 0.3 0-0.2 0.4-0.2 0.6-0.2-0.1 0-0.1-0.1 0-0.2-0.1 0.1 0.1 0.1 0.1-0.1 0.3-0.1 0 0.1 0 0zM105 96.3c0 0 0.7 0.9 0.1 0.8 0-0.1-0.4-0.8-0.1-0.8 0 0-0.1 0 0 0zm0.1-1.5c0-0.1 0.6 0.2 0.4 0.2 0 0.2 0.3-0.2 0.4-0.2 0 0.5 0.2-0.2 0.2 0.3 0.1-0.1 0.1-0.2 0.3-0.2-0.1 0.3 0 0.4 0.3 0.5 0 0.2-0.9 0.4-0.9 0.1-0.1 0.1 0.1 0.2 0.2 0.2-0.1 0.1-0.3 0.3-0.5 0.3 0.2 0.4-0.3 0.3-0.3 0.4v-0.2c-0.2 0.4 0-0.3-0.1-0.4 0 0.1-0.6 0.1-0.6 0.1-0.1-0.4 0.3-1.1 0.6-1.1zm33.6-6.6c-0.2 0 0.2 0.4-0.4 0.1l0.1 0.1c0.1 0 0.2-0.1 0.3-0.2 0.3 0 0 0.1 0 0zm1.6-2c0 0.4-0.2 0.2-0.4 0.2 0-0.3 0.2-0.1 0.4-0.2-0.1 0.3-0.1 0.3 0 0-0.1 0.4-0.2 0.1 0 0zm-0.6-0.4c0.1 0 0.2 0.1 0.3 0.1 0 0-0.3 0.3-0.3 0.2-0.1 0 0-0.2 0-0.3 0.1 0.1 0 0.1 0 0zm35-0.1c0.3 0.1 0.4 0.6 0.7 0.5-1.7 1.3-0.7-0.5-0.7-0.5 0.3 0 0 0 0 0zm0.3-0.2h0.5c-0.1 0.3-0.3 0.3-0.5 0 0.1 0 0 0.1 0 0zm-34.8 0c0-0.2 0.1 0 0.2-0.1 0 0.2 0 0.4-0.1 0.6-0.2 0-0.1-0.4 0.1-0.4-0.1 0-0.1 0-0.2-0.1 0.1-0.1 0.1 0 0 0zm2.4-3.6c0 0.2-0.3 0.5-0.4 0.2 0.2 0 0.2-0.2 0.4-0.2 0 0.1-0.1 0 0 0 0 0.2-0.2 0 0 0zm40-5.2c0 0.3-0.6 0.1-0.6-0.1-0.1-0.5 0.5 0.1 0.6 0.1-0.1 0.1-0.1 0.1 0 0 0 0.3-0.1 0 0 0zm-37.2-0.6c0.1 0 0.1 0 0.2-0.1-0.2 0.1-0.1 0.4 0 0.5-0.1-0.1-0.6-0.3-0.6-0.4 0.1-0.1 0.2-0.2 0.4 0 0.1 0 0-0.1 0 0zm3.3-4.8c-0.2 0.2-0.4-0.1-0.3-0.3 0.2 0.1 0.2 0.2 0.3 0.3-0.1 0.1 0-0.1 0 0zm0.2-0.6c0.6 1.5-0.5 0.1-0.2-0.2 0 0.3 0.1 0.3 0.2 0.1 0.1 0.9 0 0.2 0 0.1 0.1 0.2 0.1 0.2 0 0 0.1 0.2 0 0.1 0 0zm3.3-2.8c0 0.1 0 0.1 0.1 0.2v-0.3c0.6 0-0.2 1.4-0.2 1.6 0 0-0.2-0.1-0.1 0 0-0.1-0.1-0.1-0.1-0.2 0.1 0.4-0.1 0.1-0.1 0.1-0.1 0.1-0.2 0.3-0.5 0.2 0-0.2 0.1-0.4 0.2-0.5-0.1 0.8-0.4-0.7-0.2-0.4 0.4 0.2 0 0.1 0.2-0.2 0.1 0 0.1 0.1 0.1 0.2 0.1-0.2 0.1-0.1 0.3 0.1 0-0.2-0.2-0.3 0-0.6 0.2 0.1 0.2 0.2 0.3 0.4 0.1-0.3-0.2-0.5-0.1-0.7-0.1 0 0 0 0.1 0.1zm0.8-0.8c0.1 0.1 0.2 0.1 0.1 0.2-0.4 0.1-0.5-0.9-0.1-0.7-0.2 0.2-0.1 0.4 0.1 0.4 0 0.1-0.1 0-0.1 0.1 0.1 0 0.1 0 0 0 0.1 0.1 0-0.1 0 0zm0.5-0.7c0.1 0.1 0.3 0.3 0.1 0.4 0-0.1 0-0.2-0.1-0.4 0.1 0.1 0 0.1 0 0zm-17.8 57c1.5-1.3 2.4 0.7 1.6 1.6-0.1-0.4-0.6-0.1-0.8-0.1 0 0.1 0.2 2-0.2 2-0.1-0.6 0.8 0 0.8 0.2 0-0.1-0.9 0.3-0.9 0.3 0 0-0.4 0.8-0.4 1.1-0.2 0-0.2-0.4-0.3-0.4 0 0.8-2.1-0.7-1.6-0.6 0-0.2 1.1-0.9 1.1-0.5 0 0-0.8 0.3-0.1 0.5 0.4-0.1 0.3-0.3 0.5-0.5 0 0.1 0.4 0.2 0.4 0.1-0.6-0.3-0.9-0.7-1.6-1 0 0.1 0 0.3-0.2 0.3-0.1-0.1 0.1-0.5 0.2-0.3-0.3-0.2-0.3-0.4 0-0.6 0-0.1-0.1-0.8-0.3-0.8 0-0.3-0.6 0 0.1-0.2 0 0-0.3-0.2-0.4-0.2 0 0.6 2.2-1 0.9-0.9 0.3 0 0.7 0.4 1 0.1 0 0.2 0 0.2-0.2 0.3l0.1 0.4c0.5-0.3 0.6-0.5 0.3-0.8 0.3-0.3-0.1 0 0 0zm8.8 66.6c0.2 0.2-2.3 4-0.7 4-0.1 0.4 0 0.5-0.1 1-1.6 0.4-1.7-0.5-4.1-0.6 0-0.2-1.7-0.7-1.3-0.8-0.3-0.7-1.6-1.1-2.3-1.2-0.8-0.7-0.4-0.7-0.6-1.6 0 0-0.1 0.1-0.1 0 0.1 0 0.6-0.5 0.7-0.6 0.5-0.6 0.4 0.5 1.2 0.1-0.1-1.3 1 0.1 1 0 0.3 0 0.6-0.2 0.7 0.3 0.9-0.1 3.2-0.7 4-0.6 0 0.1 0.4 0.3 0.4 0.3 0.3 0 0.3-0.3 0.5-0.4 0 0.2 0.3 0 0.4 0 0.1-0.5 0.4 0.1 0.3 0.1 0.3 0.2-0.1-0.1 0 0zM90.3 73.6c0.2 0 0.3 0.3 0 0.3l0.1 0.3c-0.2 0.1-0.3 0.4-0.6 0.4 0.4 0-0.5 0.6-0.5 0-0.3 0.1 0.7 1-0.2 1 0.3 0.4-0.1 0.4-0.1 0.9 0.1-0.1 0.3-0.7 0.6-0.6 0 0.1-0.1 0.5 0 0.5-0.3-0.9 0.8-1 1.1-0.5 0.5 0 2.3-2.9 2-0.9 0.1 0-0.1 0.8-0.1 0.9 0.2 0 0.3 0 0.3 0.2 0.3 0 0.3-0.4 0.4-0.6-0.1-0.2 0.6-0.4 0.6-0.5 0.2 0.4 1-0.3 0.9 0.1 0.5-0.4 0.3 0.9 0.2 1.1 0.1-0.1 0.1-0.2 0.2-0.3 0 0-0.2 1.1-0.3 1.3 0.5 0.1 0.2-1.2 0.5-1.2-0.1-0.3 0.5-0.7 0.6-0.3 0.4 0 0.2 0.7 0.3 0.9-0.9-0.4 2.2-0.1 1.3 0 0-0.1 3.2-2.3 2.3 0.9 0.4-0.1 1.3-0.8 1.7-0.2 0 0-0.8 0.1-0.9 0.1 0.1 0.4-0.3 0.4-0.6 0.4 0 0.1 0.2 0.4 0.2 0.5 0.6-0.6-0.2 1.1-0.2 0.8-0.1-0.1-0.4 0-0.4 0.2 0.2 0.2 0.6 0 0.9 0.1 0 0 0.1 1.3 0.3 1.2 0.1-0.1 0.1-0.1 0.2 0 0.1 0.1 0 0.4-0.2 0.5 0.2 0.3-0.3 0.2-0.4 0.2 0.1 0.1 0.1 0.2-0.1 0.2 0.4 0.2 0.4 0.5-0.2 0.7 0.1-0.2 0.2-0.2 0.3-0.1-0.1 0.2-0.9 1-0.9 0.2-0.1 0.1 0 0.4 0.2 0.4-0.1 0.3-0.2 0.1-0.4 0 0 0.3-0.9 1-1.1 0.5-0.1 0.1-0.1 0.5-0.2 0.3 0.2 0 0.2-0.1 0-0.2-0.2 0.3 0.2 0.3-0.3 0.2-0.1 0 0.2 0.2 0.2 0.2-0.1 0-0.1 0.1-0.2 0.1-0.5-0.1-5 0.8-5 1 0-0.1 0.3 0 0.3-0.1-0.1-0.1-0.3 0.1-0.4 0.1 0.1 1.6-6.1-2.1-6.3-2.1 0.7-1-1.6-1.4-1.5-1.8-0.6-0.1-1.1-0.3-1.6-0.5 0.2-0.4 0.4-0.7 0.7-1 0.5 0.5 0.1 0.7 1.1 0.6-0.1-0.3 0.2-0.1 0.1-0.4 0.2 0 0.3 0.2 0.5 0.1-0.6-0.2 0.6-0.5 0.7-0.5-0.1-0.2-0.9 0-1.1-0.1 0.4-0.2 0.6-0.6 1.1-0.6 0-0.2-0.5 0-0.5 0-0.5 0.2-0.3-0.3-0.2-0.4-0.4 0.2 0.1-0.6 0.4-0.7-0.1-0.1-0.1-0.1-0.2 0 0.1-0.2-0.1-0.2 0.1-0.2 0-0.1-1.9-1-1.8-1-0.9 0.2-0.6-0.7-0.3-0.7 0.4 0.3 0.8 0.3 1.2 0.2V76c0-0.2 0-0.3 0.2-0.3 0.3 0.1 0.3 0.1 0.1 0.2 0 0 0.5-0.1 0.5 0 0-0.1 0.8 0.2 0.8 0.2h-0.1c0 0.1 0.9 0.5 1 0.6 0.1 0 0.5-0.5 0.4-0.6-0.6 0.5-1.3-0.5-1.2-0.5 0.2-0.1 0-0.3 0.3-0.2 0.1-0.2 1.1-0.2 1.4-0.1-0.3-0.2-0.1-0.1-0.2-0.4-0.1 0-0.1 0.1 0 0.1-0.1 0-0.1-0.1-0.1-0.2-0.4 0.2-0.2 0-0.6-0.1 0-0.2 0.2-0.1 0.3-0.2 0.1-0.2-0.4 0.4-0.2-0.3-0.1 0-0.6 0.1-0.3-0.2-0.1 0.1 0 0.3-0.3 0.2 0.2-0.3-0.3-0.1 0.1-0.3-0.2-0.2-0.5 0.2-0.6-0.2-0.1 0.3-0.3 0.3-0.6 0.1-0.2 0-1.2 0-0.9-0.4 0-0.1-0.5-0.4-0.6-0.4-0.4-0.3 0.5-0.2 0.9 0.1 0-0.2 0.1-0.5 0.1-0.4-0.1-1.2 1 0 0.7 0.5 0 0.1 0.2-0.1 0.1-0.3 0.1-0.1 0.6 0.1 0.6 0.1-0.2-0.2-1.4-1.3-0.1-0.7 1.3-1.2-0.8-0.4 0.5-0.5-0.5-1.5 1.6 0.3 1 0.5-0.2 0.4 0.1 0 0.2 0 0 0.2 0.2 0.4 0 0.6 0.3-0.2 0.2 0.2 0.1 0.3 0.5 0.1-0.8-2.5 0.8-1.3 0-0.2-0.2-0.2-0.1-0.5-0.2 0.1-0.3 0.1-0.2-0.1-0.5 0.3-0.6-0.4-0.4-0.4 0 0 0.2 0.5 0.2-0.2 0.3 0.1 0.6 0.2 0.9 0.3 0.2 0 0.1 0.2 0.1 0.3 0-0.1 0-0.1 0.1-0.1 0.1 0 0.1 1.9 0 2 0 0.1 0.3 0 0.3 0 0.1 0.2 0.1 0.3 0 0.4 0.2 0 0.1-0.1 0 0z" class="a"/><path d="m372.1 24.4c-1.9 0-2.4 0-2.9 0.1-6 0.9-10.5 4.7-12.5 10.6-0.8 2.4-0.8 2-0.8 10.4-0.1 8.3-0.1 8.2 0.5 8.8 0.4 0.5 0.9 0.6 2 0.6l0.9-0.1v7.7 7.7l-0.3 0c-0.2 0-0.9 0-1.6 0.1-1.2 0.1-1.4 0.1-2 0.4-0.8 0.4-1.4 1.1-1.7 1.8l-0.2 0.6 0 9.7 0 9.7 14.3-0.1c7.9 0 35.7-0.1 61.9-0.1h47.6l0.1-23.4c0-12.9 0.1-25.1 0.1-27.2 0-3.6 0-3.8-0.2-4.8-0.7-3-2.1-5.4-4.4-7.8-1.9-1.9-3.6-3-5.9-3.7-2-0.7-0.5-0.6-20.9-0.7-18.5 0-40.1-0.1-63.4-0.3-5.6 0-8.7-0.1-10.6-0.1zm88.7 3.4c2.2 0.1 4.1 0.5 5.8 1.2 2.1 0.9 3.5 2.6 3.9 4.4 0.1 0.5 0.1 1.5 0.1 4l0 3.4h-5.8-5.8v-6.5-6.5l0.8 0c0.3 0 0.6 0 0.9 0zm-43 0 9 0 9 0 0 6.5 0 6.5h-9-9v-6.5zm-41.1 0h9 9v6.5 6.5h-9-9v-6.5zm21.1 0h8.4 8.4v6.5 6.5h-8.4-8.4v-6.5zm41.2 0h8.4 8.4v6.5 6.5h-8.4-8.4V34.3Zm-65.6 0.1v6.5 6.5h-5.5-5.5l0-3.6c0-3 0.1-3.7 0.2-4.2 0.6-2.2 2.2-3.7 4.8-4.5 1.2-0.4 2.2-0.5 4.2-0.6zm24 16.3c30.7 0 71.4 0.1 71.7 0.2 0.4 0.1 0.8 0.4 1 0.8 0.1 0.2 0.1 0.6 0.2 2.4 0 1.2 0 2.3 0 2.4-0.1 0.4-0.7 1.1-1.3 1.2-0.4 0.1-5.3 0.1-52.5 0.1-28.6 0-52.2 0-52.2 0-0.6-0.1-1.1-0.4-1.2-0.8-0.2-0.4-0.2-4.9 0-5.3 0.2-0.4 0.7-0.8 1.2-0.9 0.2 0 14.9-0.1 33.3-0.1zm-4 10.5c3.1 0 6.2 0 6.9 0.1l1.3 0.1v7.3 7.3l-7 0c-7.4 0-7.5 0-7.7-0.5-0.1-0.1-0.1-2.2-0.1-6.7 0-6.3 0-6.5 0.2-6.9 0.4-0.8 0.1-0.7 6.4-0.7zm-27.6 0.1 0.1 1.9c0 1.1 0.1 4.4 0.1 7.4v5.5l-1.1 0c-1.6 0-2.1-0.2-2.4-1-0.1-0.2-0.1-2.5-0.1-6.6 0-6.1 0-6.2 0.2-6.5 0.4-0.5 0.9-0.7 2.1-0.7zm2.5 0 5.9 0c6.6 0 6.4 0 6.8 0.7l0.2 0.3 0 6.5c0 6.4 0 6.5-0.2 6.7-0.1 0.2-0.4 0.4-0.6 0.5-0.3 0.2-0.8 0.2-6.3 0.2l-5.9 0.1v-7.5zm36.5 0h11.4 11.4l0 7.3 0 7.3-11.3 0-11.3 0V62.2Zm25.9 0h11.3 11.3v7.3 7.3H442.2 430.9V62.1Zm25.8 0h6.6c7.2 0 7 0 7.3 0.6 0.1 0.2 0.1 1.2 0.1 6.9 0 6.5 0 6.6-0.2 6.8-0.1 0.1-0.4 0.3-0.6 0.4-0.2 0.1-0.9 0.1-1.6 0.1-0.7 0-3.5 0-6.2-0.1-2.7 0-5.1-0.1-5.2-0.1l-0.3 0V62.1Zm-90.9 29.1a4.1 4.1 0 0 1 4.1 4.1 4.1 4.1 0 0 1-4.1 4.1 4.1 4.1 0 0 1-4.1-4.1 4.1 4.1 0 0 1 4.1-4.1zm94.6 0a4.1 4.1 0 0 1 4.1 4.1 4.1 4.1 0 0 1-4.1 4.1 4.1 4.1 0 0 1-4.1-4.1 4.1 4.1 0 0 1 4.1-4.1z" style="fill:#fff;stroke-width:0.05;vector-effect:none"/><path d="M459.9 77.8A10.2 10.2 0 0 0 449.7 88 10.2 10.2 0 0 0 459.9 98.2 10.2 10.2 0 0 0 470.2 88 10.2 10.2 0 0 0 459.9 77.8Zm0 6.2a4.1 4.1 0 0 1 4.1 4.1 4.1 4.1 0 0 1-4.1 4.1 4.1 4.1 0 0 1-4.1-4.1 4.1 4.1 0 0 1 4.1-4.1z" class="c"/><path d="m365.8 77.8a10.2 10.2 0 0 0-10.2 10.2 10.2 10.2 0 0 0 10.2 10.2 10.2 10.2 0 0 0 10.2-10.2 10.2 10.2 0 0 0-10.2-10.2zm0 6.2a4.1 4.1 0 0 1 4.1 4.1 4.1 4.1 0 0 1-4.1 4.1 4.1 4.1 0 0 1-4.1-4.1 4.1 4.1 0 0 1 4.1-4.1z" class="c"/><rect width="111.5" height="11.2" x="361.5" y="42.2" style="fill:#fff;stroke-width:0.5;vector-effect:none"/></svg>