<svg xmlns:rdf="http://www.w3.org/1999/02/22-rdf-syntax-ns#" xmlns="http://www.w3.org/2000/svg" height="38mm" width="302.2mm" version="1.1" xmlns:cc="http://creativecommons.org/ns#" xmlns:xlink="http://www.w3.org/1999/xlink" viewBox="0 0 1070.748 134.64567" xmlns:dc="http://purl.org/dc/elements/1.1/">
	<defs>
		<linearGradient id="j" y2="542.2" xlink:href="#a" gradientUnits="userSpaceOnUse" x2="362.7" gradientTransform="matrix(1.235 0 0 1.25 351.8 -138.7)" y1="542.2" x1="256.4"/>
		<linearGradient id="a">
			<stop stop-color="#1468b3" offset="0"/>
			<stop stop-color="#204379" offset="1"/>
		</linearGradient>
		<linearGradient id="b" y2="542.2" xlink:href="#a" gradientUnits="userSpaceOnUse" x2="362.7" gradientTransform="matrix(1.797 0 0 1.25 -83.83 -109.1)" y1="542.2" x1="256.4"/>
		<linearGradient id="c" y2="542.2" xlink:href="#a" gradientUnits="userSpaceOnUse" x2="362.7" gradientTransform="matrix(1.798 0 0 1.25 -41.16 -77.11)" y1="542.2" x1="256.4"/>
		<linearGradient id="d" y2="542.2" xlink:href="#a" gradientUnits="userSpaceOnUse" x2="362.7" gradientTransform="matrix(2.499 0 0 1.25 175.5 -77.11)" y1="542.2" x1="256.4"/>
		<linearGradient id="e" y2="542.2" xlink:href="#a" gradientUnits="userSpaceOnUse" x2="362.7" gradientTransform="matrix(2.107 0 0 1.25 120.2 -77.11)" y1="542.2" x1="256.4"/>
		<linearGradient id="f" y2="542.2" xlink:href="#a" gradientUnits="userSpaceOnUse" x2="362.7" gradientTransform="matrix(1.817 0 0 1.25 -69.57 -77.11)" y1="542.2" x1="256.4"/>
		<linearGradient id="g" y2="542.2" xlink:href="#a" gradientUnits="userSpaceOnUse" x2="362.7" gradientTransform="matrix(1.207 0 0 1.25 -53 -109.1)" y1="542.2" x1="256.4"/>
		<linearGradient id="i" y2="542.2" xlink:href="#a" gradientUnits="userSpaceOnUse" x2="362.7" gradientTransform="matrix(2.481 0 0 1.25 90.85 -109.1)" y1="542.2" x1="256.4"/>
		<linearGradient id="h" y2="542.2" xlink:href="#a" gradientUnits="userSpaceOnUse" x2="362.7" gradientTransform="matrix(2.853 0 0 1.25 -218.8 -109.1)" y1="542.2" x1="256.4"/>
		<linearGradient id="k" y2="542.2" xlink:href="#a" gradientUnits="userSpaceOnUse" x2="362.7" gradientTransform="matrix(1.812 0 0 1.25 -80.79 -109.1)" y1="542.2" x1="256.4"/>
		<linearGradient id="l" y2="542.2" xlink:href="#a" gradientUnits="userSpaceOnUse" x2="362.7" gradientTransform="matrix(1.2 0 0 1.25 -51.29 -77.11)" y1="542.2" x1="256.4"/>
		<linearGradient id="m" y2="542.2" xlink:href="#a" gradientUnits="userSpaceOnUse" x2="362.7" gradientTransform="matrix(3.159 0 0 1.25 -141.6 -139.1)" y1="542.2" x1="256.4"/>
		<linearGradient id="n" y2="542.2" xlink:href="#a" gradientUnits="userSpaceOnUse" x2="362.7" gradientTransform="matrix(1.812 0 0 1.25 -80.64 -139.1)" y1="542.2" x1="256.4"/>
		<linearGradient id="o" y2="542.2" xlink:href="#a" gradientUnits="userSpaceOnUse" x2="362.7" gradientTransform="matrix(1.202 0 0 1.25 -51.78 -139.2)" y1="542.2" x1="256.4"/>
	</defs>
	<g transform="translate(150.7 -607.4)">
		<g fill="#f9f9f9">
			<path d="m-81.75 607.4h1.772v134.6h-1.772z"/>
			<path opacity=".2520" d="m-65.75 607.4h1.772v113.4h-1.772z"/>
			<path d="m110.2 607.4h1.772v134.6h-1.772z"/>
			<path d="m302.2 607.4h1.772v134.6h-1.772z"/>
			<path d="m494.2 607.4h1.772v134.6h-1.772z"/>
			<path d="m686.2 607.4h1.772v134.6h-1.772z"/>
			<path opacity=".2520" d="m-49.75 607.4h1.772v113.4h-1.772z"/>
			<path opacity=".2520" d="m-33.75 607.4h1.772v113.4h-1.772z"/>
			<path opacity=".2520" d="m-17.75 607.4h1.772v113.4h-1.772z"/>
			<path opacity=".2520" d="m-1.75 607.4h1.772v113.4h-1.772z"/>
			<path opacity=".2520" d="m14.25 607.4h1.772v113.4h-1.772z"/>
			<path opacity=".2520" d="m30.25 607.4h1.772v113.4h-1.772z"/>
			<path opacity=".2520" d="m46.25 607.4h1.772v113.4h-1.772z"/>
			<path opacity=".2520" d="m62.25 607.4h1.772v113.4h-1.772z"/>
			<path opacity=".2520" d="m78.25 607.4h1.772v113.4h-1.772z"/>
			<path opacity=".2520" d="m94.25 607.4h1.772v113.4h-1.772z"/>
			<path opacity=".2520" d="m126.2 607.4h1.772v113.4h-1.772z"/>
			<path opacity=".2520" d="m142.2 607.4h1.772v113.4h-1.772z"/>
			<path opacity=".2520" d="m158.2 607.4h1.772v113.4h-1.772z"/>
			<path opacity=".2520" d="m174.2 607.4h1.772v113.4h-1.772z"/>
			<path opacity=".2520" d="m190.2 607.4h1.772v113.4h-1.772z"/>
			<path opacity=".2520" d="m206.2 607.4h1.772v113.4h-1.772z"/>
			<path opacity=".2520" d="m222.2 607.4h1.772v113.4h-1.772z"/>
			<path opacity=".2520" d="m238.2 607.4h1.772v113.4h-1.772z"/>
			<path opacity=".2520" d="m254.2 607.4h1.772v113.4h-1.772z"/>
			<path opacity=".2520" d="m270.2 607.4h1.772v113.4h-1.772z"/>
			<path opacity=".2520" d="m286.2 607.4h1.772v113.4h-1.772z"/>
			<path opacity=".2520" d="m318.2 607.4h1.772v113.4h-1.772z"/>
			<path opacity=".2520" d="m334.2 607.4h1.772v113.4h-1.772z"/>
			<path opacity=".2520" d="m350.2 607.4h1.772v113.4h-1.772z"/>
			<path opacity=".2520" d="m366.2 607.4h1.772v113.4h-1.772z"/>
			<path opacity=".2520" d="m382.2 607.4h1.772v113.4h-1.772z"/>
			<path opacity=".2520" d="m398.2 607.4h1.772v113.4h-1.772z"/>
			<path opacity=".2520" d="m414.2 607.4h1.772v113.4h-1.772z"/>
			<path opacity=".2520" d="m430.2 607.4h1.772v113.4h-1.772z"/>
			<path opacity=".2520" d="m446.2 607.4h1.772v113.4h-1.772z"/>
			<path opacity=".2520" d="m462.2 607.4h1.772v113.4h-1.772z"/>
			<path opacity=".2520" d="m478.2 607.4h1.772v113.4h-1.772z"/>
			<path opacity=".2520" d="m510.2 607.4h1.772v113.4h-1.772z"/>
			<path opacity=".2520" d="m526.2 607.4h1.772v113.4h-1.772z"/>
			<path opacity=".2520" d="m542.2 607.4h1.772v113.4h-1.772z"/>
			<path opacity=".2520" d="m558.2 607.4h1.772v113.4h-1.772z"/>
			<path opacity=".2520" d="m574.2 607.4h1.772v113.4h-1.772z"/>
			<path opacity=".2520" d="m590.2 607.4h1.772v113.4h-1.772z"/>
			<path opacity=".2520" d="m606.2 607.4h1.772v113.4h-1.772z"/>
			<path opacity=".2520" d="m622.2 607.4h1.772v113.4h-1.772z"/>
			<path opacity=".2520" d="m638.2 607.4h1.772v113.4h-1.772z"/>
			<path opacity=".2520" d="m654.2 607.4h1.772v113.4h-1.772z"/>
			<path opacity=".2520" d="m670.2 607.4h1.772v113.4h-1.772z"/>
			<path opacity=".2520" d="m702.2 607.4h1.772v113.4h-1.772z"/>
			<path opacity=".2520" d="m718.2 607.4h1.772v113.4h-1.772z"/>
			<path opacity=".2520" d="m734.2 607.4h1.772v113.4h-1.772z"/>
			<path opacity=".2520" d="m750.2 607.4h1.772v113.4h-1.772z"/>
			<path opacity=".2520" d="m766.2 607.4h1.772v113.4h-1.772z"/>
			<path opacity=".2520" d="m782.2 607.4h1.772v113.4h-1.772z"/>
			<path opacity=".2520" d="m798.2 607.4h1.772v113.4h-1.772z"/>
			<path opacity=".2520" d="m814.2 607.4h1.772v113.4h-1.772z"/>
			<path opacity=".2520" d="m830.2 607.4h1.772v113.4h-1.772z"/>
			<path opacity=".2520" d="m846.2 607.4h1.772v113.4h-1.772z"/>
			<path opacity=".2520" d="m862.2 607.4h1.772v113.4h-1.772z"/>
			<path d="m878.2 607.4h1.772v134.6h-1.772z"/>
			<path opacity=".2520" d="m918.2 607.4h1.772v113.4h-1.772z"/>
			<path opacity=".2520" d="m898.2 607.4h1.772v113.4h-1.772z"/>
			<g>
				<path d="m-142.6 623.4q0 1.355-0.9277 2.087-0.9216 0.7263-2.643 0.7263h-1.05v3.51h-1.038v-8.923h2.313q3.345 0 3.345 2.6zm-4.62 1.923h0.9338q1.379 0 1.996-0.4456 0.6164-0.4456 0.6164-1.428 0-0.885-0.5798-1.318-0.5798-0.4334-1.807-0.4334h-1.16v3.625z"/>
				<path d="m-137.8 623q0.4456 0 0.7996 0.0732l-0.1404 0.94q-0.415-0.0916-0.7324-0.0916-0.8118 0-1.392 0.6592-0.5737 0.6592-0.5737 1.642v3.589h-1.013v-6.689h0.8362l0.116 1.239h0.0488q0.3723-0.6531 0.8972-1.007 0.5249-0.354 1.154-0.354z"/>
				<path d="m-132.9 629.9q-1.483 0-2.344-0.9033-0.8545-0.9033-0.8545-2.509 0-1.617 0.7935-2.57 0.7996-0.9522 2.142-0.9522 1.257 0 1.99 0.8301 0.7324 0.824 0.7324 2.179v0.6409h-4.608q0.0305 1.178 0.592 1.788 0.5676 0.6104 1.593 0.6104 1.08 0 2.136-0.4517v0.9033q-0.5371 0.2319-1.019 0.3296-0.4761 0.1038-1.154 0.1038zm-0.2747-6.085q-0.8057 0-1.288 0.5249-0.4761 0.5249-0.5615 1.453h3.497q0-0.9582-0.4272-1.465-0.4272-0.5127-1.221-0.5127z"/>
				<path d="m-124.4 627.9q0 0.9338-0.6958 1.44-0.6958 0.5066-1.953 0.5066-1.331 0-2.075-0.4212v-0.9399q0.4822 0.2441 1.032 0.3845 0.5554 0.1404 1.068 0.1404 0.7935 0 1.221-0.2502 0.4272-0.2564 0.4272-0.7752 0-0.3906-0.3418-0.6653-0.3357-0.2808-1.318-0.6592-0.9338-0.3479-1.331-0.6042-0.3906-0.2624-0.5859-0.592-0.1892-0.3296-0.1892-0.7874 0-0.8179 0.6653-1.288 0.6653-0.4761 1.825-0.4761 1.08 0 2.112 0.4395l-0.3601 0.824q-1.007-0.415-1.825-0.415-0.7202 0-1.086 0.2258-0.3662 0.2258-0.3662 0.6226 0 0.2686 0.1343 0.4578 0.1404 0.1892 0.4456 0.3601t1.172 0.4944q1.19 0.4333 1.605 0.8728 0.4211 0.4394 0.4211 1.105z"/>
				<path d="m-121.8 629.8h-1.013v-6.689h1.013v6.689zm-1.099-8.502q0-0.3479 0.1709-0.5066 0.1709-0.1648 0.4272-0.1648 0.2441 0 0.4211 0.1648t0.177 0.5066-0.177 0.5127q-0.177 0.1648-0.4211 0.1648-0.2564 0-0.4272-0.1648-0.1709-0.1709-0.1709-0.5127z"/>
				<path d="m-115.1 628.9h-0.0549q-0.7019 1.019-2.1 1.019-1.312 0-2.045-0.8972-0.7263-0.8972-0.7263-2.551t0.7324-2.57q0.7324-0.9155 2.039-0.9155 1.361 0 2.087 0.9888h0.0794l-0.0427-0.4822-0.0244-0.47v-2.722h1.013v9.497h-0.824l-0.1343-0.8972zm-2.026 0.1709q1.038 0 1.501-0.5615 0.47-0.5676 0.47-1.825v-0.2136q0-1.422-0.4761-2.026-0.47-0.6104-1.508-0.6104-0.8911 0-1.367 0.6958-0.47 0.6897-0.47 1.953 0 1.282 0.47 1.935 0.47 0.6531 1.379 0.6531z"/>
				<path d="m-109.1 629.9q-1.483 0-2.344-0.9033-0.8545-0.9033-0.8545-2.509 0-1.617 0.7935-2.57 0.7996-0.9522 2.142-0.9522 1.257 0 1.99 0.8301 0.7324 0.824 0.7324 2.179v0.6409h-4.608q0.0305 1.178 0.592 1.788 0.5676 0.6104 1.593 0.6104 1.08 0 2.136-0.4517v0.9033q-0.5371 0.2319-1.019 0.3296-0.4761 0.1038-1.154 0.1038zm-0.2747-6.085q-0.8057 0-1.288 0.5249-0.4761 0.5249-0.5615 1.453h3.497q0-0.9582-0.4272-1.465-0.4272-0.5127-1.221-0.5127z"/>
				<path d="m-100.4 629.8v-4.327q0-0.8179-0.3723-1.221-0.3723-0.4028-1.166-0.4028-1.05 0-1.538 0.5676-0.4883 0.5676-0.4883 1.874v3.51h-1.013v-6.689h0.824l0.1648 0.9155h0.0488q0.3113-0.4944 0.8728-0.7629 0.5615-0.2747 1.251-0.2747 1.208 0 1.819 0.5859 0.6104 0.5798 0.6104 1.862v4.364h-1.013z"/>
				<path d="m-95.12 629.1q0.2686 0 0.5188-0.0366 0.2502-0.0427 0.3967-0.0854v0.7752q-0.1648 0.0793-0.4883 0.1282-0.3174 0.0549-0.5737 0.0549-1.941 0-1.941-2.045v-3.979h-0.9583v-0.4883l0.9583-0.4211 0.4272-1.428h0.5859v1.55h1.941v0.7874h-1.941v3.937q0 0.6042 0.2869 0.9277t0.7874 0.3235z"/>
			</g>
			<g>
				<path style="" d="m-146.9 668.5h-1.038v-8.002h-2.826v-0.9216h6.689v0.9216h-2.826v8.002z"/>
				<path style="" d="m-139.8 661.6q0.4456 0 0.7996 0.0732l-0.1404 0.9399q-0.415-0.0915-0.7324-0.0915-0.8118 0-1.392 0.6592-0.5737 0.6592-0.5737 1.642v3.589h-1.013v-6.689h0.8362l0.116 1.239h0.0488q0.3723-0.6531 0.8972-1.007 0.5249-0.354 1.154-0.354z"/>
				<path style="" d="m-134.9 668.6q-1.483 0-2.344-0.9033-0.8545-0.9033-0.8545-2.509 0-1.617 0.7935-2.57 0.7996-0.9521 2.142-0.9521 1.257 0 1.99 0.8301 0.7324 0.824 0.7324 2.179v0.6409h-4.608q0.0305 1.178 0.592 1.788 0.5676 0.6104 1.593 0.6104 1.08 0 2.136-0.4517v0.9033q-0.5371 0.2319-1.019 0.3296-0.4761 0.1038-1.154 0.1038zm-0.2747-6.085q-0.8057 0-1.288 0.5249-0.4761 0.5249-0.5615 1.453h3.497q0-0.9582-0.4272-1.465-0.4272-0.5127-1.221-0.5127z"/>
				<path style="" d="m-126.6 668.5-0.2014-0.9522h-0.0488q-0.5005 0.6287-1.001 0.8545-0.4944 0.2197-1.239 0.2197-0.9949 0-1.562-0.5127-0.5615-0.5127-0.5615-1.459 0-2.026 3.241-2.124l1.135-0.0366v-0.415q0-0.7874-0.3418-1.16-0.3357-0.3784-1.08-0.3784-0.8362 0-1.892 0.5127l-0.3113-0.7752q0.4944-0.2686 1.08-0.4211 0.592-0.1526 1.184-0.1526 1.196 0 1.77 0.531 0.5798 0.531 0.5798 1.703v4.565h-0.7507zm-2.289-0.7141q0.946 0 1.483-0.5188 0.5432-0.5188 0.5432-1.453v-0.6042l-1.013 0.0427q-1.208 0.0427-1.746 0.3784-0.531 0.3296-0.531 1.031 0 0.5493 0.3296 0.8362 0.3357 0.2869 0.9338 0.2869z"/>
				<path style="" d="m-119.5 666.6q0 0.9338-0.6958 1.44-0.6958 0.5066-1.953 0.5066-1.331 0-2.075-0.4211v-0.9399q0.4822 0.2441 1.032 0.3845 0.5554 0.1404 1.068 0.1404 0.7935 0 1.221-0.2502 0.4272-0.2563 0.4272-0.7751 0-0.3906-0.3418-0.6653-0.3357-0.2808-1.318-0.6592-0.9338-0.3479-1.331-0.6042-0.3906-0.2624-0.5859-0.592-0.1892-0.3296-0.1892-0.7874 0-0.8179 0.6653-1.288 0.6653-0.4761 1.825-0.4761 1.08 0 2.112 0.4394l-0.3601 0.824q-1.007-0.415-1.825-0.415-0.7202 0-1.086 0.2258-0.3662 0.2258-0.3662 0.6226 0 0.2686 0.1343 0.4578 0.1404 0.1892 0.4456 0.3601t1.172 0.4944q1.19 0.4334 1.605 0.8728 0.4211 0.4395 0.4211 1.105z"/>
				<path style="" d="m-116.9 661.8v4.34q0 0.8179 0.3723 1.221 0.3723 0.4028 1.166 0.4028 1.05 0 1.532-0.5737 0.4883-0.5737 0.4883-1.874v-3.516h1.013v6.689h-0.8362l-0.1465-0.8972h-0.0549q-0.3113 0.4944-0.8667 0.7568-0.5493 0.2624-1.257 0.2624-1.221 0-1.831-0.5798-0.6042-0.5798-0.6042-1.855v-4.376h1.025z"/>
				<path style="" d="m-107.1 661.6q0.4456 0 0.7996 0.0732l-0.1404 0.9399q-0.415-0.0915-0.7324-0.0915-0.8118 0-1.392 0.6592-0.5737 0.6592-0.5737 1.642v3.589h-1.013v-6.689h0.8362l0.116 1.239h0.0488q0.3723-0.6531 0.8972-1.007 0.5249-0.354 1.154-0.354z"/>
				<path style="" d="m-102.2 668.6q-1.483 0-2.344-0.9033-0.8545-0.9033-0.8545-2.509 0-1.617 0.7935-2.57 0.7996-0.9521 2.142-0.9521 1.257 0 1.99 0.8301 0.7324 0.824 0.7324 2.179v0.6409h-4.608q0.0305 1.178 0.592 1.788 0.5676 0.6104 1.593 0.6104 1.08 0 2.136-0.4517v0.9033q-0.5371 0.2319-1.019 0.3296-0.4761 0.1038-1.154 0.1038zm-0.2747-6.085q-0.8057 0-1.288 0.5249-0.4761 0.5249-0.5615 1.453h3.497q0-0.9582-0.4272-1.465-0.4272-0.5127-1.221-0.5127z"/>
				<path style="" d="m-95 661.6q0.4456 0 0.7996 0.0732l-0.1404 0.9399q-0.415-0.0915-0.7324-0.0915-0.8118 0-1.392 0.6592-0.5737 0.6592-0.5737 1.642v3.589h-1.013v-6.689h0.8362l0.116 1.239h0.04883q0.3723-0.6531 0.8972-1.007 0.5249-0.354 1.154-0.354z"/>
			</g>
			<g>
				<path style="" d="m-142.6 703.7q0 1.178-0.8545 1.837-0.8545 0.6592-2.319 0.6592-1.587 0-2.441-0.4089v-1.001q0.5493 0.2319 1.196 0.3662 0.647 0.1343 1.282 0.1343 1.038 0 1.562-0.3906 0.5249-0.3967 0.5249-1.099 0-0.4639-0.1892-0.7568-0.1831-0.2991-0.6226-0.5493-0.4333-0.2502-1.324-0.5676-1.245-0.4456-1.782-1.056-0.531-0.6104-0.531-1.593 0-1.031 0.7752-1.642 0.7751-0.6104 2.051-0.6104 1.331 0 2.448 0.4883l-0.3235 0.9033q-1.105-0.4639-2.148-0.4639-0.824 0-1.288 0.354-0.4639 0.354-0.4639 0.9827 0 0.4639 0.1709 0.7629 0.1709 0.293 0.5737 0.5432 0.4089 0.2441 1.245 0.5432 1.404 0.5005 1.929 1.074 0.531 0.5737 0.531 1.489z"/>
				<path style="" d="m-138.1 706.2q-1.483 0-2.344-0.9033-0.8545-0.9033-0.8545-2.509 0-1.617 0.7934-2.57 0.7996-0.9522 2.142-0.9522 1.257 0 1.99 0.8301 0.7324 0.824 0.7324 2.179v0.6409h-4.608q0.0305 1.178 0.592 1.788 0.5676 0.6104 1.593 0.6104 1.08 0 2.136-0.4517v0.9033q-0.5371 0.2319-1.019 0.3296-0.4761 0.1038-1.154 0.1038zm-0.2747-6.085q-0.8057 0-1.288 0.5249-0.4761 0.5249-0.5615 1.453h3.497q0-0.9582-0.4272-1.465-0.4272-0.5127-1.221-0.5127z"/>
				<path style="" d="m-131.3 706.2q-1.453 0-2.252-0.8911-0.7935-0.8972-0.7935-2.533 0-1.678 0.8057-2.594 0.8118-0.9155 2.307-0.9155 0.4822 0 0.9644 0.1038t0.7568 0.2441l-0.3113 0.8606q-0.3357-0.1343-0.7324-0.2197-0.3967-0.0915-0.7019-0.0915-2.039 0-2.039 2.6 0 1.233 0.4944 1.892 0.5005 0.6592 1.477 0.6592 0.8362 0 1.715-0.3601v0.8972q-0.6714 0.3479-1.691 0.3479z"/>
				<path style="" d="m-125 699.2q0.4456 0 0.7996 0.0732l-0.1404 0.94q-0.415-0.0916-0.7324-0.0916-0.8118 0-1.392 0.6592-0.5737 0.6592-0.5737 1.642v3.589h-1.013v-6.689h0.8362l0.116 1.239h0.0488q0.3723-0.6531 0.8972-1.007 0.5249-0.354 1.154-0.354z"/>
				<path style="" d="m-120.1 706.2q-1.483 0-2.344-0.9033-0.8545-0.9033-0.8545-2.509 0-1.617 0.7935-2.57 0.7996-0.9522 2.142-0.9522 1.257 0 1.99 0.8301 0.7324 0.824 0.7324 2.179v0.6409h-4.608q0.0305 1.178 0.592 1.788 0.5676 0.6104 1.593 0.6104 1.08 0 2.136-0.4517v0.9033q-0.5371 0.2319-1.019 0.3296-0.4761 0.1038-1.154 0.1038zm-0.2746-6.085q-0.8057 0-1.288 0.5249-0.4761 0.5249-0.5615 1.453h3.497q0-0.9582-0.4272-1.465-0.4272-0.5127-1.221-0.5127z"/>
				<path style="" d="m-113.7 705.3q0.2686 0 0.5188-0.0366 0.2502-0.0427 0.3967-0.0855v0.7752q-0.1648 0.0794-0.4883 0.1282-0.3174 0.0549-0.5737 0.0549-1.941 0-1.941-2.045v-3.979h-0.9582v-0.4883l0.9582-0.4212 0.4272-1.428h0.5859v1.55h1.941v0.7874h-1.941v3.937q0 0.6042 0.2869 0.9277t0.7874 0.3235z"/>
				<path style="" d="m-107.4 706.1-0.2014-0.9522h-0.0488q-0.5005 0.6287-1.001 0.8545-0.4944 0.2197-1.239 0.2197-0.9949 0-1.562-0.5127-0.5615-0.5127-0.5615-1.459 0-2.026 3.241-2.124l1.135-0.0366v-0.415q0-0.7874-0.3418-1.16-0.3357-0.3784-1.08-0.3784-0.8362 0-1.892 0.5127l-0.3113-0.7752q0.4944-0.2686 1.08-0.4211 0.592-0.1526 1.184-0.1526 1.196 0 1.77 0.531 0.5798 0.531 0.5798 1.703v4.565h-0.7507zm-2.289-0.7141q0.946 0 1.483-0.5188 0.5432-0.5188 0.5432-1.453v-0.6042l-1.013 0.0427q-1.208 0.0427-1.746 0.3784-0.531 0.3296-0.531 1.032 0 0.5493 0.3296 0.8362 0.3357 0.2869 0.9338 0.2869z"/>
				<path style="" d="m-101.5 699.2q0.4456 0 0.7996 0.0732l-0.1404 0.94q-0.415-0.0916-0.7324-0.0916-0.8118 0-1.392 0.6592-0.5737 0.6592-0.5737 1.642v3.589h-1.013v-6.689h0.8362l0.116 1.239h0.0488q0.3723-0.6531 0.8972-1.007 0.5249-0.354 1.154-0.354z"/>
				<path style="" d="m-100.5 699.4h1.086l1.465 3.815q0.4822 1.306 0.5981 1.886h0.04883q0.07935-0.3113 0.3296-1.062 0.2563-0.7568 1.66-4.639h1.086l-2.875 7.617q-0.4272 1.129-1.001 1.599-0.5676 0.4761-1.398 0.4761-0.4639 0-0.9155-0.1038v-0.8118q0.3357 0.0732 0.7507 0.0732 1.044 0 1.489-1.172l0.3723-0.9522-2.698-6.726z"/>
			</g>
		</g>
		<g fill="#f9f9f9" transform="translate(-335.2 38.74)">
			<g>
				<path style="" d="m268.6 703.1h-5.865v-0.8728l2.35-2.362q1.074-1.086 1.416-1.55 0.3418-0.4639 0.5127-0.9033t0.1709-0.946q0-0.7141-0.4334-1.129-0.4334-0.4211-1.202-0.4211-0.5554 0-1.056 0.1831-0.4944 0.1831-1.105 0.6653l-0.5371-0.6897q1.233-1.025 2.686-1.025 1.257 0 1.971 0.647 0.7141 0.6409 0.7141 1.727 0 0.8484-0.4761 1.678-0.4761 0.8301-1.782 2.1l-1.953 1.91v0.0488h4.59v0.9399z"/>
				<path style="" d="m275.8 698.7q0 2.313-0.7324 3.455-0.7263 1.141-2.228 1.141-1.44 0-2.191-1.166-0.7507-1.172-0.7507-3.43 0-2.332 0.7263-3.461t2.216-1.129q1.453 0 2.203 1.178 0.7568 1.178 0.7568 3.412zm-4.877 0q0 1.947 0.4578 2.838 0.4578 0.885 1.459 0.885 1.013 0 1.465-0.8972 0.4578-0.9033 0.4578-2.826t-0.4578-2.814q-0.4517-0.8972-1.465-0.8972-1.001 0-1.459 0.885-0.4578 0.8789-0.4578 2.826z"/>
				<path style="" d="m280.8 703.1h-0.9888v-6.36q0-0.7935 0.0488-1.501-0.1282 0.1282-0.2869 0.2686t-1.453 1.19l-0.5371-0.6958 2.362-1.825h0.8545v8.923z"/>
				<path style="" d="m289.7 696.3q0 0.8545-0.4822 1.398-0.4761 0.5432-1.355 0.7263v0.0488q1.074 0.1343 1.593 0.6836 0.5188 0.5493 0.5188 1.44 0 1.276-0.885 1.965-0.885 0.6836-2.515 0.6836-0.708 0-1.3-0.1099-0.5859-0.1038-1.141-0.3723v-0.9644q0.5798 0.2869 1.233 0.4394 0.6592 0.1465 1.245 0.1465 2.313 0 2.313-1.813 0-1.624-2.551-1.624h-0.8789v-0.8728h0.8911q1.044 0 1.654-0.4578 0.6104-0.4639 0.6104-1.282 0-0.6531-0.4517-1.025-0.4456-0.3723-1.215-0.3723-0.5859 0-1.105 0.1587-0.5188 0.1587-1.184 0.5859l-0.5127-0.6836q0.5493-0.4334 1.263-0.6775 0.7202-0.2502 1.514-0.2502 1.3 0 2.02 0.5981 0.7202 0.592 0.7202 1.63z"/>
			</g>
			<g>
				<path style="" d="m460.2 703.1h-5.865v-0.8728l2.35-2.362q1.074-1.086 1.416-1.55 0.3418-0.4639 0.5127-0.9033t0.1709-0.946q0-0.7141-0.4334-1.129-0.4334-0.4211-1.202-0.4211-0.5554 0-1.056 0.1831-0.4944 0.1831-1.105 0.6653l-0.5371-0.6897q1.233-1.025 2.686-1.025 1.257 0 1.971 0.647 0.7141 0.6409 0.7141 1.727 0 0.8484-0.4761 1.678-0.4761 0.8301-1.782 2.1l-1.953 1.91v0.0488h4.59v0.9399z"/>
				<path style="" d="m467.4 698.7q0 2.313-0.7324 3.455-0.7263 1.141-2.228 1.141-1.44 0-2.191-1.166-0.7507-1.172-0.7507-3.43 0-2.332 0.7263-3.461t2.216-1.129q1.453 0 2.203 1.178 0.7568 1.178 0.7568 3.412zm-4.877 0q0 1.947 0.4578 2.838 0.4578 0.885 1.459 0.885 1.013 0 1.465-0.8972 0.4578-0.9033 0.4578-2.826t-0.4578-2.814q-0.4517-0.8972-1.465-0.8972-1.001 0-1.459 0.885-0.4578 0.8789-0.4578 2.826z"/>
				<path style="" d="m472.4 703.1h-0.9888v-6.36q0-0.7935 0.0488-1.501-0.1282 0.1282-0.2869 0.2686t-1.453 1.19l-0.5371-0.6958 2.362-1.825h0.8545v8.923z"/>
				<path style="" d="m482.1 701.1h-1.324v2.051h-0.9705v-2.051h-4.34v-0.885l4.236-6.036h1.074v6h1.324v0.9216zm-2.295-0.9216v-2.966q0-0.8728 0.061-1.971h-0.0488q-0.293 0.5859-0.5493 0.9705l-2.789 3.967h3.326z"/>
			</g>
			<g>
				<path style="" d="m652.9 703.1h-5.865v-0.8728l2.35-2.362q1.074-1.086 1.416-1.55 0.3418-0.4639 0.5127-0.9033t0.1709-0.946q0-0.7141-0.4334-1.129-0.4334-0.4211-1.202-0.4211-0.5554 0-1.056 0.1831-0.4944 0.1831-1.105 0.6653l-0.5371-0.6897q1.233-1.025 2.686-1.025 1.257 0 1.971 0.647 0.7141 0.6409 0.7141 1.727 0 0.8484-0.4761 1.678-0.4761 0.8301-1.782 2.1l-1.953 1.91v0.0488h4.59v0.9399z"/>
				<path style="" d="m660.1 698.7q0 2.313-0.7324 3.455-0.7263 1.141-2.228 1.141-1.44 0-2.191-1.166-0.7507-1.172-0.7507-3.43 0-2.332 0.7263-3.461t2.216-1.129q1.453 0 2.203 1.178 0.7568 1.178 0.7568 3.412zm-4.877 0q0 1.947 0.4578 2.838 0.4578 0.885 1.459 0.885 1.013 0 1.465-0.8972 0.4578-0.9033 0.4578-2.826t-0.4578-2.814q-0.4517-0.8972-1.465-0.8972-1.001 0-1.459 0.885-0.4578 0.8789-0.4578 2.826z"/>
				<path style="" d="m665.1 703.1h-0.9888v-6.36q0-0.7935 0.0488-1.501-0.1282 0.1282-0.2869 0.2686t-1.453 1.19l-0.5371-0.6958 2.362-1.825h0.8545v8.923z"/>
				<path style="" d="m671.3 697.7q1.41 0 2.216 0.7019 0.8118 0.6958 0.8118 1.91 0 1.385-0.885 2.173-0.8789 0.7874-2.429 0.7874-1.508 0-2.301-0.4822v-0.9766q0.4272 0.2747 1.062 0.4334 0.6348 0.1526 1.251 0.1526 1.074 0 1.666-0.5066 0.5982-0.5066 0.5982-1.465 0-1.868-2.289-1.868-0.5798 0-1.55 0.177l-0.5249-0.3357 0.3357-4.175h4.437v0.9338h-3.571l-0.2258 2.679q0.7019-0.1404 1.398-0.1404z"/>
			</g>
			<g>
				<path style="" d="m844.7 703.1h-5.865v-0.8728l2.35-2.362q1.074-1.086 1.416-1.55 0.3418-0.4639 0.5127-0.9033t0.1709-0.946q0-0.7141-0.4333-1.129-0.4334-0.4211-1.202-0.4211-0.5554 0-1.056 0.1831-0.4944 0.1831-1.105 0.6653l-0.5371-0.6897q1.233-1.025 2.686-1.025 1.257 0 1.971 0.647 0.7141 0.6409 0.7141 1.727 0 0.8484-0.4761 1.678-0.4761 0.8301-1.782 2.1l-1.953 1.91v0.0488h4.59v0.9399z"/>
				<path style="" d="m851.9 698.7q0 2.313-0.7324 3.455-0.7263 1.141-2.228 1.141-1.44 0-2.191-1.166-0.7507-1.172-0.7507-3.43 0-2.332 0.7263-3.461t2.216-1.129q1.453 0 2.203 1.178 0.7568 1.178 0.7568 3.412zm-4.877 0q0 1.947 0.4578 2.838 0.4578 0.885 1.459 0.885 1.013 0 1.465-0.8972 0.4578-0.9033 0.4578-2.826t-0.4578-2.814q-0.4517-0.8972-1.465-0.8972-1.001 0-1.459 0.885-0.4578 0.8789-0.4578 2.826z"/>
				<path style="" d="m856.9 703.1h-0.9888v-6.36q0-0.7935 0.0488-1.501-0.1282 0.1282-0.2869 0.2686t-1.453 1.19l-0.5371-0.6958 2.362-1.825h0.8545v8.923z"/>
				<path style="" d="m860.4 699.3q0-2.631 1.019-3.931 1.025-1.306 3.027-1.306 0.6897 0 1.086 0.116v0.8728q-0.47-0.1526-1.074-0.1526-1.434 0-2.191 0.8972-0.7568 0.8911-0.8301 2.808h0.0732q0.6714-1.05 2.124-1.05 1.202 0 1.892 0.7263 0.6958 0.7263 0.6958 1.971 0 1.392-0.7629 2.191-0.7568 0.7935-2.051 0.7935-1.386 0-2.197-1.038-0.8118-1.044-0.8118-2.899zm2.997 3.076q0.8667 0 1.343-0.5432 0.4822-0.5493 0.4822-1.581 0-0.885-0.4456-1.392-0.4456-0.5066-1.331-0.5066-0.5493 0-1.007 0.2258-0.4578 0.2258-0.7324 0.6226-0.2686 0.3967-0.2686 0.824 0 0.6287 0.2441 1.172 0.2441 0.5432 0.6897 0.8606 0.4517 0.3174 1.025 0.3174z"/>
			</g>
			<g>
				<path style="" d="m1038 703.1h-5.865v-0.8728l2.35-2.362q1.074-1.086 1.416-1.55 0.3418-0.4639 0.5127-0.9033t0.1709-0.946q0-0.7141-0.4333-1.129-0.4334-0.4211-1.202-0.4211-0.5554 0-1.056 0.1831-0.4944 0.1831-1.105 0.6653l-0.5371-0.6897q1.233-1.025 2.686-1.025 1.257 0 1.971 0.647 0.7141 0.6409 0.7141 1.727 0 0.8484-0.476 1.678-0.4761 0.8301-1.782 2.1l-1.953 1.91v0.0488h4.59v0.9399z"/>
				<path style="" d="m1045 698.7q0 2.313-0.7324 3.455-0.7263 1.141-2.228 1.141-1.44 0-2.191-1.166-0.7507-1.172-0.7507-3.43 0-2.332 0.7263-3.461t2.216-1.129q1.453 0 2.203 1.178 0.7568 1.178 0.7568 3.412zm-4.877 0q0 1.947 0.4577 2.838 0.4578 0.885 1.459 0.885 1.013 0 1.465-0.8972 0.4578-0.9033 0.4578-2.826t-0.4578-2.814q-0.4516-0.8972-1.465-0.8972-1.001 0-1.459 0.885-0.4577 0.8789-0.4577 2.826z"/>
				<path style="" d="m1050 703.1h-0.9888v-6.36q0-0.7935 0.049-1.501-0.1281 0.1282-0.2868 0.2686t-1.453 1.19l-0.5371-0.6958 2.362-1.825h0.8545v8.923z"/>
				<path style="" d="m1055 703.1 3.699-7.99h-4.864v-0.9338h5.939v0.8118l-3.65 8.112h-1.123z"/>
			</g>
			<g>
				<path style="" d="m1230 703.1h-5.865v-0.8728l2.35-2.362q1.074-1.086 1.416-1.55 0.3418-0.4639 0.5127-0.9033t0.1709-0.946q0-0.7141-0.4333-1.129-0.4334-0.4211-1.202-0.4211-0.5554 0-1.056 0.1831-0.4944 0.1831-1.105 0.6653l-0.5371-0.6897q1.233-1.025 2.686-1.025 1.257 0 1.971 0.647 0.7141 0.6409 0.7141 1.727 0 0.8484-0.476 1.678-0.4761 0.8301-1.782 2.1l-1.953 1.91v0.0488h4.59v0.9399z"/>
				<path style="" d="m1237 698.7q0 2.313-0.7324 3.455-0.7263 1.141-2.228 1.141-1.44 0-2.191-1.166-0.7507-1.172-0.7507-3.43 0-2.332 0.7263-3.461t2.216-1.129q1.453 0 2.203 1.178 0.7568 1.178 0.7568 3.412zm-4.877 0q0 1.947 0.4577 2.838 0.4578 0.885 1.459 0.885 1.013 0 1.465-0.8972 0.4578-0.9033 0.4578-2.826t-0.4578-2.814q-0.4516-0.8972-1.465-0.8972-1.001 0-1.459 0.885-0.4577 0.8789-0.4577 2.826z"/>
				<path style="" d="m1242 703.1h-0.9888v-6.36q0-0.7935 0.049-1.501-0.1281 0.1282-0.2868 0.2686t-1.453 1.19l-0.5371-0.6958 2.362-1.825h0.8545v8.923z"/>
				<path style="" d="m1248 694.1q1.221 0 1.935 0.5676 0.7142 0.5676 0.7142 1.569 0 0.6592-0.409 1.202-0.4089 0.5432-1.306 0.9888 1.086 0.5188 1.544 1.093 0.4577 0.5676 0.4577 1.318 0 1.111-0.7751 1.776-0.7752 0.6592-2.124 0.6592-1.428 0-2.197-0.6226-0.7691-0.6287-0.7691-1.776 0-1.532 1.868-2.386-0.8423-0.4761-1.208-1.025-0.3662-0.5554-0.3662-1.239 0-0.9705 0.7141-1.544 0.7202-0.5798 1.923-0.5798zm-1.929 6.799q0 0.7324 0.5066 1.141 0.5127 0.4089 1.434 0.4089 0.9095 0 1.416-0.4272t0.5065-1.172q0-0.592-0.476-1.05-0.4761-0.4639-1.66-0.8972-0.9094 0.3906-1.318 0.8667-0.409 0.47-0.409 1.129zm1.916-5.975q-0.7629 0-1.196 0.3662-0.4333 0.3662-0.4333 0.9766 0 0.5615 0.3601 0.9644 0.3601 0.4028 1.331 0.8057 0.8728-0.3662 1.233-0.7874 0.3662-0.4211 0.3662-0.9827 0-0.6165-0.4456-0.9766-0.4394-0.3662-1.215-0.3662z"/>
			</g>
		</g>
		<g transform="matrix(.9984 0 0 1 -337.8 86.5)">
			<path d="m256.4 520.9h127.8v35.43h-127.8z" fill="url(#o)"/>
			<g fill="#fff">
				<path d="m271.5 542h-4.974v-8.923h4.974v0.9216h-3.937v2.875h3.699v0.9155h-3.699v3.284h3.937v0.9277z"/>
				<path d="m277.6 540.2q0 0.9338-0.6958 1.44-0.6958 0.5066-1.953 0.5066-1.331 0-2.075-0.4211v-0.9399q0.4822 0.2441 1.031 0.3845 0.5554 0.1404 1.068 0.1404 0.7934 0 1.221-0.2502 0.4272-0.2564 0.4272-0.7752 0-0.3906-0.3418-0.6653-0.3357-0.2808-1.318-0.6592-0.9338-0.3479-1.331-0.6042-0.3906-0.2624-0.5859-0.592-0.1892-0.3296-0.1892-0.7874 0-0.8179 0.6653-1.288 0.6653-0.4761 1.825-0.4761 1.08 0 2.112 0.4394l-0.3601 0.824q-1.007-0.415-1.825-0.415-0.7202 0-1.086 0.2258-0.3662 0.2258-0.3662 0.6226 0 0.2686 0.1343 0.4578 0.1404 0.1892 0.4456 0.3601t1.172 0.4944q1.19 0.4334 1.605 0.8728 0.4211 0.4394 0.4211 1.105z"/>
				<path d="m283.6 542h-4.852v-0.6897l3.65-5.212h-3.424v-0.7874h4.535v0.7874l-3.601 5.115h3.693v0.7874z"/>
				<path d="m287.3 541.3q0.2686 0 0.5188-0.0366 0.2502-0.0427 0.3967-0.0855v0.7752q-0.1648 0.0793-0.4883 0.1282-0.3174 0.0549-0.5737 0.0549-1.941 0-1.941-2.045v-3.98h-0.9582v-0.4883l0.9582-0.4211 0.4272-1.428h0.5859v1.55h1.941v0.7874h-1.941v3.937q0 0.6042 0.2869 0.9277t0.7874 0.3235z"/>
				<path d="m292.4 542.1q-1.483 0-2.344-0.9033-0.8545-0.9033-0.8545-2.509 0-1.617 0.7935-2.57 0.7996-0.9522 2.142-0.9522 1.257 0 1.99 0.8301 0.7324 0.824 0.7324 2.179v0.6409h-4.608q0.0305 1.178 0.592 1.788 0.5676 0.6104 1.593 0.6104 1.08 0 2.136-0.4517v0.9033q-0.5371 0.2319-1.019 0.3296-0.4761 0.1038-1.154 0.1038zm-0.2747-6.085q-0.8057 0-1.288 0.5249-0.4761 0.5249-0.5615 1.453h3.497q0-0.9582-0.4272-1.465-0.4272-0.5127-1.221-0.5127z"/>
				<path d="m299.6 535.2q0.4456 0 0.7996 0.0732l-0.1404 0.9399q-0.415-0.0916-0.7324-0.0916-0.8118 0-1.392 0.6592-0.5737 0.6592-0.5737 1.642v3.589h-1.013v-6.689h0.8362l0.116 1.239h0.0488q0.3723-0.6531 0.8972-1.007 0.5249-0.354 1.154-0.354z"/>
				<path d="m305.1 533.1h2.521q1.776 0 2.57 0.531 0.7935 0.531 0.7935 1.678 0 0.7934-0.4456 1.312-0.4394 0.5127-1.288 0.6653v0.061q2.032 0.3479 2.032 2.136 0 1.196-0.8118 1.868-0.8057 0.6714-2.258 0.6714h-3.113v-8.923zm1.038 3.821h1.709q1.099 0 1.581-0.3418 0.4822-0.3479 0.4822-1.166 0-0.7507-0.5371-1.08-0.5371-0.3357-1.709-0.3357h-1.526v2.924zm0 0.8789v3.339h1.862q1.08 0 1.624-0.415 0.5493-0.4212 0.5493-1.312 0-0.8301-0.5615-1.221-0.5554-0.3906-1.697-0.3906h-1.776z"/>
				<path d="m317.1 542-0.2014-0.9521h-0.0488q-0.5005 0.6287-1.001 0.8545-0.4944 0.2197-1.239 0.2197-0.9949 0-1.562-0.5127-0.5615-0.5127-0.5615-1.459 0-2.026 3.241-2.124l1.135-0.0366v-0.415q0-0.7874-0.3418-1.16-0.3357-0.3784-1.08-0.3784-0.8362 0-1.892 0.5127l-0.3113-0.7751q0.4944-0.2686 1.08-0.4211 0.592-0.1526 1.184-0.1526 1.196 0 1.77 0.531 0.5798 0.531 0.5798 1.703v4.565h-0.7507zm-2.289-0.7141q0.946 0 1.483-0.5188 0.5432-0.5188 0.5432-1.453v-0.6042l-1.013 0.0427q-1.208 0.0427-1.746 0.3784-0.531 0.3296-0.531 1.032 0 0.5493 0.3296 0.8362 0.3357 0.2869 0.9338 0.2869z"/>
				<path d="m324.6 542v-4.327q0-0.8179-0.3723-1.221-0.3723-0.4028-1.166-0.4028-1.05 0-1.538 0.5676-0.4883 0.5676-0.4883 1.874v3.51h-1.013v-6.689h0.824l0.1648 0.9155h0.0488q0.3113-0.4944 0.8728-0.7629 0.5615-0.2747 1.251-0.2747 1.208 0 1.819 0.5859 0.6104 0.5798 0.6104 1.862v4.364h-1.013z"/>
				<path d="m333.1 535.3v0.6409l-1.239 0.1465q0.1709 0.2136 0.3052 0.5615 0.1343 0.3418 0.1343 0.7751 0 0.9827-0.6714 1.569-0.6714 0.5859-1.843 0.5859-0.2991 0-0.5615-0.0488-0.647 0.3418-0.647 0.8606 0 0.2747 0.2258 0.4089 0.2258 0.1282 0.7752 0.1282h1.184q1.086 0 1.666 0.4578 0.5859 0.4578 0.5859 1.331 0 1.111-0.8911 1.691-0.8911 0.5859-2.6 0.5859-1.312 0-2.026-0.4883-0.708-0.4883-0.708-1.379 0-0.6104 0.3906-1.056t1.099-0.6042q-0.2564-0.116-0.4334-0.3601-0.1709-0.2441-0.1709-0.5676 0-0.3662 0.1953-0.6409t0.6165-0.531q-0.5188-0.2136-0.8484-0.7263-0.3235-0.5127-0.3235-1.172 0-1.099 0.6592-1.691 0.6592-0.5982 1.868-0.5982 0.5249 0 0.946 0.1221h2.313zm-5.334 7.812q0 0.5432 0.4578 0.824t1.312 0.2808q1.276 0 1.886-0.3845 0.6164-0.3784 0.6164-1.032 0-0.5432-0.3357-0.7568-0.3357-0.2075-1.263-0.2075h-1.215q-0.6897 0-1.074 0.3296-0.3845 0.3296-0.3845 0.946zm0.5493-5.67q0 0.7019 0.3967 1.062t1.105 0.3601q1.483 0 1.483-1.44 0-1.508-1.501-1.508-0.7141 0-1.099 0.3845-0.3845 0.3845-0.3845 1.141z"/>
				<path d="m340.3 538.6q0 1.636-0.824 2.557-0.824 0.9155-2.277 0.9155-0.8972 0-1.593-0.4211t-1.074-1.208q-0.3784-0.7874-0.3784-1.843 0-1.636 0.8179-2.545 0.8179-0.9155 2.271-0.9155 1.404 0 2.228 0.9338 0.8301 0.9338 0.8301 2.527zm-5.096 0q0 1.282 0.5127 1.953 0.5127 0.6714 1.508 0.6714 0.9949 0 1.508-0.6653 0.5188-0.6714 0.5188-1.959 0-1.276-0.5188-1.935-0.5127-0.6653-1.52-0.6653-0.9949 0-1.501 0.6531-0.5066 0.6531-0.5066 1.947zm1.172-4.376q0.293-0.3784 0.6287-0.9155 0.3418-0.5371 0.5371-0.9338h1.233v0.1282q-0.2686 0.3967-0.7996 0.9766-0.531 0.5798-0.9216 0.8972h-0.6775v-0.1526z"/>
			</g>
		</g>
		<g transform="translate(-338.2 86.37)">
			<path d="m384 521h192.6v35.43h-192.6z" fill="url(#n)"/>
			<g fill="#fff">
				<path d="m400.6 543.4h-1.221l-3.253-4.327-0.9338 0.8301v3.497h-1.038v-8.923h1.038v4.425l4.047-4.425h1.227l-3.589 3.876 3.723 5.048z"/>
				<path d="m405.8 543.4-0.2014-0.9522h-0.0488q-0.5005 0.6287-1.001 0.8545-0.4944 0.2197-1.239 0.2197-0.9949 0-1.562-0.5127-0.5615-0.5127-0.5615-1.459 0-2.026 3.241-2.124l1.135-0.0366v-0.415q0-0.7874-0.3418-1.16-0.3357-0.3784-1.08-0.3784-0.8362 0-1.892 0.5127l-0.3113-0.7752q0.4944-0.2686 1.08-0.4211 0.592-0.1526 1.184-0.1526 1.196 0 1.77 0.531 0.5798 0.531 0.5798 1.703v4.565h-0.7507zm-2.289-0.7141q0.946 0 1.483-0.5188 0.5432-0.5188 0.5432-1.453v-0.6042l-1.013 0.0427q-1.208 0.0427-1.746 0.3784-0.531 0.3296-0.531 1.031 0 0.5493 0.3296 0.8362 0.3357 0.2869 0.9338 0.2869z"/>
				<path d="m410.8 542.7q0.2686 0 0.5188-0.0366 0.2502-0.0427 0.3967-0.0855v0.7752q-0.1648 0.0793-0.4883 0.1282-0.3174 0.0549-0.5737 0.0549-1.941 0-1.941-2.045v-3.979h-0.9583v-0.4883l0.9583-0.4211 0.4272-1.428h0.5859v1.55h1.941v0.7874h-1.941v3.937q0 0.6042 0.2869 0.9277t0.7874 0.3235z"/>
				<path d="m417.6 543.4v-4.327q0-0.8179-0.3723-1.221-0.3723-0.4028-1.166-0.4028-1.056 0-1.544 0.5737-0.4822 0.5737-0.4822 1.88v3.497h-1.013v-9.497h1.013v2.875q0 0.5188-0.0488 0.8606h0.061q0.2991-0.4822 0.8484-0.7568 0.5554-0.2808 1.263-0.2808 1.227 0 1.837 0.5859 0.6165 0.5798 0.6165 1.849v4.364h-1.013z"/>
				<path d="m421.7 543.4h-1.013v-6.689h1.013v6.689zm-1.099-8.502q0-0.3479 0.1709-0.5066 0.1709-0.1648 0.4272-0.1648 0.2441 0 0.4211 0.1648t0.177 0.5066-0.177 0.5127q-0.177 0.1648-0.4211 0.1648-0.2564 0-0.4272-0.1648-0.1709-0.1709-0.1709-0.5127z"/>
				<path d="m427.3 543.4v-8.923h1.038v7.983h3.937v0.9399h-4.974z"/>
				<path d="m437.7 543.4-0.2014-0.9522h-0.0488q-0.5005 0.6287-1.001 0.8545-0.4944 0.2197-1.239 0.2197-0.9949 0-1.562-0.5127-0.5615-0.5127-0.5615-1.459 0-2.026 3.241-2.124l1.135-0.0366v-0.415q0-0.7874-0.3418-1.16-0.3357-0.3784-1.08-0.3784-0.8362 0-1.892 0.5127l-0.3113-0.7752q0.4944-0.2686 1.08-0.4211 0.592-0.1526 1.184-0.1526 1.196 0 1.77 0.531 0.5798 0.531 0.5798 1.703v4.565h-0.7507zm-2.289-0.7141q0.946 0 1.483-0.5188 0.5432-0.5188 0.5432-1.453v-0.6042l-1.013 0.0427q-1.208 0.0427-1.746 0.3784-0.531 0.3296-0.531 1.031 0 0.5493 0.3296 0.8362 0.3357 0.2869 0.9338 0.2869z"/>
				<path d="m446 543.4-1.227-3.925q-0.116-0.3601-0.4334-1.636h-0.0488q-0.2441 1.068-0.4272 1.648l-1.263 3.912h-1.172l-1.825-6.689h1.062q0.647 2.521 0.9827 3.839 0.3418 1.318 0.3906 1.776h0.0488q0.0671-0.3479 0.2136-0.8972 0.1526-0.5554 0.2624-0.8789l1.227-3.839h1.099l1.196 3.839q0.3418 1.05 0.4639 1.764h0.0488q0.0244-0.2197 0.1282-0.6775 0.1099-0.4578 1.276-4.926h1.05l-1.849 6.689h-1.202z"/>
				<path d="m454.4 543.4-0.2014-0.9522h-0.0488q-0.5005 0.6287-1.001 0.8545-0.4944 0.2197-1.239 0.2197-0.9949 0-1.562-0.5127-0.5615-0.5127-0.5615-1.459 0-2.026 3.241-2.124l1.135-0.0366v-0.415q0-0.7874-0.3418-1.16-0.3357-0.3784-1.08-0.3784-0.8362 0-1.892 0.5127l-0.3113-0.7752q0.4944-0.2686 1.08-0.4211 0.592-0.1526 1.184-0.1526 1.196 0 1.77 0.531 0.5798 0.531 0.5798 1.703v4.565h-0.7507zm-2.289-0.7141q0.946 0 1.483-0.5188 0.5432-0.5188 0.5432-1.453v-0.6042l-1.013 0.0427q-1.208 0.0427-1.746 0.3784-0.531 0.3296-0.531 1.031 0 0.5493 0.3296 0.8362 0.3357 0.2869 0.9338 0.2869z"/>
				<path d="m458.3 543.4h-1.013v-9.497h1.013v9.497z"/>
				<path d="m461.4 543.4h-1.013v-9.497h1.013v9.497z"/>
			</g>
		</g>
		<g transform="matrix(1.052 0 0 1 -273.1 86.37)">
			<path d="m668.4 521h335.8v35.43h-335.8z" fill="url(#m)"/>
			<g fill="#fff">
				<path d="m682.1 543.2-3.027-7.91h-0.0488q0.0855 0.9399 0.0855 2.234v5.676h-0.9582v-8.923h1.562l2.826 7.361h0.0488l2.85-7.361h1.55v8.923h-1.038v-5.75q0-0.9888 0.0854-2.148h-0.0488l-3.052 7.898h-0.8362z"/>
				<path d="m693.4 543.2-0.2014-0.9522h-0.0488q-0.5005 0.6287-1.001 0.8545-0.4944 0.2197-1.239 0.2197-0.9949 0-1.562-0.5127-0.5615-0.5127-0.5615-1.459 0-2.026 3.241-2.124l1.135-0.0366v-0.415q0-0.7874-0.3418-1.16-0.3357-0.3784-1.08-0.3784-0.8362 0-1.892 0.5127l-0.3113-0.7752q0.4944-0.2686 1.08-0.4211 0.592-0.1526 1.184-0.1526 1.196 0 1.77 0.531 0.5798 0.531 0.5798 1.703v4.565h-0.7507zm-2.289-0.7141q0.946 0 1.483-0.5188 0.5432-0.5188 0.5432-1.453v-0.6042l-1.013 0.0427q-1.208 0.0427-1.746 0.3784-0.531 0.3296-0.531 1.031 0 0.5493 0.3296 0.8362 0.3357 0.2869 0.9338 0.2869z"/>
				<path d="m700.6 541.4q0 0.9338-0.6958 1.44-0.6958 0.5066-1.953 0.5066-1.331 0-2.075-0.4211v-0.94q0.4822 0.2441 1.031 0.3845 0.5554 0.1404 1.068 0.1404 0.7935 0 1.221-0.2502 0.4272-0.2564 0.4272-0.7751 0-0.3906-0.3418-0.6653-0.3357-0.2808-1.318-0.6592-0.9338-0.3479-1.331-0.6042-0.3906-0.2624-0.5859-0.592-0.1892-0.3296-0.1892-0.7874 0-0.8179 0.6653-1.288 0.6653-0.4761 1.825-0.4761 1.08 0 2.112 0.4395l-0.3601 0.824q-1.007-0.415-1.825-0.415-0.7202 0-1.086 0.2258-0.3662 0.2258-0.3662 0.6226 0 0.2686 0.1343 0.4578 0.1404 0.1892 0.4456 0.3601t1.172 0.4944q1.19 0.4334 1.605 0.8728 0.4211 0.4394 0.4211 1.105z"/>
				<path d="m706.5 541.4q0 0.9338-0.6958 1.44-0.6958 0.5066-1.953 0.5066-1.331 0-2.075-0.4211v-0.94q0.4822 0.2441 1.031 0.3845 0.5554 0.1404 1.068 0.1404 0.7935 0 1.221-0.2502 0.4272-0.2564 0.4272-0.7751 0-0.3906-0.3418-0.6653-0.3357-0.2808-1.318-0.6592-0.9338-0.3479-1.331-0.6042-0.3906-0.2624-0.5859-0.592-0.1892-0.3296-0.1892-0.7874 0-0.8179 0.6653-1.288 0.6653-0.4761 1.825-0.4761 1.08 0 2.112 0.4395l-0.3601 0.824q-1.007-0.415-1.825-0.415-0.7202 0-1.086 0.2258-0.3662 0.2258-0.3662 0.6226 0 0.2686 0.1343 0.4578 0.1404 0.1892 0.4456 0.3601t1.172 0.4944q1.19 0.4334 1.605 0.8728 0.4211 0.4394 0.4211 1.105z"/>
				<path d="m709.2 543.2h-1.013v-6.689h1.013v6.689zm-1.099-8.502q0-0.3479 0.1709-0.5066 0.1709-0.1648 0.4272-0.1648 0.2441 0 0.4212 0.1648 0.177 0.1648 0.177 0.5066t-0.177 0.5127q-0.177 0.1648-0.4212 0.1648-0.2564 0-0.4272-0.1648-0.1709-0.1709-0.1709-0.5127z"/>
				<path d="m719.9 543.2v-4.352q0-0.7996-0.3418-1.196-0.3418-0.4028-1.062-0.4028-0.946 0-1.398 0.5432-0.4517 0.5432-0.4517 1.672v3.735h-1.013v-4.352q0-0.7996-0.3418-1.196-0.3418-0.4028-1.068-0.4028-0.9522 0-1.398 0.5737-0.4394 0.5676-0.4394 1.868v3.51h-1.013v-6.689h0.824l0.1648 0.9155h0.0488q0.2869-0.4883 0.8057-0.7629 0.5249-0.2747 1.172-0.2747 1.569 0 2.051 1.135h0.0488q0.2991-0.5249 0.8667-0.8301t1.294-0.3052q1.135 0 1.697 0.5859 0.5676 0.5798 0.5676 1.862v4.364h-1.013z"/>
				<path d="m728.7 539.9q0 1.636-0.824 2.557-0.824 0.9155-2.277 0.9155-0.8972 0-1.593-0.4211-0.6958-0.4212-1.074-1.208-0.3784-0.7874-0.3784-1.843 0-1.636 0.8179-2.545 0.8179-0.9155 2.27-0.9155 1.404 0 2.228 0.9338 0.8301 0.9338 0.8301 2.527zm-5.096 0q0 1.282 0.5127 1.953 0.5127 0.6714 1.508 0.6714 0.9949 0 1.508-0.6653 0.5188-0.6714 0.5188-1.959 0-1.276-0.5188-1.935-0.5127-0.6653-1.52-0.6653-0.9949 0-1.501 0.6531-0.5066 0.6531-0.5066 1.947z"/>
				<path d="m736.6 543.2h-1.038v-8.002h-2.826v-0.9216h6.689v0.9216h-2.826v8.002z"/>
				<path d="m746.4 539.9q0 1.636-0.824 2.557-0.824 0.9155-2.277 0.9155-0.8972 0-1.593-0.4211-0.6958-0.4212-1.074-1.208-0.3784-0.7874-0.3784-1.843 0-1.636 0.8179-2.545 0.8179-0.9155 2.271-0.9155 1.404 0 2.228 0.9338 0.8301 0.9338 0.8301 2.527zm-5.096 0q0 1.282 0.5127 1.953 0.5127 0.6714 1.508 0.6714 0.9949 0 1.508-0.6653 0.5188-0.6714 0.5188-1.959 0-1.276-0.5188-1.935-0.5127-0.6653-1.52-0.6653-0.9949 0-1.501 0.6531-0.5066 0.6531-0.5066 1.947z"/>
				<path d="m751 543.4q-1.483 0-2.344-0.9033-0.8545-0.9033-0.8545-2.509 0-1.617 0.7934-2.57 0.7996-0.9522 2.142-0.9522 1.257 0 1.99 0.8301 0.7324 0.824 0.7324 2.179v0.6409h-4.608q0.0305 1.178 0.592 1.788 0.5676 0.6104 1.593 0.6104 1.08 0 2.136-0.4517v0.9033q-0.5371 0.2319-1.019 0.3296-0.4761 0.1038-1.154 0.1038zm-0.2747-6.085q-0.8057 0-1.288 0.5249-0.4761 0.5249-0.5615 1.453h3.497q0-0.9582-0.4272-1.465-0.4272-0.5127-1.221-0.5127z"/>
				<path d="m759.5 541.4q0 0.9338-0.6958 1.44-0.6958 0.5066-1.953 0.5066-1.331 0-2.075-0.4211v-0.94q0.4822 0.2441 1.031 0.3845 0.5554 0.1404 1.068 0.1404 0.7935 0 1.221-0.2502 0.4272-0.2564 0.4272-0.7751 0-0.3906-0.3418-0.6653-0.3357-0.2808-1.318-0.6592-0.9338-0.3479-1.331-0.6042-0.3906-0.2624-0.5859-0.592-0.1892-0.3296-0.1892-0.7874 0-0.8179 0.6653-1.288 0.6653-0.4761 1.825-0.4761 1.08 0 2.112 0.4395l-0.3601 0.824q-1.007-0.415-1.825-0.415-0.7202 0-1.086 0.2258-0.3662 0.2258-0.3662 0.6226 0 0.2686 0.1343 0.4578 0.1404 0.1892 0.4456 0.3601t1.172 0.4944q1.19 0.4334 1.605 0.8728 0.4211 0.4394 0.4211 1.105z"/>
				<path d="m763.8 543.4q-1.453 0-2.252-0.8911-0.7935-0.8972-0.7935-2.533 0-1.678 0.8057-2.594 0.8118-0.9155 2.307-0.9155 0.4822 0 0.9644 0.1038t0.7568 0.2441l-0.3113 0.8606q-0.3357-0.1343-0.7324-0.2197-0.3967-0.0915-0.7019-0.0915-2.039 0-2.039 2.6 0 1.233 0.4944 1.892 0.5005 0.6592 1.477 0.6592 0.8362 0 1.715-0.3601v0.8972q-0.6714 0.3479-1.691 0.3479z"/>
				<path d="m771.2 543.2-0.2014-0.9522h-0.0488q-0.5005 0.6287-1.001 0.8545-0.4944 0.2197-1.239 0.2197-0.9949 0-1.562-0.5127-0.5615-0.5127-0.5615-1.459 0-2.026 3.241-2.124l1.135-0.0366v-0.415q0-0.7874-0.3418-1.16-0.3357-0.3784-1.08-0.3784-0.8362 0-1.892 0.5127l-0.3113-0.7752q0.4944-0.2686 1.08-0.4211 0.592-0.1526 1.184-0.1526 1.196 0 1.77 0.531 0.5798 0.531 0.5798 1.703v4.565h-0.7507zm-2.289-0.7141q0.946 0 1.483-0.5188 0.5432-0.5188 0.5432-1.453v-0.6042l-1.013 0.0427q-1.208 0.0427-1.746 0.3784-0.531 0.3296-0.531 1.031 0 0.5493 0.3296 0.8362 0.3357 0.2869 0.9338 0.2869z"/>
			</g>
		</g>
		<g transform="translate(-338.2 102.3)">
			<path d="m256.4 583h127.6v35.43h-127.6z" fill="url(#l)"/>
			<g fill="#fff">
				<path d="m271.6 603.1q0 1.178-0.8545 1.837-0.8545 0.6592-2.319 0.6592-1.587 0-2.441-0.4089v-1.001q0.5493 0.2319 1.196 0.3662 0.647 0.1343 1.282 0.1343 1.038 0 1.562-0.3906 0.5249-0.3967 0.5249-1.099 0-0.4639-0.1892-0.7568-0.1831-0.2991-0.6226-0.5493-0.4334-0.2502-1.324-0.5676-1.245-0.4456-1.782-1.056-0.531-0.6104-0.531-1.593 0-1.032 0.7751-1.642 0.7752-0.6104 2.051-0.6104 1.331 0 2.448 0.4883l-0.3235 0.9033q-1.105-0.4639-2.148-0.4639-0.824 0-1.288 0.354-0.4639 0.354-0.4639 0.9827 0 0.4639 0.1709 0.7629 0.1709 0.293 0.5737 0.5432 0.4089 0.2441 1.245 0.5432 1.404 0.5005 1.929 1.074 0.531 0.5737 0.531 1.489z"/>
				<path d="m275.4 604.7q0.2686 0 0.5188-0.0366 0.2502-0.0427 0.3967-0.0855v0.7752q-0.1648 0.0793-0.4883 0.1282-0.3174 0.0549-0.5737 0.0549-1.941 0-1.941-2.045v-3.98h-0.9582v-0.4883l0.9582-0.4211 0.4272-1.428h0.5859v1.55h1.941v0.7874h-1.941v3.937q0 0.6042 0.2869 0.9277t0.7874 0.3235z"/>
				<path d="m280.5 605.6q-1.483 0-2.344-0.9033-0.8545-0.9033-0.8545-2.509 0-1.617 0.7934-2.57 0.7996-0.9522 2.142-0.9522 1.257 0 1.99 0.8301 0.7324 0.824 0.7324 2.179v0.6409h-4.608q0.0305 1.178 0.592 1.788 0.5676 0.6104 1.593 0.6104 1.08 0 2.136-0.4517v0.9033q-0.5371 0.2319-1.019 0.3296-0.4761 0.1038-1.154 0.1038zm-0.2747-6.085q-0.8057 0-1.288 0.5249-0.4761 0.5249-0.5615 1.453h3.497q0-0.9582-0.4272-1.465-0.4272-0.5127-1.221-0.5127z"/>
				<path d="m287.7 599.5h-1.703v5.902h-1.013v-5.902h-1.196v-0.4578l1.196-0.3662v-0.3723q0-2.466 2.155-2.466 0.531 0 1.245 0.2136l-0.2624 0.8118q-0.5859-0.1892-1.001-0.1892-0.5737 0-0.8484 0.3845-0.2747 0.3784-0.2747 1.221v0.4334h1.703v0.7874z"/>
				<path d="m293 605.4-0.2014-0.9521h-0.0488q-0.5005 0.6287-1.001 0.8545-0.4944 0.2197-1.239 0.2197-0.9949 0-1.562-0.5127-0.5615-0.5127-0.5615-1.459 0-2.026 3.241-2.124l1.135-0.0366v-0.415q0-0.7874-0.3418-1.16-0.3357-0.3784-1.08-0.3784-0.8362 0-1.892 0.5127l-0.3113-0.7751q0.4944-0.2686 1.08-0.4211 0.592-0.1526 1.184-0.1526 1.196 0 1.77 0.531 0.5798 0.531 0.5798 1.703v4.565h-0.7507zm-2.289-0.7141q0.946 0 1.483-0.5188 0.5432-0.5188 0.5432-1.453v-0.6042l-1.013 0.0427q-1.208 0.0427-1.746 0.3784-0.531 0.3296-0.531 1.032 0 0.5493 0.3296 0.8362 0.3357 0.2869 0.9338 0.2869z"/>
				<path d="m300.4 605.4v-4.327q0-0.8179-0.3723-1.221-0.3723-0.4028-1.166-0.4028-1.05 0-1.538 0.5676-0.4883 0.5676-0.4883 1.874v3.51h-1.013v-6.689h0.824l0.1648 0.9155h0.0488q0.3113-0.4944 0.8728-0.7629 0.5615-0.2747 1.251-0.2747 1.208 0 1.819 0.5859 0.6104 0.5798 0.6104 1.862v4.364h-1.013z"/>
				<path d="m313.9 605.4h-1.184l-4.877-7.489h-0.0488q0.0977 1.318 0.0977 2.417v5.072h-0.9582v-8.923h1.172l4.864 7.458h0.0488q-0.0122-0.1648-0.0549-1.056-0.0427-0.8972-0.0305-1.282v-5.121h0.9705v8.923z"/>
				<path d="m317.2 605.4h-1.013v-6.689h1.013v6.689zm-1.099-8.502q0-0.3479 0.1709-0.5066 0.1709-0.1648 0.4272-0.1648 0.2441 0 0.4211 0.1648t0.177 0.5066-0.177 0.5127q-0.177 0.1648-0.4211 0.1648-0.2564 0-0.4272-0.1648-0.1709-0.1709-0.1709-0.5127z"/>
				<path d="m320.4 602q0.2624-0.3723 0.7996-0.9766l2.161-2.289h1.202l-2.71 2.85 2.899 3.839h-1.227l-2.362-3.162-0.7629 0.6592v2.502h-1.001v-9.497h1.001v5.035q0 0.3357-0.0488 1.038h0.0488z"/>
				<path d="m331.7 602.1q0 1.636-0.824 2.557-0.824 0.9155-2.277 0.9155-0.8972 0-1.593-0.4211t-1.074-1.208q-0.3784-0.7874-0.3784-1.843 0-1.636 0.8179-2.545 0.8179-0.9155 2.271-0.9155 1.404 0 2.228 0.9338 0.8301 0.9338 0.8301 2.527zm-5.096 0q0 1.282 0.5127 1.953 0.5127 0.6714 1.508 0.6714 0.9949 0 1.508-0.6653 0.5188-0.6714 0.5188-1.959 0-1.276-0.5188-1.935-0.5127-0.6653-1.52-0.6653-0.9949 0-1.501 0.6531-0.5066 0.6531-0.5066 1.947z"/>
				<path d="m334.5 605.4h-1.013v-9.497h1.013v9.497z"/>
				<path d="m337.7 605.4h-1.013v-6.689h1.013v6.689zm-1.099-8.502q0-0.3479 0.1709-0.5066 0.1709-0.1648 0.4272-0.1648 0.2441 0 0.4211 0.1648t0.177 0.5066-0.177 0.5127q-0.177 0.1648-0.4211 0.1648-0.2564 0-0.4272-0.1648-0.1709-0.1709-0.1709-0.5127z"/>
				<path d="m342.5 605.6q-1.453 0-2.252-0.8911-0.7935-0.8972-0.7935-2.533 0-1.678 0.8057-2.594 0.8118-0.9155 2.307-0.9155 0.4822 0 0.9644 0.1038t0.7568 0.2441l-0.3113 0.8606q-0.3357-0.1343-0.7324-0.2197-0.3967-0.0916-0.7019-0.0916-2.039 0-2.039 2.6 0 1.233 0.4944 1.892 0.5005 0.6592 1.477 0.6592 0.8362 0 1.715-0.3601v0.8972q-0.6714 0.3479-1.691 0.3479zm-0.9338-7.849q0.293-0.3784 0.6287-0.9155 0.3418-0.5371 0.5371-0.9338h1.233v0.1282q-0.2686 0.3967-0.7996 0.9766-0.531 0.5798-0.9216 0.8972h-0.6775v-0.1526z"/>
			</g>
		</g>
		<g transform="translate(-338.2 95.35)">
			<path d="m384 551h192.7v35.43h-192.7z" fill="url(#k)"/>
			<g fill="#fff">
				<path d="m396.6 565.3q-1.471 0-2.325 0.9827-0.8484 0.9766-0.8484 2.679 0 1.752 0.8179 2.71 0.824 0.9522 2.344 0.9522 0.9338 0 2.13-0.3357v0.9094q-0.9277 0.3479-2.289 0.3479-1.971 0-3.046-1.196-1.068-1.196-1.068-3.4 0-1.379 0.5127-2.417 0.5188-1.038 1.489-1.599 0.9766-0.5615 2.295-0.5615 1.404 0 2.454 0.5127l-0.4394 0.8911q-1.013-0.4761-2.026-0.4761z"/>
				<path d="m406.3 570q0 1.636-0.824 2.557-0.824 0.9155-2.277 0.9155-0.8972 0-1.593-0.4211t-1.074-1.208q-0.3784-0.7874-0.3784-1.843 0-1.636 0.8179-2.545 0.8179-0.9155 2.271-0.9155 1.404 0 2.228 0.9338 0.8301 0.9338 0.8301 2.527zm-5.096 0q0 1.282 0.5127 1.953 0.5127 0.6714 1.508 0.6714 0.9949 0 1.508-0.6653 0.5188-0.6714 0.5188-1.959 0-1.276-0.5188-1.935-0.5127-0.6653-1.52-0.6653-0.9949 0-1.501 0.6531-0.5066 0.6531-0.5066 1.947z"/>
				<path d="m412.7 573.4v-4.327q0-0.8179-0.3723-1.221-0.3723-0.4028-1.166-0.4028-1.05 0-1.538 0.5676-0.4883 0.5676-0.4883 1.874v3.51h-1.013v-6.689h0.824l0.1648 0.9155h0.0488q0.3113-0.4944 0.8728-0.7629 0.5615-0.2747 1.251-0.2747 1.208 0 1.819 0.5859 0.6104 0.5798 0.6104 1.862v4.364h-1.013z"/>
				<path d="m420.3 573.4v-4.327q0-0.8179-0.3723-1.221-0.3723-0.4028-1.166-0.4028-1.05 0-1.538 0.5676-0.4883 0.5676-0.4883 1.874v3.51h-1.013v-6.689h0.824l0.1648 0.9155h0.0488q0.3113-0.4944 0.8728-0.7629 0.5615-0.2747 1.251-0.2747 1.208 0 1.819 0.5859 0.6104 0.5798 0.6104 1.862v4.364h-1.013z"/>
				<path d="m429.2 570q0 1.636-0.824 2.557-0.824 0.9155-2.277 0.9155-0.8972 0-1.593-0.4211t-1.074-1.208q-0.3784-0.7874-0.3784-1.843 0-1.636 0.8179-2.545 0.8179-0.9155 2.271-0.9155 1.404 0 2.228 0.9338 0.8301 0.9338 0.8301 2.527zm-5.096 0q0 1.282 0.5127 1.953 0.5127 0.6714 1.508 0.6714 0.9949 0 1.508-0.6653 0.5188-0.6714 0.5188-1.959 0-1.276-0.5188-1.935-0.5127-0.6653-1.52-0.6653-0.9949 0-1.501 0.6531-0.5066 0.6531-0.5066 1.947z"/>
				<path d="m434 566.6q0.4456 0 0.7996 0.0732l-0.1404 0.9399q-0.415-0.0916-0.7324-0.0916-0.8118 0-1.392 0.6592-0.5737 0.6592-0.5737 1.642v3.589h-1.013v-6.689h0.8362l0.116 1.239h0.0488q0.3723-0.6531 0.8972-1.007 0.5249-0.354 1.154-0.354z"/>
				<path d="m440.5 569.7v3.711h-1.038v-8.923h2.448q1.642 0 2.423 0.6287 0.7874 0.6287 0.7874 1.892 0 1.77-1.794 2.393l2.423 4.01h-1.227l-2.161-3.711h-1.862zm0-0.8911h1.422q1.099 0 1.611-0.4334 0.5127-0.4394 0.5127-1.312 0-0.885-0.5249-1.276-0.5188-0.3906-1.672-0.3906h-1.349v3.412z"/>
				<path d="m448 566.7v4.34q0 0.8179 0.3723 1.221 0.3723 0.4028 1.166 0.4028 1.05 0 1.532-0.5737 0.4883-0.5737 0.4883-1.874v-3.516h1.013v6.689h-0.8362l-0.1465-0.8972h-0.0549q-0.3113 0.4944-0.8667 0.7568-0.5493 0.2624-1.257 0.2624-1.221 0-1.831-0.5798-0.6042-0.5798-0.6042-1.855v-4.376h1.025z"/>
				<path d="m459 571.6q0 0.9338-0.6958 1.44-0.6958 0.5066-1.953 0.5066-1.331 0-2.075-0.4211v-0.9399q0.4822 0.2441 1.031 0.3845 0.5554 0.1404 1.068 0.1404 0.7934 0 1.221-0.2502 0.4272-0.2564 0.4272-0.7752 0-0.3906-0.3418-0.6653-0.3357-0.2808-1.318-0.6592-0.9338-0.3479-1.331-0.6042-0.3906-0.2624-0.5859-0.592-0.1892-0.3296-0.1892-0.7874 0-0.8179 0.6653-1.288 0.6653-0.4761 1.825-0.4761 1.08 0 2.112 0.4394l-0.3601 0.824q-1.007-0.415-1.825-0.415-0.7202 0-1.086 0.2258-0.3662 0.2258-0.3662 0.6226 0 0.2686 0.1343 0.4578 0.1404 0.1892 0.4456 0.3601t1.172 0.4944q1.19 0.4334 1.605 0.8728 0.4211 0.4395 0.4211 1.105z"/>
				<path d="m465 571.6q0 0.9338-0.6958 1.44-0.6958 0.5066-1.953 0.5066-1.331 0-2.075-0.4211v-0.9399q0.4822 0.2441 1.031 0.3845 0.5554 0.1404 1.068 0.1404 0.7934 0 1.221-0.2502 0.4272-0.2564 0.4272-0.7752 0-0.3906-0.3418-0.6653-0.3357-0.2808-1.318-0.6592-0.9338-0.3479-1.331-0.6042-0.3906-0.2624-0.5859-0.592-0.1892-0.3296-0.1892-0.7874 0-0.8179 0.6653-1.288 0.6653-0.4761 1.825-0.4761 1.08 0 2.112 0.4394l-0.3601 0.824q-1.007-0.415-1.825-0.415-0.7202 0-1.086 0.2258-0.3662 0.2258-0.3662 0.6226 0 0.2686 0.1343 0.4578 0.1404 0.1892 0.4456 0.3601t1.172 0.4944q1.19 0.4334 1.605 0.8728 0.4211 0.4395 0.4211 1.105z"/>
				<path d="m469.5 573.5q-1.483 0-2.344-0.9033-0.8545-0.9033-0.8545-2.509 0-1.617 0.7935-2.57 0.7996-0.9522 2.142-0.9522 1.257 0 1.99 0.8301 0.7324 0.824 0.7324 2.179v0.6409h-4.608q0.0305 1.178 0.592 1.788 0.5676 0.6104 1.593 0.6104 1.08 0 2.136-0.4517v0.9033q-0.5371 0.2319-1.019 0.3296-0.4761 0.1038-1.154 0.1038zm-0.2747-6.085q-0.8057 0-1.288 0.5249-0.4761 0.5249-0.5615 1.453h3.497q0-0.9583-0.4272-1.465-0.4272-0.5127-1.221-0.5127z"/>
				<path d="m474.7 573.4h-1.013v-9.497h1.013v9.497z"/>
				<path d="m477.8 573.4h-1.013v-9.497h1.013v9.497z"/>
			</g>
		</g>
		<g transform="translate(-274.2 95.35)">
			<path d="m512.8 551h303.3v35.43h-303.3z" fill="url(#h)"/>
			<g fill="#fff">
				<path d="m524.5 573.4-3.027-7.91h-0.0488q0.0854 0.94 0.0854 2.234v5.676h-0.9582v-8.923h1.562l2.826 7.361h0.0488l2.85-7.361h1.55v8.923h-1.038v-5.75q0-0.9888 0.0854-2.148h-0.0488l-3.052 7.898h-0.8362z"/>
				<path d="m535.8 573.4-0.2014-0.9522h-0.0488q-0.5005 0.6287-1.001 0.8545-0.4944 0.2197-1.239 0.2197-0.9949 0-1.562-0.5127-0.5615-0.5127-0.5615-1.459 0-2.026 3.241-2.124l1.135-0.0366v-0.415q0-0.7874-0.3418-1.16-0.3357-0.3784-1.08-0.3784-0.8362 0-1.892 0.5127l-0.3113-0.7752q0.4944-0.2686 1.08-0.4211 0.592-0.1526 1.184-0.1526 1.196 0 1.77 0.531 0.5798 0.531 0.5798 1.703v4.565h-0.7507zm-2.289-0.7141q0.946 0 1.483-0.5188 0.5432-0.5188 0.5432-1.453v-0.6042l-1.013 0.0427q-1.208 0.0427-1.746 0.3784-0.531 0.3296-0.531 1.031 0 0.5493 0.3296 0.8362 0.3357 0.2869 0.9338 0.2869z"/>
				<path d="m542.7 573.4-0.2014-0.9522h-0.0488q-0.5005 0.6287-1.001 0.8545-0.4944 0.2197-1.239 0.2197-0.9949 0-1.562-0.5127-0.5615-0.5127-0.5615-1.459 0-2.026 3.241-2.124l1.135-0.0366v-0.415q0-0.7874-0.3418-1.16-0.3357-0.3784-1.08-0.3784-0.8362 0-1.892 0.5127l-0.3113-0.7752q0.4944-0.2686 1.08-0.4211 0.592-0.1526 1.184-0.1526 1.196 0 1.77 0.531 0.5798 0.531 0.5798 1.703v4.565h-0.7507zm-2.289-0.7141q0.946 0 1.483-0.5188 0.5432-0.5188 0.5432-1.453v-0.6042l-1.013 0.0427q-1.208 0.0427-1.746 0.3784-0.531 0.3296-0.531 1.031 0 0.5493 0.3296 0.8362 0.3357 0.2869 0.9338 0.2869z"/>
				<path d="m548.6 566.6q0.4456 0 0.7996 0.0732l-0.1404 0.9399q-0.415-0.0916-0.7324-0.0916-0.8118 0-1.392 0.6592-0.5737 0.6592-0.5737 1.642v3.589h-1.013v-6.689h0.8362l0.116 1.239h0.0488q0.3723-0.6531 0.8972-1.007 0.5249-0.354 1.154-0.354z"/>
				<path d="m552.8 572.7q0.2686 0 0.5188-0.0366 0.2502-0.0427 0.3967-0.0855v0.7752q-0.1648 0.0793-0.4883 0.1282-0.3174 0.0549-0.5737 0.0549-1.941 0-1.941-2.045v-3.979h-0.9582v-0.4883l0.9582-0.4211 0.4272-1.428h0.5859v1.55h1.941v0.7874h-1.941v3.937q0 0.6042 0.2869 0.9277t0.7874 0.3235z"/>
				<path d="m557.9 573.5q-1.483 0-2.344-0.9033-0.8545-0.9033-0.8545-2.509 0-1.617 0.7934-2.57 0.7996-0.9522 2.142-0.9522 1.257 0 1.99 0.8301 0.7324 0.824 0.7324 2.179v0.6409h-4.608q0.0305 1.178 0.592 1.788 0.5676 0.6104 1.593 0.6104 1.08 0 2.136-0.4517v0.9033q-0.5371 0.2319-1.019 0.3296-0.4761 0.1038-1.154 0.1038zm-0.2747-6.085q-0.8057 0-1.288 0.5249-0.4761 0.5249-0.5615 1.453h3.497q0-0.9583-0.4272-1.465-0.4272-0.5127-1.221-0.5127z"/>
				<path d="m566.7 573.4v-4.327q0-0.8179-0.3723-1.221-0.3723-0.4028-1.166-0.4028-1.05 0-1.538 0.5676-0.4883 0.5676-0.4883 1.874v3.51h-1.013v-6.689h0.824l0.1648 0.9155h0.0488q0.3113-0.4944 0.8728-0.7629 0.5615-0.2747 1.251-0.2747 1.208 0 1.819 0.5859 0.6104 0.5798 0.6104 1.862v4.364h-1.013z"/>
				<path d="m578.2 564.5h1.117l-3.217 8.923h-1.025l-3.198-8.923h1.099l2.051 5.774q0.354 0.9949 0.5615 1.935 0.2197-0.9888 0.5737-1.971l2.039-5.737z"/>
				<path d="m583.3 573.5q-1.483 0-2.344-0.9033-0.8545-0.9033-0.8545-2.509 0-1.617 0.7935-2.57 0.7996-0.9522 2.142-0.9522 1.257 0 1.99 0.8301 0.7324 0.824 0.7324 2.179v0.6409h-4.608q0.0305 1.178 0.592 1.788 0.5676 0.6104 1.593 0.6104 1.08 0 2.136-0.4517v0.9033q-0.5371 0.2319-1.019 0.3296-0.4761 0.1038-1.154 0.1038zm-0.2747-6.085q-0.8057 0-1.288 0.5249-0.4761 0.5249-0.5615 1.453h3.497q0-0.9583-0.4272-1.465-0.4272-0.5127-1.221-0.5127z"/>
				<path d="m588.5 573.4h-1.013v-9.497h1.013v9.497z"/>
				<path d="m595.2 572.5h-0.0549q-0.7019 1.019-2.1 1.019-1.312 0-2.045-0.8972-0.7263-0.8972-0.7263-2.551t0.7324-2.57q0.7324-0.9155 2.039-0.9155 1.361 0 2.087 0.9888h0.0793l-0.0427-0.4822-0.0244-0.47v-2.722h1.013v9.497h-0.824l-0.1343-0.8972zm-2.026 0.1709q1.038 0 1.501-0.5615 0.47-0.5676 0.47-1.825v-0.2136q0-1.422-0.4761-2.026-0.47-0.6104-1.508-0.6104-0.8911 0-1.367 0.6958-0.47 0.6897-0.47 1.953 0 1.282 0.47 1.935 0.47 0.6531 1.379 0.6531z"/>
				<path d="m606.8 573.4v-4.352q0-0.7996-0.3418-1.196-0.3418-0.4028-1.062-0.4028-0.946 0-1.398 0.5432-0.4517 0.5432-0.4517 1.672v3.735h-1.013v-4.352q0-0.7996-0.3418-1.196-0.3418-0.4028-1.068-0.4028-0.9521 0-1.398 0.5737-0.4394 0.5676-0.4394 1.868v3.51h-1.013v-6.689h0.824l0.1648 0.9155h0.0488q0.2869-0.4883 0.8057-0.7629 0.5249-0.2747 1.172-0.2747 1.569 0 2.051 1.135h0.0488q0.2991-0.5249 0.8667-0.8301t1.294-0.3052q1.135 0 1.697 0.5859 0.5676 0.5798 0.5676 1.862v4.364h-1.013z"/>
				<path d="m614 573.4-0.2014-0.9522h-0.0488q-0.5005 0.6287-1.001 0.8545-0.4944 0.2197-1.239 0.2197-0.9949 0-1.562-0.5127-0.5615-0.5127-0.5615-1.459 0-2.026 3.241-2.124l1.135-0.0366v-0.415q0-0.7874-0.3418-1.16-0.3357-0.3784-1.08-0.3784-0.8362 0-1.892 0.5127l-0.3113-0.7752q0.4944-0.2686 1.08-0.4211 0.592-0.1526 1.184-0.1526 1.196 0 1.77 0.531 0.5798 0.531 0.5798 1.703v4.565h-0.7507zm-2.289-0.7141q0.946 0 1.483-0.5188 0.5432-0.5188 0.5432-1.453v-0.6042l-1.013 0.0427q-1.208 0.0427-1.746 0.3784-0.531 0.3296-0.531 1.031 0 0.5493 0.3296 0.8362 0.3357 0.2869 0.9338 0.2869z"/>
				<path d="m621.4 573.4v-4.327q0-0.8179-0.3723-1.221-0.3723-0.4028-1.166-0.4028-1.05 0-1.538 0.5676-0.4883 0.5676-0.4883 1.874v3.51h-1.013v-6.689h0.824l0.1648 0.9155h0.0488q0.3113-0.4944 0.8728-0.7629 0.5615-0.2747 1.251-0.2747 1.208 0 1.819 0.5859 0.6104 0.5798 0.6104 1.862v4.364h-1.013z"/>
				<path d="m628.9 571.6q0 0.9338-0.6958 1.44-0.6958 0.5066-1.953 0.5066-1.331 0-2.075-0.4211v-0.9399q0.4822 0.2441 1.032 0.3845 0.5554 0.1404 1.068 0.1404 0.7935 0 1.221-0.2502 0.4272-0.2564 0.4272-0.7752 0-0.3906-0.3418-0.6653-0.3357-0.2808-1.318-0.6592-0.9338-0.3479-1.331-0.6042-0.3906-0.2624-0.5859-0.592-0.1892-0.3296-0.1892-0.7874 0-0.8179 0.6653-1.288 0.6653-0.4761 1.825-0.4761 1.08 0 2.112 0.4394l-0.3601 0.824q-1.007-0.415-1.825-0.415-0.7202 0-1.086 0.2258-0.3662 0.2258-0.3662 0.6226 0 0.2686 0.1343 0.4578 0.1404 0.1892 0.4456 0.3601t1.172 0.4944q1.19 0.4334 1.605 0.8728 0.4211 0.4395 0.4211 1.105z"/>
			</g>
		</g>
		<g transform="matrix(1.432 0 0 1 -499.4 95.35)">
			<path d="m727.1 551h263.8v35.43h-263.8z" fill="url(#i)"/>
			<g transform="scale(.8360 1.196)" fill="#fff">
				<path d="m886.8 478.2-0.9287-2.373h-2.99l-0.9185 2.373h-0.8777l2.949-7.491h0.7297l2.934 7.491h-0.8981zm-1.199-3.153-0.8675-2.312q-0.1684-0.4388-0.347-1.077-0.1123 0.4899-0.3215 1.077l-0.8777 2.312h2.414z"/>
				<path d="m892.5 478.2v-3.618q0-0.6838-0.3113-1.021-0.3113-0.3368-0.9746-0.3368-0.8777 0-1.286 0.4746-0.4082 0.4746-0.4082 1.567v2.934h-0.847v-5.593h0.6889l0.1378 0.7654h0.0408q0.2602-0.4133 0.7297-0.6378 0.4694-0.2296 1.046-0.2296 1.01 0 1.521 0.4899 0.5103 0.4848 0.5103 1.556v3.648h-0.847z"/>
				<path d="m896.8 477.6q0.2245 0 0.4337-0.0306 0.2092-0.0357 0.3317-0.0714v0.648q-0.1378 0.0663-0.4082 0.1072-0.2653 0.0459-0.4796 0.0459-1.623 0-1.623-1.709v-3.327h-0.8011v-0.4082l0.8011-0.3521 0.3572-1.194h0.4899v1.296h1.623v0.6582h-1.623v3.291q0 0.5052 0.2398 0.7756t0.6582 0.2704z"/>
				<path d="m903.6 475.4q0 1.368-0.6889 2.138-0.6889 0.7654-1.903 0.7654-0.7501 0-1.332-0.3521-0.5817-0.3521-0.8981-1.01-0.3164-0.6582-0.3164-1.541 0-1.368 0.6838-2.128 0.6838-0.7654 1.898-0.7654 1.174 0 1.862 0.7807 0.694 0.7807 0.694 2.113zm-4.261 0q0 1.072 0.4286 1.633 0.4286 0.5613 1.26 0.5613 0.8318 0 1.26-0.5562 0.4337-0.5613 0.4337-1.638 0-1.066-0.4337-1.618-0.4286-0.5562-1.271-0.5562-0.8318 0-1.255 0.546-0.4235 0.546-0.4235 1.628z"/>
				<path d="m908.9 478.2v-3.618q0-0.6838-0.3113-1.021-0.3113-0.3368-0.9746-0.3368-0.8777 0-1.286 0.4746-0.4082 0.4746-0.4082 1.567v2.934h-0.8471v-5.593h0.6889l0.1378 0.7654h0.0408q0.2602-0.4133 0.7297-0.6378 0.4694-0.2296 1.046-0.2296 1.01 0 1.521 0.4899 0.5103 0.4848 0.5103 1.556v3.648h-0.847z"/>
				<path d="m912.3 478.2h-0.847v-5.593h0.847v5.593zm-0.9185-7.108q0-0.2909 0.1429-0.4235 0.1429-0.1378 0.3572-0.1378 0.2041 0 0.3521 0.1378t0.148 0.4235q0 0.2858-0.148 0.4286-0.148 0.1378-0.3521 0.1378-0.2143 0-0.3572-0.1378-0.1429-0.1429-0.1429-0.4286z"/>
				<path d="m918.9 475.4q0 1.368-0.6889 2.138-0.6889 0.7654-1.903 0.7654-0.7501 0-1.332-0.3521-0.5817-0.3521-0.8981-1.01-0.3164-0.6582-0.3164-1.541 0-1.368 0.6838-2.128 0.6838-0.7654 1.898-0.7654 1.174 0 1.862 0.7807 0.694 0.7807 0.694 2.113zm-4.261 0q0 1.072 0.4286 1.633 0.4286 0.5613 1.26 0.5613 0.8317 0 1.26-0.5562 0.4337-0.5613 0.4337-1.638 0-1.066-0.4337-1.618-0.4286-0.5562-1.271-0.5562-0.8317 0-1.255 0.546-0.4235 0.546-0.4235 1.628z"/>
				<path d="m924.1 475.1v3.102h-0.8675v-7.46h2.046q1.373 0 2.026 0.5256 0.6582 0.5256 0.6582 1.582 0 1.48-1.5 2l2.026 3.352h-1.026l-1.806-3.102h-1.556zm0-0.745h1.189q0.9185 0 1.347-0.3623 0.4286-0.3674 0.4286-1.097 0-0.7399-0.4388-1.066-0.4337-0.3266-1.398-0.3266h-1.128v2.852z"/>
				<path d="m932 478.3q-1.24 0-1.959-0.7552-0.7144-0.7552-0.7144-2.097 0-1.352 0.6634-2.148 0.6685-0.796 1.791-0.796 1.051 0 1.663 0.694 0.6123 0.6889 0.6123 1.822v0.5358h-3.853q0.0255 0.9848 0.495 1.495 0.4746 0.5103 1.332 0.5103 0.9032 0 1.786-0.3776v0.7552q-0.449 0.1939-0.8522 0.2756-0.398 0.0867-0.9644 0.0867zm-0.2296-5.087q-0.6736 0-1.077 0.4388-0.398 0.4388-0.4694 1.214h2.924q0-0.8011-0.3572-1.225-0.3572-0.4286-1.021-0.4286z"/>
				<path d="m939.3 477.4h-0.0459q-0.5868 0.8522-1.755 0.8522-1.097 0-1.709-0.7501-0.6072-0.7501-0.6072-2.133t0.6123-2.148q0.6123-0.7654 1.704-0.7654 1.138 0 1.745 0.8266h0.0663l-0.0357-0.4031-0.0204-0.3929v-2.276h0.8471v7.94h-0.6889l-0.1123-0.7501zm-1.694 0.1429q0.8675 0 1.255-0.4694 0.3929-0.4746 0.3929-1.526v-0.1786q0-1.189-0.398-1.694-0.3929-0.5103-1.26-0.5103-0.745 0-1.143 0.5817-0.3929 0.5766-0.3929 1.633 0 1.072 0.3929 1.618t1.153 0.546z"/>
				<path d="m946.7 475.4q0 1.368-0.6889 2.138-0.6889 0.7654-1.903 0.7654-0.7501 0-1.332-0.3521-0.5817-0.3521-0.8981-1.01-0.3164-0.6582-0.3164-1.541 0-1.368 0.6838-2.128 0.6838-0.7654 1.898-0.7654 1.174 0 1.862 0.7807 0.694 0.7807 0.694 2.113zm-4.261 0q0 1.072 0.4286 1.633 0.4286 0.5613 1.26 0.5613 0.8318 0 1.26-0.5562 0.4337-0.5613 0.4337-1.638 0-1.066-0.4337-1.618-0.4286-0.5562-1.271-0.5562-0.8318 0-1.255 0.546-0.4235 0.546-0.4235 1.628z"/>
				<path d="m952 478.2v-3.618q0-0.6838-0.3113-1.021-0.3113-0.3368-0.9746-0.3368-0.8777 0-1.286 0.4746-0.4082 0.4746-0.4082 1.567v2.934h-0.847v-5.593h0.6889l0.1378 0.7654h0.0408q0.2602-0.4133 0.7297-0.6378 0.4694-0.2296 1.046-0.2296 1.01 0 1.521 0.4899 0.5103 0.4848 0.5103 1.556v3.648h-0.8471z"/>
				<path d="m958.4 477.4h-0.0459q-0.5868 0.8522-1.755 0.8522-1.097 0-1.709-0.7501-0.6072-0.7501-0.6072-2.133t0.6123-2.148q0.6123-0.7654 1.704-0.7654 1.138 0 1.745 0.8266h0.0663l-0.0357-0.4031-0.0204-0.3929v-2.276h0.8471v7.94h-0.6889l-0.1123-0.7501zm-1.694 0.1429q0.8675 0 1.255-0.4694 0.3929-0.4746 0.3929-1.526v-0.1786q0-1.189-0.398-1.694-0.3929-0.5103-1.26-0.5103-0.745 0-1.143 0.5817-0.3929 0.5766-0.3929 1.633 0 1.072 0.3929 1.618t1.153 0.546z"/>
				<path d="m965.8 475.4q0 1.368-0.6889 2.138-0.6889 0.7654-1.903 0.7654-0.7501 0-1.332-0.3521-0.5817-0.3521-0.8981-1.01-0.3164-0.6582-0.3164-1.541 0-1.368 0.6838-2.128 0.6838-0.7654 1.898-0.7654 1.174 0 1.862 0.7807 0.694 0.7807 0.694 2.113zm-4.261 0q0 1.072 0.4286 1.633 0.4286 0.5613 1.26 0.5613 0.8317 0 1.26-0.5562 0.4337-0.5613 0.4337-1.638 0-1.066-0.4337-1.618-0.4286-0.5562-1.271-0.5562-0.8318 0-1.255 0.546-0.4235 0.546-0.4235 1.628z"/>
			</g>
		</g>
		<g transform="matrix(.9945 0 0 1 -336.8 95.35)">
			<path d="m256.4 551h128.3v35.43h-128.3z" fill="url(#g)"/>
			<g fill="#fff">
				<path d="m270.3 565.3q-1.471 0-2.325 0.9827-0.8484 0.9766-0.8484 2.679 0 1.752 0.8179 2.71 0.824 0.9522 2.344 0.9522 0.9338 0 2.13-0.3357v0.9094q-0.9277 0.3479-2.289 0.3479-1.971 0-3.046-1.196-1.068-1.196-1.068-3.4 0-1.379 0.5127-2.417 0.5188-1.038 1.489-1.599 0.9766-0.5615 2.295-0.5615 1.404 0 2.454 0.5127l-0.4394 0.8911q-1.013-0.4761-2.026-0.4761z"/>
				<path d="m278.8 573.4v-4.327q0-0.8179-0.3723-1.221-0.3723-0.4028-1.166-0.4028-1.056 0-1.544 0.5737-0.4822 0.5737-0.4822 1.88v3.497h-1.013v-9.497h1.013v2.875q0 0.5188-0.0488 0.8606h0.061q0.2991-0.4822 0.8484-0.7568 0.5554-0.2808 1.263-0.2808 1.227 0 1.837 0.5859 0.6165 0.5798 0.6165 1.849v4.364h-1.013z"/>
				<path d="m285 566.6q0.4456 0 0.7996 0.0732l-0.1404 0.9399q-0.415-0.0916-0.7324-0.0916-0.8118 0-1.392 0.6592-0.5737 0.6592-0.5737 1.642v3.589h-1.013v-6.689h0.8362l0.116 1.239h0.0488q0.3723-0.6531 0.8972-1.007 0.5249-0.354 1.154-0.354z"/>
				<path d="m288 573.4h-1.013v-6.689h1.013v6.689zm-1.099-8.502q0-0.3479 0.1709-0.5066 0.1709-0.1648 0.4272-0.1648 0.2441 0 0.4211 0.1648t0.177 0.5066-0.177 0.5127q-0.177 0.1648-0.4211 0.1648-0.2564 0-0.4272-0.1648-0.1709-0.1709-0.1709-0.5127z"/>
				<path d="m294.5 571.6q0 0.9338-0.6958 1.44-0.6958 0.5066-1.953 0.5066-1.331 0-2.075-0.4211v-0.9399q0.4822 0.2441 1.032 0.3845 0.5554 0.1404 1.068 0.1404 0.7935 0 1.221-0.2502 0.4272-0.2564 0.4272-0.7752 0-0.3906-0.3418-0.6653-0.3357-0.2808-1.318-0.6592-0.9338-0.3479-1.331-0.6042-0.3906-0.2624-0.5859-0.592-0.1892-0.3296-0.1892-0.7874 0-0.8179 0.6653-1.288 0.6653-0.4761 1.825-0.4761 1.08 0 2.112 0.4394l-0.3601 0.824q-1.007-0.415-1.825-0.415-0.7202 0-1.086 0.2258-0.3662 0.2258-0.3662 0.6226 0 0.2686 0.1343 0.4578 0.1404 0.1892 0.4456 0.3601t1.172 0.4944q1.19 0.4334 1.605 0.8728 0.4212 0.4395 0.4212 1.105z"/>
				<path d="m298.3 572.7q0.2686 0 0.5188-0.0366 0.2502-0.0427 0.3967-0.0855v0.7752q-0.1648 0.0793-0.4883 0.1282-0.3174 0.0549-0.5737 0.0549-1.941 0-1.941-2.045v-3.979h-0.9582v-0.4883l0.9582-0.4211 0.4272-1.428h0.5859v1.55h1.941v0.7874h-1.941v3.937q0 0.6042 0.2869 0.9277t0.7874 0.3235z"/>
				<path d="m301.6 573.4h-1.013v-6.689h1.013v6.689zm-1.099-8.502q0-0.3479 0.1709-0.5066 0.1709-0.1648 0.4272-0.1648 0.2441 0 0.4211 0.1648t0.177 0.5066-0.177 0.5127q-0.177 0.1648-0.4211 0.1648-0.2564 0-0.4272-0.1648-0.1709-0.1709-0.1709-0.5127z"/>
				<path d="m307.9 573.4-0.2014-0.9522h-0.0488q-0.5005 0.6287-1.001 0.8545-0.4944 0.2197-1.239 0.2197-0.9949 0-1.562-0.5127-0.5615-0.5127-0.5615-1.459 0-2.026 3.241-2.124l1.135-0.0366v-0.415q0-0.7874-0.3418-1.16-0.3357-0.3784-1.08-0.3784-0.8362 0-1.892 0.5127l-0.3113-0.7752q0.4944-0.2686 1.08-0.4211 0.592-0.1526 1.184-0.1526 1.196 0 1.77 0.531 0.5798 0.531 0.5798 1.703v4.565h-0.7507zm-2.289-0.7141q0.946 0 1.483-0.5188 0.5432-0.5188 0.5432-1.453v-0.6042l-1.013 0.0427q-1.208 0.0427-1.746 0.3784-0.531 0.3296-0.531 1.031 0 0.5493 0.3296 0.8362 0.3357 0.2869 0.9338 0.2869z"/>
				<path d="m315.3 573.4v-4.327q0-0.8179-0.3723-1.221-0.3723-0.4028-1.166-0.4028-1.05 0-1.538 0.5676-0.4883 0.5676-0.4883 1.874v3.51h-1.013v-6.689h0.824l0.1648 0.9155h0.0488q0.3113-0.4944 0.8728-0.7629 0.5615-0.2747 1.251-0.2747 1.208 0 1.819 0.5859 0.6104 0.5798 0.6104 1.862v4.364h-1.013z"/>
				<path d="m328.7 573.4h-1.184l-4.877-7.489h-0.0488q0.0977 1.318 0.0977 2.417v5.072h-0.9582v-8.923h1.172l4.864 7.458h0.0488q-0.0122-0.1648-0.0549-1.056-0.0427-0.8972-0.0305-1.282v-5.121h0.9705v8.923z"/>
				<path d="m332 573.4h-1.013v-6.689h1.013v6.689zm-1.099-8.502q0-0.3479 0.1709-0.5066 0.1709-0.1648 0.4272-0.1648 0.2441 0 0.4211 0.1648t0.177 0.5066-0.177 0.5127q-0.177 0.1648-0.4211 0.1648-0.2564 0-0.4272-0.1648-0.1709-0.1709-0.1709-0.5127z"/>
				<path d="m335.2 570q0.2624-0.3723 0.7996-0.9766l2.161-2.289h1.202l-2.71 2.85 2.899 3.839h-1.227l-2.362-3.162-0.7629 0.6592v2.502h-1.001v-9.497h1.001v5.035q0 0.3357-0.0488 1.038h0.0488z"/>
				<path d="m345.1 571.6q0 0.9338-0.6958 1.44-0.6958 0.5066-1.953 0.5066-1.331 0-2.075-0.4211v-0.9399q0.4822 0.2441 1.032 0.3845 0.5554 0.1404 1.068 0.1404 0.7935 0 1.221-0.2502 0.4272-0.2564 0.4272-0.7752 0-0.3906-0.3418-0.6653-0.3357-0.2808-1.318-0.6592-0.9338-0.3479-1.331-0.6042-0.3906-0.2624-0.5859-0.592-0.1892-0.3296-0.1892-0.7874 0-0.8179 0.6653-1.288 0.6653-0.4761 1.825-0.4761 1.08 0 2.112 0.4394l-0.3601 0.824q-1.007-0.415-1.825-0.415-0.7202 0-1.086 0.2258-0.3662 0.2258-0.3662 0.6226 0 0.2686 0.1343 0.4578 0.1404 0.1892 0.4456 0.3601t1.172 0.4944q1.19 0.4334 1.605 0.8728 0.4211 0.4395 0.4211 1.105z"/>
				<path d="m349.4 573.5q-1.453 0-2.252-0.8911-0.7935-0.8972-0.7935-2.533 0-1.678 0.8057-2.594 0.8118-0.9155 2.307-0.9155 0.4822 0 0.9644 0.1038t0.7568 0.2441l-0.3113 0.8606q-0.3357-0.1343-0.7324-0.2197-0.3967-0.0916-0.7019-0.0916-2.039 0-2.039 2.6 0 1.233 0.4944 1.892 0.5005 0.6592 1.477 0.6592 0.8362 0 1.715-0.3601v0.8972q-0.6714 0.3479-1.691 0.3479z"/>
				<path d="m357.3 573.4v-4.327q0-0.8179-0.3723-1.221-0.3723-0.4028-1.166-0.4028-1.056 0-1.544 0.5737-0.4822 0.5737-0.4822 1.88v3.497h-1.013v-9.497h1.013v2.875q0 0.5188-0.0488 0.8606h0.061q0.2991-0.4822 0.8484-0.7568 0.5554-0.2808 1.263-0.2808 1.227 0 1.837 0.5859 0.6164 0.5798 0.6164 1.849v4.364h-1.013z"/>
			</g>
		</g>
		<g transform="translate(-350.6 102.3)">
			<path d="m396.4 583h193.2v35.43h-193.2z" fill="url(#f)"/>
			<g fill="#fff">
				<path d="m412.1 605.4-1.111-2.838h-3.577l-1.099 2.838h-1.05l3.528-8.96h0.8728l3.51 8.96h-1.074zm-1.434-3.772-1.038-2.765q-0.2014-0.5249-0.415-1.288-0.1343 0.5859-0.3845 1.288l-1.05 2.765h2.887z"/>
				<path d="m415.3 605.4h-1.013v-9.497h1.013v9.497z"/>
				<path d="m426 605.4v-4.352q0-0.7996-0.3418-1.196-0.3418-0.4028-1.062-0.4028-0.946 0-1.398 0.5432-0.4517 0.5432-0.4517 1.672v3.735h-1.013v-4.352q0-0.7996-0.3418-1.196-0.3418-0.4028-1.068-0.4028-0.9522 0-1.398 0.5737-0.4395 0.5676-0.4395 1.868v3.51h-1.013v-6.689h0.824l0.1648 0.9155h0.0488q0.2869-0.4883 0.8057-0.7629 0.5249-0.2747 1.172-0.2747 1.569 0 2.051 1.135h0.0488q0.2991-0.5249 0.8667-0.8301t1.294-0.3052q1.135 0 1.697 0.5859 0.5676 0.5798 0.5676 1.862v4.364h-1.013z"/>
				<path d="m430 598.7v4.34q0 0.8179 0.3723 1.221 0.3723 0.4028 1.166 0.4028 1.05 0 1.532-0.5737 0.4883-0.5737 0.4883-1.874v-3.516h1.013v6.689h-0.8362l-0.1465-0.8972h-0.0549q-0.3113 0.4944-0.8667 0.7568-0.5493 0.2624-1.257 0.2624-1.221 0-1.831-0.5798-0.6042-0.5798-0.6042-1.855v-4.376h1.025z"/>
				<path d="m441.3 604.5h-0.0549q-0.7019 1.019-2.1 1.019-1.312 0-2.045-0.8972-0.7263-0.8972-0.7263-2.551t0.7324-2.57q0.7324-0.9155 2.039-0.9155 1.361 0 2.087 0.9888h0.0793l-0.0427-0.4822-0.0244-0.47v-2.722h1.013v9.497h-0.824l-0.1343-0.8972zm-2.026 0.1709q1.038 0 1.501-0.5615 0.47-0.5676 0.47-1.825v-0.2136q0-1.422-0.4761-2.026-0.47-0.6104-1.508-0.6104-0.8911 0-1.367 0.6958-0.47 0.6897-0.47 1.953 0 1.282 0.47 1.935 0.47 0.6531 1.379 0.6531z"/>
				<path d="m447.2 605.6q-1.483 0-2.344-0.9033-0.8545-0.9033-0.8545-2.509 0-1.617 0.7935-2.57 0.7996-0.9522 2.142-0.9522 1.257 0 1.99 0.8301 0.7324 0.824 0.7324 2.179v0.6409h-4.608q0.0305 1.178 0.592 1.788 0.5676 0.6104 1.593 0.6104 1.08 0 2.136-0.4517v0.9033q-0.5371 0.2319-1.019 0.3296-0.4761 0.1038-1.154 0.1038zm-0.2747-6.085q-0.8057 0-1.288 0.5249-0.4761 0.5249-0.5615 1.453h3.497q0-0.9582-0.4272-1.465-0.4272-0.5127-1.221-0.5127z"/>
				<path d="m456 605.4v-4.327q0-0.8179-0.3723-1.221-0.3723-0.4028-1.166-0.4028-1.05 0-1.538 0.5676-0.4883 0.5676-0.4883 1.874v3.51h-1.013v-6.689h0.824l0.1648 0.9155h0.0488q0.3113-0.4944 0.8728-0.7629 0.5615-0.2747 1.251-0.2747 1.208 0 1.819 0.5859 0.6104 0.5798 0.6104 1.862v4.364h-1.013z"/>
				<path d="m463.2 605.4-0.2014-0.9521h-0.0488q-0.5005 0.6287-1.001 0.8545-0.4944 0.2197-1.239 0.2197-0.9949 0-1.562-0.5127-0.5615-0.5127-0.5615-1.459 0-2.026 3.241-2.124l1.135-0.0366v-0.415q0-0.7874-0.3418-1.16-0.3357-0.3784-1.08-0.3784-0.8362 0-1.892 0.5127l-0.3113-0.7751q0.4944-0.2686 1.08-0.4211 0.592-0.1526 1.184-0.1526 1.196 0 1.77 0.531 0.5798 0.531 0.5798 1.703v4.565h-0.7507zm-2.289-0.7141q0.946 0 1.483-0.5188 0.5432-0.5188 0.5432-1.453v-0.6042l-1.013 0.0427q-1.208 0.0427-1.746 0.3784-0.531 0.3296-0.531 1.032 0 0.5493 0.3296 0.8362 0.3357 0.2869 0.9338 0.2869z"/>
				<path d="m473.4 600.8h3.033v4.34q-0.708 0.2258-1.44 0.3418-0.7324 0.116-1.697 0.116-2.026 0-3.156-1.202-1.129-1.208-1.129-3.381 0-1.392 0.5554-2.435 0.5615-1.05 1.611-1.599 1.05-0.5554 2.46-0.5554 1.428 0 2.661 0.5249l-0.4028 0.9155q-1.208-0.5127-2.325-0.5127-1.63 0-2.545 0.9705-0.9155 0.9705-0.9155 2.692 0 1.807 0.8789 2.74 0.885 0.9338 2.594 0.9338 0.9277 0 1.813-0.2136v-2.747h-1.996v-0.9277z"/>
				<path d="m482.5 605.4-0.2014-0.9521h-0.0488q-0.5005 0.6287-1.001 0.8545-0.4944 0.2197-1.239 0.2197-0.9949 0-1.562-0.5127-0.5615-0.5127-0.5615-1.459 0-2.026 3.241-2.124l1.135-0.0366v-0.415q0-0.7874-0.3418-1.16-0.3357-0.3784-1.08-0.3784-0.8362 0-1.892 0.5127l-0.3113-0.7751q0.4944-0.2686 1.08-0.4211 0.592-0.1526 1.184-0.1526 1.196 0 1.77 0.531 0.5798 0.531 0.5798 1.703v4.565h-0.7507zm-2.289-0.7141q0.946 0 1.483-0.5188 0.5432-0.5188 0.5432-1.453v-0.6042l-1.013 0.0427q-1.208 0.0427-1.746 0.3784-0.531 0.3296-0.531 1.032 0 0.5493 0.3296 0.8362 0.3357 0.2869 0.9338 0.2869z"/>
				<path d="m488.4 598.6q0.4456 0 0.7996 0.0732l-0.1404 0.9399q-0.415-0.0916-0.7324-0.0916-0.8118 0-1.392 0.6592-0.5737 0.6592-0.5737 1.642v3.589h-1.013v-6.689h0.8362l0.116 1.239h0.0488q0.3723-0.6531 0.8972-1.007 0.5249-0.354 1.154-0.354z"/>
				<path d="m493.1 605.6q-1.453 0-2.252-0.8911-0.7935-0.8972-0.7935-2.533 0-1.678 0.8057-2.594 0.8118-0.9155 2.307-0.9155 0.4822 0 0.9644 0.1038t0.7568 0.2441l-0.3113 0.8606q-0.3357-0.1343-0.7324-0.2197-0.3967-0.0916-0.7019-0.0916-2.039 0-2.039 2.6 0 1.233 0.4944 1.892 0.5005 0.6592 1.477 0.6592 0.8362 0 1.715-0.3601v0.8972q-0.6714 0.3479-1.691 0.3479z"/>
				<path d="m497.4 605.4h-1.013v-6.689h1.013v6.689zm-1.056-7.727q0.293-0.3784 0.6287-0.9155 0.3418-0.5371 0.5371-0.9338h1.233v0.1282q-0.2686 0.3967-0.7996 0.9766-0.531 0.5798-0.9216 0.8972h-0.6775v-0.1526z"/>
				<path d="m503.7 605.4-0.2014-0.9521h-0.0488q-0.5005 0.6287-1.001 0.8545-0.4944 0.2197-1.239 0.2197-0.9949 0-1.562-0.5127-0.5615-0.5127-0.5615-1.459 0-2.026 3.241-2.124l1.135-0.0366v-0.415q0-0.7874-0.3418-1.16-0.3357-0.3784-1.08-0.3784-0.8362 0-1.892 0.5127l-0.3113-0.7751q0.4944-0.2686 1.08-0.4211 0.592-0.1526 1.184-0.1526 1.196 0 1.77 0.531 0.5798 0.531 0.5798 1.703v4.565h-0.7507zm-2.289-0.7141q0.946 0 1.483-0.5188 0.5432-0.5188 0.5432-1.453v-0.6042l-1.013 0.0427q-1.208 0.0427-1.746 0.3784-0.531 0.3296-0.531 1.032 0 0.5493 0.3296 0.8362 0.3357 0.2869 0.9338 0.2869z"/>
			</g>
		</g>
		<g transform="translate(-230.2 102.5)">
			<path d="m660.5 583h224v35.43h-224z" fill="url(#e)"/>
			<g fill="#fff">
				<path d="m670.3 600.2v3.711h-1.038v-8.923h2.448q1.642 0 2.423 0.6287 0.7874 0.6287 0.7874 1.892 0 1.77-1.794 2.393l2.423 4.01h-1.227l-2.161-3.711h-1.862zm0-0.8911h1.422q1.099 0 1.611-0.4334 0.5127-0.4394 0.5127-1.312 0-0.885-0.5249-1.276-0.5188-0.3906-1.672-0.3906h-1.349v3.412z"/>
				<path d="m682.6 600.6q0 1.636-0.824 2.557-0.824 0.9155-2.277 0.9155-0.8972 0-1.593-0.4211t-1.074-1.208q-0.3784-0.7874-0.3784-1.843 0-1.636 0.8179-2.545 0.8179-0.9155 2.271-0.9155 1.404 0 2.228 0.9338 0.8301 0.9338 0.8301 2.527zm-5.096 0q0 1.282 0.5127 1.953 0.5127 0.6714 1.508 0.6714 0.9949 0 1.508-0.6653 0.5188-0.6714 0.5188-1.959 0-1.276-0.5188-1.935-0.5127-0.6653-1.52-0.6653-0.9949 0-1.501 0.6531-0.5066 0.6531-0.5066 1.947z"/>
				<path d="m688.7 602.1q0 0.9338-0.6958 1.44-0.6958 0.5066-1.953 0.5066-1.331 0-2.075-0.4211v-0.9399q0.4822 0.2441 1.032 0.3845 0.5554 0.1404 1.068 0.1404 0.7935 0 1.221-0.2502 0.4272-0.2564 0.4272-0.7752 0-0.3906-0.3418-0.6653-0.3357-0.2808-1.318-0.6592-0.9338-0.3479-1.331-0.6042-0.3906-0.2624-0.5859-0.592-0.1892-0.3296-0.1892-0.7874 0-0.8179 0.6653-1.288 0.6653-0.4761 1.825-0.4761 1.08 0 2.112 0.4394l-0.3601 0.824q-1.007-0.415-1.825-0.415-0.7202 0-1.086 0.2258-0.3662 0.2258-0.3662 0.6226 0 0.2686 0.1343 0.4578 0.1404 0.1892 0.4456 0.3601t1.172 0.4944q1.19 0.4334 1.605 0.8728 0.4211 0.4395 0.4211 1.105z"/>
				<path d="m694.5 604-0.2014-0.9522h-0.0488q-0.5005 0.6287-1.001 0.8545-0.4944 0.2197-1.239 0.2197-0.9949 0-1.562-0.5127-0.5615-0.5127-0.5615-1.459 0-2.026 3.241-2.124l1.135-0.0366v-0.415q0-0.7874-0.3418-1.16-0.3357-0.3784-1.08-0.3784-0.8362 0-1.892 0.5127l-0.3113-0.7751q0.4944-0.2686 1.08-0.4212 0.592-0.1526 1.184-0.1526 1.196 0 1.77 0.531 0.5798 0.531 0.5798 1.703v4.565h-0.7507zm-2.289-0.7141q0.946 0 1.483-0.5188 0.5432-0.5188 0.5432-1.453v-0.6042l-1.013 0.0427q-1.208 0.0427-1.746 0.3784-0.531 0.3296-0.531 1.031 0 0.5493 0.3296 0.8362 0.3357 0.2869 0.9338 0.2869z"/>
				<path d="m701.9 604v-4.327q0-0.8179-0.3723-1.221-0.3723-0.4028-1.166-0.4028-1.05 0-1.538 0.5676-0.4883 0.5676-0.4883 1.874v3.51h-1.013v-6.689h0.824l0.1648 0.9155h0.0488q0.3113-0.4944 0.8728-0.7629 0.5615-0.2747 1.251-0.2747 1.208 0 1.819 0.5859 0.6104 0.5798 0.6104 1.862v4.364h-1.013z"/>
				<path d="m709.6 604v-4.327q0-0.8179-0.3723-1.221-0.3723-0.4028-1.166-0.4028-1.05 0-1.538 0.5676-0.4883 0.5676-0.4883 1.874v3.51h-1.013v-6.689h0.824l0.1648 0.9155h0.0488q0.3113-0.4944 0.8728-0.7629 0.5615-0.2747 1.251-0.2747 1.208 0 1.819 0.5859 0.6104 0.5798 0.6104 1.862v4.364h-1.013z"/>
				<path d="m716.8 604-0.2014-0.9522h-0.0488q-0.5005 0.6287-1.001 0.8545-0.4944 0.2197-1.239 0.2197-0.9949 0-1.562-0.5127-0.5615-0.5127-0.5615-1.459 0-2.026 3.241-2.124l1.135-0.0366v-0.415q0-0.7874-0.3418-1.16-0.3357-0.3784-1.08-0.3784-0.8362 0-1.892 0.5127l-0.3113-0.7751q0.4944-0.2686 1.08-0.4212 0.592-0.1526 1.184-0.1526 1.196 0 1.77 0.531 0.5798 0.531 0.5798 1.703v4.565h-0.7507zm-2.289-0.7141q0.946 0 1.483-0.5188 0.5432-0.5188 0.5432-1.453v-0.6042l-1.013 0.0427q-1.208 0.0427-1.746 0.3784-0.531 0.3296-0.531 1.031 0 0.5493 0.3296 0.8362 0.3357 0.2869 0.9338 0.2869z"/>
				<path d="m729.8 604h-1.038v-4.199h-4.7v4.199h-1.038v-8.923h1.038v3.796h4.7v-3.796h1.038v8.923z"/>
				<path d="m733 597.3v4.34q0 0.8179 0.3723 1.221 0.3723 0.4028 1.166 0.4028 1.05 0 1.532-0.5737 0.4883-0.5737 0.4883-1.874v-3.516h1.013v6.689h-0.8362l-0.1465-0.8972h-0.0549q-0.3113 0.4944-0.8667 0.7568-0.5493 0.2624-1.257 0.2624-1.221 0-1.831-0.5798-0.6042-0.5798-0.6042-1.855v-4.376h1.025z"/>
				<path d="m741.9 603.2q0.2686 0 0.5188-0.0366 0.2502-0.0427 0.3967-0.0855v0.7752q-0.1648 0.0793-0.4883 0.1282-0.3174 0.0549-0.5737 0.0549-1.941 0-1.941-2.045v-3.979h-0.9582v-0.4883l0.9582-0.4211 0.4272-1.428h0.5859v1.55h1.941v0.7874h-1.941v3.937q0 0.6042 0.2869 0.9277t0.7874 0.3235z"/>
				<path d="m746.8 604.1q-1.453 0-2.252-0.8911-0.7935-0.8972-0.7935-2.533 0-1.678 0.8057-2.594 0.8118-0.9155 2.307-0.9155 0.4822 0 0.9644 0.1038t0.7568 0.2441l-0.3113 0.8606q-0.3357-0.1343-0.7324-0.2197-0.3967-0.0916-0.7019-0.0916-2.039 0-2.039 2.6 0 1.233 0.4944 1.892 0.5005 0.6592 1.477 0.6592 0.8362 0 1.715-0.3601v0.8972q-0.6714 0.3479-1.691 0.3479z"/>
				<path d="m754.7 604v-4.327q0-0.8179-0.3723-1.221-0.3723-0.4028-1.166-0.4028-1.056 0-1.544 0.5737-0.4822 0.5737-0.4822 1.88v3.497h-1.013v-9.497h1.013v2.875q0 0.5188-0.0488 0.8606h0.061q0.2991-0.4822 0.8484-0.7568 0.5554-0.2808 1.263-0.2808 1.227 0 1.837 0.5859 0.6164 0.5798 0.6164 1.849v4.364h-1.013z"/>
				<path d="m758.8 604h-1.013v-6.689h1.013v6.689zm-1.099-8.502q0-0.3479 0.1709-0.5066 0.1709-0.1648 0.4272-0.1648 0.2441 0 0.4211 0.1648t0.177 0.5066-0.177 0.5127q-0.177 0.1648-0.4211 0.1648-0.2564 0-0.4272-0.1648-0.1709-0.1709-0.1709-0.5127z"/>
				<path d="m765.5 604v-4.327q0-0.8179-0.3723-1.221-0.3723-0.4028-1.166-0.4028-1.05 0-1.538 0.5676-0.4883 0.5676-0.4883 1.874v3.51h-1.013v-6.689h0.824l0.1648 0.9155h0.0488q0.3113-0.4944 0.8728-0.7629 0.5615-0.2747 1.251-0.2747 1.208 0 1.819 0.5859 0.6104 0.5798 0.6104 1.862v4.364h-1.013z"/>
				<path d="m774.1 597.3v0.6409l-1.239 0.1465q0.1709 0.2136 0.3052 0.5615 0.1343 0.3418 0.1343 0.7751 0 0.9827-0.6714 1.569-0.6714 0.5859-1.843 0.5859-0.2991 0-0.5615-0.0488-0.647 0.3418-0.647 0.8606 0 0.2747 0.2258 0.4089 0.2258 0.1282 0.7752 0.1282h1.184q1.086 0 1.666 0.4578 0.5859 0.4578 0.5859 1.331 0 1.111-0.8911 1.691-0.8911 0.5859-2.6 0.5859-1.312 0-2.026-0.4883-0.708-0.4883-0.708-1.379 0-0.6104 0.3906-1.056t1.099-0.6042q-0.2564-0.116-0.4334-0.3601-0.1709-0.2441-0.1709-0.5676 0-0.3662 0.1953-0.6409t0.6165-0.531q-0.5188-0.2136-0.8484-0.7263-0.3235-0.5127-0.3235-1.172 0-1.099 0.6592-1.691 0.6592-0.5981 1.868-0.5981 0.5249 0 0.946 0.1221h2.313zm-5.334 7.812q0 0.5432 0.4578 0.824t1.312 0.2808q1.276 0 1.886-0.3845 0.6165-0.3784 0.6165-1.031 0-0.5432-0.3357-0.7568-0.3357-0.2075-1.263-0.2075h-1.215q-0.6897 0-1.074 0.3296-0.3845 0.3296-0.3845 0.946zm0.5493-5.67q0 0.7019 0.3967 1.062t1.105 0.3601q1.483 0 1.483-1.44 0-1.508-1.501-1.508-0.7141 0-1.099 0.3845-0.3845 0.3845-0.3845 1.141z"/>
				<path d="m779.8 602.1q0 0.9338-0.6958 1.44-0.6958 0.5066-1.953 0.5066-1.331 0-2.075-0.4211v-0.9399q0.4822 0.2441 1.031 0.3845 0.5554 0.1404 1.068 0.1404 0.7935 0 1.221-0.2502 0.4272-0.2564 0.4272-0.7752 0-0.3906-0.3418-0.6653-0.3357-0.2808-1.318-0.6592-0.9338-0.3479-1.331-0.6042-0.3906-0.2624-0.5859-0.592-0.1892-0.3296-0.1892-0.7874 0-0.8179 0.6653-1.288 0.6653-0.4761 1.825-0.4761 1.08 0 2.112 0.4394l-0.3601 0.824q-1.007-0.415-1.825-0.415-0.7202 0-1.086 0.2258-0.3662 0.2258-0.3662 0.6226 0 0.2686 0.1343 0.4578 0.1404 0.1892 0.4456 0.3601t1.172 0.4944q1.19 0.4334 1.605 0.8728 0.4211 0.4395 0.4211 1.105z"/>
			</g>
		</g>
		<g transform="translate(-162.2 102.5)">
			<path d="m816.4 583h265.7v35.43h-265.7z" fill="url(#d)"/>
			<g fill="#fff">
				<path d="m828.4 599.1h3.033v4.34q-0.708 0.2258-1.44 0.3418-0.7324 0.116-1.697 0.116-2.026 0-3.156-1.202-1.129-1.208-1.129-3.381 0-1.392 0.5554-2.435 0.5615-1.05 1.611-1.599 1.05-0.5554 2.46-0.5554 1.428 0 2.661 0.5249l-0.4028 0.9155q-1.208-0.5127-2.325-0.5127-1.63 0-2.545 0.9705-0.9155 0.9705-0.9155 2.692 0 1.807 0.8789 2.74 0.885 0.9338 2.594 0.9338 0.9277 0 1.813-0.2136v-2.747h-1.996v-0.9277z"/>
				<path d="m836.3 603.9q-1.483 0-2.344-0.9033-0.8545-0.9033-0.8545-2.509 0-1.617 0.7934-2.57 0.7996-0.9522 2.142-0.9522 1.257 0 1.99 0.8301 0.7324 0.824 0.7324 2.179v0.6409h-4.608q0.0305 1.178 0.592 1.788 0.5676 0.6104 1.593 0.6104 1.08 0 2.136-0.4517v0.9033q-0.5371 0.2319-1.019 0.3296-0.4761 0.1038-1.154 0.1038zm-0.2747-6.085q-0.8057 0-1.288 0.5249-0.4761 0.5249-0.5615 1.453h3.497q0-0.9582-0.4272-1.465-0.4272-0.5127-1.221-0.5127z"/>
				<path d="m846.2 600.4q0 1.636-0.824 2.557-0.824 0.9155-2.277 0.9155-0.8972 0-1.593-0.4211-0.6958-0.4212-1.074-1.208-0.3784-0.7874-0.3784-1.843 0-1.636 0.8179-2.545 0.8179-0.9155 2.271-0.9155 1.404 0 2.228 0.9338 0.8301 0.9338 0.8301 2.527zm-5.096 0q0 1.282 0.5127 1.953 0.5127 0.6714 1.508 0.6714 0.9949 0 1.508-0.6653 0.5188-0.6714 0.5188-1.959 0-1.276-0.5188-1.935-0.5127-0.6653-1.52-0.6653-0.9949 0-1.501 0.6531-0.5066 0.6531-0.5066 1.947z"/>
				<path d="m851.1 597q0.4456 0 0.7996 0.0732l-0.1404 0.9399q-0.415-0.0915-0.7324-0.0915-0.8118 0-1.392 0.6592-0.5737 0.6592-0.5737 1.642v3.589h-1.013v-6.689h0.8362l0.116 1.239h0.0488q0.3723-0.6531 0.8972-1.007 0.5249-0.354 1.154-0.354z"/>
				<path d="m858.6 597.1v0.6409l-1.239 0.1465q0.1709 0.2136 0.3052 0.5615 0.1343 0.3418 0.1343 0.7752 0 0.9827-0.6714 1.569-0.6714 0.5859-1.843 0.5859-0.2991 0-0.5615-0.0488-0.647 0.3418-0.647 0.8606 0 0.2747 0.2258 0.4089 0.2258 0.1282 0.7752 0.1282h1.184q1.086 0 1.666 0.4578 0.5859 0.4578 0.5859 1.331 0 1.111-0.8911 1.691-0.8911 0.5859-2.6 0.5859-1.312 0-2.026-0.4883-0.708-0.4883-0.708-1.379 0-0.6104 0.3906-1.056t1.099-0.6042q-0.2564-0.116-0.4334-0.3601-0.1709-0.2441-0.1709-0.5676 0-0.3662 0.1953-0.6409t0.6165-0.531q-0.5188-0.2136-0.8484-0.7263-0.3235-0.5127-0.3235-1.172 0-1.099 0.6592-1.691 0.6592-0.5982 1.868-0.5982 0.5249 0 0.946 0.1221h2.313zm-5.334 7.812q0 0.5432 0.4578 0.824t1.312 0.2808q1.276 0 1.886-0.3845 0.6164-0.3784 0.6164-1.031 0-0.5432-0.3357-0.7568-0.3357-0.2075-1.263-0.2075h-1.215q-0.6897 0-1.074 0.3296-0.3845 0.3296-0.3845 0.946zm0.5493-5.67q0 0.7019 0.3967 1.062t1.105 0.3601q1.483 0 1.483-1.44 0-1.508-1.501-1.508-0.7141 0-1.099 0.3845-0.3845 0.3845-0.3845 1.141z"/>
				<path d="m862.8 603.9q-1.483 0-2.344-0.9033-0.8545-0.9033-0.8545-2.509 0-1.617 0.7934-2.57 0.7996-0.9522 2.142-0.9522 1.257 0 1.99 0.8301 0.7324 0.824 0.7324 2.179v0.6409h-4.608q0.0305 1.178 0.592 1.788 0.5676 0.6104 1.593 0.6104 1.08 0 2.136-0.4517v0.9033q-0.5371 0.2319-1.019 0.3296-0.4761 0.1038-1.154 0.1038zm-0.2747-6.085q-0.8057 0-1.288 0.5249-0.4761 0.5249-0.5615 1.453h3.497q0-0.9582-0.4272-1.465-0.4272-0.5127-1.221-0.5127z"/>
				<path d="m876.8 603.8h-1.221l-3.253-4.327-0.9338 0.8301v3.497h-1.038v-8.923h1.038v4.425l4.047-4.425h1.227l-3.589 3.876 3.723 5.048z"/>
				<path d="m883.7 600.4q0 1.636-0.824 2.557-0.824 0.9155-2.277 0.9155-0.8972 0-1.593-0.4211-0.6958-0.4212-1.074-1.208-0.3784-0.7874-0.3784-1.843 0-1.636 0.8179-2.545 0.8179-0.9155 2.271-0.9155 1.404 0 2.228 0.9338 0.8301 0.9338 0.8301 2.527zm-5.096 0q0 1.282 0.5127 1.953 0.5127 0.6714 1.508 0.6714 0.9949 0 1.508-0.6653 0.5188-0.6714 0.5188-1.959 0-1.276-0.5188-1.935-0.5127-0.6653-1.52-0.6653-0.9949 0-1.501 0.6531-0.5066 0.6531-0.5066 1.947z"/>
				<path d="m890 603.8v-4.327q0-0.8179-0.3723-1.221-0.3723-0.4028-1.166-0.4028-1.05 0-1.538 0.5676-0.4883 0.5676-0.4883 1.874v3.51h-1.013v-6.689h0.824l0.1648 0.9155h0.0488q0.3113-0.4944 0.8728-0.7629 0.5615-0.2747 1.251-0.2747 1.208 0 1.819 0.5859 0.6104 0.5798 0.6104 1.862v4.364h-1.013z"/>
				<path d="m894.1 603.8h-1.013v-6.689h1.013v6.689zm-1.099-8.502q0-0.3479 0.1709-0.5066 0.1709-0.1648 0.4272-0.1648 0.2441 0 0.4211 0.1648t0.177 0.5066-0.177 0.5127q-0.177 0.1648-0.4211 0.1648-0.2564 0-0.4272-0.1648-0.1709-0.1709-0.1709-0.5127z"/>
				<path d="m902.1 600.4q0 1.636-0.824 2.557-0.824 0.9155-2.277 0.9155-0.8972 0-1.593-0.4211-0.6958-0.4212-1.074-1.208-0.3784-0.7874-0.3784-1.843 0-1.636 0.8179-2.545 0.8179-0.9155 2.271-0.9155 1.404 0 2.228 0.9338 0.8301 0.9338 0.8301 2.527zm-5.096 0q0 1.282 0.5127 1.953 0.5127 0.6714 1.508 0.6714 0.9949 0 1.508-0.6653 0.5188-0.6714 0.5188-1.959 0-1.276-0.5188-1.935-0.5127-0.6653-1.52-0.6653-0.9949 0-1.501 0.6531-0.5066 0.6531-0.5066 1.947z"/>
				<path d="m906 603.1q0.2686 0 0.5188-0.0366 0.2502-0.0427 0.3967-0.0855v0.7751q-0.1648 0.0793-0.4883 0.1282-0.3174 0.0549-0.5737 0.0549-1.941 0-1.941-2.045v-3.979h-0.9582v-0.4883l0.9582-0.4212 0.4272-1.428h0.5859v1.55h1.941v0.7874h-1.941v3.937q0 0.6042 0.2869 0.9277t0.7874 0.3235z"/>
				<path d="m909.3 603.8h-1.013v-6.689h1.013v6.689zm-1.099-8.502q0-0.3479 0.1709-0.5066 0.1709-0.1648 0.4272-0.1648 0.2441 0 0.4211 0.1648t0.177 0.5066-0.177 0.5127q-0.177 0.1648-0.4211 0.1648-0.2564 0-0.4272-0.1648-0.1709-0.1709-0.1709-0.5127z"/>
				<path d="m915.7 602q0 0.9338-0.6958 1.44-0.6958 0.5066-1.953 0.5066-1.331 0-2.075-0.4211v-0.94q0.4822 0.2441 1.031 0.3845 0.5554 0.1404 1.068 0.1404 0.7934 0 1.221-0.2502 0.4272-0.2564 0.4272-0.7751 0-0.3906-0.3418-0.6653-0.3357-0.2808-1.318-0.6592-0.9338-0.3479-1.331-0.6042-0.3906-0.2625-0.5859-0.592-0.1892-0.3296-0.1892-0.7874 0-0.8179 0.6653-1.288 0.6653-0.4761 1.825-0.4761 1.08 0 2.112 0.4395l-0.3601 0.824q-1.007-0.415-1.825-0.415-0.7202 0-1.086 0.2258-0.3662 0.2258-0.3662 0.6226 0 0.2686 0.1343 0.4578 0.1404 0.1892 0.4456 0.3601t1.172 0.4944q1.19 0.4334 1.605 0.8728 0.4212 0.4394 0.4212 1.105z"/>
			</g>
		</g>
		<g transform="translate(-181.3 102.3)">
			<path d="m420 583h191.2v35.43h-191.2z" fill="url(#c)"/>
			<g fill="#fff">
				<path d="m427.5 605.4v-8.923h1.038v8.923h-1.038z"/>
				<path d="m432.3 605.4-2.539-6.689h1.086l1.44 3.967q0.4883 1.392 0.5737 1.807h0.0488q0.0671-0.3235 0.4212-1.337 0.3601-1.019 1.605-4.437h1.086l-2.539 6.689h-1.184z"/>
				<path d="m441.3 605.4-0.2014-0.9522h-0.0488q-0.5005 0.6287-1.001 0.8545-0.4944 0.2197-1.239 0.2197-0.9949 0-1.562-0.5127-0.5615-0.5127-0.5615-1.459 0-2.026 3.241-2.124l1.135-0.0366v-0.415q0-0.7874-0.3418-1.16-0.3357-0.3784-1.08-0.3784-0.8362 0-1.892 0.5127l-0.3113-0.7752q0.4944-0.2686 1.08-0.4211 0.592-0.1526 1.184-0.1526 1.196 0 1.77 0.531 0.5798 0.531 0.5798 1.703v4.565h-0.7507zm-2.289-0.7141q0.946 0 1.483-0.5188 0.5432-0.5188 0.5432-1.453v-0.6042l-1.013 0.0427q-1.208 0.0427-1.746 0.3784-0.531 0.3296-0.531 1.031 0 0.5493 0.3296 0.8362 0.3357 0.2869 0.9338 0.2869z"/>
				<path d="m453.9 605.4h-1.221l-3.253-4.327-0.9338 0.8301v3.497h-1.038v-8.923h1.038v4.425l4.047-4.425h1.227l-3.589 3.876 3.723 5.048z"/>
				<path d="m460.8 602q0 1.636-0.824 2.557-0.824 0.9155-2.277 0.9155-0.8972 0-1.593-0.4211t-1.074-1.208q-0.3784-0.7874-0.3784-1.843 0-1.636 0.8179-2.545 0.8179-0.9155 2.271-0.9155 1.404 0 2.228 0.9338 0.8301 0.9338 0.8301 2.527zm-5.096 0q0 1.282 0.5127 1.953 0.5127 0.6714 1.508 0.6714 0.9949 0 1.508-0.6653 0.5188-0.6714 0.5188-1.959 0-1.276-0.5188-1.935-0.5127-0.6653-1.52-0.6653-0.9949 0-1.501 0.6531-0.5066 0.6531-0.5066 1.947z"/>
				<path d="m464 605.4-2.539-6.689h1.086l1.44 3.967q0.4883 1.392 0.5737 1.807h0.0488q0.0671-0.3235 0.4211-1.337 0.3601-1.019 1.605-4.437h1.086l-2.539 6.689h-1.184z"/>
				<path d="m472.9 605.4-0.2014-0.9522h-0.0488q-0.5005 0.6287-1.001 0.8545-0.4944 0.2197-1.239 0.2197-0.9949 0-1.562-0.5127-0.5615-0.5127-0.5615-1.459 0-2.026 3.241-2.124l1.135-0.0366v-0.415q0-0.7874-0.3418-1.16-0.3357-0.3784-1.08-0.3784-0.8362 0-1.892 0.5127l-0.3113-0.7752q0.4944-0.2686 1.08-0.4211 0.592-0.1526 1.184-0.1526 1.196 0 1.77 0.531 0.5798 0.531 0.5798 1.703v4.565h-0.7507zm-2.289-0.7141q0.946 0 1.483-0.5188 0.5432-0.5188 0.5432-1.453v-0.6042l-1.013 0.0427q-1.208 0.0427-1.746 0.3784-0.531 0.3296-0.531 1.031 0 0.5493 0.3296 0.8362 0.3357 0.2869 0.9338 0.2869z"/>
				<path d="m480.4 605.4v-4.327q0-0.8179-0.3723-1.221-0.3723-0.4028-1.166-0.4028-1.05 0-1.538 0.5676-0.4883 0.5676-0.4883 1.874v3.51h-1.013v-6.689h0.824l0.1648 0.9155h0.0488q0.3113-0.4944 0.8728-0.7629 0.5615-0.2747 1.251-0.2747 1.208 0 1.819 0.5859 0.6104 0.5798 0.6104 1.862v4.364h-1.013z"/>
				<path d="m488 604.5h-0.0549q-0.7019 1.019-2.1 1.019-1.312 0-2.045-0.8972-0.7263-0.8972-0.7263-2.551t0.7324-2.57q0.7324-0.9155 2.039-0.9155 1.361 0 2.087 0.9888h0.0794l-0.0427-0.4822-0.0244-0.47v-2.722h1.013v9.497h-0.824l-0.1343-0.8972zm-2.026 0.1709q1.038 0 1.501-0.5615 0.47-0.5676 0.47-1.825v-0.2136q0-1.422-0.4761-2.026-0.47-0.6104-1.508-0.6104-0.8911 0-1.367 0.6958-0.47 0.6897-0.47 1.953 0 1.282 0.47 1.935 0.47 0.6531 1.379 0.6531z"/>
				<path d="m496.9 602q0 1.636-0.824 2.557-0.824 0.9155-2.277 0.9155-0.8972 0-1.593-0.4211t-1.074-1.208q-0.3784-0.7874-0.3784-1.843 0-1.636 0.8179-2.545 0.8179-0.9155 2.271-0.9155 1.404 0 2.228 0.9338 0.8301 0.9338 0.8301 2.527zm-5.096 0q0 1.282 0.5127 1.953 0.5127 0.6714 1.508 0.6714 0.9949 0 1.508-0.6653 0.5188-0.6714 0.5188-1.959 0-1.276-0.5188-1.935-0.5127-0.6653-1.52-0.6653-0.9949 0-1.501 0.6531-0.5066 0.6531-0.5066 1.947z"/>
				<path d="m500.1 605.4-2.539-6.689h1.086l1.44 3.967q0.4883 1.392 0.5737 1.807h0.0488q0.0671-0.3235 0.4212-1.337 0.3601-1.019 1.605-4.437h1.086l-2.539 6.689h-1.184z"/>
				<path d="m509 605.4-0.2014-0.9522h-0.0488q-0.5005 0.6287-1.001 0.8545-0.4944 0.2197-1.239 0.2197-0.9949 0-1.562-0.5127-0.5615-0.5127-0.5615-1.459 0-2.026 3.241-2.124l1.135-0.0366v-0.415q0-0.7874-0.3418-1.16-0.3357-0.3784-1.08-0.3784-0.8362 0-1.892 0.5127l-0.3113-0.7752q0.4944-0.2686 1.08-0.4211 0.592-0.1526 1.184-0.1526 1.196 0 1.77 0.531 0.5798 0.531 0.5798 1.703v4.565h-0.7507zm-2.289-0.7141q0.946 0 1.483-0.5188 0.5432-0.5188 0.5432-1.453v-0.6042l-1.013 0.0427q-1.208 0.0427-1.746 0.3784-0.531 0.3296-0.531 1.031 0 0.5493 0.3296 0.8362 0.3357 0.2869 0.9338 0.2869z"/>
			</g>
		</g>
		<g transform="translate(-138.2 56.37)">
			<path d="m376.9 551h191v35.43h-191z" fill="url(#b)"/>
			<g fill="#fff">
				<path d="m388.6 565.3q-1.471 0-2.325 0.9827-0.8484 0.9766-0.8484 2.679 0 1.752 0.8179 2.71 0.824 0.9522 2.344 0.9522 0.9338 0 2.13-0.3357v0.9094q-0.9277 0.3479-2.289 0.3479-1.971 0-3.046-1.196-1.068-1.196-1.068-3.4 0-1.379 0.5127-2.417 0.5188-1.038 1.489-1.599 0.9766-0.5615 2.295-0.5615 1.404 0 2.454 0.5127l-0.4394 0.8911q-1.013-0.4761-2.026-0.4761z"/>
				<path d="m398.3 570q0 1.636-0.824 2.557-0.824 0.9155-2.277 0.9155-0.8972 0-1.593-0.4211t-1.074-1.208q-0.3784-0.7874-0.3784-1.843 0-1.636 0.8179-2.545 0.8179-0.9155 2.271-0.9155 1.404 0 2.228 0.9338 0.8301 0.9338 0.8301 2.527zm-5.096 0q0 1.282 0.5127 1.953 0.5127 0.6714 1.508 0.6714 0.9949 0 1.508-0.6653 0.5188-0.6714 0.5188-1.959 0-1.276-0.5188-1.935-0.5127-0.6653-1.52-0.6653-0.9949 0-1.501 0.6531-0.5066 0.6531-0.5066 1.947z"/>
				<path d="m404.7 573.4v-4.327q0-0.8179-0.3723-1.221-0.3723-0.4028-1.166-0.4028-1.05 0-1.538 0.5676-0.4883 0.5676-0.4883 1.874v3.51h-1.013v-6.689h0.824l0.1648 0.9155h0.0488q0.3113-0.4944 0.8728-0.7629 0.5615-0.2747 1.251-0.2747 1.208 0 1.819 0.5859 0.6104 0.5798 0.6104 1.862v4.364h-1.013z"/>
				<path d="m412.3 573.4v-4.327q0-0.8179-0.3723-1.221-0.3723-0.4028-1.166-0.4028-1.05 0-1.538 0.5676-0.4883 0.5676-0.4883 1.874v3.51h-1.013v-6.689h0.824l0.1648 0.9155h0.0488q0.3113-0.4944 0.8728-0.7629 0.5615-0.2747 1.251-0.2747 1.208 0 1.819 0.5859 0.6104 0.5798 0.6104 1.862v4.364h-1.013z"/>
				<path d="m421.2 570q0 1.636-0.824 2.557-0.824 0.9155-2.277 0.9155-0.8972 0-1.593-0.4211t-1.074-1.208q-0.3784-0.7874-0.3784-1.843 0-1.636 0.8179-2.545 0.8179-0.9155 2.271-0.9155 1.404 0 2.228 0.9338 0.8301 0.9338 0.8301 2.527zm-5.096 0q0 1.282 0.5127 1.953 0.5127 0.6714 1.508 0.6714 0.9949 0 1.508-0.6653 0.5188-0.6714 0.5188-1.959 0-1.276-0.5188-1.935-0.5127-0.6653-1.52-0.6653-0.9949 0-1.501 0.6531-0.5066 0.6531-0.5066 1.947z"/>
				<path d="m426 566.6q0.4456 0 0.7996 0.0732l-0.1404 0.9399q-0.415-0.0916-0.7324-0.0916-0.8118 0-1.392 0.6592-0.5737 0.6592-0.5737 1.642v3.589h-1.013v-6.689h0.8362l0.116 1.239h0.0488q0.3723-0.6531 0.8972-1.007 0.5249-0.354 1.154-0.354z"/>
				<path d="m432.5 569.7v3.711h-1.038v-8.923h2.448q1.642 0 2.423 0.6287 0.7874 0.6287 0.7874 1.892 0 1.77-1.794 2.393l2.423 4.01h-1.227l-2.161-3.711h-1.862zm0-0.8911h1.422q1.099 0 1.611-0.4334 0.5127-0.4394 0.5127-1.312 0-0.885-0.5249-1.276-0.5188-0.3906-1.672-0.3906h-1.349v3.412z"/>
				<path d="m440 566.7v4.34q0 0.8179 0.3723 1.221 0.3723 0.4028 1.166 0.4028 1.05 0 1.532-0.5737 0.4883-0.5737 0.4883-1.874v-3.516h1.013v6.689h-0.8362l-0.1465-0.8972h-0.0549q-0.3113 0.4944-0.8667 0.7568-0.5493 0.2624-1.257 0.2624-1.221 0-1.831-0.5798-0.6042-0.5798-0.6042-1.855v-4.376h1.025z"/>
				<path d="m451 571.6q0 0.9338-0.6958 1.44-0.6958 0.5066-1.953 0.5066-1.331 0-2.075-0.4211v-0.9399q0.4822 0.2441 1.031 0.3845 0.5554 0.1404 1.068 0.1404 0.7934 0 1.221-0.2502 0.4272-0.2564 0.4272-0.7752 0-0.3906-0.3418-0.6653-0.3357-0.2808-1.318-0.6592-0.9338-0.3479-1.331-0.6042-0.3906-0.2624-0.5859-0.592-0.1892-0.3296-0.1892-0.7874 0-0.8179 0.6653-1.288 0.6653-0.4761 1.825-0.4761 1.08 0 2.112 0.4394l-0.3601 0.824q-1.007-0.415-1.825-0.415-0.7202 0-1.086 0.2258-0.3662 0.2258-0.3662 0.6226 0 0.2686 0.1343 0.4578 0.1404 0.1892 0.4456 0.3601t1.172 0.4944q1.19 0.4334 1.605 0.8728 0.4211 0.4395 0.4211 1.105z"/>
				<path d="m457 571.6q0 0.9338-0.6958 1.44-0.6958 0.5066-1.953 0.5066-1.331 0-2.075-0.4211v-0.9399q0.4822 0.2441 1.031 0.3845 0.5554 0.1404 1.068 0.1404 0.7934 0 1.221-0.2502 0.4272-0.2564 0.4272-0.7752 0-0.3906-0.3418-0.6653-0.3357-0.2808-1.318-0.6592-0.9338-0.3479-1.331-0.6042-0.3906-0.2624-0.5859-0.592-0.1892-0.3296-0.1892-0.7874 0-0.8179 0.6653-1.288 0.6653-0.4761 1.825-0.4761 1.08 0 2.112 0.4394l-0.3601 0.824q-1.007-0.415-1.825-0.415-0.7202 0-1.086 0.2258-0.3662 0.2258-0.3662 0.6226 0 0.2686 0.1343 0.4578 0.1404 0.1892 0.4456 0.3601t1.172 0.4944q1.19 0.4334 1.605 0.8728 0.4211 0.4395 0.4211 1.105z"/>
				<path d="m461.5 573.5q-1.483 0-2.344-0.9033-0.8545-0.9033-0.8545-2.509 0-1.617 0.7935-2.57 0.7996-0.9522 2.142-0.9522 1.257 0 1.99 0.8301 0.7324 0.824 0.7324 2.179v0.6409h-4.608q0.0305 1.178 0.592 1.788 0.5676 0.6104 1.593 0.6104 1.08 0 2.136-0.4517v0.9033q-0.5371 0.2319-1.019 0.3296-0.4761 0.1038-1.154 0.1038zm-0.2747-6.085q-0.8057 0-1.288 0.5249-0.4761 0.5249-0.5615 1.453h3.497q0-0.9583-0.4272-1.465-0.4272-0.5127-1.221-0.5127z"/>
				<path d="m466.7 573.4h-1.013v-9.497h1.013v9.497z"/>
				<path d="m469.8 573.4h-1.013v-9.497h1.013v9.497z"/>
			</g>
		</g>
		<g transform="matrix(1.045 0 0 1 84.15 85.97)">
			<path d="m668.4 521.4h131.3v35.43h-131.3z" fill="url(#j)"/>
			<g fill="#fff">
				<path d="m685.3 537.8q0 2.209-1.202 3.381-1.196 1.166-3.448 1.166h-2.472v-8.923h2.734q2.081 0 3.235 1.154t1.154 3.223zm-1.099 0.0366q0-1.746-0.8789-2.631-0.8728-0.885-2.6-0.885h-1.508v7.129h1.263q1.855 0 2.789-0.9094 0.9338-0.9155 0.9338-2.704z"/>
				<path d="m692.9 539q0 1.636-0.824 2.557-0.824 0.9155-2.277 0.9155-0.8972 0-1.593-0.4211t-1.074-1.208q-0.3784-0.7874-0.3784-1.843 0-1.636 0.8179-2.545 0.8179-0.9155 2.271-0.9155 1.404 0 2.228 0.9338 0.8301 0.9338 0.8301 2.527zm-5.096 0q0 1.282 0.5127 1.953 0.5127 0.6714 1.508 0.6714 0.9949 0 1.508-0.6653 0.5188-0.6714 0.5188-1.959 0-1.276-0.5188-1.935-0.5127-0.6653-1.52-0.6653-0.9949 0-1.501 0.6531-0.5066 0.6531-0.5066 1.947z"/>
				<path d="m703.2 542.4v-4.352q0-0.7996-0.3418-1.196-0.3418-0.4028-1.062-0.4028-0.946 0-1.398 0.5432-0.4517 0.5432-0.4517 1.672v3.735h-1.013v-4.352q0-0.7996-0.3418-1.196-0.3418-0.4028-1.068-0.4028-0.9522 0-1.398 0.5737-0.4395 0.5676-0.4395 1.868v3.51h-1.013v-6.689h0.824l0.1648 0.9155h0.0488q0.2869-0.4883 0.8057-0.7629 0.5249-0.2746 1.172-0.2746 1.569 0 2.051 1.135h0.0488q0.2991-0.5249 0.8667-0.8301t1.294-0.3052q1.135 0 1.697 0.5859 0.5676 0.5798 0.5676 1.862v4.364h-1.013z"/>
				<path d="m707.3 542.4h-1.013v-6.689h1.013v6.689zm-1.099-8.502q0-0.3479 0.1709-0.5066 0.1709-0.1648 0.4272-0.1648 0.2441 0 0.4211 0.1648t0.177 0.5066-0.177 0.5127q-0.177 0.1648-0.4211 0.1648-0.2564 0-0.4272-0.1648-0.1709-0.1709-0.1709-0.5127z"/>
				<path d="m714 542.4v-4.327q0-0.8179-0.3723-1.221-0.3723-0.4028-1.166-0.4028-1.05 0-1.538 0.5676-0.4883 0.5676-0.4883 1.874v3.51h-1.013v-6.689h0.824l0.1648 0.9155h0.0488q0.3113-0.4944 0.8728-0.7629 0.5615-0.2746 1.251-0.2746 1.208 0 1.819 0.5859 0.6104 0.5798 0.6104 1.862v4.364h-1.013z"/>
				<path d="m718.1 542.4h-1.013v-6.689h1.013v6.689zm-1.099-8.502q0-0.3479 0.1709-0.5066 0.1709-0.1648 0.4272-0.1648 0.2441 0 0.4212 0.1648 0.177 0.1648 0.177 0.5066t-0.177 0.5127q-0.177 0.1648-0.4212 0.1648-0.2563 0-0.4272-0.1648-0.1709-0.1709-0.1709-0.5127z"/>
				<path d="m721.3 538.9q0.2624-0.3723 0.7996-0.9766l2.161-2.289h1.202l-2.71 2.85 2.899 3.839h-1.227l-2.362-3.162-0.7629 0.6592v2.502h-1.001v-9.497h1.001v5.035q0 0.3357-0.0488 1.038h0.0488z"/>
				<path d="m735.3 540q0 1.178-0.8545 1.837-0.8545 0.6592-2.319 0.6592-1.587 0-2.441-0.4089v-1.001q0.5493 0.2319 1.196 0.3662 0.647 0.1343 1.282 0.1343 1.038 0 1.562-0.3906 0.5249-0.3967 0.5249-1.099 0-0.4639-0.1892-0.7568-0.1831-0.2991-0.6226-0.5493-0.4334-0.2502-1.324-0.5676-1.245-0.4456-1.782-1.056-0.531-0.6104-0.531-1.593 0-1.031 0.7752-1.642 0.7751-0.6104 2.051-0.6104 1.331 0 2.448 0.4883l-0.3235 0.9033q-1.105-0.4639-2.148-0.4639-0.824 0-1.288 0.354-0.4639 0.354-0.4639 0.9827 0 0.4639 0.1709 0.7629 0.1709 0.293 0.5737 0.5432 0.4089 0.2441 1.245 0.5432 1.404 0.5005 1.929 1.074 0.531 0.5737 0.531 1.489z"/>
				<path d="m739.1 541.6q0.2686 0 0.5188-0.0366 0.2502-0.0427 0.3967-0.0855v0.7752q-0.1648 0.0793-0.4883 0.1282-0.3174 0.0549-0.5737 0.0549-1.941 0-1.941-2.045v-3.979h-0.9582v-0.4883l0.9582-0.4211 0.4272-1.428h0.5859v1.55h1.941v0.7874h-1.941v3.937q0 0.6042 0.2869 0.9277t0.7874 0.3235z"/>
				<path d="m744.2 542.5q-1.483 0-2.344-0.9033-0.8545-0.9033-0.8545-2.509 0-1.617 0.7935-2.57 0.7996-0.9522 2.142-0.9522 1.257 0 1.99 0.8301 0.7324 0.824 0.7324 2.179v0.6409h-4.608q0.0305 1.178 0.592 1.788 0.5676 0.6104 1.593 0.6104 1.08 0 2.136-0.4517v0.9033q-0.5371 0.2319-1.019 0.3296-0.4761 0.1038-1.154 0.1038zm-0.2746-6.085q-0.8057 0-1.288 0.5249-0.4761 0.5249-0.5615 1.453h3.497q0-0.9582-0.4272-1.465-0.4272-0.5127-1.221-0.5127z"/>
				<path d="m753 542.4v-4.327q0-0.8179-0.3723-1.221-0.3723-0.4028-1.166-0.4028-1.05 0-1.538 0.5676-0.4883 0.5676-0.4883 1.874v3.51h-1.013v-6.689h0.824l0.1648 0.9155h0.0488q0.3113-0.4944 0.8728-0.7629 0.5615-0.2746 1.251-0.2746 1.208 0 1.819 0.5859 0.6104 0.5798 0.6104 1.862v4.364h-1.013z"/>
				<path d="m761.5 535.7v0.6409l-1.239 0.1465q0.1709 0.2136 0.3052 0.5615 0.1343 0.3418 0.1343 0.7752 0 0.9827-0.6714 1.569-0.6714 0.5859-1.843 0.5859-0.2991 0-0.5615-0.0488-0.647 0.3418-0.647 0.8606 0 0.2747 0.2258 0.4089 0.2258 0.1282 0.7751 0.1282h1.184q1.086 0 1.666 0.4578 0.5859 0.4578 0.5859 1.331 0 1.111-0.8911 1.691-0.8911 0.5859-2.6 0.5859-1.312 0-2.026-0.4883-0.708-0.4883-0.708-1.379 0-0.6104 0.3906-1.056t1.099-0.6042q-0.2563-0.116-0.4334-0.3601-0.1709-0.2441-0.1709-0.5676 0-0.3662 0.1953-0.6409 0.1953-0.2746 0.6164-0.531-0.5188-0.2136-0.8484-0.7263-0.3235-0.5127-0.3235-1.172 0-1.099 0.6592-1.691 0.6592-0.5981 1.868-0.5981 0.5249 0 0.946 0.1221h2.313zm-5.334 7.812q0 0.5432 0.4578 0.824t1.312 0.2808q1.276 0 1.886-0.3845 0.6165-0.3784 0.6165-1.031 0-0.5432-0.3357-0.7568-0.3357-0.2075-1.263-0.2075h-1.215q-0.6897 0-1.074 0.3296-0.3845 0.3296-0.3845 0.946zm0.5493-5.67q0 0.7019 0.3967 1.062t1.105 0.3601q1.483 0 1.483-1.44 0-1.508-1.501-1.508-0.7141 0-1.099 0.3845-0.3845 0.3845-0.3845 1.141z"/>
				<path d="m765.7 542.5q-1.483 0-2.344-0.9033-0.8545-0.9033-0.8545-2.509 0-1.617 0.7935-2.57 0.7996-0.9522 2.142-0.9522 1.257 0 1.99 0.8301 0.7324 0.824 0.7324 2.179v0.6409h-4.608q0.0305 1.178 0.592 1.788 0.5676 0.6104 1.593 0.6104 1.08 0 2.136-0.4517v0.9033q-0.5371 0.2319-1.019 0.3296-0.4761 0.1038-1.154 0.1038zm-0.2747-6.085q-0.8057 0-1.288 0.5249-0.4761 0.5249-0.5615 1.453h3.497q0-0.9582-0.4272-1.465-0.4272-0.5127-1.221-0.5127z"/>
				<path d="m770.9 542.4h-1.013v-9.497h1.013v9.497z"/>
				<path d="m775.9 542.5q-1.483 0-2.344-0.9033-0.8545-0.9033-0.8545-2.509 0-1.617 0.7935-2.57 0.7996-0.9522 2.142-0.9522 1.257 0 1.99 0.8301 0.7324 0.824 0.7324 2.179v0.6409h-4.608q0.0305 1.178 0.592 1.788 0.5676 0.6104 1.593 0.6104 1.08 0 2.136-0.4517v0.9033q-0.5371 0.2319-1.019 0.3296-0.4761 0.1038-1.154 0.1038zm-0.2747-6.085q-0.8057 0-1.288 0.5249-0.4761 0.5249-0.5615 1.453h3.497q0-0.9582-0.4272-1.465-0.4272-0.5127-1.221-0.5127z"/>
			</g>
		</g>
	</g>
</svg>
