<svg width="779.72mm" height="49.064mm" version="1.1" viewBox="0 0 2762.8 173.85" xmlns="http://www.w3.org/2000/svg" xmlns:xlink="http://www.w3.org/1999/xlink"><defs><linearGradient id="a"><stop stop-color="#1468b3" offset="0"/><stop stop-color="#204379" offset="1"/></linearGradient><linearGradient id="u" x1="256.43" x2="362.73" y1="542.25" y2="542.25" gradientTransform="matrix(1.2019 0 0 1.25 -692.4 -139.23)" gradientUnits="userSpaceOnUse" xlink:href="#a"/><linearGradient id="t" x1="256.43" x2="362.73" y1="542.25" y2="542.25" gradientTransform="matrix(1.8119 0 0 1.25 -1041.2 -139.11)" gradientUnits="userSpaceOnUse" xlink:href="#a"/><linearGradient id="s" x1="256.43" x2="362.73" y1="542.25" y2="542.25" gradientTransform="matrix(3.1768 0 0 1.25 -1820.7 -139.11)" gradientUnits="userSpaceOnUse" xlink:href="#a"/><linearGradient id="r" x1="256.43" x2="362.73" y1="542.25" y2="542.25" gradientTransform="matrix(1.2 0 0 1.25 -691.7 -77.106)" gradientUnits="userSpaceOnUse" xlink:href="#a"/><linearGradient id="q" x1="256.43" x2="362.73" y1="542.25" y2="542.25" gradientTransform="matrix(1.8125 0 0 1.25 -1041.4 -109.11)" gradientUnits="userSpaceOnUse" xlink:href="#a"/><linearGradient id="o" x1="256.43" x2="362.73" y1="542.25" y2="542.25" gradientTransform="matrix(2.8757 0 0 1.25 -1770.3 -109.11)" gradientUnits="userSpaceOnUse" xlink:href="#a"/><linearGradient id="n" x1="256.43" x2="362.73" y1="542.25" y2="542.25" gradientTransform="matrix(2.8531 0 0 1.25 -1547.7 -109.11)" gradientUnits="userSpaceOnUse" xlink:href="#a"/><linearGradient id="m" x1="256.43" x2="362.73" y1="542.25" y2="542.25" gradientTransform="matrix(1.2067 0 0 1.25 -694.13 -109.11)" gradientUnits="userSpaceOnUse" xlink:href="#a"/><linearGradient id="l" x1="256.43" x2="362.73" y1="542.25" y2="542.25" gradientTransform="matrix(1.8173 0 0 1.25 -1055.6 -77.106)" gradientUnits="userSpaceOnUse" xlink:href="#a"/><linearGradient id="k" x1="256.43" x2="362.73" y1="542.25" y2="542.25" gradientTransform="matrix(2.1072 0 0 1.25 -1424.9 -77.106)" gradientUnits="userSpaceOnUse" xlink:href="#a"/><linearGradient id="j" x1="256.43" x2="362.73" y1="542.25" y2="542.25" gradientTransform="matrix(2.5208 0 0 1.25 -1732.5 -77.106)" gradientUnits="userSpaceOnUse" xlink:href="#a"/><linearGradient id="i" x1="256.43" x2="362.73" y1="542.25" y2="542.25" gradientTransform="matrix(1.7982 0 0 1.25 -1072.2 -77.106)" gradientUnits="userSpaceOnUse" xlink:href="#a"/><linearGradient id="h" x1="256.43" x2="362.73" y1="542.25" y2="542.25" gradientTransform="matrix(1.7967 0 0 1.25 -1028.6 -109.11)" gradientUnits="userSpaceOnUse" xlink:href="#a"/><linearGradient id="p" x1="256.43" x2="362.73" y1="542.25" y2="542.25" gradientTransform="matrix(2.1634 0 0 1.25 -1456.3 -138.7)" gradientUnits="userSpaceOnUse" xlink:href="#a"/><linearGradient id="ad" x1="256.43" x2="362.73" y1="542.25" y2="542.25" gradientTransform="matrix(1.0201 0 0 1.25 -1038.4 -138.7)" gradientUnits="userSpaceOnUse" xlink:href="#a"/><linearGradient id="aa" x1="256.43" x2="362.73" y1="542.25" y2="542.25" gradientTransform="matrix(4.6314 0 0 1.25 -2408.7 -109.11)" gradientUnits="userSpaceOnUse" xlink:href="#a"/><linearGradient id="z" x1="256.43" x2="362.73" y1="542.25" y2="542.25" gradientTransform="matrix(2.4496 0 0 1.25 -1575.1 -138.7)" gradientUnits="userSpaceOnUse" xlink:href="#a"/><linearGradient id="y" x1="256.43" x2="362.73" y1="542.25" y2="542.25" gradientTransform="matrix(1.3156 0 0 1.25 -1206.2 -109.11)" gradientUnits="userSpaceOnUse" xlink:href="#a"/><linearGradient id="x" x1="256.43" x2="362.73" y1="542.25" y2="542.25" gradientTransform="matrix(2.4499 0 0 1.25 -1575 -138.7)" gradientUnits="userSpaceOnUse" xlink:href="#a"/><linearGradient id="v" x1="256.43" x2="362.73" y1="542.25" y2="542.25" gradientTransform="matrix(3.6132 0 0 1.25 -713.7 317.51)" gradientUnits="userSpaceOnUse" xlink:href="#a"/><linearGradient id="g" x1="256.43" x2="362.73" y1="542.25" y2="542.25" gradientTransform="matrix(3.6133 0 0 1.25 -713.71 239.22)" gradientUnits="userSpaceOnUse" xlink:href="#a"/><linearGradient id="ab" x1="256.43" x2="362.73" y1="542.25" y2="542.25" gradientTransform="matrix(.72098 0 0 1.25 -929.95 -138.91)" gradientUnits="userSpaceOnUse" xlink:href="#a"/><linearGradient id="ac" x1="256.43" x2="362.73" y1="542.25" y2="542.25" gradientTransform="matrix(1.6173 0 0 1.25 -1255.1 -138.7)" gradientUnits="userSpaceOnUse" xlink:href="#a"/><linearGradient id="af" x1="256.43" x2="362.73" y1="542.25" y2="542.25" gradientTransform="matrix(.72098 0 0 1.25 -929.95 -177.71)" gradientUnits="userSpaceOnUse" xlink:href="#a"/><linearGradient id="w" x1="256.43" x2="362.73" y1="542.25" y2="542.25" gradientTransform="matrix(2.7333 0 0 1.25 -1676.2 -138.7)" gradientUnits="userSpaceOnUse" xlink:href="#a"/><linearGradient id="f" x1="-852.8" x2="-738.7" y1="429.84" y2="430.51" gradientTransform="matrix(1.4206 0 0 .09059 1855.6 939.33)" gradientUnits="userSpaceOnUse" xlink:href="#a"/><linearGradient id="e" x1="-942.37" x2="-672.41" y1="535.29" y2="535.29" gradientTransform="matrix(1.0239 0 0 .84467 18.836 86.62)" gradientUnits="userSpaceOnUse" xlink:href="#a"/><linearGradient id="d" x1="-942.37" x2="-672.41" y1="535.29" y2="535.29" gradientTransform="matrix(1.0169 0 0 .84467 14.135 87.019)" gradientUnits="userSpaceOnUse" xlink:href="#a"/><linearGradient id="c" x1="-942.37" x2="-672.41" y1="535.29" y2="535.29" gradientTransform="matrix(.55396 0 0 .83634 -355.37 120.76)" gradientUnits="userSpaceOnUse" xlink:href="#a"/><linearGradient id="ae" x1="256.43" x2="362.73" y1="542.25" y2="542.25" gradientTransform="matrix(1.8737 0 0 1.25 -1366 -138.7)" gradientUnits="userSpaceOnUse" xlink:href="#a"/><linearGradient id="b" x1="256.43" x2="362.73" y1="542.25" y2="542.25" gradientTransform="matrix(2.1064 0 0 1.25 -167.12 317.51)" gradientUnits="userSpaceOnUse" xlink:href="#a"/></defs><g transform="translate(80.314 -899.31)"><g transform="translate(226.63 364.61)" fill="#f9f9f9"><rect transform="translate(-226.63 -364.61)" x="371.06" y="899.48" width="1.7717" height="173.62"/><rect transform="translate(-226.63 -364.61)" x="195.06" y="899.48" width="1.7717" height="152.36" opacity=".252"/><rect x="-47.571" y="534.87" width="1.7717" height="173.62"/><rect x="-47.524" y="534.87" width="1.7717" height="173.62"/><rect x="-223.52" y="534.87" width="1.7717" height="152.36" opacity=".252"/><rect x="-207.52" y="534.87" width="1.7717" height="152.36" opacity=".252"/><rect x="-191.52" y="534.87" width="1.7717" height="152.36" opacity=".252"/><rect x="-175.52" y="534.87" width="1.7717" height="152.36" opacity=".252"/><rect x="-159.52" y="534.87" width="1.7717" height="152.36" opacity=".252"/><rect x="-143.52" y="534.87" width="1.7717" height="152.36" opacity=".252"/><rect x="-127.52" y="534.87" width="1.7717" height="152.36" opacity=".252"/><rect x="-111.52" y="534.87" width="1.7717" height="152.36" opacity=".252"/><rect x="-95.524" y="534.87" width="1.7717" height="152.36" opacity=".252"/><rect x="-79.524" y="534.87" width="1.7717" height="152.36" opacity=".252"/><rect x="-63.524" y="534.87" width="1.7717" height="152.36" opacity=".252"/><rect transform="translate(-226.63 -364.61)" x="211.06" y="899.48" width="1.7717" height="152.36" opacity=".252"/><rect transform="translate(-226.63 -364.61)" x="227.06" y="899.48" width="1.7717" height="152.36" opacity=".252"/><rect transform="translate(-226.63 -364.61)" x="243.06" y="899.48" width="1.7717" height="152.36" opacity=".252"/><rect transform="translate(-226.63 -364.61)" x="259.06" y="899.48" width="1.7717" height="152.36" opacity=".252"/><rect transform="translate(-226.63 -364.61)" x="275.06" y="899.48" width="1.7717" height="152.36" opacity=".252"/><rect transform="translate(-226.63 -364.61)" x="291.06" y="899.48" width="1.7717" height="152.36" opacity=".252"/><rect transform="translate(-226.63 -364.61)" x="307.06" y="899.48" width="1.7717" height="152.36" opacity=".252"/><rect transform="translate(-226.63 -364.61)" x="323.06" y="899.48" width="1.7717" height="152.36" opacity=".252"/><rect transform="translate(-226.63 -364.61)" x="339.06" y="899.48" width="1.7717" height="152.36" opacity=".252"/><rect transform="translate(-226.63 -364.61)" x="355.06" y="899.48" width="1.7717" height="152.36" opacity=".252"/><rect x="160.45" y="534.87" width="1.7717" height="152.36" opacity=".252"/><rect x="336.45" y="534.87" width="1.7717" height="173.62"/><rect x="528.45" y="534.87" width="1.7717" height="173.62"/><rect x="720.45" y="534.87" width="1.7717" height="173.62"/><rect x="912.45" y="534.87" width="1.7717" height="173.62"/><rect x="176.45" y="534.87" width="1.7717" height="152.36" opacity=".252"/><rect x="192.45" y="534.87" width="1.7717" height="152.36" opacity=".252"/><rect x="208.45" y="534.87" width="1.7717" height="152.36" opacity=".252"/><rect x="224.45" y="534.87" width="1.7717" height="152.36" opacity=".252"/><rect x="240.45" y="534.87" width="1.7717" height="152.36" opacity=".252"/><rect x="256.45" y="534.87" width="1.7717" height="152.36" opacity=".252"/><rect x="272.45" y="534.87" width="1.7717" height="152.36" opacity=".252"/><rect x="288.45" y="534.87" width="1.7717" height="152.36" opacity=".252"/><rect x="304.45" y="534.87" width="1.7717" height="152.36" opacity=".252"/><rect x="320.45" y="534.87" width="1.7717" height="152.36" opacity=".252"/><rect x="352.45" y="534.87" width="1.7717" height="152.36" opacity=".252"/><rect x="368.45" y="534.87" width="1.7717" height="152.36" opacity=".252"/><rect x="384.45" y="534.87" width="1.7717" height="152.36" opacity=".252"/><rect x="400.45" y="534.87" width="1.7717" height="152.36" opacity=".252"/><rect x="416.45" y="534.87" width="1.7717" height="152.36" opacity=".252"/><rect x="432.45" y="534.87" width="1.7717" height="152.36" opacity=".252"/><rect x="448.45" y="534.87" width="1.7717" height="152.36" opacity=".252"/><rect x="464.45" y="534.87" width="1.7717" height="152.36" opacity=".252"/><rect x="480.45" y="534.87" width="1.7717" height="152.36" opacity=".252"/><rect x="496.45" y="534.87" width="1.7717" height="152.36" opacity=".252"/><rect x="512.45" y="534.87" width="1.7717" height="152.36" opacity=".252"/><rect x="544.45" y="534.87" width="1.7717" height="152.36" opacity=".252"/><rect x="560.45" y="534.87" width="1.7717" height="152.36" opacity=".252"/><rect x="576.45" y="534.87" width="1.7717" height="152.36" opacity=".252"/><rect x="592.45" y="534.87" width="1.7717" height="152.36" opacity=".252"/><rect x="608.45" y="534.87" width="1.7717" height="152.36" opacity=".252"/><rect x="624.45" y="534.87" width="1.7717" height="152.36" opacity=".252"/><rect x="640.45" y="534.87" width="1.7717" height="152.36" opacity=".252"/><rect x="656.45" y="534.87" width="1.7717" height="152.36" opacity=".252"/><rect x="672.45" y="534.87" width="1.7717" height="152.36" opacity=".252"/><rect x="688.45" y="534.87" width="1.7717" height="152.36" opacity=".252"/><rect x="704.45" y="534.87" width="1.7717" height="152.36" opacity=".252"/><rect x="736.45" y="534.87" width="1.7717" height="152.36" opacity=".252"/><rect x="752.45" y="534.87" width="1.7717" height="152.36" opacity=".252"/><rect x="768.45" y="534.87" width="1.7717" height="152.36" opacity=".252"/><rect x="784.45" y="534.87" width="1.7717" height="152.36" opacity=".252"/><rect x="800.45" y="534.87" width="1.7717" height="152.36" opacity=".252"/><rect x="816.45" y="534.87" width="1.7717" height="152.36" opacity=".252"/><rect x="832.45" y="534.87" width="1.7717" height="152.36" opacity=".252"/><rect x="848.45" y="534.87" width="1.7717" height="152.36" opacity=".252"/><rect x="864.45" y="534.87" width="1.7717" height="152.36" opacity=".252"/><rect x="880.45" y="534.87" width="1.7717" height="152.36" opacity=".252"/><rect x="896.45" y="534.87" width="1.7717" height="152.36" opacity=".252"/><rect x="928.45" y="534.87" width="1.7717" height="152.36" opacity=".252"/><rect x="944.45" y="534.87" width="1.7717" height="152.36" opacity=".252"/><rect x="960.45" y="534.87" width="1.7717" height="152.36" opacity=".252"/><rect x="976.45" y="534.87" width="1.7717" height="152.36" opacity=".252"/><rect x="992.45" y="534.87" width="1.7717" height="152.36" opacity=".252"/><rect x="1008.5" y="534.87" width="1.7717" height="152.36" opacity=".252"/><rect x="1024.5" y="534.87" width="1.7717" height="152.36" opacity=".252"/><rect x="1040.5" y="534.87" width="1.7717" height="152.36" opacity=".252"/><rect x="1056.5" y="534.87" width="1.7717" height="152.36" opacity=".252"/><rect x="1072.5" y="534.87" width="1.7717" height="152.36" opacity=".252"/><rect x="1088.5" y="534.87" width="1.7717" height="152.36" opacity=".252"/><rect x="1104.5" y="534.87" width="1.7717" height="173.62"/><rect x="1120.5" y="534.87" width="1.7717" height="152.36" opacity=".252"/><rect x="1136.5" y="534.87" width="1.7717" height="152.36" opacity=".252"/><rect x="1152.5" y="534.87" width="1.7717" height="152.36" opacity=".252"/><rect x="1168.5" y="534.87" width="1.7717" height="152.36" opacity=".252"/><rect x="1184.5" y="534.87" width="1.7717" height="152.36" opacity=".252"/><rect x="1200.5" y="534.87" width="1.7717" height="152.36" opacity=".252"/><rect x="1216.5" y="534.87" width="1.7717" height="152.36" opacity=".252"/><rect x="1232.5" y="534.87" width="1.7717" height="152.36" opacity=".252"/><rect x="1248.5" y="534.87" width="1.7717" height="152.36" opacity=".252"/><rect x="1264.5" y="534.87" width="1.7717" height="152.36" opacity=".252"/><rect x="1280.5" y="534.87" width="1.7717" height="152.36" opacity=".252"/><rect x="1296.5" y="534.87" width="1.7717" height="173.62"/><rect x="1312.4" y="534.87" width="1.7717" height="152.36" opacity=".252"/><rect x="1328.4" y="534.87" width="1.7717" height="152.36" opacity=".252"/><rect x="1344.4" y="534.87" width="1.7717" height="152.36" opacity=".252"/><rect x="1360.4" y="534.87" width="1.7717" height="152.36" opacity=".252"/><rect x="1376.4" y="534.87" width="1.7717" height="152.36" opacity=".252"/><rect x="1392.4" y="534.87" width="1.7717" height="152.36" opacity=".252"/><rect x="1408.4" y="534.87" width="1.7717" height="152.36" opacity=".252"/><rect x="1424.4" y="534.87" width="1.7717" height="152.36" opacity=".252"/><rect x="1440.4" y="534.87" width="1.7717" height="152.36" opacity=".252"/><rect x="1456.4" y="534.87" width="1.7717" height="152.36" opacity=".252"/><rect x="1472.4" y="534.87" width="1.7717" height="152.36" opacity=".252"/><rect x="1488.4" y="534.87" width="1.7717" height="173.62"/><rect x="1505.6" y="534.87" width="1.7717" height="152.36" opacity=".252"/><rect x="1521.6" y="534.87" width="1.7717" height="152.36" opacity=".252"/><rect x="1537.6" y="534.87" width="1.7717" height="152.36" opacity=".252"/><rect x="1553.6" y="534.87" width="1.7717" height="152.36" opacity=".252"/><rect x="1569.6" y="534.87" width="1.7717" height="152.36" opacity=".252"/><rect x="1585.6" y="534.87" width="1.7717" height="152.36" opacity=".252"/><rect x="1601.6" y="534.87" width="1.7717" height="152.36" opacity=".252"/><rect x="1617.6" y="534.87" width="1.7717" height="152.36" opacity=".252"/><rect x="1633.6" y="534.87" width="1.7717" height="152.36" opacity=".252"/><rect x="1649.6" y="534.87" width="1.7717" height="152.36" opacity=".252"/><rect x="1665.6" y="534.87" width="1.7717" height="152.36" opacity=".252"/><rect x="1681.6" y="534.87" width="1.7717" height="173.62"/><rect x="1698.7" y="534.87" width="1.7717" height="152.36" opacity=".252"/><rect x="1714.7" y="534.87" width="1.7717" height="152.36" opacity=".252"/><rect x="1730.7" y="534.87" width="1.7717" height="152.36" opacity=".252"/><rect x="1746.7" y="534.87" width="1.7717" height="152.36" opacity=".252"/><rect x="1762.7" y="534.87" width="1.7717" height="152.36" opacity=".252"/><rect x="1778.7" y="534.87" width="1.7717" height="152.36" opacity=".252"/><rect x="1794.7" y="534.87" width="1.7717" height="152.36" opacity=".252"/><rect x="1810.7" y="534.87" width="1.7717" height="152.36" opacity=".252"/><rect x="1826.7" y="534.87" width="1.7717" height="152.36" opacity=".252"/><rect x="1842.7" y="534.87" width="1.7717" height="152.36" opacity=".252"/><rect x="1858.7" y="534.87" width="1.7717" height="152.36" opacity=".252"/><rect x="1874.7" y="534.87" width="1.7717" height="173.62"/><rect x="1891.8" y="534.87" width="1.7717" height="152.36" opacity=".252"/><rect x="1907.8" y="534.87" width="1.7717" height="152.36" opacity=".252"/><rect x="1923.8" y="534.87" width="1.7717" height="152.36" opacity=".252"/><rect x="1939.8" y="534.87" width="1.7717" height="152.36" opacity=".252"/><rect x="1955.8" y="534.87" width="1.7717" height="152.36" opacity=".252"/><rect x="1971.8" y="534.87" width="1.7717" height="152.36" opacity=".252"/><rect x="1987.8" y="534.87" width="1.7717" height="152.36" opacity=".252"/><rect x="2003.8" y="534.87" width="1.7717" height="152.36" opacity=".252"/><rect x="2019.8" y="534.87" width="1.7717" height="152.36" opacity=".252"/><rect x="2035.8" y="534.87" width="1.7717" height="152.36" opacity=".252"/><rect x="2260.9" y="534.87" width="1.7717" height="173.62"/><rect x="2084.9" y="534.87" width="1.7717" height="152.36" opacity=".252"/><rect x="2100.9" y="534.87" width="1.7717" height="152.36" opacity=".252"/><rect x="2116.9" y="534.87" width="1.7717" height="152.36" opacity=".252"/><rect x="2132.9" y="534.87" width="1.7717" height="152.36" opacity=".252"/><rect x="2148.9" y="534.87" width="1.7717" height="152.36" opacity=".252"/><rect x="2164.9" y="534.87" width="1.7717" height="152.36" opacity=".252"/><rect x="2180.9" y="534.87" width="1.7717" height="152.36" opacity=".252"/><rect x="2196.9" y="534.87" width="1.7717" height="152.36" opacity=".252"/><rect x="2212.9" y="534.87" width="1.7717" height="152.36" opacity=".252"/><rect x="2228.9" y="534.87" width="1.7717" height="152.36" opacity=".252"/><rect x="2244.9" y="534.87" width="1.7717" height="152.36" opacity=".252"/><rect x="2278.1" y="534.87" width="1.7717" height="152.36" opacity=".252"/><rect x="2294.1" y="534.87" width="1.7717" height="152.36" opacity=".252"/><rect x="2310.1" y="534.87" width="1.7717" height="152.36" opacity=".252"/><rect x="2326.1" y="534.87" width="1.7717" height="152.36" opacity=".252"/><rect x="2342.1" y="534.87" width="1.7717" height="152.36" opacity=".252"/><rect x="2358.1" y="534.87" width="1.7717" height="152.36" opacity=".252"/><rect x="2374.1" y="534.87" width="1.7717" height="152.36" opacity=".252"/><rect x="2390.1" y="534.87" width="1.7717" height="152.36" opacity=".252"/><rect x="2406.1" y="534.87" width="1.7717" height="152.36" opacity=".252"/><rect x="2422.1" y="534.87" width="1.7717" height="152.36" opacity=".252"/><rect x="2438.1" y="534.87" width="1.7717" height="152.36" opacity=".252"/><rect x="2051.8" y="534.87" width="1.7717" height="152.36" opacity=".252"/><rect x="2067.8" y="534.87" width="1.7717" height="173.62"/></g><g transform="translate(267.65 369.81)" fill="#f9f9f9" font-family="sans-serif" stroke-width=".5"><g text-anchor="middle"><text x="276.42856" y="703.14569" text-align="center" style="line-height:0%" xml:space="preserve"><tspan x="276.42856" y="703.14569" font-family="sans-serif" font-size="12.5px" style="line-height:1.25">2024</tspan></text><text x="83.303558" y="703.14569" text-align="center" style="line-height:0%" xml:space="preserve"><tspan x="83.303558" y="703.14569" font-family="sans-serif" font-size="12.5px" style="line-height:1.25">2025</tspan></text><text x="-109.82143" y="703.14569" text-align="center" style="line-height:0%" xml:space="preserve"><tspan x="-109.82143" y="703.14569" font-family="sans-serif" font-size="12.5px" style="line-height:1.25">2026</tspan></text><text x="468" y="703.14569" text-align="center" style="line-height:0%" xml:space="preserve"><tspan x="468" y="703.14569" font-family="sans-serif" font-size="12.5px" style="line-height:1.25">2023</tspan></text><text x="660.71429" y="703.14569" text-align="center" style="line-height:0%" xml:space="preserve"><tspan x="660.71429" y="703.14569" font-family="sans-serif" font-size="12.5px" style="line-height:1.25">2022</tspan></text><text x="852.57141" y="703.14569" text-align="center" style="line-height:0%" xml:space="preserve"><tspan x="852.57141" y="703.14569" font-family="sans-serif" font-size="12.5px" style="line-height:1.25">2021</tspan></text><text x="1045.7144" y="703.14569" text-align="center" style="line-height:0%" xml:space="preserve"><tspan x="1045.7144" y="703.14569" font-family="sans-serif" font-size="12.5px" style="line-height:1.25">2020</tspan></text><text x="1237.7144" y="703.14569" text-align="center" style="line-height:0%" xml:space="preserve"><tspan x="1237.7144" y="703.14569" font-family="sans-serif" font-size="12.5px" style="line-height:1.25">2019</tspan></text></g><g font-size="12px"><text x="1425.2144" y="703.14569" text-align="center" text-anchor="middle" style="line-height:0%" xml:space="preserve"><tspan x="1425.2144" y="703.14569" font-family="sans-serif" font-size="12.5px" stroke-width=".5" style="line-height:1.25">2018</tspan></text><g><text x="1602.7772" y="703.14569" style="line-height:0%" xml:space="preserve"><tspan x="1602.7772" y="703.14569" font-family="sans-serif" font-size="12.5px" stroke-width=".5" style="line-height:1.25">2017</tspan></text><text x="1795.9022" y="703.14569" style="line-height:0%" xml:space="preserve"><tspan x="1795.9022" y="703.14569" font-family="sans-serif" font-size="12.5px" stroke-width=".5" style="line-height:1.25">2016</tspan></text><text x="1990.9022" y="703.14569" style="line-height:0%" xml:space="preserve"><tspan x="1990.9022" y="703.14569" font-family="sans-serif" font-size="12.5px" stroke-width=".5" style="line-height:1.25">2015</tspan></text><text x="2184.0271" y="703.14569" style="line-height:0%" xml:space="preserve"><tspan x="2184.0271" y="703.14569" font-family="sans-serif" font-size="12.5px" stroke-width=".5" style="line-height:1.25">2014</tspan></text><text x="2377.1521" y="703.14569" style="line-height:0%" xml:space="preserve"><tspan x="2377.1521" y="703.14569" font-family="sans-serif" font-size="12.5px" stroke-width=".5" style="line-height:1.25">2013</tspan></text></g></g></g><g transform="matrix(-.99839 0 0 1 2937.2 378.61)"><rect transform="scale(-1,1)" x="-384.19" y="520.87" width="127.76" height="35.433" fill="url(#u)"/><text transform="scale(-1,1)" x="-345.22824" y="541.99316" fill="#ffffff" font-family="sans-serif" stroke-width=".5" text-align="center" text-anchor="middle" style="line-height:0%" xml:space="preserve"><tspan x="-345.22824" y="541.99316" fill="#ffffff" font-family="sans-serif" font-size="12.5px" text-align="start" text-anchor="start" style="line-height:1.25">Eszter Bangó</tspan></text></g><g transform="matrix(-1 0 0 1 2937.6 378.49)"><rect transform="scale(-1,1)" x="-576.59" y="520.99" width="192.61" height="35.433" fill="url(#t)"/><text transform="scale(-1,1)" x="-464.50906" y="543.39392" fill="#ffffff" font-family="sans-serif" stroke-width=".5" style="line-height:0%" xml:space="preserve"><tspan x="-464.50906" y="543.39392" fill="#ffffff" font-family="sans-serif" font-size="12.5px" style="line-height:1.25">Kathi Lawall</tspan></text></g><g transform="matrix(-1.0494 0 0 1 2869.7 378.49)"><rect transform="scale(-1,1)" x="-1006.1" y="520.99" width="337.69" height="35.433" fill="url(#s)"/><text transform="scale(-1,1)" x="-774.14709" y="543.23218" fill="#ffffff" font-family="sans-serif" stroke-width=".5" style="line-height:0%" xml:space="preserve"><tspan x="-774.14709" y="543.23218" fill="#ffffff" font-family="sans-serif" font-size="12.5px" style="line-height:1.25">Massimo Toesca</tspan></text></g><g transform="matrix(-1 0 0 1 2937.6 394.44)"><rect transform="scale(-1,1)" x="-383.99" y="582.99" width="127.56" height="35.433" fill="url(#r)"/><text transform="scale(-1,1)" x="-348.38382" y="605.43359" fill="#ffffff" font-family="sans-serif" stroke-width=".5" text-align="center" text-anchor="middle" style="line-height:0%" xml:space="preserve"><tspan x="-348.38382" y="605.43359" fill="#ffffff" font-family="sans-serif" font-size="12.5px" text-align="start" text-anchor="start" style="line-height:1.25">Stefan Nikolić</tspan></text></g><g transform="matrix(-1 0 0 1 2937.6 387.47)"><rect transform="scale(-1,1)" x="-576.66" y="550.99" width="192.67" height="35.433" fill="url(#q)"/><text transform="scale(-1,1)" x="-482.37653" y="573.39392" fill="#ffffff" font-family="sans-serif" stroke-width=".5" text-align="center" text-anchor="middle" style="line-height:0%" xml:space="preserve"><tspan x="-482.37653" y="573.39392" fill="#ffffff" font-family="sans-serif" font-size="12.5px" text-align="start" text-anchor="start" style="line-height:1.25">Connor Russell</tspan></text></g><g transform="matrix(-1.0094 0 0 1 2878.4 387.47)"><rect transform="scale(-1,1)" x="-816.05" y="550.99" width="303.28" height="35.433" fill="url(#n)"/><text transform="scale(-1,1)" x="-635.38947" y="573.39392" fill="#ffffff" font-family="sans-serif" stroke-width=".5" text-align="center" text-anchor="middle" style="line-height:0%" xml:space="preserve"><tspan x="-635.38947" y="573.39392" fill="#ffffff" font-family="sans-serif" font-size="12.5px" text-align="start" text-anchor="start" style="line-height:1.25">Maarten Veldmans</tspan></text></g><g transform="matrix(-1.9427 0 0 1 3467.5 387.47)"><rect transform="scale(-1,1)" x="-1032.8" y="550.99" width="305.69" height="35.433" fill="url(#o)"/><text transform="scale(-.73493 1.3607)" x="-1058.1208" y="421.03906" fill="#ffffff" font-family="sans-serif" font-size="10.549px" stroke-width=".43953" text-align="center" text-anchor="middle" style="line-height:0%" xml:space="preserve"><tspan x="-1058.1208" y="421.03906" fill="#ffffff" font-family="sans-serif" font-size="9.1866px" stroke-width=".43953" text-align="start" text-anchor="start" style="line-height:1.25">Tony Redondo</tspan></text></g><g transform="matrix(-.99446 0 0 1 2936.2 387.47)"><rect transform="scale(-1,1)" x="-384.7" y="550.99" width="128.27" height="35.433" fill="url(#m)"/><text transform="scale(-1,1)" x="-362.77847" y="573.39392" fill="#ffffff" font-family="sans-serif" stroke-width=".5" text-align="center" text-anchor="middle" style="line-height:0%" xml:space="preserve"><tspan x="-362.77847" y="573.39392" fill="#ffffff" font-family="sans-serif" font-size="12.5px" text-align="start" text-anchor="start" style="line-height:1.25">Christian Niksch</tspan></text></g><g transform="matrix(-1 0 0 1 2950.1 394.44)"><rect transform="scale(-1,1)" x="-589.6" y="582.99" width="193.17" height="35.433" fill="url(#l)"/><text transform="scale(-1,1)" x="-507.90897" y="605.43359" fill="#ffffff" font-family="sans-serif" stroke-width=".5" text-align="center" text-anchor="middle" style="line-height:0%" xml:space="preserve"><tspan x="-507.90897" y="605.43359" fill="#ffffff" font-family="sans-serif" font-size="12.5px" text-align="start" text-anchor="start" style="line-height:1.25">Almudena García</tspan></text></g><g transform="matrix(-1.0032 0 0 1 2830.5 394.61)"><rect transform="scale(-1,1)" x="-884.51" y="582.99" width="223.99" height="35.433" fill="url(#k)"/><text transform="scale(-1,1)" x="-784.7478" y="604.90051" fill="#ffffff" font-family="sans-serif" stroke-width=".5" text-align="center" text-anchor="middle" style="line-height:0%" xml:space="preserve"><tspan x="-784.7478" y="604.90051" fill="#ffffff" font-family="sans-serif" font-size="12.5px" text-align="start" text-anchor="start" style="line-height:1.25">Rosanna Hutchings</tspan></text></g><g transform="matrix(-1.0832 0 0 1 2829.5 394.61)"><rect transform="scale(-1,1)" x="-1086.1" y="582.99" width="267.96" height="35.433" fill="url(#j)"/><text transform="scale(-1,1)" x="-923.29688" y="604.73877" fill="#ffffff" font-family="sans-serif" stroke-width=".5" text-align="center" text-anchor="middle" style="line-height:0%" xml:space="preserve"><tspan x="-923.29688" y="604.73877" fill="#ffffff" font-family="sans-serif" font-size="12.5px" text-align="start" text-anchor="start" style="line-height:1.25">George Koniotis</tspan></text></g><g transform="matrix(-1.0087 0 0 1 2784.4 394.44)"><rect transform="scale(-1,1)" x="-611.11" y="582.99" width="191.15" height="35.433" fill="url(#i)"/><text transform="scale(-1,1)" x="-517.92566" y="605.39392" fill="#ffffff" font-family="sans-serif" stroke-width=".5" text-align="center" text-anchor="middle" style="line-height:0%" xml:space="preserve"><tspan x="-517.92566" y="605.39392" fill="#ffffff" font-family="sans-serif" font-size="12.5px" text-align="start" text-anchor="start" style="line-height:1.25">Iva Kovandova</tspan></text></g><g transform="matrix(-1.0074 0 0 1 2740.4 348.49)"><rect transform="scale(-1,1)" x="-567.89" y="550.99" width="190.99" height="35.433" fill="url(#h)"/><text transform="scale(-1,1)" x="-476.20996" y="573.39392" fill="#ffffff" font-family="sans-serif" stroke-width=".5" text-align="center" text-anchor="middle" style="line-height:0%" xml:space="preserve"><tspan x="-476.20996" y="573.39392" fill="#ffffff" font-family="sans-serif" font-size="12.5px" text-align="start" text-anchor="start" style="line-height:1.25">Connor Russell</tspan></text></g><g transform="matrix(-1.0457 0 0 1 2516 378.08)"><rect transform="scale(-1,1)" x="-901.56" y="521.4" width="229.97" height="35.433" fill="url(#p)"/><text transform="scale(-1,1)" x="-788.55206" y="544.23468" fill="#ffffff" font-family="sans-serif" stroke-width=".5" style="line-height:0%" xml:space="preserve"><tspan x="-788.55206" y="544.23468" fill="#ffffff" font-family="sans-serif" font-size="12.5px" style="line-height:1.25">Dominik Stengele</tspan></text></g><g transform="matrix(-1.0338 0 0 1 2264 378.08)"><rect transform="scale(-1,1)" x="-776.86" y="521.4" width="108.43" height="35.433" fill="url(#ad)"/><text transform="scale(-1,1)" x="-772.74683" y="543.06995" fill="#ffffff" font-family="sans-serif" stroke-width=".5" style="line-height:0%" xml:space="preserve"><tspan x="-772.74683" y="543.06995" fill="#ffffff" font-family="sans-serif" font-size="12.5px" style="line-height:1.25">Jordy Gennissen</tspan></text></g><g transform="matrix(-1.0343 0 0 1 2152.1 378.08)"><rect transform="scale(-1,1)" x="-946.69" y="521.23" width="278.4" height="35.635" fill="url(#e)" stroke-width=".85724"/><text transform="scale(-.96438 1.0369)" x="-824.7901" y="523.72308" fill="#ffffff" font-family="sans-serif" font-size="11.572px" stroke-width=".48219" style="line-height:0%" xml:space="preserve"><tspan x="-824.7901" y="523.72308" fill="#ffffff" font-family="sans-serif" font-size="12.055px" stroke-width=".48219" style="line-height:1.25">Carlotta Andrea Caiti</tspan></text></g><g transform="matrix(-1.0415 0 0 1 2156.8 417.06)"><rect transform="matrix(-1 0 0 1 1.3353e-5 -2.9594e-6)" x="-944.78" y="521.63" width="276.49" height="35.635" fill="url(#d)" stroke-width=".8543"/><text transform="scale(-1,1)" x="-747.25623" y="544.94495" fill="#ffffff" font-family="sans-serif" stroke-width=".5" style="line-height:0%" xml:space="preserve"><tspan x="-747.25623" y="544.94495" fill="#ffffff" font-family="sans-serif" font-size="12.5px" style="line-height:1.25">Andrea Aita</tspan></text></g><g transform="matrix(-1.0447 0 0 1 2098.1 456.21)"><rect transform="scale(-1,1)" x="-885.54" y="521.4" width="199.17" height="35.433" fill="url(#ae)"/><text transform="scale(-1,1)" x="-796.76111" y="543.06995" fill="#ffffff" font-family="sans-serif" stroke-width=".5" style="line-height:0%" xml:space="preserve"><tspan x="-796.76111" y="543.06995" fill="#ffffff" font-family="sans-serif" font-size="12.5px" style="line-height:1.25">Veronica de Vera</tspan></text></g><g transform="matrix(-2.4051 0 0 1 2925.6 387.47)"><rect transform="scale(-1,1)" x="-1221" y="550.99" width="492.32" height="35.433" fill="url(#aa)"/><text transform="scale(-.6538 1.5295)" x="-1177.3204" y="374.55948" fill="#ffffff" font-family="sans-serif" font-size="9.3843px" stroke-width=".39101" text-align="center" text-anchor="middle" style="line-height:0%" xml:space="preserve"><tspan x="-1177.3204" y="374.55948" fill="#ffffff" font-family="sans-serif" font-size="8.1724px" stroke-width=".39101" text-align="start" text-anchor="start" style="line-height:1.25">Tony Redondo</tspan></text></g><g transform="matrix(-1.0447 0 0 1 1890.2 377.92)"><rect transform="scale(-1,1)" x="-946.99" y="521.4" width="260.39" height="35.433" fill="url(#z)"/><text transform="scale(-1,1)" x="-796.76111" y="543.06995" fill="#ffffff" font-family="sans-serif" stroke-width=".5" style="line-height:0%" xml:space="preserve"><tspan x="-796.76111" y="543.06995" fill="#ffffff" font-family="sans-serif" font-size="12.5px" style="line-height:1.25">Veronica de Vera</tspan></text></g><g transform="matrix(-1.9125 0 0 1 2851.5 465.42)"><rect transform="scale(-1,1)" x="-877.77" y="551.08" width="150.63" height="35.283" fill="url(#c)" stroke-width=".62744"/><text transform="scale(-.73493 1.3607)" x="-1058.1418" y="421.03906" fill="#ffffff" font-family="sans-serif" font-size="10.549px" stroke-width=".43953" text-align="center" text-anchor="middle" style="line-height:0%" xml:space="preserve"><tspan x="-1058.1418" y="421.03906" fill="#ffffff" font-family="sans-serif" font-size="9.1866px" stroke-width=".43953" text-align="start" text-anchor="start" style="line-height:1.25">Tony Redondo</tspan></text></g><g transform="matrix(-1.9427 0 0 1 2588.8 465.42)"><rect transform="scale(-1,1)" x="-868.82" y="550.99" width="139.85" height="35.433" fill="url(#y)"/><text transform="scale(-.711 1.4065)" x="-1122.0264" y="407.33066" fill="#ffffff" font-family="sans-serif" font-size="10.205px" stroke-width=".42522" text-align="center" text-anchor="middle" style="line-height:0%" xml:space="preserve"><tspan x="-1122.0264" y="407.33066" fill="#ffffff" font-family="sans-serif" font-size="8.8875px" stroke-width=".42522" text-align="start" text-anchor="start" style="line-height:1.25">Carlotta Andrea Caiti</tspan></text></g><g transform="matrix(-1.0447 0 0 1 1890 456.21)"><rect transform="scale(-1,1)" x="-946.8" y="521.4" width="260.43" height="35.433" fill="url(#x)"/><text transform="scale(-1,1)" x="-768.80591" y="543.06995" fill="#ffffff" font-family="sans-serif" stroke-width=".5" style="line-height:0%" xml:space="preserve"><tspan x="-768.80591" y="543.06995" fill="#ffffff" font-family="sans-serif" font-size="12.5px" style="line-height:1.25">Perry Mason</tspan></text></g><rect x="597.1" y="977.6" width="303.77" height="35.444" fill="url(#f)" stroke-width=".24129"/><text transform="scale(1.0014 .99863)" x="765.43256" y="1000.8902" fill="#ffffff" font-family="sans-serif" font-size="14.373px" stroke-width=".59889" text-align="center" text-anchor="middle" style="line-height:0%" xml:space="preserve"><tspan x="765.43256" y="1000.8902" fill="#ffffff" font-family="sans-serif" font-size="12.517px" stroke-width=".59889" text-align="start" text-anchor="start" style="line-height:1.25">Carlotta Andrea Caiti</tspan></text><g transform="matrix(-1.0447 0 0 1 1616 377.92)"><rect transform="scale(-1,1)" x="-975.34" y="521.4" width="290.55" height="35.433" fill="url(#w)"/><text transform="scale(-1,1)" x="-754.01099" y="543.06995" fill="#ffffff" font-family="sans-serif" stroke-width=".5" style="line-height:0%" xml:space="preserve"><tspan x="-754.01099" y="543.06995" fill="#ffffff" font-family="sans-serif" font-size="12.5px" style="line-height:1.25">Kuba Jugo</tspan></text></g><g><rect x="212.84" y="977.6" width="384.09" height="35.433" fill="url(#v)"/><text transform="scale(1.0243 .97623)" x="457.95554" y="1023.85" fill="#ffffff" font-family="sans-serif" font-size="14.703px" stroke-width=".61263" text-align="center" text-anchor="middle" style="line-height:0%" xml:space="preserve"><tspan x="457.95554" y="1023.85" fill="#ffffff" font-family="sans-serif" font-size="12.804px" stroke-width=".61263" text-align="start" text-anchor="start" style="line-height:1.25">Francesca Dell'Oro</tspan></text></g><g transform="translate(-384.09)"><rect x="373.02" y="977.6" width="223.91" height="35.433" fill="url(#b)"/><text transform="scale(1.0243 .97623)" x="514.69928" y="1023.85" fill="#ffffff" font-family="sans-serif" font-size="14.703px" stroke-width=".61263" text-align="center" text-anchor="middle" style="line-height:0%" xml:space="preserve"><tspan x="514.69928" y="1023.85" fill="#ffffff" font-family="sans-serif" font-size="12.804px" stroke-width=".61263" text-align="start" text-anchor="start" style="line-height:1.25">Kuz Shah</tspan></text></g><g transform="translate(-384.09 -78.291)"><rect x="373.02" y="977.6" width="223.91" height="35.433" fill="url(#b)"/><text transform="scale(1.0243 .97623)" x="514.69928" y="1023.85" fill="#ffffff" font-family="sans-serif" font-size="14.703px" stroke-width=".61263" text-align="center" text-anchor="middle" style="line-height:0%" xml:space="preserve"><tspan x="514.69928" y="1023.85" fill="#ffffff" font-family="sans-serif" font-size="12.804px" stroke-width=".61263" text-align="start" text-anchor="start" style="line-height:1.25">Kuz Shah</tspan></text></g><g><rect x="212.84" y="899.31" width="384.09" height="35.433" fill="url(#g)"/><text transform="scale(1.0243 .97623)" x="457.95377" y="943.65271" fill="#ffffff" font-family="sans-serif" font-size="14.703px" stroke-width=".61263" text-align="center" text-anchor="middle" style="line-height:0%" xml:space="preserve"><tspan x="457.95377" y="943.65271" fill="#ffffff" font-family="sans-serif" font-size="12.804px" stroke-width=".61263" text-align="start" text-anchor="start" style="line-height:1.25">Francesca Dell'Oro</tspan></text></g><g transform="matrix(-1.0447 0 0 1 2351.3 456.21)"><rect transform="matrix(-1 0 0 1 .064323 39.012)" x="-745.07" y="482.38" width="76.639" height="35.433" fill="url(#af)"/><text transform="scale(-1,1)" x="-676.01929" y="535.61053" fill="#ffffff" font-family="sans-serif" font-size="12.5px" letter-spacing="0px" stroke-width=".5" text-align="end" text-anchor="end" style="line-height:0%" xml:space="preserve"><tspan x="-676.01929" y="535.61053" dy="2" text-align="end" style="line-height:1.25">Manuela</tspan><tspan x="-676.01929" y="551.23553" text-align="end" style="line-height:1.25">Vitello</tspan></text></g><g transform="matrix(-1.1148 0 0 1 2317.9 456.21)"><rect transform="scale(-1,1)" x="-840.35" y="521.4" width="171.92" height="35.433" fill="url(#ac)"/><text transform="scale(-.96035 1.0413)" x="-790.02563" y="521.55804" fill="#ffffff" font-family="sans-serif" font-size="11.524px" stroke-width=".48018" style="line-height:0%" xml:space="preserve"><tspan x="-790.02563" y="521.55804" fill="#ffffff" font-family="sans-serif" font-size="12.004px" letter-spacing="0px" stroke-width=".48018" style="line-height:1.25">Hanna Volchak</tspan></text></g><g transform="matrix(-1.0447 0 0 1 2351.3 495.22)"><rect transform="scale(-1,1)" x="-745.07" y="521.19" width="76.639" height="35.433" fill="url(#ab)"/><text transform="scale(-1,1)" x="-675.86096" y="535.61053" fill="#ffffff" font-family="sans-serif" font-size="12.5px" letter-spacing="0px" stroke-width=".5" text-align="end" text-anchor="end" style="line-height:0%" xml:space="preserve"><tspan x="-675.86096" y="535.61053" text-align="end" style="line-height:1.25">Jordy</tspan><tspan x="-675.86096" y="551.23553" text-align="end" style="line-height:1.25">Gennissen</tspan></text></g><g fill="#f9f9f9"><rect x="2680.7" y="899.48" width="1.7717" height="173.62"/><text x="-49.866512" y="921.88452" font-family="'Colonna MT'" stroke-width=".5" text-align="center" text-anchor="middle" style="line-height:0%" xml:space="preserve"><tspan x="-49.866512" y="921.88452" font-family="sans-serif" font-size="12.5px" style="line-height:1.25">President</tspan></text><g font-family="sans-serif" stroke-width=".5"><text x="-50.659969" y="960.57404" text-align="center" text-anchor="middle" style="line-height:0%" xml:space="preserve"><tspan x="-50.659969" y="960.57404" font-family="sans-serif" font-size="12.5px" style="line-height:1.25">Treasurer</tspan></text><text x="-50.809498" y="998.17407" text-align="center" text-anchor="middle" style="line-height:0%" xml:space="preserve"><tspan x="-50.809498" y="998.17407" font-family="sans-serif" font-size="12.5px" style="line-height:1.25">Secretary</tspan></text><text x="-67.600281" y="1036.0909" font-size="12px" style="line-height:0%" xml:space="preserve"><tspan x="-67.600281" y="1036.0909" font-family="sans-serif" font-size="12.5px" stroke-width=".5" style="line-height:1.25">Advisor</tspan></text></g><rect x="-12.889" y="899.48" width="1.7717" height="173.62"/></g></g></svg>
