<svg xmlns:rdf="http://www.w3.org/1999/02/22-rdf-syntax-ns#" xmlns="http://www.w3.org/2000/svg" height="118.7mm" width="363.9mm" version="1.1" xmlns:cc="http://creativecommons.org/ns#" xmlns:dc="http://purl.org/dc/elements/1.1/" viewBox="0 0 1289.3171 420.53899">
	<g fill="#1468b3" transform="translate(156.1 -636.4)">
		<g fill="#1468b3" transform="translate(-1021 -68.72)">
			<polygon points="2154 869.2 2008 869.2 2008 891.6 2154 891.6 2154 976.4 1918 976.3 1918 807.7 2154 807.7"/>
			<rect height="79.62" width="236.1" y="705.1" x="1918"/>
			<polygon points="1894 869.2 1748 869.2 1748 891.6 1894 891.6 1894 976.4 1658 976.3 1658 807.7 1894 807.7"/>
			<rect height="79.62" width="236.1" y="705.1" x="1658"/>
			<path d="m1556 976.3h-156.7v-168.6h88.98v83.92h58.65v-22.52h-34.84v-61.4h123.5v89c0.001 43.96-35.64 79.61-79.62 79.61z"/>
			<path d="m1479 705.1c-43.97 0-79.62 35.65-79.62 79.62h236.3v-79.62h-156.7z"/>
			<polygon points="984.5 856.4 1009 782.2 1034 856.4 1114 856.4 1063 705.1 955.2 705.1 864.7 976.3 1375 976.4 1375 891.6 1229 891.6 1229 869.2 1375 869.2 1375 807.7 1139 807.7 1139 933.6 1114 856.4 1049 902.2 1074 976.4 1009 930.5 944.7 976.4 969.3 902.2 904.8 856.4"/>
			<rect height="79.62" width="236.1" y="705.1" x="1139"/>
			<g transform="translate(1499 1123)">
				<g fill="#1468b3" transform="scale(.155)">
					<path d="m78 0h473v80h-378v634h-95z" transform="scale(1,-1)"/>
					<path d="m133 357c0 144 73 294 247 294s247-150 247-294-73-294-247-294-247 150-247 294m-95 0c0-195 115-374 342-374s342 179 342 374-115 374-342 374-342-179-342-374z" transform="matrix(1,0,0,-1,556,0)"/>
					<path d="m77 0h90v573h2l373-573h104v714h-90v-579h-2l-376 579h-101z" transform="matrix(1,0,0,-1,1316,0)"/>
					<path d="m173 634h160c175 0 238-103 238-273 0-263-175-281-240-281h-158m-95-80h245c238 0 343 135 343 374 0 229-123 340-343 340h-245z" transform="matrix(1,0,0,-1,2038,0)"/>
					<path d="m133 357c0 144 73 294 247 294s247-150 247-294-73-294-247-294-247 150-247 294m-95 0c0-195 115-374 342-374s342 179 342 374-115 374-342 374-342-179-342-374z" transform="matrix(1,0,0,-1,2742,0)"/>
					<path d="m77 0h90v573h2l373-573h104v714h-90v-579h-2l-376 579h-101z" transform="matrix(1,0,0,-1,3502,0)"/>
				</g>
			</g>
		</g>
	</g>
</svg>
