<?xml version="1.0" encoding="UTF-8"?>
<!DOCTYPE svg PUBLIC "-//W3C//DTD SVG 1.1//EN" "http://www.w3.org/Graphics/SVG/1.1/DTD/svg11.dtd">
<svg xmlns="http://www.w3.org/2000/svg" xml:space="preserve" width="61.6227mm" height="103.872mm" version="1.1" viewBox="0 0 1431 2411" xmlns:xlink="http://www.w3.org/1999/xlink">
  <path fill="white" d="M958 1753l-486 0c-53,0 -96,-32 -96,-72 0,-78 -134,-435 -246,-625 -28,-37 -52,-77 -72,-120l0 0c-37,-81 -58,-171 -58,-265 0,-371 320,-671 715,-671 395,0 716,300 716,671 0,94 -22,184 -59,265 -19,43 -43,83 -71,120 -112,190 -246,547 -246,625 0,40 -43,72 -97,72zm-116 658l-254 0c-33,-1 -59,-28 -59,-61 0,-34 27,-62 61,-62l250 0c34,0 62,28 62,62 0,33 -27,60 -60,61zm131 -213l-515 0c-46,0 -82,-29 -82,-65 0,-36 36,-65 82,-65l515 0c45,0 82,29 82,65 0,36 -37,65 -82,65zm0 -221l-515 0c-46,0 -82,-29 -82,-65 0,-36 36,-65 82,-65l515 0c45,0 82,29 82,65 0,36 -37,65 -82,65zm458 -1306l0 0z"/>
</svg>
