<?xml version="1.0" encoding="UTF-8"?>
<!DOCTYPE svg PUBLIC "-//W3C//DTD SVG 1.1//EN" "http://www.w3.org/Graphics/SVG/1.1/DTD/svg11.dtd">
<svg xmlns="http://www.w3.org/2000/svg" xml:space="preserve" width="110.634mm" height="91.8865mm" version="1.1" viewBox="0 0 16164 13424" xmlns:xlink="http://www.w3.org/1999/xlink">
  <path fill="white" d="M13403 2472l1414 0c140,0 287,42 446,126 157,84 302,191 437,322 133,129 244,272 332,425 87,155 132,297 132,427l0 8326c0,168 -45,331 -132,489 -88,158 -201,300 -340,425 -139,126 -290,226 -458,301 -165,75 -328,111 -484,111l-1347 0 0 -10952zm-6771 0l2927 0 0 -1635 -2927 0 0 1635zm-3010 14l2178 0 0 -1718c0,-75 25,-155 77,-245 49,-87 116,-171 193,-251 79,-78 165,-144 258,-195 91,-51 175,-77 250,-77l3010 0c83,0 174,26 270,77 97,51 183,117 257,195 74,80 136,168 188,266 51,98 75,188 75,273l0 1675 2165 0 0 10938 -8921 0 0 -10938zm-848 -14l0 10952 -1331 0c-157,0 -321,-36 -490,-111 -173,-75 -328,-175 -467,-301 -138,-125 -254,-267 -345,-425 -94,-158 -141,-321 -141,-489l0 -8326c0,-140 47,-286 141,-439 91,-155 207,-295 345,-421 139,-126 290,-230 451,-314 163,-84 312,-126 453,-126l1384 0z"/>
</svg>
