<?xml version="1.0" encoding="UTF-8"?>
<!DOCTYPE svg PUBLIC "-//W3C//DTD SVG 1.1//EN" "http://www.w3.org/Graphics/SVG/1.1/DTD/svg11.dtd">
<!-- Creator: CorelDRAW X8 -->
<svg xmlns="http://www.w3.org/2000/svg" xml:space="preserve" width="107.623mm" height="115.057mm" version="1.1" style="shape-rendering:geometricPrecision; text-rendering:geometricPrecision; image-rendering:optimizeQuality; fill-rule:evenodd; clip-rule:evenodd"
viewBox="0 0 2940 3143"
 xmlns:xlink="http://www.w3.org/1999/xlink">
  <path fill="white" d="M1457 906c248,0 449,-203 449,-453 0,-251 -201,-453 -449,-453 -249,0 -450,202 -450,453 0,250 201,453 450,453zm-1453 2237l2936 0 0 -129 -2936 0 0 129zm1443 -644l0 0 519 -173 -12 -3c-358,-105 -219,-582 139,-476l49 17 0 -537 -695 228 -696 -228 0 537 49 -17c358,-106 498,370 139,476l-11 3 519 173zm447 -1483c205,8 292,174 292,174l664 917c27,41 43,90 43,144 0,143 -115,258 -256,258 -34,0 -65,-7 -94,-18l-401 -113 0 403 -1391 0 0 -403 -401 112c-28,12 -60,19 -94,19 -141,0 -256,-115 -256,-258 0,-54 16,-103 45,-144l663 -917c0,0 87,-166 292,-174l894 0 0 0z"/>
</svg>
