<?xml version="1.0" encoding="UTF-8"?>
<!DOCTYPE svg PUBLIC "-//W3C//DTD SVG 1.1//EN" "http://www.w3.org/Graphics/SVG/1.1/DTD/svg11.dtd">
<!-- Creator: CorelDRAW X8 -->
<svg xmlns="http://www.w3.org/2000/svg" xml:space="preserve" width="137.206mm" height="69.1804mm" version="1.1" style="shape-rendering:geometricPrecision; text-rendering:geometricPrecision; image-rendering:optimizeQuality; fill-rule:evenodd; clip-rule:evenodd"
viewBox="0 0 4709 2374"
 xmlns:xlink="http://www.w3.org/1999/xlink">
  <path fill="white" d="M3580 2374l1 -20c0,-287 -99,-551 -265,-760l-204 204c115,156 182,348 182,556l0 20 286 0zm584 0l1 -20c0,-448 -163,-859 -434,-1175l-193 193c222,267 355,609 355,982l-1 20 272 0zm545 0l0 -20c0,-598 -224,-1145 -592,-1560l-186 185c321,368 516,849 516,1375l-1 20 263 0zm-1731 0c0,-6 0,-13 0,-20 0,-344 -279,-623 -624,-623 -344,0 -623,279 -623,623 0,7 0,14 0,20l1247 0zm958 -1763c-418,-380 -973,-611 -1582,-611 -609,0 -1163,231 -1581,611l185 185c371,-332 860,-534 1396,-534 537,0 1026,202 1397,534l185 -185zm-3344 183c-368,415 -592,962 -592,1560l0 20 262 0 0 -20c0,-526 195,-1007 516,-1375l-186 -185zm2959 202c-319,-281 -738,-452 -1197,-452 -458,0 -877,171 -1196,452l193 193c269,-233 620,-373 1003,-373 384,0 735,140 1004,373l193 -193zm-2574 183c-270,316 -433,727 -433,1175l0 20 272 0 0 -20c0,-373 133,-715 354,-982l-193 -193zm2160 231c-213,-176 -485,-282 -783,-282 -297,0 -570,106 -782,282l204 204c159,-125 360,-199 578,-199 219,0 419,74 579,199l204 -204zm-1745 184c-165,209 -264,473 -264,760l1 20 286 0 0 -20c0,-208 67,-400 182,-556l-205 -204z"/>
</svg>
