<?xml version="1.0" encoding="UTF-8"?>
<!DOCTYPE svg PUBLIC "-//W3C//DTD SVG 1.1//EN" "http://www.w3.org/Graphics/SVG/1.1/DTD/svg11.dtd">
<!-- Creator: CorelDRAW X8 -->
<svg xmlns="http://www.w3.org/2000/svg" xml:space="preserve" width="122.304mm" height="86.2846mm" version="1.1" viewBox="0 0 8189 5778" xmlns:xlink="http://www.w3.org/1999/xlink">
  <path fill="white" d="M611 2830l0 -754 6893 -1782 0 2536 0 2536 -6893 -1782 0 -754zm4064 2937l-2173 -580c-173,-47 -277,-226 -230,-399l141 -531 253 68 -117 440c-20,75 25,152 99,172l2025 541c74,19 152,-25 172,-100l117 -440 253 67 -142 531c-46,173 -225,277 -398,231zm-4470 -3730l0 0c113,0 205,92 205,204l0 1177c0,113 -92,205 -205,205l0 0c-113,0 -205,-92 -205,-205l0 -1177c0,-112 92,-204 205,-204zm7780 -2037l0 0c112,0 204,92 204,205l0 5250c0,112 -92,204 -204,204l0 0c-113,0 -205,-92 -205,-204l0 -5250c0,-113 92,-205 205,-205z"/>
</svg>
