<svg fill="#000000" xmlns="http://www.w3.org/2000/svg" xmlns:xlink="http://www.w3.org/1999/xlink" version="1.1" x="0px" y="0px" viewBox="0 0 16 16" style="enable-background:new 0 0 16 16;" xml:space="preserve"><g fill="white"><path d="M15.089,2.083l-1.172-1.172c-1.105-1.104-2.903-1.103-4.006,0l-2.19,2.19c0.635,0.033,1.258,0.21,1.829,0.526l1.539-1.539   c0.455-0.454,1.195-0.454,1.65,0l1.172,1.172c0.219,0.219,0.339,0.512,0.339,0.825s-0.12,0.606-0.339,0.825L9.325,9.496   C8.87,9.951,8.129,9.95,7.674,9.497L7.088,8.911c-0.325-0.325-0.853-0.325-1.178,0c-0.326,0.325-0.326,0.853,0,1.178l0.586,0.586   c0.552,0.552,1.277,0.828,2.003,0.828c0.725,0,1.451-0.276,2.003-0.828l4.586-4.586C16.193,4.984,16.193,3.188,15.089,2.083z"/><path d="M4.911,13.911c-0.455,0.455-1.195,0.455-1.65,0l-1.171-1.172c-0.455-0.455-0.455-1.195,0-1.65l4.585-4.586   c0.455-0.454,1.195-0.455,1.65,0l0.586,0.586c0.326,0.325,0.854,0.325,1.178,0c0.325-0.326,0.325-0.853,0-1.178L9.502,5.324   c-1.103-1.103-2.901-1.104-4.005,0L0.911,9.911c-1.104,1.104-1.104,2.9,0,4.006l1.172,1.172c0.533,0.533,1.245,0.827,2.003,0.827   s1.47-0.294,2.003-0.827l2.191-2.19c-0.635-0.033-1.258-0.211-1.83-0.526L4.911,13.911z"/></g></svg>
